
CASCADE Topology V1, (c) Matra-Datavision
Locations 0
Curve2ds 4
1 0 0 1 0 
1 0 6.2831853071795862 1 0 
1 6.2831853071795862 -0 0 1 
1 0 -0 0 1 
Curves 2
2 -3.6739403974420594e-16 0 0 1 0 0 -0 0 1 0 -1 0 3.5
2 0 4.8985871965894128e-16 2 0 1 -2.4492935982947064e-16 0 2.4492935982947064e-16 1 1 0 0 1.5
Polygon3D 0
PolygonOnTriangulations 0
Surfaces 1
5 0 0 0 1 0 0 -0 0 1 0 -1 0 2 1.5
Triangulations 0

TShapes 8
Ve
1e-07
-3.67394039744206e-16 8.57252759403147e-16 3.5
0 0

0101101
*
Ed
 1e-07 1 1 0
1  1 0 0 6.28318530717959
3  1 2CN 1 0 0 6.28318530717959
0

0101000
+8 0 -8 0 *
Ed
 1e-07 1 1 0
1  2 0 0 6.28318530717959
3  3 4CN 1 0 0 6.28318530717959
0

0101000
+8 0 -8 0 *
Wi

0101000
-7 0 +6 0 +7 0 -6 0 *
Fa
0  1e-07 1 0

0111000
+5 0 *
Sh

0101100
+4 0 *
So

0100100
+3 0 *
Co

1100000
+2 0 *

+1 0 