DBRep_DrawableShape

CASCADE Topology V1, (c) Matra-Datavision
Locations 3
1
              1               0               0               0 
              0               1               0               0 
              0               0               1               0 
1
              1               0               0               0 
              0               1               0               0 
              0               0               1           0.005 
2  1 1 2 1 0
Curve2ds 6
1 0 0.00050000000000000001 1 0 
2 0 0 1 0 -0 1 0.01
1 6.2831853071795862 -0 0 1 
1 0 -0 0 1 
1 0 0 1 0 
2 0 0 1 0 -0 1 0.01
Curves 3
2 0 0 0.00050000000000000001 0 0 1 1 0 -0 -0 1 0 0.01
1 0.01 -2.4492127076447545e-18 0 0 0 1 
2 0 0 0 0 0 1 1 0 -0 -0 1 0 0.01
Polygon3D 0
PolygonOnTriangulations 0
Surfaces 3
2 0 0 0 0 0 1 1 0 -0 -0 1 0 0.01
1 0 0 0.00050000000000000001 0 0 1 1 0 -0 -0 1 0 
1 0 0 0 0 0 1 1 0 -0 -0 1 0 
Triangulations 0

TShapes 13
Ve
1e-05
0.01 -2.44921270764475e-18 0.0005
0 0

0101101
*
Ed
 1e-05 1 1 0
1  1 0 0 6.28318530717959
2  1 1 0 0 6.28318530717959
2  2 2 0 0 6.28318530717959
0

0101100
+13 0 -13 0 *
Ve
1e-05
0.01 -2.44921270764475e-18 0
0 0

0101101
*
Ed
 1e-05 1 1 0
1  2 0 0 0.0005
3  3 4CN 1 0 0 0.0005
0

0101000
-13 0 +11 0 *
Ed
 1e-05 1 1 0
1  3 0 0 6.28318530717959
2  5 1 0 0 6.28318530717959
2  6 3 0 0 6.28318530717959
0

0101100
+11 0 -11 0 *
Wi

0101000
-12 0 +10 0 +9 0 -10 0 *
Fa
0  1e-05 1 0

0111000
+8 0 *
Wi

0101000
+12 0 *
Fa
0  1e-05 2 0

0111000
+6 0 *
Wi

0101000
-9 0 *
Fa
0  1e-05 3 0

0111000
-4 0 *
Sh

0101100
+7 0 +5 0 -3 0 *
So

1100100
+2 0 *

+1 3 
0

