Merge 'falcon1.stl';

Point(201) = {-30.0,30.0,15.0,0.1};
Point(202) = {-30.0,30.0,-15.0,0.1};
Point(203) = {0.0,30.0,15.0,0.1};
Point(204) = {0.0,30.0,-15.0,0.1};

Line(203) = {202,204};
Line(204) = {204,203};
Line(205) = {203,201};
Line(206) = {201,202};
Line Loop(207) = {203,204,205,206};
Plane Surface(208) = {207};
Extrude {0,-50,0} { Surface{208}; }

Surface Loop(1) = {1};
Surface Loop(232) = {-217,208,-221,-225,-229,-230};
Volume(233) = {232,1};
