solid
facet normal 1 0 0
outer loop
vertex 1.54802e-06 0.200771 -0.236193
vertex -2.37072e-06 0.128665 -0.485787
vertex 2.8877e-06 0.323241 -0.36924
endloop
endfacet
facet normal 1 0 -0
outer loop
vertex -5.08934e-07 0.463445 -0.1851
vertex 1.40708e-06 0.498259 0.082869
vertex 1.87672e-07 0.220569 0.0357478
endloop
endfacet
facet normal 1 -0 0
outer loop
vertex -6.12208e-07 0.14805 0.264153
vertex 1.87672e-07 0.220569 0.0357478
vertex -9.70682e-08 0.4092 0.279581
endloop
endfacet
facet normal 1 0 0
outer loop
vertex -1.11652e-07 -0.0527337 -0.199559
vertex -4.16363e-08 -0.279787 -0.0377962
vertex 1.77066e-06 -0.329418 -0.371835
endloop
endfacet
facet normal 1 0 -0
outer loop
vertex 1.54802e-06 0.200771 -0.236193
vertex 1.87672e-07 0.220569 0.0357478
vertex -1.11652e-07 -0.0527337 -0.199559
endloop
endfacet
facet normal 1 0 0
outer loop
vertex -6.12208e-07 0.14805 0.264153
vertex -2.05781e-06 0.00303042 0.500226
vertex 1.3408e-07 -0.0956187 0.173943
endloop
endfacet
facet normal 1 0 0
outer loop
vertex 1.87672e-07 0.220569 0.0357478
vertex 1.3408e-07 -0.0956187 0.173943
vertex -1.11652e-07 -0.0527337 -0.199559
endloop
endfacet
facet normal 1 -0 0
outer loop
vertex 1.3408e-07 -0.0956187 0.173943
vertex 1.87672e-07 0.220569 0.0357478
vertex -6.12208e-07 0.14805 0.264153
endloop
endfacet
facet normal 1 0 0
outer loop
vertex 1.54802e-06 0.200771 -0.236193
vertex -1.11652e-07 -0.0527337 -0.199559
vertex -2.37072e-06 0.128665 -0.485787
endloop
endfacet
facet normal 1 0 0
outer loop
vertex -2.05781e-06 0.00303042 0.500226
vertex -6.67823e-07 -0.229354 0.437003
vertex 1.3408e-07 -0.0956187 0.173943
endloop
endfacet
facet normal 1 0 0
outer loop
vertex -4.16363e-08 -0.279787 -0.0377962
vertex 1.72528e-05 -0.494802 0.0704928
vertex 4.36854e-06 -0.465372 -0.197645
endloop
endfacet
facet normal 1 0 0
outer loop
vertex 9.82205e-06 -0.409342 0.281944
vertex -4.16363e-08 -0.279787 -0.0377962
vertex 1.3408e-07 -0.0956187 0.173943
endloop
endfacet
facet normal 1 0 0
outer loop
vertex -4.16363e-08 -0.279787 -0.0377962
vertex 9.82205e-06 -0.409342 0.281944
vertex 1.72528e-05 -0.494802 0.0704928
endloop
endfacet
facet normal 1 0 -0
outer loop
vertex -6.12208e-07 0.14805 0.264153
vertex -1.99456e-07 0.229355 0.437005
vertex -2.05781e-06 0.00303042 0.500226
endloop
endfacet
facet normal 1 0 0
outer loop
vertex -6.12208e-07 0.14805 0.264153
vertex -9.70682e-08 0.4092 0.279581
vertex -1.99456e-07 0.229355 0.437005
endloop
endfacet
facet normal 1 0 0
outer loop
vertex -6.67823e-07 -0.229354 0.437003
vertex 9.82205e-06 -0.409342 0.281944
vertex 1.3408e-07 -0.0956187 0.173943
endloop
endfacet
facet normal 1 0 0
outer loop
vertex -4.16363e-08 -0.279787 -0.0377962
vertex 4.36854e-06 -0.465372 -0.197645
vertex 1.77066e-06 -0.329418 -0.371835
endloop
endfacet
facet normal 1 0 0
outer loop
vertex -1.11652e-07 -0.0527337 -0.199559
vertex 1.3408e-07 -0.0956187 0.173943
vertex -4.16363e-08 -0.279787 -0.0377962
endloop
endfacet
facet normal 1 0 0
outer loop
vertex 1.87672e-07 0.220569 0.0357478
vertex 1.40708e-06 0.498259 0.082869
vertex -9.70682e-08 0.4092 0.279581
endloop
endfacet
facet normal 1 0 0
outer loop
vertex 1.54802e-06 0.200771 -0.236193
vertex -5.08934e-07 0.463445 -0.1851
vertex 1.87672e-07 0.220569 0.0357478
endloop
endfacet
facet normal 1 0 -0
outer loop
vertex 2.8877e-06 0.323241 -0.36924
vertex -5.08934e-07 0.463445 -0.1851
vertex 1.54802e-06 0.200771 -0.236193
endloop
endfacet
facet normal 1 0 0
outer loop
vertex -1.11652e-07 -0.0527337 -0.199559
vertex 1.77066e-06 -0.329418 -0.371835
vertex 7.70095e-06 -0.12171 -0.48618
endloop
endfacet
facet normal 1 0 0
outer loop
vertex 7.70095e-06 -0.12171 -0.48618
vertex -2.37072e-06 0.128665 -0.485787
vertex -1.11652e-07 -0.0527337 -0.199559
endloop
endfacet
endsolid
