DBRep_DrawableShape

CASCADE Topology V1, (c) Matra-Datavision
Locations 9
1
              1               0               0               0 
              0               1               0               0 
              0               0               1               0 
1
              1               0               0               0 
              0               1               0               0 
              0               0               1               0 
2  1 1 2 1 0
1
              1               0               0               0 
              0               1               0               0 
              0               0               1               0 
1
              1               0               0               0 
              0               1               0               0 
              0               0               1           0.005 
2  4 1 5 1 0
1
              1               0               0               0 
              0               1               0               0 
              0               0               1               0 
1
              1               0               0               0 
              0               1               0               0 
              0               0               1          0.0055 
2  7 1 8 1 0
Curve2ds 18
1 0 0 1 0 
2 0 0 1 0 -0 1 0.01
1 6.2831853071795862 -0 0 1 
1 0 -0 0 1 
1 0 0.0050000000000000001 1 0 
2 0 0 1 0 -0 1 0.01
1 0 0 1 0 
2 0 0 1 0 -0 1 0.0056340000000000001
1 0 0.00050000000000000001 1 0 
2 0 0 1 0 -0 1 0.0056340000000000001
1 6.2831853071795862 -0 0 1 
1 0 -0 0 1 
1 0 0 1 0 
2 0 0 1 0 -0 1 0.01
1 6.2831853071795862 -0 0 1 
1 0 -0 0 1 
1 0 0.015148999999999999 1 0 
2 0 0 1 0 -0 1 0.01
Curves 9
2 0 0 0 0 0 1 1 0 -0 -0 1 0 0.01
1 0.01 -2.4492127076447545e-18 0 0 0 1 
2 0 0 0.0050000000000000001 0 0 1 1 0 -0 -0 1 0 0.01
2 0 0 0 0 0 1 1 0 -0 -0 1 0 0.0056340000000000001
2 0 0 0.00050000000000000001 0 0 1 1 0 -0 -0 1 0 0.0056340000000000001
1 0.0056340000000000001 -1.3798864394870548e-18 0 0 0 1 
2 0 0 0 0 0 1 1 0 -0 -0 1 0 0.01
1 0.01 -2.4492127076447545e-18 0 0 0 1 
2 0 0 0.015148999999999999 0 0 1 1 0 -0 -0 1 0 0.01
Polygon3D 0
PolygonOnTriangulations 0
Surfaces 9
1 0 0 0 0 0 1 1 0 -0 -0 1 0 
2 0 0 0 0 0 1 1 0 -0 -0 1 0 0.01
1 0 0 0.0050000000000000001 0 0 1 1 0 -0 -0 1 0 
2 0 0 0 0 0 1 1 0 -0 -0 1 0 0.0056340000000000001
1 0 0 0 0 0 1 1 0 -0 -0 1 0 
1 0 0 0.00050000000000000001 0 0 1 1 0 -0 -0 1 0 
1 0 0 0 0 0 1 1 0 -0 -0 1 0 
2 0 0 0 0 0 1 1 0 -0 -0 1 0 0.01
1 0 0 0.015148999999999999 0 0 1 1 0 -0 -0 1 0 
Triangulations 0

TShapes 34
Ve
1e-06
0.01 -2.44921270764475e-18 0
0 0

0101101
*
Ed
 1e-06 1 1 0
1  1 0 0 6.28318530717959
2  1 2 0 0 6.28318530717959
2  2 1 0 0 6.28318530717959
0

0101100
+34 0 -34 0 *
Wi

0101000
-33 0 *
Fa
0  1e-06 1 0

0111000
-32 0 *
Ve
1e-06
0.01 -2.44921270764475e-18 0.005
0 0

0101101
*
Ed
 1e-06 1 1 0
1  2 0 0 0.005
3  3 4CN 2 0 0 0.005
0

0101000
-30 0 +34 0 *
Ed
 1e-06 1 1 0
1  3 0 0 6.28318530717959
2  5 2 0 0 6.28318530717959
2  6 3 0 0 6.28318530717959
0

0101100
+30 0 -30 0 *
Wi

0101000
+29 3 +33 3 -29 3 -28 3 *
Fa
0  1e-06 2 3

0101000
+27 0 *
Ve
1e-06
0.005634 -1.37988643948705e-18 0
0 0

0101101
*
Ed
 1e-06 1 1 0
1  4 0 0 6.28318530717959
2  7 4 0 0 6.28318530717959
2  8 5 0 0 6.28318530717959
0

0101100
+25 0 -25 0 *
Wi

0101000
-24 6 *
Wi

0101000
+28 3 *
Fa
0  1e-06 3 3

0111000
+23 0 +22 0 *
Ve
1e-06
0.005634 -1.37988643948705e-18 0.0005
0 0

0101101
*
Ed
 1e-06 1 1 0
1  5 0 0 6.28318530717959
2  9 4 0 0 6.28318530717959
2  10 6 0 0 6.28318530717959
0

0101100
+20 0 -20 0 *
Ed
 1e-06 1 1 0
1  6 0 0 0.0005
3  11 12CN 4 0 0 0.0005
0

0101000
-20 0 +25 0 *
Wi

0101000
-19 6 +18 6 +24 6 -18 6 *
Fa
0  1e-06 4 6

0101000
+17 0 *
Wi

0101000
-19 6 *
Ve
1e-06
0.01 -2.44921270764475e-18 0
0 0

0101101
*
Ed
 1e-06 1 1 0
1  7 0 0 6.28318530717959
2  13 8 0 0 6.28318530717959
2  14 7 0 0 6.28318530717959
0

0101100
+14 0 -14 0 *
Wi

0101000
+13 9 *
Fa
0  1e-06 7 9

0101000
+15 0 +12 0 *
Ve
1e-06
0.01 -2.44921270764475e-18 0.015149
0 0

0101101
*
Ed
 1e-06 1 1 0
1  8 0 0 0.015149
3  15 16CN 8 0 0 0.015149
0

0101000
-10 0 +14 0 *
Ed
 1e-06 1 1 0
1  9 0 0 6.28318530717959
2  17 8 0 0 6.28318530717959
2  18 9 0 0 6.28318530717959
0

0101100
+10 0 -10 0 *
Wi

0101000
+9 9 +13 9 -9 9 -8 9 *
Fa
0  1e-06 8 9

0101000
+7 0 *
Wi

0101000
+8 0 *
Fa
0  1e-06 9 0

0111000
+5 0 *
Sh

0101000
-31 3 +26 0 +21 0 +16 0 -11 0 +6 0 +4 9 *
So

0100000
+3 0 *
Co

1100000
+2 0 *

+1 0 
0

