$MeshFormat
4.1 0 8
$EndMeshFormat
$Entities
0 0 1 1
1 0 0 0 1 1 0 0 0
1 2 0 0 3 1 1 0 0
$EndEntities
$Nodes
2 15 1 15
2 1 0 6
1
2
3
4
5
6
0 0 0
1 0 0
1 1 0
0 1 0
0.5 0 0
0.5 0.5 0
3 1 0 9
7
8
9
10
11
12
13
14
15
2 0 0
3 0 0
3 1 0
2 1 0
2 0 1
3 0 1
3 1 1
2 1 1
2.5 0.5 0.5
$EndNodes
$Polytopes
2 2 1 2
2 1 34 1
1 5 5 2 3 4 1
0
3 1 35 1
2 6
4 7 10 9 8
4 11 12 13 14
4 7 8 12 11
4 8 9 13 12
4 9 10 14 13
4 10 7 11 14
0
$EndPolytopes
$NodeData
1
"f"
1
0.0
3
0
1
15
1 0
2 1
3 2
4 1
5 0.5
6 1
7 0
8 1
9 2
10 1
11 1
12 2
13 3
14 2
15 1.5
$EndNodeData
