<?xml version="1.0"?>
<VTKFile type="UnstructuredGrid" version="0.1" byte_order="LittleEndian" header_type="UInt32">
  <UnstructuredGrid>
    <Piece NumberOfPoints="125" NumberOfCells="16">
      <PointData>
      </PointData>
      <CellData>
      </CellData>
      <Points>
        <DataArray type="Float64" Name="Points" NumberOfComponents="3" format="ascii" RangeMin="0" RangeMax="3.4641016151377544">
          0 0 0 1 0 0
          2 0 0 0 1 0
          1 1 0 2 1 0
          0 2 0 1 2 0
          2 2 0 0 0 1
          1 0 1 2 0 1
          0 1 1 1 1 1
          2 1 1 0 2 1
          1 2 1 2 2 1
          0 0 2 1 0 2
          2 0 2 0 1 2
          1 1 2 2 1 2
          0 2 2 1 2 2
          2 2 2 0.5 0 0
          0 0.5 0 0.5 0.5 0
          1 0.5 0 0.5 1 0
          0 0 0.5 0.5 0 0.5
          1 0 0.5 0 0.5 0.5
          0.5 0.5 0.5 1 0.5 0.5
          0 1 0.5 0.5 1 0.5
          1 1 0.5 0.5 0 1
          0 0.5 1 0.5 0.5 1
          1 0.5 1 0.5 1 1
          1.5 0 0 1.5 0.5 0
          2 0.5 0 1.5 1 0
          1.5 0 0.5 2 0 0.5
          1.5 0.5 0.5 2 0.5 0.5
          1.5 1 0.5 2 1 0.5
          1.5 0 1 1.5 0.5 1
          2 0.5 1 1.5 1 1
          0 1.5 0 0.5 1.5 0
          1 1.5 0 0.5 2 0
          0 1.5 0.5 0.5 1.5 0.5
          1 1.5 0.5 0 2 0.5
          0.5 2 0.5 1 2 0.5
          0 1.5 1 0.5 1.5 1
          1 1.5 1 0.5 2 1
          1.5 1.5 0 2 1.5 0
          1.5 2 0 1.5 1.5 0.5
          2 1.5 0.5 1.5 2 0.5
          2 2 0.5 1.5 1.5 1
          2 1.5 1 1.5 2 1
          0 0 1.5 0.5 0 1.5
          1 0 1.5 0 0.5 1.5
          0.5 0.5 1.5 1 0.5 1.5
          0 1 1.5 0.5 1 1.5
          1 1 1.5 0.5 0 2
          0 0.5 2 0.5 0.5 2
          1 0.5 2 0.5 1 2
          1.5 0 1.5 2 0 1.5
          1.5 0.5 1.5 2 0.5 1.5
          1.5 1 1.5 2 1 1.5
          1.5 0 2 1.5 0.5 2
          2 0.5 2 1.5 1 2
          0 1.5 1.5 0.5 1.5 1.5
          1 1.5 1.5 0 2 1.5
          0.5 2 1.5 1 2 1.5
          0 1.5 2 0.5 1.5 2
          1 1.5 2 0.5 2 2
          1.5 1.5 1.5 2 1.5 1.5
          1.5 2 1.5 2 2 1.5
          1.5 1.5 2 2 1.5 2
          1.5 2 2
          <InformationKey name="L2_NORM_RANGE" location="vtkDataArray" length="2">
            <Value index="0">
              0
            </Value>
            <Value index="1">
              3.4641016151
            </Value>
          </InformationKey>
        </DataArray>
      </Points>
      <Cells>
        <DataArray type="Int64" Name="connectivity" format="ascii" RangeMin="0" RangeMax="124">
          0 1 3 9 10 12
          27 29 28 41 43 42
          32 34 38 33 36 35
          4 3 1 13 12 10
          31 29 30 45 43 44
          40 38 34 39 36 37
          1 2 4 10 11 13
          46 47 30 56 57 44
          34 51 40 50 52 37
          5 4 2 14 13 11
          49 47 48 59 57 58
          55 40 51 54 52 53
          3 4 6 12 13 15
          31 61 60 45 71 70
          38 40 67 39 65 64
          7 6 4 16 15 13
          63 61 62 73 71 72
          69 67 40 68 65 66
          4 5 7 13 14 16
          49 74 62 59 81 72
          40 55 69 54 77 66
          8 7 5 17 16 14
          76 74 75 83 81 82
          80 69 55 79 77 78
          9 10 12 18 19 21
          41 43 42 93 95 94
          84 86 90 85 88 87
          13 12 10 22 21 19
          45 43 44 97 95 96
          92 90 86 91 88 89
          10 11 13 19 20 22
          56 57 44 104 105 96
          86 99 92 98 100 89
          14 13 11 23 22 20
          59 57 58 107 105 106
          103 92 99 102 100 101
          12 13 15 21 22 24
          45 71 70 97 115 114
          90 92 111 91 109 108
          16 15 13 25 24 22
          73 71 72 117 115 116
          113 111 92 112 109 110
          13 14 16 22 23 25
          59 81 72 107 122 116
          92 103 113 102 118 110
          17 16 14 26 25 23
          83 81 82 124 122 123
          121 113 103 120 118 119
        </DataArray>
        <DataArray type="Int64" Name="offsets" format="ascii" RangeMin="18" RangeMax="288">
          18 36 54 72 90 108
          126 144 162 180 198 216
          234 252 270 288
        </DataArray>
        <DataArray type="UInt8" Name="types" format="ascii" RangeMin="73" RangeMax="73">
          73 73 73 73 73 73
          73 73 73 73 73 73
          73 73 73 73
        </DataArray>
      </Cells>
    </Piece>
  </UnstructuredGrid>
</VTKFile>
