<?xml version="1.0"?>
<VTKFile type="UnstructuredGrid" version="2.3" byte_order="LittleEndian" header_type="UInt32">
  <UnstructuredGrid>
    <Piece NumberOfPoints="125" NumberOfCells="8">
      <PointData>
      </PointData>
      <CellData>
      </CellData>
      <Points>
        <DataArray type="Float64" Name="Points" NumberOfComponents="3" format="ascii" RangeMin="0" RangeMax="3.4641016151377544">
          0 0 0 1 0 0
          2 0 0 0 1 0
          1 1 0 2 1 0
          0 2 0 1 2 0
          2 2 0 0 0 1
          1 0 1 2 0 1
          0 1 1 1 1 1
          2 1 1 0 2 1
          1 2 1 2 2 1
          0 0 2 1 0 2
          2 0 2 0 1 2
          1 1 2 2 1 2
          0 2 2 1 2 2
          2 2 2 0.5 0 0
          0 0.5 0 0.5 0.5 0
          1 0.5 0 0.5 1 0
          0 0 0.5 0.5 0 0.5
          1 0 0.5 0 0.5 0.5
          0.5 0.5 0.5 1 0.5 0.5
          0 1 0.5 0.5 1 0.5
          1 1 0.5 0.5 0 1
          0 0.5 1 0.5 0.5 1
          1 0.5 1 0.5 1 1
          1.5 0 0 1.5 0.5 0
          2 0.5 0 1.5 1 0
          1.5 0 0.5 2 0 0.5
          1.5 0.5 0.5 2 0.5 0.5
          1.5 1 0.5 2 1 0.5
          1.5 0 1 1.5 0.5 1
          2 0.5 1 1.5 1 1
          0 1.5 0 0.5 1.5 0
          1 1.5 0 0.5 2 0
          0 1.5 0.5 0.5 1.5 0.5
          1 1.5 0.5 0 2 0.5
          0.5 2 0.5 1 2 0.5
          0 1.5 1 0.5 1.5 1
          1 1.5 1 0.5 2 1
          1.5 1.5 0 2 1.5 0
          1.5 2 0 1.5 1.5 0.5
          2 1.5 0.5 1.5 2 0.5
          2 2 0.5 1.5 1.5 1
          2 1.5 1 1.5 2 1
          0 0 1.5 0.5 0 1.5
          1 0 1.5 0 0.5 1.5
          0.5 0.5 1.5 1 0.5 1.5
          0 1 1.5 0.5 1 1.5
          1 1 1.5 0.5 0 2
          0 0.5 2 0.5 0.5 2
          1 0.5 2 0.5 1 2
          1.5 0 1.5 2 0 1.5
          1.5 0.5 1.5 2 0.5 1.5
          1.5 1 1.5 2 1 1.5
          1.5 0 2 1.5 0.5 2
          2 0.5 2 1.5 1 2
          0 1.5 1.5 0.5 1.5 1.5
          1 1.5 1.5 0 2 1.5
          0.5 2 1.5 1 2 1.5
          0 1.5 2 0.5 1.5 2
          1 1.5 2 0.5 2 2
          1.5 1.5 1.5 2 1.5 1.5
          1.5 2 1.5 2 2 1.5
          1.5 1.5 2 2 1.5 2
          1.5 2 2
          <InformationKey name="L2_NORM_RANGE" location="vtkDataArray" length="2">
            <Value index="0">
              0
            </Value>
            <Value index="1">
              3.4641016151
            </Value>
          </InformationKey>
        </DataArray>
      </Points>
      <Cells>
        <DataArray type="Int64" Name="connectivity" format="ascii" RangeMin="0" RangeMax="124">
          0 1 4 3 9 10
          13 12 27 30 31 28
          41 44 45 42 32 34
          40 38 35 37 33 39
          29 43 36 1 2 5
          4 10 11 14 13 46
          48 49 30 56 58 59
          44 34 51 55 40 37
          53 50 54 47 57 52
          3 4 7 6 12 13
          16 15 31 62 63 60
          45 72 73 70 38 40
          69 67 64 66 39 68
          61 71 65 4 5 8
          7 13 14 17 16 49
          75 76 62 59 82 83
          72 40 55 80 69 66
          78 54 79 74 81 77
          9 10 13 12 18 19
          22 21 41 44 45 42
          93 96 97 94 84 86
          92 90 87 89 85 91
          43 95 88 10 11 14
          13 19 20 23 22 56
          58 59 44 104 106 107
          96 86 99 103 92 89
          101 98 102 57 105 100
          12 13 16 15 21 22
          25 24 45 72 73 70
          97 116 117 114 90 92
          113 111 108 110 91 112
          71 115 109 13 14 17
          16 22 23 26 25 59
          82 83 72 107 123 124
          116 92 103 121 113 110
          119 102 120 81 122 118
        </DataArray>
        <DataArray type="Int64" Name="offsets" format="ascii" RangeMin="27" RangeMax="216">
          27 54 81 108 135 162
          189 216
        </DataArray>
        <DataArray type="UInt8" Name="types" format="ascii" RangeMin="72" RangeMax="72">
          72 72 72 72 72 72
          72 72
        </DataArray>
      </Cells>
    </Piece>
  </UnstructuredGrid>
</VTKFile>
