$MeshFormat
2 0 8
$EndMeshFormat
$NodeData
1
"x^3"
1
1
3
1
1
172
1 5.266460846496229e-80
2 0.9999999991134301
3 1.000000001613849
4 3.011145116562447e-88
5 0.9999999987356265
6 0.9999999999898126
7 1.412260839231269e-83
8 4.967956747408652e-80
9 3.540706136426145e-12
10 5.940319217226203e-05
11 0.9999999990443058
12 0.999999999223558
13 5.940319182456413e-05
14 3.540705930105716e-12
15 6.027711296675471e-79
16 1.60782553424988e-83
17 1.0000000035682
18 1.000000002832657
19 5.940319206053835e-05
20 3.540706327007613e-12
21 1.870193486106587e-88
22 1.528527928908318e-78
23 3.540706072501047e-12
24 5.940319216638039e-05
25 0.9999999990396091
26 1.000000000617568
27 1.000000001679936
28 1.000000001260712
29 3.128459978146636e-81
30 1.600581315700779e-78
31 4.743552014912016e-81
32 1.111752732727101e-82
33 5.960464519027287e-08
34 2.110425556385951e-19
35 3.540706202513288e-12
36 3.540706011027704e-12
37 2.11042461102125e-19
38 5.940319212920504e-05
39 0.012579115203315
40 0.01257911521004853
41 5.940319209248422e-05
42 1.000000000786576
43 0.9999999989812762
44 0.9999999982877323
45 1.000000000092289
46 0.9999999997610685
47 1.000000000439352
48 1.000000000207176
49 0.999999999493375
50 0.9999999995535687
51 5.960464497899437e-08
52 2.110425255725773e-19
53 3.540706112882655e-12
54 5.940319206762302e-05
55 0.01257911520423611
56 2.110425131875162e-19
57 3.540706232939775e-12
58 5.940319226973688e-05
59 0.01257911523061885
60 1.057622072864865e-83
61 1.119530296871715e-84
62 2.39126993358261e-79
63 1.108105752855039e-79
64 1.130497830746124e-79
65 4.155579382856136e-83
66 1.047447688542855e-80
67 6.393520935908281e-80
68 5.406148404277969e-84
69 5.960464494549062e-08
70 0.01257911521276044
71 5.940319217453773e-05
72 5.940319200137803e-05
73 0.01257911521877376
74 2.110425312802226e-19
75 3.540706167401207e-12
76 3.540706197933714e-12
77 2.110425266526508e-19
78 5.960464431451645e-08
79 0.01257911525439461
80 5.940319232396428e-05
81 5.940319197909703e-05
82 0.01257911518886258
83 3.540706177973528e-12
84 2.110425416980767e-19
85 2.11042568673054e-19
86 3.540706152451939e-12
87 5.960464481296501e-08
88 5.960464468879395e-08
89 5.960464453527987e-08
90 3.540706147776635e-12
91 5.960464496398738e-08
92 5.940319199089727e-05
93 5.940319211683348e-05
94 0.01257911521383196
95 0.01257911522161005
96 5.940319212615511e-05
97 5.960464472162209e-08
98 5.9604644842918e-08
99 5.960464456028444e-08
100 5.960464426389962e-08
101 5.940319194619485e-05
102 0.01257911520305305
103 5.94031919535857e-05
104 5.940319209471602e-05
105 5.960464474019662e-08
106 5.94031921067222e-05
107 5.960464493685109e-08
108 5.940319193734812e-05
109 5.960464479101489e-08
110 3.540706187418941e-12
111 3.540706187749014e-12
112 2.110425225492856e-19
113 4.624014152841509e-82
114 2.110425216356758e-19
115 2.110425450441388e-19
116 2.110425386332836e-19
117 5.960464467548828e-08
118 5.960464460029563e-08
119 5.960464484126745e-08
120 5.940319190646469e-05
121 3.540706195118019e-12
122 5.960464486008608e-08
123 0.01257911519972656
124 5.94031919484685e-05
125 0.01257911524302069
126 0.01257911518279294
127 0.01257911521613585
128 0.999999999835298
129 3.540706189761146e-12
130 2.110425594966065e-19
131 2.110425353170494e-19
132 3.54070619218359e-12
133 5.960464468787767e-08
134 5.960464480961721e-08
135 3.540706161597877e-12
136 2.11042542909071e-19
137 3.54070613844327e-12
138 3.540706186746207e-12
139 5.960464480309411e-08
140 3.540706181056108e-12
141 5.940319228151406e-05
142 5.940319192331332e-05
143 0.01257911521056617
144 0.01257911520028827
145 0.01257911521074228
146 1.00000000053628
147 2.110425380424426e-19
148 1.090791785300141e-84
149 2.110425275905831e-19
150 2.110425363248415e-19
151 1.000000000261409
152 0.01257911522210135
153 0.01257911521776085
154 0.01257911520151355
155 3.540706265291468e-12
156 5.960464481455997e-08
157 5.960464472935142e-08
158 5.940319198025215e-05
159 9.284778158289001e-85
160 2.110425504320285e-19
161 2.11042557481074e-19
162 2.110424749653849e-19
163 2.110425270337474e-19
164 6.80087443304523e-81
165 2.110425075512787e-19
166 2.110425485294931e-19
167 1.000000000311047
168 0.01257911520824538
169 0.01257911520388147
170 0.01257911520736176
171 3.540706209816775e-12
172 3.540706134430672e-12
$EndNodeData
