<?xml version="1.0" encoding="UTF-8" standalone="no"?>
<!-- Generator: Adobe Illustrator 16.0.0, SVG Export Plug-In . SVG Version: 6.00 Build 0)  -->

<svg
   xmlns:dc="http://purl.org/dc/elements/1.1/"
   xmlns:cc="http://creativecommons.org/ns#"
   xmlns:rdf="http://www.w3.org/1999/02/22-rdf-syntax-ns#"
   xmlns:svg="http://www.w3.org/2000/svg"
   xmlns="http://www.w3.org/2000/svg"
   xmlns:sodipodi="http://sodipodi.sourceforge.net/DTD/sodipodi-0.dtd"
   xmlns:inkscape="http://www.inkscape.org/namespaces/inkscape"
   version="1.1"
   id="Layer_3"
   x="0px"
   y="0px"
   width="512"
   height="512"
   viewBox="0 0 512 512"
   enable-background="new 0 0 100 100"
   xml:space="preserve"
   inkscape:version="0.48.2 r9819"
   sodipodi:docname="icon_translate.svg"><metadata
   id="metadata9"><rdf:RDF><cc:Work
       rdf:about=""><dc:format>image/svg+xml</dc:format><dc:type
         rdf:resource="http://purl.org/dc/dcmitype/StillImage" /><dc:title /></cc:Work></rdf:RDF></metadata><defs
   id="defs7" /><sodipodi:namedview
   pagecolor="#ffffff"
   bordercolor="#666666"
   borderopacity="1"
   objecttolerance="10"
   gridtolerance="10"
   guidetolerance="10"
   inkscape:pageopacity="0"
   inkscape:pageshadow="2"
   inkscape:window-width="1223"
   inkscape:window-height="851"
   id="namedview5"
   showgrid="true"
   inkscape:zoom="1.1773328"
   inkscape:cx="1.858191"
   inkscape:cy="266.22832"
   inkscape:window-x="101"
   inkscape:window-y="13"
   inkscape:window-maximized="0"
   inkscape:current-layer="Layer_3"
   showguides="false"><inkscape:grid
     type="xygrid"
     id="grid3075"
     empspacing="5"
     visible="true"
     enabled="true"
     snapvisiblegridlinesonly="true" /></sodipodi:namedview>
<g
   id="g3034"
   transform="translate(-1.3697408,411.47927)" />
<path
   style="fill:#007aff;fill-opacity:0.39215687"
   inkscape:connector-curvature="0"
   d="m 279.795,276.695 0,114.165 51.52,-20.35 c 1.725,-0.685 3.695,-0.125 4.81,1.355 1.12,1.48 1.115,3.53 -0.02,5 L 258.3,478.06 c -0.785,1.015 -1.985,1.615 -3.275,1.615 -1.285,0 -2.495,-0.6 -3.275,-1.615 l -77.8,-101.2 c -0.57,-0.74 -0.85,-1.625 -0.85,-2.515 0,-0.88 0.275,-1.75 0.83,-2.49 1.115,-1.48 3.09,-2.035 4.815,-1.355 l 51.515,20.35 0.05,-17.5 -0.26,-100 c 24.6704,-94.46905 5.19182,-149.0134 49.745,3.345 z m -49.54,-44.04 0,-114.165 -51.52,20.35 c -1.725,0.685 -3.695,0.125 -4.81,-1.355 -1.12,-1.48 -1.115,-3.53 0.02,-5 L 251.75,31.29 c 0.785,-1.015 1.985,-1.615 3.275,-1.615 1.285,0 2.495,0.6 3.275,1.615 l 77.8,101.2 c 0.57,0.74 0.85,1.625 0.85,2.515 0,0.88 -0.275,1.75 -0.83,2.49 -1.115,1.48 -3.09,2.035 -4.815,1.355 L 279.79,118.5 279.74,136 280,236 c -24.6704,94.46904 -5.19182,149.01342 -49.745,-3.345 z m 2.75,46.79 -114.165,0 20.35,51.52 c 0.685,1.725 0.125,3.695 -1.355,4.81 -1.48,1.12 -3.53,1.115 -5,-0.02 L 31.640001,257.95 c -1.015,-0.785 -1.615,-1.985 -1.615,-3.275 0,-1.285 0.6,-2.495 1.615,-3.275 L 132.84,173.6 c 0.74,-0.57 1.625,-0.85 2.515,-0.85 0.88,0 1.75,0.275 2.49,0.83 1.48,1.115 2.035,3.09 1.355,4.815 l -20.35,51.515 17.5,0.05 100,-0.26 c 94.46903,24.6704 149.01342,5.19182 -3.345,49.745 z m 44.04,-49.54 114.165,0 -20.35,-51.52 c -0.685,-1.725 -0.125,-3.695 1.355,-4.81 1.48,-1.12 3.53,-1.115 5,0.02 L 478.41,251.4 c 1.015,0.785 1.615,1.985 1.615,3.275 0,1.285 -0.6,2.495 -1.615,3.275 l -101.2,77.8 c -0.74,0.57 -1.625,0.85 -2.515,0.85 -0.88,0 -1.75,-0.275 -2.49,-0.83 -1.48,-1.115 -2.035,-3.09 -1.355,-4.815 l 20.35,-51.515 -17.5,-0.05 -100,0.26 c -94.46904,-24.6704 -149.01342,-5.19182 3.345,-49.745 z"
   id="path3144" /></svg>