<?xml version="1.0" encoding="UTF-8" standalone="no"?>
<!-- Generator: Adobe Illustrator 16.0.0, SVG Export Plug-In . SVG Version: 6.00 Build 0)  -->

<svg
   xmlns:dc="http://purl.org/dc/elements/1.1/"
   xmlns:cc="http://creativecommons.org/ns#"
   xmlns:rdf="http://www.w3.org/1999/02/22-rdf-syntax-ns#"
   xmlns:svg="http://www.w3.org/2000/svg"
   xmlns="http://www.w3.org/2000/svg"
   xmlns:sodipodi="http://sodipodi.sourceforge.net/DTD/sodipodi-0.dtd"
   xmlns:inkscape="http://www.inkscape.org/namespaces/inkscape"
   version="1.1"
   id="Layer_3"
   x="0px"
   y="0px"
   width="512"
   height="512"
   viewBox="0 0 512 512"
   enable-background="new 0 0 100 100"
   xml:space="preserve"
   inkscape:version="0.48.2 r9819"
   sodipodi:docname="icon_rotate.svg"><metadata
   id="metadata9"><rdf:RDF><cc:Work
       rdf:about=""><dc:format>image/svg+xml</dc:format><dc:type
         rdf:resource="http://purl.org/dc/dcmitype/StillImage" /><dc:title /></cc:Work></rdf:RDF></metadata><defs
   id="defs7" /><sodipodi:namedview
   pagecolor="#ffffff"
   bordercolor="#666666"
   borderopacity="1"
   objecttolerance="10"
   gridtolerance="10"
   guidetolerance="10"
   inkscape:pageopacity="0"
   inkscape:pageshadow="2"
   inkscape:window-width="1222"
   inkscape:window-height="811"
   id="namedview5"
   showgrid="true"
   inkscape:zoom="1.1773328"
   inkscape:cx="123.31917"
   inkscape:cy="232.25322"
   inkscape:window-x="101"
   inkscape:window-y="13"
   inkscape:window-maximized="0"
   inkscape:current-layer="Layer_3"
   showguides="false"><inkscape:grid
     type="xygrid"
     id="grid3075"
     empspacing="5"
     visible="true"
     enabled="true"
     snapvisiblegridlinesonly="true" /></sodipodi:namedview>
<g
   id="g3034"
   transform="translate(-1.3697408,411.47927)" />
<path
   style="fill:#007aff;fill-opacity:0.39215687"
   inkscape:connector-curvature="0"
   d="m 425.65,251.19 c 0,47.895 -21.025,93.085 -57.675,123.985 l -31.84,-37.77 c 25.49,-21.49 40.11,-52.915 40.11,-86.215 0,-59.895 -46.995,-108.875 -106.03,-112.355 H 246.05 l 20.35,51.52 c 0.685,1.725 0.125,3.695 -1.355,4.81 -1.48,1.12 -3.53,1.115 -5,-0.02 L 158.85,117.34 c -1.015,-0.785 -1.615,-1.985 -1.615,-3.275 0,-1.285 0.6,-2.495 1.615,-3.275 l 101.2,-77.8 c 0.74,-0.57 1.625,-0.85 2.515,-0.85 0.88,0 1.75,0.275 2.49,0.83 1.48,1.115 2.035,3.09 1.355,4.815 l -20.35,51.515 17.5,0.05 v -0.26 c 6.255,0 12.425,0.395 18.5,1.09 4.03,0.42 8.525,1.015 11.94,1.82 74.865,14.29 131.65,80.215 131.65,159.19 z m -177,66.74 c -1.47,-1.135 -3.52,-1.14 -5,-0.015 -1.48,1.115 -2.035,3.085 -1.355,4.81 l 20.35,51.52 H 238.48 c -59.025,-3.485 -106.025,-52.47 -106.025,-112.36 0,-31.165 12.44,-60.165 35.025,-81.655 l -34.06,-35.79 c -32.47999,30.91 -50.369989,72.615 -50.369989,117.445 0,78.97 56.779989,144.9 131.659989,159.19 3.42,0.805 7.915,1.4 11.94,1.82 6.075,0.695 12.24,1.09 18.5,1.09 v -0.26 l 17.5,0.05 -20.35,51.515 c -0.685,1.73 -0.125,3.705 1.355,4.815 0.74,0.555 1.61,0.83 2.49,0.83 0.89,0 1.77,-0.28 2.515,-0.85 L 349.85,402.28 c 1.015,-0.78 1.615,-1.99 1.615,-3.275 0,-1.285 -0.6,-2.49 -1.615,-3.27 L 248.65,317.93 z"
   id="path3134" /></svg>