$MeshFormat
2.2 0 8
$EndMeshFormat
$Nodes
8
1 0 0 0
2 0.01089304858 3.78273958903 -5.37661581619
3 2.74374632567 1.82216649055 -0.479625099539
4 0.968731433336 -1.75002890813 -0.420326086453
5 0.67410928776704 0.779397201904 -1.46800607256056
6 0.81741764498336 1.519101584482 -2.11794389155024
7 1.22285855290104 1.143830500014 -1.56393109246836
8 1.00898532193456 0.41254788505 -1.12668594560284
$EndNodes
$Elements
11
1 15 2 0 1 1
2 15 2 0 2 2
3 15 2 0 3 3
4 15 2 0 4 4
5 1 2 0 1 1 2
6 1 2 0 2 2 3
7 1 2 0 3 3 4
8 1 2 0 4 4 1
9 2 2 0 1 1 2 4
10 2 2 0 1 2 3 4
11 3 2 0 1 5 6 7 8
$EndElements
