$MeshFormat
2.2 0 8
$EndMeshFormat
$Nodes
11
1 3 0 0
2 2.4270509831248424 1.7633557568774194 0
3 0.9270509831248424 2.8531695488854605 0
4 -0.9270509831248420 2.8531695488854610 0
5 -2.4270509831248420 1.7633557568774196 0
6 -3 0 0
7 -2.4270509831248430 -1.7633557568774192 0
8 -0.9270509831248427 -2.8531695488854605 0
9 0.9270509831248417 -2.8531695488854610 0
10 2.4270509831248420 -1.7633557568774200 0
11 0 0 0
$EndNodes
$Elements
26
1 15 2 0 1 1
2 15 2 0 2 2
3 15 2 0 3 3
4 15 2 0 4 4
5 15 2 0 5 5
6 15 2 0 6 6
7 15 2 0 7 7
8 15 2 0 8 8
9 15 2 0 9 9
10 15 2 0 10 10
11 1 2 0 1 1 2
12 1 2 0 2 2 3
13 1 2 0 3 3 4
14 1 2 0 4 4 5
15 1 2 0 5 5 6
16 1 2 0 6 6 7
17 1 2 0 7 7 8
18 1 2 0 8 8 9
19 1 2 0 9 9 10
20 1 2 0 10 10 1
21 2 2 0 1 11 1 2
22 3 2 0 1 11 2 3 4
23 3 2 0 1 11 4 5 6
24 2 2 0 1 11 6 7
25 3 2 0 1 11 7 8 9
26 3 2 0 1 11 9 10 1
$EndElements
