$MeshFormat
4.1 0 8
$EndMeshFormat
$Nodes
1 6 1 6
2 1 1 6
1
2
3
4
5
6
0.99500416527802582 0.099833416646828155 0.20000000000000001 0.1 -0.2
0.69670670934716539 0.71735609089952279 0.10000000000000001 0.8 -0.1
0.26749882862458735 0.96355818541719296 0.29999999999999999 1.3 -0.3
0.16996714290024104 0.98544972998846014 0.80000000000000004 1.4 -0.8
0.7648421872844885 0.64421768723769102 0.90000000000000002 0.7 -0.9
0.98006657784124163 0.19866933079506122 0.75 0.2 -0.75
$EndNodes
$Elements
1 2 1 2
2 1 3 2
1 1 2 3 4
2 1 4 5 6
$EndElements
