solid quad_intrinsic_test
  facet normal 0 0 1
    outer loop
      vertex 0 0 0
      vertex 0.05 0 0
      vertex 0.05 0.05 0
    endloop
  endfacet
  facet normal 0 0 1
    outer loop
      vertex 0 0 0
      vertex 0.05 0.05 0
      vertex 0 0.05 0
    endloop
  endfacet
  facet normal 0 0 1
    outer loop
      vertex 0.05 0 0
      vertex 0.1 0 0
      vertex 0.1 0.05 0
    endloop
  endfacet
  facet normal 0 0 1
    outer loop
      vertex 0.05 0 0
      vertex 0.1 0.05 0
      vertex 0.05 0.05 0
    endloop
  endfacet
  facet normal 0 0 1
    outer loop
      vertex 0 0.05 0
      vertex 0.05 0.05 0
      vertex 0.05 0.1 0
    endloop
  endfacet
  facet normal 0 0 1
    outer loop
      vertex 0 0.05 0
      vertex 0.05 0.1 0
      vertex 0 0.1 0
    endloop
  endfacet
  facet normal 0 0 1
    outer loop
      vertex 0.05 0.05 0
      vertex 0.1 0.05 0
      vertex 0.1 0.1 0
    endloop
  endfacet
  facet normal 0 0 1
    outer loop
      vertex 0.05 0.05 0
      vertex 0.1 0.1 0
      vertex 0.05 0.1 0
    endloop
  endfacet
endsolid quad_intrinsic_test
