$MeshFormat
2.2 0 8
$EndMeshFormat
$Nodes
13
1 2 0 0
2 1.7320508075688772 1 0
3 1 1.7320508075688772 0
4 0 2 0
5 -1 1.7320508075688772 0
6 -1.7320508075688772 1 0
7 -2 0 0
8 -1.7320508075688772 -1 0
9 -1 -1.7320508075688772 0
10 0 -2 0
11 1 -1.7320508075688772 0
12 1.7320508075688772 -1 0
13 0 0 0
$EndNodes
$Elements
30
1 15 2 0 1 1
2 15 2 0 2 2
3 15 2 0 3 3
4 15 2 0 4 4
5 15 2 0 5 5
6 15 2 0 6 6
7 15 2 0 7 7
8 15 2 0 8 8
9 15 2 0 9 9
10 15 2 0 10 10
11 15 2 0 11 11
12 15 2 0 12 12
13 1 2 0 1 1 2
14 1 2 0 2 2 3
15 1 2 0 3 3 4
16 1 2 0 4 4 5
17 1 2 0 5 5 6
18 1 2 0 6 6 7
19 1 2 0 7 7 8
20 1 2 0 8 8 9
21 1 2 0 9 9 10
22 1 2 0 10 10 11
23 1 2 0 11 11 12
24 1 2 0 12 12 1
25 3 2 0 1 13 1 2 3
26 3 2 0 1 13 3 4 5
27 3 2 0 1 13 5 6 7
28 3 2 0 1 13 7 8 9
29 3 2 0 1 13 9 10 11
30 3 2 0 1 13 11 12 1
$EndElements
