$MeshFormat
4.1 0 8
$EndMeshFormat
$Entities
0 0 1 0
1 -1 -0.8660254037844386 0 0.9396926207859084 0.9848077530122079 1 0 0
$EndEntities
$Nodes
1 4 1 14
2 1 0 4
1
7
14
8
0.5000000000000001 -0.8660254037844386 0
0.5000000000000001 0.8660254037844386 0
-0.1736481776669303 0.984807753012208 1
0.5000000000000001 -0.8660254037844386 1
$EndNodes
$Elements
1 1 1 1
2 1 3 1
1 1 7 14 8
$EndElements
$Parametrizations
0 1
1
14 12
0.5000000000000001 -0.8660254037844386 0 1 0 0 0 0 0 0 0
0.8660254037844387 0.4999999999999999 0 0.8334131618988362 0.5526504334330917 0 0 0 0 0 0
0.9396926207859084 0.3420201433256687 1 0.5846726977162214 -0.8112692749915011 0 0 0 0 0 0
0.5000000000000001 -0.8660254037844386 1 0.9155029243684856 -0.4023113166103471 0 0 0 0 0 0
-0.8660254037844387 0.4999999999999999 0 0.2649159335226951 0.9642715116427525 0 0 0 0 0 0
-0.7660444431189779 0.6427876096865395 1 -0.09252937417702334 -0.9957099552150759 0 0 0 0 0 0
-1 1.224646799147353e-16 0 0.05376787705452431 0.9985534614616534 0 0 0 0 0 0
-1 1.224646799147353e-16 1 -0.3670931153995891 -0.9301841992993775 0 0 0 0 0 0
-0.8660254037844387 0.4999999999999999 0 -0.1598405304639436 0.9871428492477697 0 0 0 0 0 0
-0.9396926207859083 0.3420201433256689 1 -0.4965994916116629 -0.8679798067530361 0 0 0 0 0 0
0.8660254037844387 0.4999999999999999 0 -0.7692506788670833 0.6389470972330428 0 0 0 0 0 0
0.6427876096865394 0.766044443118978 1 -0.9313125839883908 -0.3642209094833333 0 0 0 0 0 0
0.5000000000000001 0.8660254037844386 0 -0.8875457348906866 0.4607196202435394 0 0 0 0 0 0
-0.1736481776669303 0.984807753012208 1 -0.9997393085228058 -0.02283232345474809 0 0 0 0 0 0
0 1 2
0 2 3
1 4 5
1 5 2
4 6 7
4 7 5
6 8 9
6 9 7
8 10 11
8 11 9
10 12 13
10 13 11
$EndParametrizations
