$MeshFormat
2.2 0 8
$EndMeshFormat
$Nodes
24
1 -8 -8 0
2 0 -8 0
3 8 -8 0
4 8 0 0
5 8 8 0
6 0 8 0
7 -8 8 0
8 -8 0 0
9 -5 -5 0
10 0 -5 0
11 5 -5 0
12 5 0 0
13 5 5 0
14 0 5 0
15 -5 5 0
16 -5 0 0
17 -2 -2 0
18 0 -2 0
19 2 -2 0
20 2 0 0
21 2 2 0
22 0 2 0
23 -2 2 0
24 -2 0 0
$EndNodes
$Elements
56
1 15 2 0 1 1
2 15 2 0 2 2
3 15 2 0 3 3
4 15 2 0 4 4
5 15 2 0 5 5
6 15 2 0 6 6
7 15 2 0 7 7
8 15 2 0 8 8
9 15 2 0 17 17
10 15 2 0 18 18
11 15 2 0 19 19
12 15 2 0 20 20
13 15 2 0 21 21
14 15 2 0 22 22
15 15 2 0 23 23
16 15 2 0 24 24
17 1 2 0 1 1 2
18 1 2 0 2 2 3
19 1 2 0 3 3 4
20 1 2 0 4 4 5
21 1 2 0 5 5 6
22 1 2 0 6 6 7
23 1 2 0 7 7 8
24 1 2 0 8 8 1
25 1 2 0 9 17 18
26 1 2 0 10 18 19
27 1 2 0 11 19 20
28 1 2 0 12 20 21
29 1 2 0 13 21 22
30 1 2 0 14 22 23
31 1 2 0 15 23 24
32 1 2 0 16 24 17
33 3 2 0 1 1 2 10 9
34 3 2 0 1 2 3 11 10
35 3 2 0 1 3 4 12 11
36 3 2 0 1 4 5 13 12
37 3 2 0 1 5 6 14 13
38 3 2 0 1 6 7 15 14
39 3 2 0 1 7 8 16 15
40 3 2 0 1 8 1 9 16
41 2 2 0 1 9 10 18
42 2 2 0 1 9 18 17
43 2 2 0 1 10 11 19
44 2 2 0 1 10 19 18
45 2 2 0 1 11 12 20
46 2 2 0 1 11 20 19
47 2 2 0 1 12 13 21
48 2 2 0 1 12 21 20
49 2 2 0 1 13 14 22
50 2 2 0 1 13 22 21
51 2 2 0 1 14 15 23
52 2 2 0 1 14 23 22
53 2 2 0 1 15 16 24
54 2 2 0 1 15 24 23
55 2 2 0 1 16 9 17
56 2 2 0 1 16 17 24
$EndElements
