$MeshFormat
2.2 0 8
$EndMeshFormat
$Nodes
10
1 0 0.6 0
2 1 0 0
3 2 0 0
4 3 0 0
5 4 0 0
6 5 0.6 0
7 4 1.2 0
8 3 1.2 0
9 2 1.2 0
10 1 1.2 0
$EndNodes
$Elements
25
1 15 2 0 1 1
2 15 2 0 2 2
3 15 2 0 3 3
4 15 2 0 4 4
5 15 2 0 5 5
6 15 2 0 6 6
7 15 2 0 7 7
8 15 2 0 8 8
9 15 2 0 9 9
10 15 2 0 10 10
11 1 2 0 1 1 2
12 1 2 0 2 2 3
13 1 2 0 3 3 4
14 1 2 0 4 4 5
15 1 2 0 5 5 6
16 1 2 0 6 6 7
17 1 2 0 7 7 8
18 1 2 0 8 8 9
19 1 2 0 9 9 10
20 1 2 0 10 10 1
21 2 2 0 1 1 2 10
22 3 2 0 1 2 3 9 10
23 3 2 0 1 3 4 8 9
24 3 2 0 1 4 5 7 8
25 2 2 0 1 5 6 7
$EndElements
