$MeshFormat
2.2 0 8
$EndMeshFormat
$Nodes
12
1 0 0.6 0
2 1 0 0
3 2 0 0
4 3 0 0
5 4 0 0
6 5 0 0
7 6 0.6 0
8 5 1.2 0
9 4 1.2 0
10 3 1.2 0
11 2 1.2 0
12 1 1.2 0
$EndNodes
$Elements
30
1 15 2 0 1 1
2 15 2 0 2 2
3 15 2 0 3 3
4 15 2 0 4 4
5 15 2 0 5 5
6 15 2 0 6 6
7 15 2 0 7 7
8 15 2 0 8 8
9 15 2 0 9 9
10 15 2 0 10 10
11 15 2 0 11 11
12 15 2 0 12 12
13 1 2 0 1 1 2
14 1 2 0 2 2 3
15 1 2 0 3 3 4
16 1 2 0 4 4 5
17 1 2 0 5 5 6
18 1 2 0 6 6 7
19 1 2 0 7 7 8
20 1 2 0 8 8 9
21 1 2 0 9 9 10
22 1 2 0 10 10 11
23 1 2 0 11 11 12
24 1 2 0 12 12 1
25 2 2 0 1 1 2 12
26 3 2 0 1 2 3 11 12
27 3 2 0 1 3 4 10 11
28 3 2 0 1 4 5 9 10
29 3 2 0 1 5 6 8 9
30 2 2 0 1 6 7 8
$EndElements
