ISO-10303-21;
HEADER;
FILE_NAME('Open CASCADE Shape Model','2026-10-02T23:47:03',('Author'),(
    'Open CASCADE'),'Open CASCADE STEP processor 7.9','Open CASCADE 7.9'
  ,'Unknown');
FILE_DESCRIPTION(('Open CASCADE Model'),'2;1');
FILE_SCHEMA((''));
ENDSEC;
DATA;
#1 = APPLICATION_PROTOCOL_DEFINITION('international standard',
  'automotive_design',2000,#2);
#2 = APPLICATION_CONTEXT(
  'core data for automotive mechanical design processes');
#3 = SHAPE_DEFINITION_REPRESENTATION(#4,#10);
#4 = PRODUCT_DEFINITION_SHAPE('','',#5);
#5 = PRODUCT_DEFINITION('design','',#6,#9);
#6 = PRODUCT_DEFINITION_FORMATION('','',#7);
#7 = PRODUCT('Open CASCADE STEP translator 7.9 1',
  'Open CASCADE STEP translator 7.9 1','',(#8));
#8 = PRODUCT_CONTEXT('',#2,'mechanical');
#9 = PRODUCT_DEFINITION_CONTEXT('part definition',#2,'design');
#10 = ADVANCED_BREP_SHAPE_REPRESENTATION('',(#11,#15),#821);
#11 = AXIS2_PLACEMENT_3D('',#12,#13,#14);
#12 = CARTESIAN_POINT('',(0.,0.,0.));
#13 = DIRECTION('',(0.,0.,1.));
#14 = DIRECTION('',(1.,0.,-0.));
#15 = MANIFOLD_SOLID_BREP('',#16);
#16 = CLOSED_SHELL('',(#17,#128,#266,#343,#410,#480,#608,#670,#694,#718,
    #742,#766,#790,#814));
#17 = ADVANCED_FACE('',(#18),#31,.F.);
#18 = FACE_BOUND('',#19,.F.);
#19 = EDGE_LOOP('',(#20,#52,#77,#105));
#20 = ORIENTED_EDGE('',*,*,#21,.T.);
#21 = EDGE_CURVE('',#22,#24,#26,.T.);
#22 = VERTEX_POINT('',#23);
#23 = CARTESIAN_POINT('',(0.,0.,2.));
#24 = VERTEX_POINT('',#25);
#25 = CARTESIAN_POINT('',(0.,40.,2.));
#26 = SURFACE_CURVE('',#27,(#30,#41),.PCURVE_S1.);
#27 = B_SPLINE_CURVE_WITH_KNOTS('',1,(#28,#29),.UNSPECIFIED.,.F.,.F.,(2,
    2),(0.,40.),.PIECEWISE_BEZIER_KNOTS.);
#28 = CARTESIAN_POINT('',(0.,0.,2.));
#29 = CARTESIAN_POINT('',(0.,40.,2.));
#30 = PCURVE('',#31,#36);
#31 = B_SPLINE_SURFACE_WITH_KNOTS('',1,1,(
    (#32,#33)
    ,(#34,#35
    )),.UNSPECIFIED.,.F.,.F.,.F.,(2,2),(2,2),(0.,40.343145750508),(-40.,
    0.),.PIECEWISE_BEZIER_KNOTS.);
#32 = CARTESIAN_POINT('',(0.,40.,2.));
#33 = CARTESIAN_POINT('',(0.,0.,2.));
#34 = CARTESIAN_POINT('',(40.343145750508,40.,2.));
#35 = CARTESIAN_POINT('',(40.343145750508,0.,2.));
#36 = DEFINITIONAL_REPRESENTATION('',(#37),#40);
#37 = B_SPLINE_CURVE_WITH_KNOTS('',1,(#38,#39),.UNSPECIFIED.,.F.,.F.,(2,
    2),(0.,40.),.PIECEWISE_BEZIER_KNOTS.);
#38 = CARTESIAN_POINT('',(0.,0.));
#39 = CARTESIAN_POINT('',(0.,-40.));
#40 = ( GEOMETRIC_REPRESENTATION_CONTEXT(2) 
PARAMETRIC_REPRESENTATION_CONTEXT() REPRESENTATION_CONTEXT('2D SPACE',''
  ) );
#41 = PCURVE('',#42,#47);
#42 = B_SPLINE_SURFACE_WITH_KNOTS('',1,1,(
    (#43,#44)
    ,(#45,#46
    )),.UNSPECIFIED.,.F.,.F.,.F.,(2,2),(2,2),(-2.,2.),(-20.,20.),
  .PIECEWISE_BEZIER_KNOTS.);
#43 = CARTESIAN_POINT('',(0.,40.,-2.));
#44 = CARTESIAN_POINT('',(0.,0.,-2.));
#45 = CARTESIAN_POINT('',(0.,40.,2.));
#46 = CARTESIAN_POINT('',(0.,0.,2.));
#47 = DEFINITIONAL_REPRESENTATION('',(#48),#51);
#48 = B_SPLINE_CURVE_WITH_KNOTS('',1,(#49,#50),.UNSPECIFIED.,.F.,.F.,(2,
    2),(0.,40.),.PIECEWISE_BEZIER_KNOTS.);
#49 = CARTESIAN_POINT('',(2.,20.));
#50 = CARTESIAN_POINT('',(2.,-20.));
#51 = ( GEOMETRIC_REPRESENTATION_CONTEXT(2) 
PARAMETRIC_REPRESENTATION_CONTEXT() REPRESENTATION_CONTEXT('2D SPACE',''
  ) );
#52 = ORIENTED_EDGE('',*,*,#53,.T.);
#53 = EDGE_CURVE('',#24,#54,#56,.T.);
#54 = VERTEX_POINT('',#55);
#55 = CARTESIAN_POINT('',(40.343145750508,40.,2.));
#56 = SURFACE_CURVE('',#57,(#60,#66),.PCURVE_S1.);
#57 = B_SPLINE_CURVE_WITH_KNOTS('',1,(#58,#59),.UNSPECIFIED.,.F.,.F.,(2,
    2),(0.,40.343145750508),.PIECEWISE_BEZIER_KNOTS.);
#58 = CARTESIAN_POINT('',(0.,40.,2.));
#59 = CARTESIAN_POINT('',(40.343145750508,40.,2.));
#60 = PCURVE('',#31,#61);
#61 = DEFINITIONAL_REPRESENTATION('',(#62),#65);
#62 = B_SPLINE_CURVE_WITH_KNOTS('',1,(#63,#64),.UNSPECIFIED.,.F.,.F.,(2,
    2),(0.,40.343145750508),.PIECEWISE_BEZIER_KNOTS.);
#63 = CARTESIAN_POINT('',(0.,-40.));
#64 = CARTESIAN_POINT('',(40.343145750508,-40.));
#65 = ( GEOMETRIC_REPRESENTATION_CONTEXT(2) 
PARAMETRIC_REPRESENTATION_CONTEXT() REPRESENTATION_CONTEXT('2D SPACE',''
  ) );
#66 = PCURVE('',#67,#72);
#67 = B_SPLINE_SURFACE_WITH_KNOTS('',1,1,(
    (#68,#69)
    ,(#70,#71
    )),.UNSPECIFIED.,.F.,.F.,.F.,(2,2),(2,2),(-2.,2.),(-20.17157287525,
    20.171572875254),.PIECEWISE_BEZIER_KNOTS.);
#68 = CARTESIAN_POINT('',(0.,40.,-2.));
#69 = CARTESIAN_POINT('',(40.343145750508,40.,-2.));
#70 = CARTESIAN_POINT('',(0.,40.,2.));
#71 = CARTESIAN_POINT('',(40.343145750508,40.,2.));
#72 = DEFINITIONAL_REPRESENTATION('',(#73),#76);
#73 = B_SPLINE_CURVE_WITH_KNOTS('',1,(#74,#75),.UNSPECIFIED.,.F.,.F.,(2,
    2),(0.,40.343145750508),.PIECEWISE_BEZIER_KNOTS.);
#74 = CARTESIAN_POINT('',(2.,-20.17157287525));
#75 = CARTESIAN_POINT('',(2.,20.171572875254));
#76 = ( GEOMETRIC_REPRESENTATION_CONTEXT(2) 
PARAMETRIC_REPRESENTATION_CONTEXT() REPRESENTATION_CONTEXT('2D SPACE',''
  ) );
#77 = ORIENTED_EDGE('',*,*,#78,.F.);
#78 = EDGE_CURVE('',#79,#54,#81,.T.);
#79 = VERTEX_POINT('',#80);
#80 = CARTESIAN_POINT('',(40.343145750508,0.,2.));
#81 = SURFACE_CURVE('',#82,(#85,#91),.PCURVE_S1.);
#82 = B_SPLINE_CURVE_WITH_KNOTS('',1,(#83,#84),.UNSPECIFIED.,.F.,.F.,(2,
    2),(0.,40.),.PIECEWISE_BEZIER_KNOTS.);
#83 = CARTESIAN_POINT('',(40.343145750508,0.,2.));
#84 = CARTESIAN_POINT('',(40.343145750508,40.,2.));
#85 = PCURVE('',#31,#86);
#86 = DEFINITIONAL_REPRESENTATION('',(#87),#90);
#87 = B_SPLINE_CURVE_WITH_KNOTS('',1,(#88,#89),.UNSPECIFIED.,.F.,.F.,(2,
    2),(0.,40.),.PIECEWISE_BEZIER_KNOTS.);
#88 = CARTESIAN_POINT('',(40.343145750508,0.));
#89 = CARTESIAN_POINT('',(40.343145750508,-40.));
#90 = ( GEOMETRIC_REPRESENTATION_CONTEXT(2) 
PARAMETRIC_REPRESENTATION_CONTEXT() REPRESENTATION_CONTEXT('2D SPACE',''
  ) );
#91 = PCURVE('',#92,#99);
#92 = ( BOUNDED_SURFACE() B_SPLINE_SURFACE(2,1,(
    (#93,#94)
    ,(#95,#96)
,(#97,#98
  )),.UNSPECIFIED.,.F.,.F.,.F.) B_SPLINE_SURFACE_WITH_KNOTS((3,3),(2,2),
  (3.14159265359,5.497787143782),(-40.,0.),.PIECEWISE_BEZIER_KNOTS.) 
GEOMETRIC_REPRESENTATION_ITEM() RATIONAL_B_SPLINE_SURFACE((
    (1.,1.)
    ,(0.382683432365,0.382683432365)
,(1.,1.))) REPRESENTATION_ITEM('') SURFACE() );
#93 = CARTESIAN_POINT('',(40.343145750508,40.,2.));
#94 = CARTESIAN_POINT('',(40.343145750508,0.,2.));
#95 = CARTESIAN_POINT('',(45.171572875254,40.,2.));
#96 = CARTESIAN_POINT('',(45.171572875254,0.,2.));
#97 = CARTESIAN_POINT('',(41.757359312881,40.,5.414213562373));
#98 = CARTESIAN_POINT('',(41.757359312881,0.,5.414213562373));
#99 = DEFINITIONAL_REPRESENTATION('',(#100),#104);
#100 = B_SPLINE_CURVE_WITH_KNOTS('',2,(#101,#102,#103),.UNSPECIFIED.,.F.
  ,.F.,(3,3),(0.,40.),.PIECEWISE_BEZIER_KNOTS.);
#101 = CARTESIAN_POINT('',(3.14159265359,0.));
#102 = CARTESIAN_POINT('',(3.14159265359,-20.));
#103 = CARTESIAN_POINT('',(3.14159265359,-40.));
#104 = ( GEOMETRIC_REPRESENTATION_CONTEXT(2) 
PARAMETRIC_REPRESENTATION_CONTEXT() REPRESENTATION_CONTEXT('2D SPACE',''
  ) );
#105 = ORIENTED_EDGE('',*,*,#106,.F.);
#106 = EDGE_CURVE('',#22,#79,#107,.T.);
#107 = SURFACE_CURVE('',#108,(#111,#117),.PCURVE_S1.);
#108 = B_SPLINE_CURVE_WITH_KNOTS('',1,(#109,#110),.UNSPECIFIED.,.F.,.F.,
  (2,2),(0.,40.343145750508),.PIECEWISE_BEZIER_KNOTS.);
#109 = CARTESIAN_POINT('',(0.,0.,2.));
#110 = CARTESIAN_POINT('',(40.343145750508,0.,2.));
#111 = PCURVE('',#31,#112);
#112 = DEFINITIONAL_REPRESENTATION('',(#113),#116);
#113 = B_SPLINE_CURVE_WITH_KNOTS('',1,(#114,#115),.UNSPECIFIED.,.F.,.F.,
  (2,2),(0.,40.343145750508),.PIECEWISE_BEZIER_KNOTS.);
#114 = CARTESIAN_POINT('',(0.,0.));
#115 = CARTESIAN_POINT('',(40.343145750508,0.));
#116 = ( GEOMETRIC_REPRESENTATION_CONTEXT(2) 
PARAMETRIC_REPRESENTATION_CONTEXT() REPRESENTATION_CONTEXT('2D SPACE',''
  ) );
#117 = PCURVE('',#118,#123);
#118 = B_SPLINE_SURFACE_WITH_KNOTS('',1,1,(
    (#119,#120)
    ,(#121,#122
    )),.UNSPECIFIED.,.F.,.F.,.F.,(2,2),(2,2),(-2.,2.),(-20.17157287525,
    20.171572875254),.PIECEWISE_BEZIER_KNOTS.);
#119 = CARTESIAN_POINT('',(0.,0.,-2.));
#120 = CARTESIAN_POINT('',(40.343145750508,0.,-2.));
#121 = CARTESIAN_POINT('',(0.,0.,2.));
#122 = CARTESIAN_POINT('',(40.343145750508,0.,2.));
#123 = DEFINITIONAL_REPRESENTATION('',(#124),#127);
#124 = B_SPLINE_CURVE_WITH_KNOTS('',1,(#125,#126),.UNSPECIFIED.,.F.,.F.,
  (2,2),(0.,40.343145750508),.PIECEWISE_BEZIER_KNOTS.);
#125 = CARTESIAN_POINT('',(2.,-20.17157287525));
#126 = CARTESIAN_POINT('',(2.,20.171572875254));
#127 = ( GEOMETRIC_REPRESENTATION_CONTEXT(2) 
PARAMETRIC_REPRESENTATION_CONTEXT() REPRESENTATION_CONTEXT('2D SPACE',''
  ) );
#128 = ADVANCED_FACE('',(#129),#92,.F.);
#129 = FACE_BOUND('',#130,.F.);
#130 = EDGE_LOOP('',(#131,#132,#187,#213));
#131 = ORIENTED_EDGE('',*,*,#78,.T.);
#132 = ORIENTED_EDGE('',*,*,#133,.T.);
#133 = EDGE_CURVE('',#54,#134,#136,.T.);
#134 = VERTEX_POINT('',#135);
#135 = CARTESIAN_POINT('',(41.757359312881,40.,5.414213562373));
#136 = SURFACE_CURVE('',#137,(#148,#168),.PCURVE_S1.);
#137 = B_SPLINE_CURVE_WITH_KNOTS('',9,(#138,#139,#140,#141,#142,#143,
    #144,#145,#146,#147),.UNSPECIFIED.,.F.,.F.,(10,10),(3.14159265359,
    5.497787143782),.PIECEWISE_BEZIER_KNOTS.);
#138 = CARTESIAN_POINT('',(40.343145750508,40.,2.));
#139 = CARTESIAN_POINT('',(40.866744526106,40.,2.));
#140 = CARTESIAN_POINT('',(41.390343677965,40.000000000001,
    2.154212377936));
#141 = CARTESIAN_POINT('',(41.862032182862,39.999999999998,
    2.462638821939));
#142 = CARTESIAN_POINT('',(42.229915512321,40.000000000004,2.90488768041
    ));
#143 = CARTESIAN_POINT('',(42.451654790962,39.999999999996,
    3.440213654229));
#144 = CARTESIAN_POINT('',(42.504239160821,40.000000000003,
    4.013063617969));
#145 = CARTESIAN_POINT('',(42.388795450448,39.999999999998,
    4.564688188443));
#146 = CARTESIAN_POINT('',(42.127599557728,40.,5.043973317527));
#147 = CARTESIAN_POINT('',(41.757359312881,40.,5.414213562373));
#148 = PCURVE('',#92,#149);
#149 = DEFINITIONAL_REPRESENTATION('',(#150),#167);
#150 = B_SPLINE_CURVE_WITH_KNOTS('',8,(#151,#152,#153,#154,#155,#156,
    #157,#158,#159,#160,#161,#162,#163,#164,#165,#166),.UNSPECIFIED.,.F.
  ,.F.,(9,7,9),(3.14159265359,4.319689898686,5.497787143782),
  .UNSPECIFIED.);
#151 = CARTESIAN_POINT('',(3.14159265359,-40.));
#152 = CARTESIAN_POINT('',(3.329375787075,-40.00000000074));
#153 = CARTESIAN_POINT('',(3.496043659191,-39.99999999459));
#154 = CARTESIAN_POINT('',(3.648843972292,-40.00000000844));
#155 = CARTESIAN_POINT('',(3.79181206481,-39.99999997436));
#156 = CARTESIAN_POINT('',(3.928081114359,-40.00000000776));
#157 = CARTESIAN_POINT('',(4.060044087306,-39.99999999511));
#158 = CARTESIAN_POINT('',(4.189867596842,-40.00000000085));
#159 = CARTESIAN_POINT('',(4.449512200481,-40.0000000004));
#160 = CARTESIAN_POINT('',(4.579335710253,-39.9999999981));
#161 = CARTESIAN_POINT('',(4.711298682786,-40.0000000045));
#162 = CARTESIAN_POINT('',(4.847567730857,-39.99999998705));
#163 = CARTESIAN_POINT('',(4.990535824232,-40.00000000408));
#164 = CARTESIAN_POINT('',(5.143336138353,-39.99999999756));
#165 = CARTESIAN_POINT('',(5.310004010247,-40.00000000052));
#166 = CARTESIAN_POINT('',(5.497787143782,-40.));
#167 = ( GEOMETRIC_REPRESENTATION_CONTEXT(2) 
PARAMETRIC_REPRESENTATION_CONTEXT() REPRESENTATION_CONTEXT('2D SPACE',''
  ) );
#168 = PCURVE('',#169,#174);
#169 = B_SPLINE_SURFACE_WITH_KNOTS('',1,1,(
    (#170,#171)
    ,(#172,#173
    )),.UNSPECIFIED.,.F.,.F.,.F.,(2,2),(2,2),(-4.7785913658,
    5.464049321319),(-2.948741289885,3.534538941054),
  .PIECEWISE_BEZIER_KNOTS.);
#170 = CARTESIAN_POINT('',(40.343145750508,40.,-2.));
#171 = CARTESIAN_POINT('',(46.826425981446,40.,-2.));
#172 = CARTESIAN_POINT('',(40.343145750508,40.,8.242640687119));
#173 = CARTESIAN_POINT('',(46.826425981446,40.,8.242640687119));
#174 = DEFINITIONAL_REPRESENTATION('',(#175),#186);
#175 = B_SPLINE_CURVE_WITH_KNOTS('',9,(#176,#177,#178,#179,#180,#181,
    #182,#183,#184,#185),.UNSPECIFIED.,.F.,.F.,(10,10),(3.14159265359,
    5.497787143782),.PIECEWISE_BEZIER_KNOTS.);
#176 = CARTESIAN_POINT('',(-0.7785913658,-2.948741289885));
#177 = CARTESIAN_POINT('',(-0.7785913658,-2.425142514287));
#178 = CARTESIAN_POINT('',(-0.624378987865,-1.901543362428));
#179 = CARTESIAN_POINT('',(-0.315952543862,-1.42985485753));
#180 = CARTESIAN_POINT('',(0.12629631461,-1.061971528071));
#181 = CARTESIAN_POINT('',(0.661622288429,-0.840232249431));
#182 = CARTESIAN_POINT('',(1.234472252169,-0.787647879571));
#183 = CARTESIAN_POINT('',(1.786096822643,-0.903091589945));
#184 = CARTESIAN_POINT('',(2.265381951726,-1.164287482665));
#185 = CARTESIAN_POINT('',(2.635622196573,-1.534527727512));
#186 = ( GEOMETRIC_REPRESENTATION_CONTEXT(2) 
PARAMETRIC_REPRESENTATION_CONTEXT() REPRESENTATION_CONTEXT('2D SPACE',''
  ) );
#187 = ORIENTED_EDGE('',*,*,#188,.F.);
#188 = EDGE_CURVE('',#189,#134,#191,.T.);
#189 = VERTEX_POINT('',#190);
#190 = CARTESIAN_POINT('',(41.757359312881,0.,5.414213562373));
#191 = SURFACE_CURVE('',#192,(#195,#202),.PCURVE_S1.);
#192 = B_SPLINE_CURVE_WITH_KNOTS('',1,(#193,#194),.UNSPECIFIED.,.F.,.F.,
  (2,2),(0.,40.),.PIECEWISE_BEZIER_KNOTS.);
#193 = CARTESIAN_POINT('',(41.757359312881,0.,5.414213562373));
#194 = CARTESIAN_POINT('',(41.757359312881,40.,5.414213562373));
#195 = PCURVE('',#92,#196);
#196 = DEFINITIONAL_REPRESENTATION('',(#197),#201);
#197 = B_SPLINE_CURVE_WITH_KNOTS('',2,(#198,#199,#200),.UNSPECIFIED.,.F.
  ,.F.,(3,3),(0.,40.),.PIECEWISE_BEZIER_KNOTS.);
#198 = CARTESIAN_POINT('',(5.497787143782,0.));
#199 = CARTESIAN_POINT('',(5.497787143782,-20.));
#200 = CARTESIAN_POINT('',(5.497787143782,-40.));
#201 = ( GEOMETRIC_REPRESENTATION_CONTEXT(2) 
PARAMETRIC_REPRESENTATION_CONTEXT() REPRESENTATION_CONTEXT('2D SPACE',''
  ) );
#202 = PCURVE('',#203,#208);
#203 = B_SPLINE_SURFACE_WITH_KNOTS('',1,1,(
    (#204,#205)
    ,(#206,#207
    )),.UNSPECIFIED.,.F.,.F.,.F.,(2,2),(2,2),(0.,30.343145750508),(-40.,
    0.),.PIECEWISE_BEZIER_KNOTS.);
#204 = CARTESIAN_POINT('',(41.757359312881,40.,5.414213562373));
#205 = CARTESIAN_POINT('',(41.757359312881,0.,5.414213562373));
#206 = CARTESIAN_POINT('',(20.301515190165,40.,26.870057685089));
#207 = CARTESIAN_POINT('',(20.301515190165,0.,26.870057685089));
#208 = DEFINITIONAL_REPRESENTATION('',(#209),#212);
#209 = B_SPLINE_CURVE_WITH_KNOTS('',1,(#210,#211),.UNSPECIFIED.,.F.,.F.,
  (2,2),(0.,40.),.PIECEWISE_BEZIER_KNOTS.);
#210 = CARTESIAN_POINT('',(0.,0.));
#211 = CARTESIAN_POINT('',(0.,-40.));
#212 = ( GEOMETRIC_REPRESENTATION_CONTEXT(2) 
PARAMETRIC_REPRESENTATION_CONTEXT() REPRESENTATION_CONTEXT('2D SPACE',''
  ) );
#213 = ORIENTED_EDGE('',*,*,#214,.F.);
#214 = EDGE_CURVE('',#79,#189,#215,.T.);
#215 = SURFACE_CURVE('',#216,(#227,#247),.PCURVE_S1.);
#216 = B_SPLINE_CURVE_WITH_KNOTS('',9,(#217,#218,#219,#220,#221,#222,
    #223,#224,#225,#226),.UNSPECIFIED.,.F.,.F.,(10,10),(3.14159265359,
    5.497787143782),.PIECEWISE_BEZIER_KNOTS.);
#217 = CARTESIAN_POINT('',(40.343145750508,0.,2.));
#218 = CARTESIAN_POINT('',(40.866744526106,0.,2.));
#219 = CARTESIAN_POINT('',(41.390343677965,0.,2.154212377936));
#220 = CARTESIAN_POINT('',(41.862032182862,0.,2.462638821939));
#221 = CARTESIAN_POINT('',(42.229915512321,0.,2.90488768041));
#222 = CARTESIAN_POINT('',(42.451654790962,0.,3.440213654229));
#223 = CARTESIAN_POINT('',(42.504239160821,0.,4.013063617969));
#224 = CARTESIAN_POINT('',(42.388795450448,0.,4.564688188443));
#225 = CARTESIAN_POINT('',(42.127599557728,0.,5.043973317527));
#226 = CARTESIAN_POINT('',(41.757359312881,0.,5.414213562373));
#227 = PCURVE('',#92,#228);
#228 = DEFINITIONAL_REPRESENTATION('',(#229),#246);
#229 = B_SPLINE_CURVE_WITH_KNOTS('',8,(#230,#231,#232,#233,#234,#235,
    #236,#237,#238,#239,#240,#241,#242,#243,#244,#245),.UNSPECIFIED.,.F.
  ,.F.,(9,7,9),(3.14159265359,4.319689898686,5.497787143782),
  .UNSPECIFIED.);
#230 = CARTESIAN_POINT('',(3.14159265359,-3.5527136788E-15));
#231 = CARTESIAN_POINT('',(3.329375787075,-1.405630428547E-14));
#232 = CARTESIAN_POINT('',(3.496043659191,4.155210580633E-14));
#233 = CARTESIAN_POINT('',(3.648843972292,-7.7798289702E-14));
#234 = CARTESIAN_POINT('',(3.79181206481,3.8276492123E-14));
#235 = CARTESIAN_POINT('',(3.928081114359,-1.412630400676E-14));
#236 = CARTESIAN_POINT('',(4.060044087306,-9.801904938969E-15));
#237 = CARTESIAN_POINT('',(4.189867596842,-4.112983457329E-15));
#238 = CARTESIAN_POINT('',(4.44951220055,-2.731335042328E-14));
#239 = CARTESIAN_POINT('',(4.579335709844,8.887547781169E-14));
#240 = CARTESIAN_POINT('',(4.711298683395,-2.391382366809E-13));
#241 = CARTESIAN_POINT('',(4.847567730144,3.437293235745E-13));
#242 = CARTESIAN_POINT('',(4.990535824867,-3.372666882266E-13));
#243 = CARTESIAN_POINT('',(5.143336137931,1.702419393043E-13));
#244 = CARTESIAN_POINT('',(5.310004010317,-5.128972604251E-14));
#245 = CARTESIAN_POINT('',(5.497787143782,-3.5527136788E-15));
#246 = ( GEOMETRIC_REPRESENTATION_CONTEXT(2) 
PARAMETRIC_REPRESENTATION_CONTEXT() REPRESENTATION_CONTEXT('2D SPACE',''
  ) );
#247 = PCURVE('',#248,#253);
#248 = B_SPLINE_SURFACE_WITH_KNOTS('',1,1,(
    (#249,#250)
    ,(#251,#252
    )),.UNSPECIFIED.,.F.,.F.,.F.,(2,2),(2,2),(-4.7785913658,
    5.464049321319),(-2.948741289885,3.534538941054),
  .PIECEWISE_BEZIER_KNOTS.);
#249 = CARTESIAN_POINT('',(40.343145750508,0.,-2.));
#250 = CARTESIAN_POINT('',(46.826425981446,0.,-2.));
#251 = CARTESIAN_POINT('',(40.343145750508,0.,8.242640687119));
#252 = CARTESIAN_POINT('',(46.826425981446,0.,8.242640687119));
#253 = DEFINITIONAL_REPRESENTATION('',(#254),#265);
#254 = B_SPLINE_CURVE_WITH_KNOTS('',9,(#255,#256,#257,#258,#259,#260,
    #261,#262,#263,#264),.UNSPECIFIED.,.F.,.F.,(10,10),(3.14159265359,
    5.497787143782),.PIECEWISE_BEZIER_KNOTS.);
#255 = CARTESIAN_POINT('',(-0.7785913658,-2.948741289885));
#256 = CARTESIAN_POINT('',(-0.7785913658,-2.425142514287));
#257 = CARTESIAN_POINT('',(-0.624378987865,-1.901543362428));
#258 = CARTESIAN_POINT('',(-0.315952543862,-1.42985485753));
#259 = CARTESIAN_POINT('',(0.12629631461,-1.061971528071));
#260 = CARTESIAN_POINT('',(0.661622288429,-0.840232249431));
#261 = CARTESIAN_POINT('',(1.234472252169,-0.787647879571));
#262 = CARTESIAN_POINT('',(1.786096822643,-0.903091589945));
#263 = CARTESIAN_POINT('',(2.265381951726,-1.164287482665));
#264 = CARTESIAN_POINT('',(2.635622196573,-1.534527727512));
#265 = ( GEOMETRIC_REPRESENTATION_CONTEXT(2) 
PARAMETRIC_REPRESENTATION_CONTEXT() REPRESENTATION_CONTEXT('2D SPACE',''
  ) );
#266 = ADVANCED_FACE('',(#267),#203,.F.);
#267 = FACE_BOUND('',#268,.F.);
#268 = EDGE_LOOP('',(#269,#270,#295,#320));
#269 = ORIENTED_EDGE('',*,*,#188,.T.);
#270 = ORIENTED_EDGE('',*,*,#271,.T.);
#271 = EDGE_CURVE('',#134,#272,#274,.T.);
#272 = VERTEX_POINT('',#273);
#273 = CARTESIAN_POINT('',(20.301515190165,40.,26.870057685089));
#274 = SURFACE_CURVE('',#275,(#278,#284),.PCURVE_S1.);
#275 = B_SPLINE_CURVE_WITH_KNOTS('',1,(#276,#277),.UNSPECIFIED.,.F.,.F.,
  (2,2),(0.,30.343145750508),.PIECEWISE_BEZIER_KNOTS.);
#276 = CARTESIAN_POINT('',(41.757359312881,40.,5.414213562373));
#277 = CARTESIAN_POINT('',(20.301515190165,40.,26.870057685089));
#278 = PCURVE('',#203,#279);
#279 = DEFINITIONAL_REPRESENTATION('',(#280),#283);
#280 = B_SPLINE_CURVE_WITH_KNOTS('',1,(#281,#282),.UNSPECIFIED.,.F.,.F.,
  (2,2),(0.,30.343145750508),.PIECEWISE_BEZIER_KNOTS.);
#281 = CARTESIAN_POINT('',(0.,-40.));
#282 = CARTESIAN_POINT('',(30.343145750508,-40.));
#283 = ( GEOMETRIC_REPRESENTATION_CONTEXT(2) 
PARAMETRIC_REPRESENTATION_CONTEXT() REPRESENTATION_CONTEXT('2D SPACE',''
  ) );
#284 = PCURVE('',#285,#290);
#285 = B_SPLINE_SURFACE_WITH_KNOTS('',1,1,(
    (#286,#287)
    ,(#288,#289
    )),.UNSPECIFIED.,.F.,.F.,.F.,(2,2),(2,2),(-12.14213562373,
    12.142135623731),(-12.14213562373,12.142135623731),
  .PIECEWISE_BEZIER_KNOTS.);
#286 = CARTESIAN_POINT('',(20.301515190165,40.,5.414213562373));
#287 = CARTESIAN_POINT('',(44.585786437627,40.,5.414213562373));
#288 = CARTESIAN_POINT('',(20.301515190165,40.,29.698484809835));
#289 = CARTESIAN_POINT('',(44.585786437627,40.,29.698484809835));
#290 = DEFINITIONAL_REPRESENTATION('',(#291),#294);
#291 = B_SPLINE_CURVE_WITH_KNOTS('',1,(#292,#293),.UNSPECIFIED.,.F.,.F.,
  (2,2),(0.,30.343145750508),.PIECEWISE_BEZIER_KNOTS.);
#292 = CARTESIAN_POINT('',(-12.14213562373,9.313708498985));
#293 = CARTESIAN_POINT('',(9.313708498985,-12.14213562373));
#294 = ( GEOMETRIC_REPRESENTATION_CONTEXT(2) 
PARAMETRIC_REPRESENTATION_CONTEXT() REPRESENTATION_CONTEXT('2D SPACE',''
  ) );
#295 = ORIENTED_EDGE('',*,*,#296,.F.);
#296 = EDGE_CURVE('',#297,#272,#299,.T.);
#297 = VERTEX_POINT('',#298);
#298 = CARTESIAN_POINT('',(20.301515190165,0.,26.870057685089));
#299 = SURFACE_CURVE('',#300,(#303,#309),.PCURVE_S1.);
#300 = B_SPLINE_CURVE_WITH_KNOTS('',1,(#301,#302),.UNSPECIFIED.,.F.,.F.,
  (2,2),(0.,40.),.PIECEWISE_BEZIER_KNOTS.);
#301 = CARTESIAN_POINT('',(20.301515190165,0.,26.870057685089));
#302 = CARTESIAN_POINT('',(20.301515190165,40.,26.870057685089));
#303 = PCURVE('',#203,#304);
#304 = DEFINITIONAL_REPRESENTATION('',(#305),#308);
#305 = B_SPLINE_CURVE_WITH_KNOTS('',1,(#306,#307),.UNSPECIFIED.,.F.,.F.,
  (2,2),(0.,40.),.PIECEWISE_BEZIER_KNOTS.);
#306 = CARTESIAN_POINT('',(30.343145750508,0.));
#307 = CARTESIAN_POINT('',(30.343145750508,-40.));
#308 = ( GEOMETRIC_REPRESENTATION_CONTEXT(2) 
PARAMETRIC_REPRESENTATION_CONTEXT() REPRESENTATION_CONTEXT('2D SPACE',''
  ) );
#309 = PCURVE('',#310,#315);
#310 = B_SPLINE_SURFACE_WITH_KNOTS('',1,1,(
    (#311,#312)
    ,(#313,#314
    )),.UNSPECIFIED.,.F.,.F.,.F.,(2,2),(2,2),(-2.,2.),(-20.,20.),
  .PIECEWISE_BEZIER_KNOTS.);
#311 = CARTESIAN_POINT('',(20.301515190165,0.,26.870057685089));
#312 = CARTESIAN_POINT('',(20.301515190165,40.,26.870057685089));
#313 = CARTESIAN_POINT('',(23.129942314911,0.,29.698484809835));
#314 = CARTESIAN_POINT('',(23.129942314911,40.,29.698484809835));
#315 = DEFINITIONAL_REPRESENTATION('',(#316),#319);
#316 = B_SPLINE_CURVE_WITH_KNOTS('',1,(#317,#318),.UNSPECIFIED.,.F.,.F.,
  (2,2),(0.,40.),.PIECEWISE_BEZIER_KNOTS.);
#317 = CARTESIAN_POINT('',(-2.,-20.));
#318 = CARTESIAN_POINT('',(-2.,20.));
#319 = ( GEOMETRIC_REPRESENTATION_CONTEXT(2) 
PARAMETRIC_REPRESENTATION_CONTEXT() REPRESENTATION_CONTEXT('2D SPACE',''
  ) );
#320 = ORIENTED_EDGE('',*,*,#321,.F.);
#321 = EDGE_CURVE('',#189,#297,#322,.T.);
#322 = SURFACE_CURVE('',#323,(#326,#332),.PCURVE_S1.);
#323 = B_SPLINE_CURVE_WITH_KNOTS('',1,(#324,#325),.UNSPECIFIED.,.F.,.F.,
  (2,2),(0.,30.343145750508),.PIECEWISE_BEZIER_KNOTS.);
#324 = CARTESIAN_POINT('',(41.757359312881,0.,5.414213562373));
#325 = CARTESIAN_POINT('',(20.301515190165,0.,26.870057685089));
#326 = PCURVE('',#203,#327);
#327 = DEFINITIONAL_REPRESENTATION('',(#328),#331);
#328 = B_SPLINE_CURVE_WITH_KNOTS('',1,(#329,#330),.UNSPECIFIED.,.F.,.F.,
  (2,2),(0.,30.343145750508),.PIECEWISE_BEZIER_KNOTS.);
#329 = CARTESIAN_POINT('',(0.,0.));
#330 = CARTESIAN_POINT('',(30.343145750508,0.));
#331 = ( GEOMETRIC_REPRESENTATION_CONTEXT(2) 
PARAMETRIC_REPRESENTATION_CONTEXT() REPRESENTATION_CONTEXT('2D SPACE',''
  ) );
#332 = PCURVE('',#333,#338);
#333 = B_SPLINE_SURFACE_WITH_KNOTS('',1,1,(
    (#334,#335)
    ,(#336,#337
    )),.UNSPECIFIED.,.F.,.F.,.F.,(2,2),(2,2),(-12.14213562373,
    12.142135623731),(-12.14213562373,12.142135623731),
  .PIECEWISE_BEZIER_KNOTS.);
#334 = CARTESIAN_POINT('',(20.301515190165,0.,5.414213562373));
#335 = CARTESIAN_POINT('',(44.585786437627,0.,5.414213562373));
#336 = CARTESIAN_POINT('',(20.301515190165,0.,29.698484809835));
#337 = CARTESIAN_POINT('',(44.585786437627,0.,29.698484809835));
#338 = DEFINITIONAL_REPRESENTATION('',(#339),#342);
#339 = B_SPLINE_CURVE_WITH_KNOTS('',1,(#340,#341),.UNSPECIFIED.,.F.,.F.,
  (2,2),(0.,30.343145750508),.PIECEWISE_BEZIER_KNOTS.);
#340 = CARTESIAN_POINT('',(-12.14213562373,9.313708498985));
#341 = CARTESIAN_POINT('',(9.313708498985,-12.14213562373));
#342 = ( GEOMETRIC_REPRESENTATION_CONTEXT(2) 
PARAMETRIC_REPRESENTATION_CONTEXT() REPRESENTATION_CONTEXT('2D SPACE',''
  ) );
#343 = ADVANCED_FACE('',(#344),#42,.F.);
#344 = FACE_BOUND('',#345,.T.);
#345 = EDGE_LOOP('',(#346,#347,#367,#392));
#346 = ORIENTED_EDGE('',*,*,#21,.T.);
#347 = ORIENTED_EDGE('',*,*,#348,.T.);
#348 = EDGE_CURVE('',#24,#349,#351,.T.);
#349 = VERTEX_POINT('',#350);
#350 = CARTESIAN_POINT('',(0.,40.,-2.));
#351 = SURFACE_CURVE('',#352,(#355,#361),.PCURVE_S1.);
#352 = B_SPLINE_CURVE_WITH_KNOTS('',1,(#353,#354),.UNSPECIFIED.,.F.,.F.,
  (2,2),(0.,4.),.PIECEWISE_BEZIER_KNOTS.);
#353 = CARTESIAN_POINT('',(0.,40.,2.));
#354 = CARTESIAN_POINT('',(0.,40.,-2.));
#355 = PCURVE('',#42,#356);
#356 = DEFINITIONAL_REPRESENTATION('',(#357),#360);
#357 = B_SPLINE_CURVE_WITH_KNOTS('',1,(#358,#359),.UNSPECIFIED.,.F.,.F.,
  (2,2),(0.,4.),.PIECEWISE_BEZIER_KNOTS.);
#358 = CARTESIAN_POINT('',(2.,-20.));
#359 = CARTESIAN_POINT('',(-2.,-20.));
#360 = ( GEOMETRIC_REPRESENTATION_CONTEXT(2) 
PARAMETRIC_REPRESENTATION_CONTEXT() REPRESENTATION_CONTEXT('2D SPACE',''
  ) );
#361 = PCURVE('',#67,#362);
#362 = DEFINITIONAL_REPRESENTATION('',(#363),#366);
#363 = B_SPLINE_CURVE_WITH_KNOTS('',1,(#364,#365),.UNSPECIFIED.,.F.,.F.,
  (2,2),(0.,4.),.PIECEWISE_BEZIER_KNOTS.);
#364 = CARTESIAN_POINT('',(2.,-20.17157287525));
#365 = CARTESIAN_POINT('',(-2.,-20.17157287525));
#366 = ( GEOMETRIC_REPRESENTATION_CONTEXT(2) 
PARAMETRIC_REPRESENTATION_CONTEXT() REPRESENTATION_CONTEXT('2D SPACE',''
  ) );
#367 = ORIENTED_EDGE('',*,*,#368,.F.);
#368 = EDGE_CURVE('',#369,#349,#371,.T.);
#369 = VERTEX_POINT('',#370);
#370 = CARTESIAN_POINT('',(0.,0.,-2.));
#371 = SURFACE_CURVE('',#372,(#375,#381),.PCURVE_S1.);
#372 = B_SPLINE_CURVE_WITH_KNOTS('',1,(#373,#374),.UNSPECIFIED.,.F.,.F.,
  (2,2),(0.,40.),.PIECEWISE_BEZIER_KNOTS.);
#373 = CARTESIAN_POINT('',(0.,0.,-2.));
#374 = CARTESIAN_POINT('',(0.,40.,-2.));
#375 = PCURVE('',#42,#376);
#376 = DEFINITIONAL_REPRESENTATION('',(#377),#380);
#377 = B_SPLINE_CURVE_WITH_KNOTS('',1,(#378,#379),.UNSPECIFIED.,.F.,.F.,
  (2,2),(0.,40.),.PIECEWISE_BEZIER_KNOTS.);
#378 = CARTESIAN_POINT('',(-2.,20.));
#379 = CARTESIAN_POINT('',(-2.,-20.));
#380 = ( GEOMETRIC_REPRESENTATION_CONTEXT(2) 
PARAMETRIC_REPRESENTATION_CONTEXT() REPRESENTATION_CONTEXT('2D SPACE',''
  ) );
#381 = PCURVE('',#382,#387);
#382 = B_SPLINE_SURFACE_WITH_KNOTS('',1,1,(
    (#383,#384)
    ,(#385,#386
    )),.UNSPECIFIED.,.F.,.F.,.F.,(2,2),(2,2),(0.,40.343145750508),(-40.,
    0.),.PIECEWISE_BEZIER_KNOTS.);
#383 = CARTESIAN_POINT('',(0.,40.,-2.));
#384 = CARTESIAN_POINT('',(0.,0.,-2.));
#385 = CARTESIAN_POINT('',(40.343145750508,40.,-2.));
#386 = CARTESIAN_POINT('',(40.343145750508,0.,-2.));
#387 = DEFINITIONAL_REPRESENTATION('',(#388),#391);
#388 = B_SPLINE_CURVE_WITH_KNOTS('',1,(#389,#390),.UNSPECIFIED.,.F.,.F.,
  (2,2),(0.,40.),.PIECEWISE_BEZIER_KNOTS.);
#389 = CARTESIAN_POINT('',(0.,0.));
#390 = CARTESIAN_POINT('',(0.,-40.));
#391 = ( GEOMETRIC_REPRESENTATION_CONTEXT(2) 
PARAMETRIC_REPRESENTATION_CONTEXT() REPRESENTATION_CONTEXT('2D SPACE',''
  ) );
#392 = ORIENTED_EDGE('',*,*,#393,.F.);
#393 = EDGE_CURVE('',#22,#369,#394,.T.);
#394 = SURFACE_CURVE('',#395,(#398,#404),.PCURVE_S1.);
#395 = B_SPLINE_CURVE_WITH_KNOTS('',1,(#396,#397),.UNSPECIFIED.,.F.,.F.,
  (2,2),(0.,4.),.PIECEWISE_BEZIER_KNOTS.);
#396 = CARTESIAN_POINT('',(0.,0.,2.));
#397 = CARTESIAN_POINT('',(0.,0.,-2.));
#398 = PCURVE('',#42,#399);
#399 = DEFINITIONAL_REPRESENTATION('',(#400),#403);
#400 = B_SPLINE_CURVE_WITH_KNOTS('',1,(#401,#402),.UNSPECIFIED.,.F.,.F.,
  (2,2),(0.,4.),.PIECEWISE_BEZIER_KNOTS.);
#401 = CARTESIAN_POINT('',(2.,20.));
#402 = CARTESIAN_POINT('',(-2.,20.));
#403 = ( GEOMETRIC_REPRESENTATION_CONTEXT(2) 
PARAMETRIC_REPRESENTATION_CONTEXT() REPRESENTATION_CONTEXT('2D SPACE',''
  ) );
#404 = PCURVE('',#118,#405);
#405 = DEFINITIONAL_REPRESENTATION('',(#406),#409);
#406 = B_SPLINE_CURVE_WITH_KNOTS('',1,(#407,#408),.UNSPECIFIED.,.F.,.F.,
  (2,2),(0.,4.),.PIECEWISE_BEZIER_KNOTS.);
#407 = CARTESIAN_POINT('',(2.,-20.17157287525));
#408 = CARTESIAN_POINT('',(-2.,-20.17157287525));
#409 = ( GEOMETRIC_REPRESENTATION_CONTEXT(2) 
PARAMETRIC_REPRESENTATION_CONTEXT() REPRESENTATION_CONTEXT('2D SPACE',''
  ) );
#410 = ADVANCED_FACE('',(#411),#382,.T.);
#411 = FACE_BOUND('',#412,.T.);
#412 = EDGE_LOOP('',(#413,#414,#434,#462));
#413 = ORIENTED_EDGE('',*,*,#368,.T.);
#414 = ORIENTED_EDGE('',*,*,#415,.T.);
#415 = EDGE_CURVE('',#349,#416,#418,.T.);
#416 = VERTEX_POINT('',#417);
#417 = CARTESIAN_POINT('',(40.343145750508,40.,-2.));
#418 = SURFACE_CURVE('',#419,(#422,#428),.PCURVE_S1.);
#419 = B_SPLINE_CURVE_WITH_KNOTS('',1,(#420,#421),.UNSPECIFIED.,.F.,.F.,
  (2,2),(0.,40.343145750508),.PIECEWISE_BEZIER_KNOTS.);
#420 = CARTESIAN_POINT('',(0.,40.,-2.));
#421 = CARTESIAN_POINT('',(40.343145750508,40.,-2.));
#422 = PCURVE('',#382,#423);
#423 = DEFINITIONAL_REPRESENTATION('',(#424),#427);
#424 = B_SPLINE_CURVE_WITH_KNOTS('',1,(#425,#426),.UNSPECIFIED.,.F.,.F.,
  (2,2),(0.,40.343145750508),.PIECEWISE_BEZIER_KNOTS.);
#425 = CARTESIAN_POINT('',(0.,-40.));
#426 = CARTESIAN_POINT('',(40.343145750508,-40.));
#427 = ( GEOMETRIC_REPRESENTATION_CONTEXT(2) 
PARAMETRIC_REPRESENTATION_CONTEXT() REPRESENTATION_CONTEXT('2D SPACE',''
  ) );
#428 = PCURVE('',#67,#429);
#429 = DEFINITIONAL_REPRESENTATION('',(#430),#433);
#430 = B_SPLINE_CURVE_WITH_KNOTS('',1,(#431,#432),.UNSPECIFIED.,.F.,.F.,
  (2,2),(0.,40.343145750508),.PIECEWISE_BEZIER_KNOTS.);
#431 = CARTESIAN_POINT('',(-2.,-20.17157287525));
#432 = CARTESIAN_POINT('',(-2.,20.171572875254));
#433 = ( GEOMETRIC_REPRESENTATION_CONTEXT(2) 
PARAMETRIC_REPRESENTATION_CONTEXT() REPRESENTATION_CONTEXT('2D SPACE',''
  ) );
#434 = ORIENTED_EDGE('',*,*,#435,.F.);
#435 = EDGE_CURVE('',#436,#416,#438,.T.);
#436 = VERTEX_POINT('',#437);
#437 = CARTESIAN_POINT('',(40.343145750508,0.,-2.));
#438 = SURFACE_CURVE('',#439,(#442,#448),.PCURVE_S1.);
#439 = B_SPLINE_CURVE_WITH_KNOTS('',1,(#440,#441),.UNSPECIFIED.,.F.,.F.,
  (2,2),(0.,40.),.PIECEWISE_BEZIER_KNOTS.);
#440 = CARTESIAN_POINT('',(40.343145750508,0.,-2.));
#441 = CARTESIAN_POINT('',(40.343145750508,40.,-2.));
#442 = PCURVE('',#382,#443);
#443 = DEFINITIONAL_REPRESENTATION('',(#444),#447);
#444 = B_SPLINE_CURVE_WITH_KNOTS('',1,(#445,#446),.UNSPECIFIED.,.F.,.F.,
  (2,2),(0.,40.),.PIECEWISE_BEZIER_KNOTS.);
#445 = CARTESIAN_POINT('',(40.343145750508,0.));
#446 = CARTESIAN_POINT('',(40.343145750508,-40.));
#447 = ( GEOMETRIC_REPRESENTATION_CONTEXT(2) 
PARAMETRIC_REPRESENTATION_CONTEXT() REPRESENTATION_CONTEXT('2D SPACE',''
  ) );
#448 = PCURVE('',#449,#456);
#449 = ( BOUNDED_SURFACE() B_SPLINE_SURFACE(2,1,(
    (#450,#451)
    ,(#452,#453)
,(#454,#455
    )),.UNSPECIFIED.,.F.,.F.,.F.) B_SPLINE_SURFACE_WITH_KNOTS((3,3),(2,2
    ),(3.14159265359,5.497787143782),(-40.,0.),
.PIECEWISE_BEZIER_KNOTS.) GEOMETRIC_REPRESENTATION_ITEM() 
RATIONAL_B_SPLINE_SURFACE((
    (1.,1.)
    ,(0.382683432365,0.382683432365)
,(1.,1.))) REPRESENTATION_ITEM('') SURFACE() );
#450 = CARTESIAN_POINT('',(40.343145750508,40.,-2.));
#451 = CARTESIAN_POINT('',(40.343145750508,0.,-2.));
#452 = CARTESIAN_POINT('',(54.828427124746,40.,-2.));
#453 = CARTESIAN_POINT('',(54.828427124746,0.,-2.));
#454 = CARTESIAN_POINT('',(44.585786437627,40.,8.242640687119));
#455 = CARTESIAN_POINT('',(44.585786437627,0.,8.242640687119));
#456 = DEFINITIONAL_REPRESENTATION('',(#457),#461);
#457 = B_SPLINE_CURVE_WITH_KNOTS('',2,(#458,#459,#460),.UNSPECIFIED.,.F.
  ,.F.,(3,3),(0.,40.),.PIECEWISE_BEZIER_KNOTS.);
#458 = CARTESIAN_POINT('',(3.14159265359,0.));
#459 = CARTESIAN_POINT('',(3.14159265359,-20.));
#460 = CARTESIAN_POINT('',(3.14159265359,-40.));
#461 = ( GEOMETRIC_REPRESENTATION_CONTEXT(2) 
PARAMETRIC_REPRESENTATION_CONTEXT() REPRESENTATION_CONTEXT('2D SPACE',''
  ) );
#462 = ORIENTED_EDGE('',*,*,#463,.F.);
#463 = EDGE_CURVE('',#369,#436,#464,.T.);
#464 = SURFACE_CURVE('',#465,(#468,#474),.PCURVE_S1.);
#465 = B_SPLINE_CURVE_WITH_KNOTS('',1,(#466,#467),.UNSPECIFIED.,.F.,.F.,
  (2,2),(0.,40.343145750508),.PIECEWISE_BEZIER_KNOTS.);
#466 = CARTESIAN_POINT('',(0.,0.,-2.));
#467 = CARTESIAN_POINT('',(40.343145750508,0.,-2.));
#468 = PCURVE('',#382,#469);
#469 = DEFINITIONAL_REPRESENTATION('',(#470),#473);
#470 = B_SPLINE_CURVE_WITH_KNOTS('',1,(#471,#472),.UNSPECIFIED.,.F.,.F.,
  (2,2),(0.,40.343145750508),.PIECEWISE_BEZIER_KNOTS.);
#471 = CARTESIAN_POINT('',(0.,0.));
#472 = CARTESIAN_POINT('',(40.343145750508,0.));
#473 = ( GEOMETRIC_REPRESENTATION_CONTEXT(2) 
PARAMETRIC_REPRESENTATION_CONTEXT() REPRESENTATION_CONTEXT('2D SPACE',''
  ) );
#474 = PCURVE('',#118,#475);
#475 = DEFINITIONAL_REPRESENTATION('',(#476),#479);
#476 = B_SPLINE_CURVE_WITH_KNOTS('',1,(#477,#478),.UNSPECIFIED.,.F.,.F.,
  (2,2),(0.,40.343145750508),.PIECEWISE_BEZIER_KNOTS.);
#477 = CARTESIAN_POINT('',(-2.,-20.17157287525));
#478 = CARTESIAN_POINT('',(-2.,20.171572875254));
#479 = ( GEOMETRIC_REPRESENTATION_CONTEXT(2) 
PARAMETRIC_REPRESENTATION_CONTEXT() REPRESENTATION_CONTEXT('2D SPACE',''
  ) );
#480 = ADVANCED_FACE('',(#481),#449,.T.);
#481 = FACE_BOUND('',#482,.T.);
#482 = EDGE_LOOP('',(#483,#484,#534,#560));
#483 = ORIENTED_EDGE('',*,*,#435,.T.);
#484 = ORIENTED_EDGE('',*,*,#485,.T.);
#485 = EDGE_CURVE('',#416,#486,#488,.T.);
#486 = VERTEX_POINT('',#487);
#487 = CARTESIAN_POINT('',(44.585786437627,40.,8.242640687119));
#488 = SURFACE_CURVE('',#489,(#500,#520),.PCURVE_S1.);
#489 = B_SPLINE_CURVE_WITH_KNOTS('',9,(#490,#491,#492,#493,#494,#495,
    #496,#497,#498,#499),.UNSPECIFIED.,.F.,.F.,(10,10),(3.14159265359,
    5.497787143782),.PIECEWISE_BEZIER_KNOTS.);
#490 = CARTESIAN_POINT('',(40.343145750508,40.,-2.));
#491 = CARTESIAN_POINT('',(41.913942077302,40.,-2.));
#492 = CARTESIAN_POINT('',(43.484739532879,40.000000000001,
    -1.537362866193));
#493 = CARTESIAN_POINT('',(44.899805047575,39.999999999998,
    -0.612083534184));
#494 = CARTESIAN_POINT('',(46.003455035944,40.000000000004,
    0.714663041229));
#495 = CARTESIAN_POINT('',(46.668672871874,39.999999999996,
    2.320640962687));
#496 = CARTESIAN_POINT('',(46.826425981446,40.000000000003,
    4.039190853906));
#497 = CARTESIAN_POINT('',(46.480094850329,39.999999999998,
    5.694064565329));
#498 = CARTESIAN_POINT('',(45.696507172167,40.,7.13191995258));
#499 = CARTESIAN_POINT('',(44.585786437627,40.,8.242640687119));
#500 = PCURVE('',#449,#501);
#501 = DEFINITIONAL_REPRESENTATION('',(#502),#519);
#502 = B_SPLINE_CURVE_WITH_KNOTS('',8,(#503,#504,#505,#506,#507,#508,
    #509,#510,#511,#512,#513,#514,#515,#516,#517,#518),.UNSPECIFIED.,.F.
  ,.F.,(9,7,9),(3.14159265359,4.319689898686,5.497787143782),
  .UNSPECIFIED.);
#503 = CARTESIAN_POINT('',(3.14159265359,-40.));
#504 = CARTESIAN_POINT('',(3.329375787092,-40.0000000006));
#505 = CARTESIAN_POINT('',(3.496043659027,-39.99999999596));
#506 = CARTESIAN_POINT('',(3.648843972558,-40.00000000586));
#507 = CARTESIAN_POINT('',(3.791812064532,-39.99999997843));
#508 = CARTESIAN_POINT('',(3.928081114506,-40.00000000353));
#509 = CARTESIAN_POINT('',(4.060044087233,-39.9999999964));
#510 = CARTESIAN_POINT('',(4.189867596871,-40.00000000072));
#511 = CARTESIAN_POINT('',(4.449512200472,-40.00000000016));
#512 = CARTESIAN_POINT('',(4.579335710314,-39.99999999996));
#513 = CARTESIAN_POINT('',(4.711298682642,-39.99999999705));
#514 = CARTESIAN_POINT('',(4.847567731046,-39.9999999945));
#515 = CARTESIAN_POINT('',(4.990535824062,-39.99999999663));
#516 = CARTESIAN_POINT('',(5.143336138426,-40.00000000035));
#517 = CARTESIAN_POINT('',(5.310004010235,-40.00000000006));
#518 = CARTESIAN_POINT('',(5.497787143782,-40.));
#519 = ( GEOMETRIC_REPRESENTATION_CONTEXT(2) 
PARAMETRIC_REPRESENTATION_CONTEXT() REPRESENTATION_CONTEXT('2D SPACE',''
  ) );
#520 = PCURVE('',#169,#521);
#521 = DEFINITIONAL_REPRESENTATION('',(#522),#533);
#522 = B_SPLINE_CURVE_WITH_KNOTS('',9,(#523,#524,#525,#526,#527,#528,
    #529,#530,#531,#532),.UNSPECIFIED.,.F.,.F.,(10,10),(3.14159265359,
    5.497787143782),.PIECEWISE_BEZIER_KNOTS.);
#523 = CARTESIAN_POINT('',(-4.7785913658,-2.948741289885));
#524 = CARTESIAN_POINT('',(-4.7785913658,-1.37794496309));
#525 = CARTESIAN_POINT('',(-4.315954231994,0.192852492486));
#526 = CARTESIAN_POINT('',(-3.390674899984,1.607918007182));
#527 = CARTESIAN_POINT('',(-2.063928324571,2.711567995552));
#528 = CARTESIAN_POINT('',(-0.457950403113,3.376785831482));
#529 = CARTESIAN_POINT('',(1.260599488105,3.534538941054));
#530 = CARTESIAN_POINT('',(2.915473199528,3.188207809937));
#531 = CARTESIAN_POINT('',(4.35332858678,2.404620131775));
#532 = CARTESIAN_POINT('',(5.464049321319,1.293899397234));
#533 = ( GEOMETRIC_REPRESENTATION_CONTEXT(2) 
PARAMETRIC_REPRESENTATION_CONTEXT() REPRESENTATION_CONTEXT('2D SPACE',''
  ) );
#534 = ORIENTED_EDGE('',*,*,#535,.F.);
#535 = EDGE_CURVE('',#536,#486,#538,.T.);
#536 = VERTEX_POINT('',#537);
#537 = CARTESIAN_POINT('',(44.585786437627,0.,8.242640687119));
#538 = SURFACE_CURVE('',#539,(#542,#549),.PCURVE_S1.);
#539 = B_SPLINE_CURVE_WITH_KNOTS('',1,(#540,#541),.UNSPECIFIED.,.F.,.F.,
  (2,2),(0.,40.),.PIECEWISE_BEZIER_KNOTS.);
#540 = CARTESIAN_POINT('',(44.585786437627,0.,8.242640687119));
#541 = CARTESIAN_POINT('',(44.585786437627,40.,8.242640687119));
#542 = PCURVE('',#449,#543);
#543 = DEFINITIONAL_REPRESENTATION('',(#544),#548);
#544 = B_SPLINE_CURVE_WITH_KNOTS('',2,(#545,#546,#547),.UNSPECIFIED.,.F.
  ,.F.,(3,3),(0.,40.),.PIECEWISE_BEZIER_KNOTS.);
#545 = CARTESIAN_POINT('',(5.497787143782,0.));
#546 = CARTESIAN_POINT('',(5.497787143782,-20.));
#547 = CARTESIAN_POINT('',(5.497787143782,-40.));
#548 = ( GEOMETRIC_REPRESENTATION_CONTEXT(2) 
PARAMETRIC_REPRESENTATION_CONTEXT() REPRESENTATION_CONTEXT('2D SPACE',''
  ) );
#549 = PCURVE('',#550,#555);
#550 = B_SPLINE_SURFACE_WITH_KNOTS('',1,1,(
    (#551,#552)
    ,(#553,#554
    )),.UNSPECIFIED.,.F.,.F.,.F.,(2,2),(2,2),(0.,30.343145750508),(-40.,
    0.),.PIECEWISE_BEZIER_KNOTS.);
#551 = CARTESIAN_POINT('',(44.585786437627,40.,8.242640687119));
#552 = CARTESIAN_POINT('',(44.585786437627,0.,8.242640687119));
#553 = CARTESIAN_POINT('',(23.129942314911,40.,29.698484809835));
#554 = CARTESIAN_POINT('',(23.129942314911,0.,29.698484809835));
#555 = DEFINITIONAL_REPRESENTATION('',(#556),#559);
#556 = B_SPLINE_CURVE_WITH_KNOTS('',1,(#557,#558),.UNSPECIFIED.,.F.,.F.,
  (2,2),(0.,40.),.PIECEWISE_BEZIER_KNOTS.);
#557 = CARTESIAN_POINT('',(0.,0.));
#558 = CARTESIAN_POINT('',(0.,-40.));
#559 = ( GEOMETRIC_REPRESENTATION_CONTEXT(2) 
PARAMETRIC_REPRESENTATION_CONTEXT() REPRESENTATION_CONTEXT('2D SPACE',''
  ) );
#560 = ORIENTED_EDGE('',*,*,#561,.F.);
#561 = EDGE_CURVE('',#436,#536,#562,.T.);
#562 = SURFACE_CURVE('',#563,(#574,#594),.PCURVE_S1.);
#563 = B_SPLINE_CURVE_WITH_KNOTS('',9,(#564,#565,#566,#567,#568,#569,
    #570,#571,#572,#573),.UNSPECIFIED.,.F.,.F.,(10,10),(3.14159265359,
    5.497787143782),.PIECEWISE_BEZIER_KNOTS.);
#564 = CARTESIAN_POINT('',(40.343145750508,0.,-2.));
#565 = CARTESIAN_POINT('',(41.913942077302,0.,-2.));
#566 = CARTESIAN_POINT('',(43.484739532879,0.,-1.537362866193));
#567 = CARTESIAN_POINT('',(44.899805047575,0.,-0.612083534184));
#568 = CARTESIAN_POINT('',(46.003455035944,0.,0.714663041229));
#569 = CARTESIAN_POINT('',(46.668672871874,0.,2.320640962687));
#570 = CARTESIAN_POINT('',(46.826425981446,0.,4.039190853906));
#571 = CARTESIAN_POINT('',(46.480094850329,0.,5.694064565329));
#572 = CARTESIAN_POINT('',(45.696507172167,0.,7.13191995258));
#573 = CARTESIAN_POINT('',(44.585786437627,0.,8.242640687119));
#574 = PCURVE('',#449,#575);
#575 = DEFINITIONAL_REPRESENTATION('',(#576),#593);
#576 = B_SPLINE_CURVE_WITH_KNOTS('',8,(#577,#578,#579,#580,#581,#582,
    #583,#584,#585,#586,#587,#588,#589,#590,#591,#592),.UNSPECIFIED.,.F.
  ,.F.,(9,7,9),(3.14159265359,4.319689898686,5.497787143782),
  .UNSPECIFIED.);
#577 = CARTESIAN_POINT('',(3.14159265359,-3.552713678801E-15));
#578 = CARTESIAN_POINT('',(3.329375787092,-4.73077055819E-15));
#579 = CARTESIAN_POINT('',(3.496043659027,1.812018578613E-14));
#580 = CARTESIAN_POINT('',(3.648843972558,-5.780734992802E-14));
#581 = CARTESIAN_POINT('',(3.791812064532,6.320070208843E-14));
#582 = CARTESIAN_POINT('',(3.928081114506,-6.304250838134E-14));
#583 = CARTESIAN_POINT('',(4.060044087233,2.185073696392E-14));
#584 = CARTESIAN_POINT('',(4.189867596871,-1.28155032775E-14));
#585 = CARTESIAN_POINT('',(4.449512200472,-2.390290076737E-14));
#586 = CARTESIAN_POINT('',(4.579335710314,6.621193831645E-14));
#587 = CARTESIAN_POINT('',(4.711298682642,-1.745936949265E-13));
#588 = CARTESIAN_POINT('',(4.847567731046,2.37416816941E-13));
#589 = CARTESIAN_POINT('',(4.990535824062,-2.222153112827E-13));
#590 = CARTESIAN_POINT('',(5.143336138426,1.061584001594E-13));
#591 = CARTESIAN_POINT('',(5.310004010235,-3.367972262841E-14));
#592 = CARTESIAN_POINT('',(5.497787143782,-3.552713678801E-15));
#593 = ( GEOMETRIC_REPRESENTATION_CONTEXT(2) 
PARAMETRIC_REPRESENTATION_CONTEXT() REPRESENTATION_CONTEXT('2D SPACE',''
  ) );
#594 = PCURVE('',#248,#595);
#595 = DEFINITIONAL_REPRESENTATION('',(#596),#607);
#596 = B_SPLINE_CURVE_WITH_KNOTS('',9,(#597,#598,#599,#600,#601,#602,
    #603,#604,#605,#606),.UNSPECIFIED.,.F.,.F.,(10,10),(3.14159265359,
    5.497787143782),.PIECEWISE_BEZIER_KNOTS.);
#597 = CARTESIAN_POINT('',(-4.7785913658,-2.948741289885));
#598 = CARTESIAN_POINT('',(-4.7785913658,-1.37794496309));
#599 = CARTESIAN_POINT('',(-4.315954231994,0.192852492486));
#600 = CARTESIAN_POINT('',(-3.390674899984,1.607918007182));
#601 = CARTESIAN_POINT('',(-2.063928324571,2.711567995552));
#602 = CARTESIAN_POINT('',(-0.457950403113,3.376785831482));
#603 = CARTESIAN_POINT('',(1.260599488105,3.534538941054));
#604 = CARTESIAN_POINT('',(2.915473199528,3.188207809937));
#605 = CARTESIAN_POINT('',(4.35332858678,2.404620131775));
#606 = CARTESIAN_POINT('',(5.464049321319,1.293899397234));
#607 = ( GEOMETRIC_REPRESENTATION_CONTEXT(2) 
PARAMETRIC_REPRESENTATION_CONTEXT() REPRESENTATION_CONTEXT('2D SPACE',''
  ) );
#608 = ADVANCED_FACE('',(#609),#550,.T.);
#609 = FACE_BOUND('',#610,.T.);
#610 = EDGE_LOOP('',(#611,#612,#632,#652));
#611 = ORIENTED_EDGE('',*,*,#535,.T.);
#612 = ORIENTED_EDGE('',*,*,#613,.T.);
#613 = EDGE_CURVE('',#486,#614,#616,.T.);
#614 = VERTEX_POINT('',#615);
#615 = CARTESIAN_POINT('',(23.129942314911,40.,29.698484809835));
#616 = SURFACE_CURVE('',#617,(#620,#626),.PCURVE_S1.);
#617 = B_SPLINE_CURVE_WITH_KNOTS('',1,(#618,#619),.UNSPECIFIED.,.F.,.F.,
  (2,2),(0.,30.343145750508),.PIECEWISE_BEZIER_KNOTS.);
#618 = CARTESIAN_POINT('',(44.585786437627,40.,8.242640687119));
#619 = CARTESIAN_POINT('',(23.129942314911,40.,29.698484809835));
#620 = PCURVE('',#550,#621);
#621 = DEFINITIONAL_REPRESENTATION('',(#622),#625);
#622 = B_SPLINE_CURVE_WITH_KNOTS('',1,(#623,#624),.UNSPECIFIED.,.F.,.F.,
  (2,2),(0.,30.343145750508),.PIECEWISE_BEZIER_KNOTS.);
#623 = CARTESIAN_POINT('',(0.,-40.));
#624 = CARTESIAN_POINT('',(30.343145750508,-40.));
#625 = ( GEOMETRIC_REPRESENTATION_CONTEXT(2) 
PARAMETRIC_REPRESENTATION_CONTEXT() REPRESENTATION_CONTEXT('2D SPACE',''
  ) );
#626 = PCURVE('',#285,#627);
#627 = DEFINITIONAL_REPRESENTATION('',(#628),#631);
#628 = B_SPLINE_CURVE_WITH_KNOTS('',1,(#629,#630),.UNSPECIFIED.,.F.,.F.,
  (2,2),(0.,30.343145750508),.PIECEWISE_BEZIER_KNOTS.);
#629 = CARTESIAN_POINT('',(-9.313708498985,12.142135623731));
#630 = CARTESIAN_POINT('',(12.142135623731,-9.313708498985));
#631 = ( GEOMETRIC_REPRESENTATION_CONTEXT(2) 
PARAMETRIC_REPRESENTATION_CONTEXT() REPRESENTATION_CONTEXT('2D SPACE',''
  ) );
#632 = ORIENTED_EDGE('',*,*,#633,.F.);
#633 = EDGE_CURVE('',#634,#614,#636,.T.);
#634 = VERTEX_POINT('',#635);
#635 = CARTESIAN_POINT('',(23.129942314911,0.,29.698484809835));
#636 = SURFACE_CURVE('',#637,(#640,#646),.PCURVE_S1.);
#637 = B_SPLINE_CURVE_WITH_KNOTS('',1,(#638,#639),.UNSPECIFIED.,.F.,.F.,
  (2,2),(0.,40.),.PIECEWISE_BEZIER_KNOTS.);
#638 = CARTESIAN_POINT('',(23.129942314911,0.,29.698484809835));
#639 = CARTESIAN_POINT('',(23.129942314911,40.,29.698484809835));
#640 = PCURVE('',#550,#641);
#641 = DEFINITIONAL_REPRESENTATION('',(#642),#645);
#642 = B_SPLINE_CURVE_WITH_KNOTS('',1,(#643,#644),.UNSPECIFIED.,.F.,.F.,
  (2,2),(0.,40.),.PIECEWISE_BEZIER_KNOTS.);
#643 = CARTESIAN_POINT('',(30.343145750508,0.));
#644 = CARTESIAN_POINT('',(30.343145750508,-40.));
#645 = ( GEOMETRIC_REPRESENTATION_CONTEXT(2) 
PARAMETRIC_REPRESENTATION_CONTEXT() REPRESENTATION_CONTEXT('2D SPACE',''
  ) );
#646 = PCURVE('',#310,#647);
#647 = DEFINITIONAL_REPRESENTATION('',(#648),#651);
#648 = B_SPLINE_CURVE_WITH_KNOTS('',1,(#649,#650),.UNSPECIFIED.,.F.,.F.,
  (2,2),(0.,40.),.PIECEWISE_BEZIER_KNOTS.);
#649 = CARTESIAN_POINT('',(2.,-20.));
#650 = CARTESIAN_POINT('',(2.,20.));
#651 = ( GEOMETRIC_REPRESENTATION_CONTEXT(2) 
PARAMETRIC_REPRESENTATION_CONTEXT() REPRESENTATION_CONTEXT('2D SPACE',''
  ) );
#652 = ORIENTED_EDGE('',*,*,#653,.F.);
#653 = EDGE_CURVE('',#536,#634,#654,.T.);
#654 = SURFACE_CURVE('',#655,(#658,#664),.PCURVE_S1.);
#655 = B_SPLINE_CURVE_WITH_KNOTS('',1,(#656,#657),.UNSPECIFIED.,.F.,.F.,
  (2,2),(0.,30.343145750508),.PIECEWISE_BEZIER_KNOTS.);
#656 = CARTESIAN_POINT('',(44.585786437627,0.,8.242640687119));
#657 = CARTESIAN_POINT('',(23.129942314911,0.,29.698484809835));
#658 = PCURVE('',#550,#659);
#659 = DEFINITIONAL_REPRESENTATION('',(#660),#663);
#660 = B_SPLINE_CURVE_WITH_KNOTS('',1,(#661,#662),.UNSPECIFIED.,.F.,.F.,
  (2,2),(0.,30.343145750508),.PIECEWISE_BEZIER_KNOTS.);
#661 = CARTESIAN_POINT('',(0.,0.));
#662 = CARTESIAN_POINT('',(30.343145750508,0.));
#663 = ( GEOMETRIC_REPRESENTATION_CONTEXT(2) 
PARAMETRIC_REPRESENTATION_CONTEXT() REPRESENTATION_CONTEXT('2D SPACE',''
  ) );
#664 = PCURVE('',#333,#665);
#665 = DEFINITIONAL_REPRESENTATION('',(#666),#669);
#666 = B_SPLINE_CURVE_WITH_KNOTS('',1,(#667,#668),.UNSPECIFIED.,.F.,.F.,
  (2,2),(0.,30.343145750508),.PIECEWISE_BEZIER_KNOTS.);
#667 = CARTESIAN_POINT('',(-9.313708498985,12.142135623731));
#668 = CARTESIAN_POINT('',(12.142135623731,-9.313708498985));
#669 = ( GEOMETRIC_REPRESENTATION_CONTEXT(2) 
PARAMETRIC_REPRESENTATION_CONTEXT() REPRESENTATION_CONTEXT('2D SPACE',''
  ) );
#670 = ADVANCED_FACE('',(#671),#67,.T.);
#671 = FACE_BOUND('',#672,.T.);
#672 = EDGE_LOOP('',(#673,#674,#692,#693));
#673 = ORIENTED_EDGE('',*,*,#53,.T.);
#674 = ORIENTED_EDGE('',*,*,#675,.T.);
#675 = EDGE_CURVE('',#54,#416,#676,.T.);
#676 = SURFACE_CURVE('',#677,(#680,#686),.PCURVE_S1.);
#677 = B_SPLINE_CURVE_WITH_KNOTS('',1,(#678,#679),.UNSPECIFIED.,.F.,.F.,
  (2,2),(0.,4.),.PIECEWISE_BEZIER_KNOTS.);
#678 = CARTESIAN_POINT('',(40.343145750508,40.,2.));
#679 = CARTESIAN_POINT('',(40.343145750508,40.,-2.));
#680 = PCURVE('',#67,#681);
#681 = DEFINITIONAL_REPRESENTATION('',(#682),#685);
#682 = B_SPLINE_CURVE_WITH_KNOTS('',1,(#683,#684),.UNSPECIFIED.,.F.,.F.,
  (2,2),(0.,4.),.PIECEWISE_BEZIER_KNOTS.);
#683 = CARTESIAN_POINT('',(2.,20.171572875254));
#684 = CARTESIAN_POINT('',(-2.,20.171572875254));
#685 = ( GEOMETRIC_REPRESENTATION_CONTEXT(2) 
PARAMETRIC_REPRESENTATION_CONTEXT() REPRESENTATION_CONTEXT('2D SPACE',''
  ) );
#686 = PCURVE('',#169,#687);
#687 = DEFINITIONAL_REPRESENTATION('',(#688),#691);
#688 = B_SPLINE_CURVE_WITH_KNOTS('',1,(#689,#690),.UNSPECIFIED.,.F.,.F.,
  (2,2),(0.,4.),.PIECEWISE_BEZIER_KNOTS.);
#689 = CARTESIAN_POINT('',(-0.7785913658,-2.948741289885));
#690 = CARTESIAN_POINT('',(-4.7785913658,-2.948741289885));
#691 = ( GEOMETRIC_REPRESENTATION_CONTEXT(2) 
PARAMETRIC_REPRESENTATION_CONTEXT() REPRESENTATION_CONTEXT('2D SPACE',''
  ) );
#692 = ORIENTED_EDGE('',*,*,#415,.F.);
#693 = ORIENTED_EDGE('',*,*,#348,.F.);
#694 = ADVANCED_FACE('',(#695),#169,.T.);
#695 = FACE_BOUND('',#696,.T.);
#696 = EDGE_LOOP('',(#697,#698,#716,#717));
#697 = ORIENTED_EDGE('',*,*,#133,.T.);
#698 = ORIENTED_EDGE('',*,*,#699,.T.);
#699 = EDGE_CURVE('',#134,#486,#700,.T.);
#700 = SURFACE_CURVE('',#701,(#704,#710),.PCURVE_S1.);
#701 = B_SPLINE_CURVE_WITH_KNOTS('',1,(#702,#703),.UNSPECIFIED.,.F.,.F.,
  (2,2),(0.,4.),.PIECEWISE_BEZIER_KNOTS.);
#702 = CARTESIAN_POINT('',(41.757359312881,40.,5.414213562373));
#703 = CARTESIAN_POINT('',(44.585786437627,40.,8.242640687119));
#704 = PCURVE('',#169,#705);
#705 = DEFINITIONAL_REPRESENTATION('',(#706),#709);
#706 = B_SPLINE_CURVE_WITH_KNOTS('',1,(#707,#708),.UNSPECIFIED.,.F.,.F.,
  (2,2),(0.,4.),.PIECEWISE_BEZIER_KNOTS.);
#707 = CARTESIAN_POINT('',(2.635622196573,-1.534527727512));
#708 = CARTESIAN_POINT('',(5.464049321319,1.293899397234));
#709 = ( GEOMETRIC_REPRESENTATION_CONTEXT(2) 
PARAMETRIC_REPRESENTATION_CONTEXT() REPRESENTATION_CONTEXT('2D SPACE',''
  ) );
#710 = PCURVE('',#285,#711);
#711 = DEFINITIONAL_REPRESENTATION('',(#712),#715);
#712 = B_SPLINE_CURVE_WITH_KNOTS('',1,(#713,#714),.UNSPECIFIED.,.F.,.F.,
  (2,2),(0.,4.),.PIECEWISE_BEZIER_KNOTS.);
#713 = CARTESIAN_POINT('',(-12.14213562373,9.313708498985));
#714 = CARTESIAN_POINT('',(-9.313708498985,12.142135623731));
#715 = ( GEOMETRIC_REPRESENTATION_CONTEXT(2) 
PARAMETRIC_REPRESENTATION_CONTEXT() REPRESENTATION_CONTEXT('2D SPACE',''
  ) );
#716 = ORIENTED_EDGE('',*,*,#485,.F.);
#717 = ORIENTED_EDGE('',*,*,#675,.F.);
#718 = ADVANCED_FACE('',(#719),#285,.T.);
#719 = FACE_BOUND('',#720,.T.);
#720 = EDGE_LOOP('',(#721,#722,#740,#741));
#721 = ORIENTED_EDGE('',*,*,#271,.T.);
#722 = ORIENTED_EDGE('',*,*,#723,.T.);
#723 = EDGE_CURVE('',#272,#614,#724,.T.);
#724 = SURFACE_CURVE('',#725,(#728,#734),.PCURVE_S1.);
#725 = B_SPLINE_CURVE_WITH_KNOTS('',1,(#726,#727),.UNSPECIFIED.,.F.,.F.,
  (2,2),(0.,4.),.PIECEWISE_BEZIER_KNOTS.);
#726 = CARTESIAN_POINT('',(20.301515190165,40.,26.870057685089));
#727 = CARTESIAN_POINT('',(23.129942314911,40.,29.698484809835));
#728 = PCURVE('',#285,#729);
#729 = DEFINITIONAL_REPRESENTATION('',(#730),#733);
#730 = B_SPLINE_CURVE_WITH_KNOTS('',1,(#731,#732),.UNSPECIFIED.,.F.,.F.,
  (2,2),(0.,4.),.PIECEWISE_BEZIER_KNOTS.);
#731 = CARTESIAN_POINT('',(9.313708498985,-12.14213562373));
#732 = CARTESIAN_POINT('',(12.142135623731,-9.313708498985));
#733 = ( GEOMETRIC_REPRESENTATION_CONTEXT(2) 
PARAMETRIC_REPRESENTATION_CONTEXT() REPRESENTATION_CONTEXT('2D SPACE',''
  ) );
#734 = PCURVE('',#310,#735);
#735 = DEFINITIONAL_REPRESENTATION('',(#736),#739);
#736 = B_SPLINE_CURVE_WITH_KNOTS('',1,(#737,#738),.UNSPECIFIED.,.F.,.F.,
  (2,2),(0.,4.),.PIECEWISE_BEZIER_KNOTS.);
#737 = CARTESIAN_POINT('',(-2.,20.));
#738 = CARTESIAN_POINT('',(2.,20.));
#739 = ( GEOMETRIC_REPRESENTATION_CONTEXT(2) 
PARAMETRIC_REPRESENTATION_CONTEXT() REPRESENTATION_CONTEXT('2D SPACE',''
  ) );
#740 = ORIENTED_EDGE('',*,*,#613,.F.);
#741 = ORIENTED_EDGE('',*,*,#699,.F.);
#742 = ADVANCED_FACE('',(#743),#310,.T.);
#743 = FACE_BOUND('',#744,.F.);
#744 = EDGE_LOOP('',(#745,#746,#747,#748));
#745 = ORIENTED_EDGE('',*,*,#296,.T.);
#746 = ORIENTED_EDGE('',*,*,#723,.T.);
#747 = ORIENTED_EDGE('',*,*,#633,.F.);
#748 = ORIENTED_EDGE('',*,*,#749,.F.);
#749 = EDGE_CURVE('',#297,#634,#750,.T.);
#750 = SURFACE_CURVE('',#751,(#754,#760),.PCURVE_S1.);
#751 = B_SPLINE_CURVE_WITH_KNOTS('',1,(#752,#753),.UNSPECIFIED.,.F.,.F.,
  (2,2),(0.,4.),.PIECEWISE_BEZIER_KNOTS.);
#752 = CARTESIAN_POINT('',(20.301515190165,0.,26.870057685089));
#753 = CARTESIAN_POINT('',(23.129942314911,0.,29.698484809835));
#754 = PCURVE('',#310,#755);
#755 = DEFINITIONAL_REPRESENTATION('',(#756),#759);
#756 = B_SPLINE_CURVE_WITH_KNOTS('',1,(#757,#758),.UNSPECIFIED.,.F.,.F.,
  (2,2),(0.,4.),.PIECEWISE_BEZIER_KNOTS.);
#757 = CARTESIAN_POINT('',(-2.,-20.));
#758 = CARTESIAN_POINT('',(2.,-20.));
#759 = ( GEOMETRIC_REPRESENTATION_CONTEXT(2) 
PARAMETRIC_REPRESENTATION_CONTEXT() REPRESENTATION_CONTEXT('2D SPACE',''
  ) );
#760 = PCURVE('',#333,#761);
#761 = DEFINITIONAL_REPRESENTATION('',(#762),#765);
#762 = B_SPLINE_CURVE_WITH_KNOTS('',1,(#763,#764),.UNSPECIFIED.,.F.,.F.,
  (2,2),(0.,4.),.PIECEWISE_BEZIER_KNOTS.);
#763 = CARTESIAN_POINT('',(9.313708498985,-12.14213562373));
#764 = CARTESIAN_POINT('',(12.142135623731,-9.313708498985));
#765 = ( GEOMETRIC_REPRESENTATION_CONTEXT(2) 
PARAMETRIC_REPRESENTATION_CONTEXT() REPRESENTATION_CONTEXT('2D SPACE',''
  ) );
#766 = ADVANCED_FACE('',(#767),#333,.F.);
#767 = FACE_BOUND('',#768,.F.);
#768 = EDGE_LOOP('',(#769,#770,#771,#772));
#769 = ORIENTED_EDGE('',*,*,#321,.T.);
#770 = ORIENTED_EDGE('',*,*,#749,.T.);
#771 = ORIENTED_EDGE('',*,*,#653,.F.);
#772 = ORIENTED_EDGE('',*,*,#773,.F.);
#773 = EDGE_CURVE('',#189,#536,#774,.T.);
#774 = SURFACE_CURVE('',#775,(#778,#784),.PCURVE_S1.);
#775 = B_SPLINE_CURVE_WITH_KNOTS('',1,(#776,#777),.UNSPECIFIED.,.F.,.F.,
  (2,2),(0.,4.),.PIECEWISE_BEZIER_KNOTS.);
#776 = CARTESIAN_POINT('',(41.757359312881,0.,5.414213562373));
#777 = CARTESIAN_POINT('',(44.585786437627,0.,8.242640687119));
#778 = PCURVE('',#333,#779);
#779 = DEFINITIONAL_REPRESENTATION('',(#780),#783);
#780 = B_SPLINE_CURVE_WITH_KNOTS('',1,(#781,#782),.UNSPECIFIED.,.F.,.F.,
  (2,2),(0.,4.),.PIECEWISE_BEZIER_KNOTS.);
#781 = CARTESIAN_POINT('',(-12.14213562373,9.313708498985));
#782 = CARTESIAN_POINT('',(-9.313708498985,12.142135623731));
#783 = ( GEOMETRIC_REPRESENTATION_CONTEXT(2) 
PARAMETRIC_REPRESENTATION_CONTEXT() REPRESENTATION_CONTEXT('2D SPACE',''
  ) );
#784 = PCURVE('',#248,#785);
#785 = DEFINITIONAL_REPRESENTATION('',(#786),#789);
#786 = B_SPLINE_CURVE_WITH_KNOTS('',1,(#787,#788),.UNSPECIFIED.,.F.,.F.,
  (2,2),(0.,4.),.PIECEWISE_BEZIER_KNOTS.);
#787 = CARTESIAN_POINT('',(2.635622196573,-1.534527727512));
#788 = CARTESIAN_POINT('',(5.464049321319,1.293899397234));
#789 = ( GEOMETRIC_REPRESENTATION_CONTEXT(2) 
PARAMETRIC_REPRESENTATION_CONTEXT() REPRESENTATION_CONTEXT('2D SPACE',''
  ) );
#790 = ADVANCED_FACE('',(#791),#248,.F.);
#791 = FACE_BOUND('',#792,.F.);
#792 = EDGE_LOOP('',(#793,#794,#795,#796));
#793 = ORIENTED_EDGE('',*,*,#214,.T.);
#794 = ORIENTED_EDGE('',*,*,#773,.T.);
#795 = ORIENTED_EDGE('',*,*,#561,.F.);
#796 = ORIENTED_EDGE('',*,*,#797,.F.);
#797 = EDGE_CURVE('',#79,#436,#798,.T.);
#798 = SURFACE_CURVE('',#799,(#802,#808),.PCURVE_S1.);
#799 = B_SPLINE_CURVE_WITH_KNOTS('',1,(#800,#801),.UNSPECIFIED.,.F.,.F.,
  (2,2),(0.,4.),.PIECEWISE_BEZIER_KNOTS.);
#800 = CARTESIAN_POINT('',(40.343145750508,0.,2.));
#801 = CARTESIAN_POINT('',(40.343145750508,0.,-2.));
#802 = PCURVE('',#248,#803);
#803 = DEFINITIONAL_REPRESENTATION('',(#804),#807);
#804 = B_SPLINE_CURVE_WITH_KNOTS('',1,(#805,#806),.UNSPECIFIED.,.F.,.F.,
  (2,2),(0.,4.),.PIECEWISE_BEZIER_KNOTS.);
#805 = CARTESIAN_POINT('',(-0.7785913658,-2.948741289885));
#806 = CARTESIAN_POINT('',(-4.7785913658,-2.948741289885));
#807 = ( GEOMETRIC_REPRESENTATION_CONTEXT(2) 
PARAMETRIC_REPRESENTATION_CONTEXT() REPRESENTATION_CONTEXT('2D SPACE',''
  ) );
#808 = PCURVE('',#118,#809);
#809 = DEFINITIONAL_REPRESENTATION('',(#810),#813);
#810 = B_SPLINE_CURVE_WITH_KNOTS('',1,(#811,#812),.UNSPECIFIED.,.F.,.F.,
  (2,2),(0.,4.),.PIECEWISE_BEZIER_KNOTS.);
#811 = CARTESIAN_POINT('',(2.,20.171572875254));
#812 = CARTESIAN_POINT('',(-2.,20.171572875254));
#813 = ( GEOMETRIC_REPRESENTATION_CONTEXT(2) 
PARAMETRIC_REPRESENTATION_CONTEXT() REPRESENTATION_CONTEXT('2D SPACE',''
  ) );
#814 = ADVANCED_FACE('',(#815),#118,.F.);
#815 = FACE_BOUND('',#816,.F.);
#816 = EDGE_LOOP('',(#817,#818,#819,#820));
#817 = ORIENTED_EDGE('',*,*,#106,.T.);
#818 = ORIENTED_EDGE('',*,*,#797,.T.);
#819 = ORIENTED_EDGE('',*,*,#463,.F.);
#820 = ORIENTED_EDGE('',*,*,#393,.F.);
#821 = ( GEOMETRIC_REPRESENTATION_CONTEXT(3) 
GLOBAL_UNCERTAINTY_ASSIGNED_CONTEXT((#825)) GLOBAL_UNIT_ASSIGNED_CONTEXT
((#822,#823,#824)) REPRESENTATION_CONTEXT('Context #1',
  '3D Context with UNIT and UNCERTAINTY') );
#822 = ( LENGTH_UNIT() NAMED_UNIT(*) SI_UNIT(.MILLI.,.METRE.) );
#823 = ( NAMED_UNIT(*) PLANE_ANGLE_UNIT() SI_UNIT($,.RADIAN.) );
#824 = ( NAMED_UNIT(*) SI_UNIT($,.STERADIAN.) SOLID_ANGLE_UNIT() );
#825 = UNCERTAINTY_MEASURE_WITH_UNIT(LENGTH_MEASURE(1.E-07),#822,
  'distance_accuracy_value','confusion accuracy');
#826 = PRODUCT_RELATED_PRODUCT_CATEGORY('part',$,(#7));
ENDSEC;
END-ISO-10303-21;
