ISO-10303-21;
HEADER;
FILE_NAME('Open CASCADE Shape Model','2026-10-02T23:47:04',('Author'),(
    'Open CASCADE'),'Open CASCADE STEP processor 7.9','Open CASCADE 7.9'
  ,'Unknown');
FILE_DESCRIPTION(('Open CASCADE Model'),'2;1');
FILE_SCHEMA((''));
ENDSEC;
DATA;
#1 = APPLICATION_PROTOCOL_DEFINITION('international standard',
  'automotive_design',2000,#2);
#2 = APPLICATION_CONTEXT(
  'core data for automotive mechanical design processes');
#3 = SHAPE_DEFINITION_REPRESENTATION(#4,#10);
#4 = PRODUCT_DEFINITION_SHAPE('','',#5);
#5 = PRODUCT_DEFINITION('design','',#6,#9);
#6 = PRODUCT_DEFINITION_FORMATION('','',#7);
#7 = PRODUCT('Open CASCADE STEP translator 7.9 1',
  'Open CASCADE STEP translator 7.9 1','',(#8));
#8 = PRODUCT_CONTEXT('',#2,'mechanical');
#9 = PRODUCT_DEFINITION_CONTEXT('part definition',#2,'design');
#10 = ADVANCED_BREP_SHAPE_REPRESENTATION('',(#11,#15),#1285);
#11 = AXIS2_PLACEMENT_3D('',#12,#13,#14);
#12 = CARTESIAN_POINT('',(0.,0.,0.));
#13 = DIRECTION('',(0.,0.,1.));
#14 = DIRECTION('',(1.,0.,-0.));
#15 = MANIFOLD_SOLID_BREP('',#16);
#16 = CLOSED_SHELL('',(#17,#128,#254,#334,#460,#537,#604,#674,#790,#860,
    #976,#1038,#1062,#1086,#1110,#1134,#1158,#1182,#1206,#1230,#1254,
    #1278));
#17 = ADVANCED_FACE('',(#18),#31,.F.);
#18 = FACE_BOUND('',#19,.F.);
#19 = EDGE_LOOP('',(#20,#52,#77,#105));
#20 = ORIENTED_EDGE('',*,*,#21,.T.);
#21 = EDGE_CURVE('',#22,#24,#26,.T.);
#22 = VERTEX_POINT('',#23);
#23 = CARTESIAN_POINT('',(2.,0.,40.));
#24 = VERTEX_POINT('',#25);
#25 = CARTESIAN_POINT('',(2.,50.,40.));
#26 = SURFACE_CURVE('',#27,(#30,#41),.PCURVE_S1.);
#27 = B_SPLINE_CURVE_WITH_KNOTS('',1,(#28,#29),.UNSPECIFIED.,.F.,.F.,(2,
    2),(0.,50.),.PIECEWISE_BEZIER_KNOTS.);
#28 = CARTESIAN_POINT('',(2.,0.,40.));
#29 = CARTESIAN_POINT('',(2.,50.,40.));
#30 = PCURVE('',#31,#36);
#31 = B_SPLINE_SURFACE_WITH_KNOTS('',1,1,(
    (#32,#33)
    ,(#34,#35
  )),.UNSPECIFIED.,.F.,.F.,.F.,(2,2),(2,2),(0.,34.),(-50.,0.),
  .PIECEWISE_BEZIER_KNOTS.);
#32 = CARTESIAN_POINT('',(2.,50.,40.));
#33 = CARTESIAN_POINT('',(2.,0.,40.));
#34 = CARTESIAN_POINT('',(2.,50.,6.));
#35 = CARTESIAN_POINT('',(2.,0.,6.));
#36 = DEFINITIONAL_REPRESENTATION('',(#37),#40);
#37 = B_SPLINE_CURVE_WITH_KNOTS('',1,(#38,#39),.UNSPECIFIED.,.F.,.F.,(2,
    2),(0.,50.),.PIECEWISE_BEZIER_KNOTS.);
#38 = CARTESIAN_POINT('',(0.,0.));
#39 = CARTESIAN_POINT('',(0.,-50.));
#40 = ( GEOMETRIC_REPRESENTATION_CONTEXT(2) 
PARAMETRIC_REPRESENTATION_CONTEXT() REPRESENTATION_CONTEXT('2D SPACE',''
  ) );
#41 = PCURVE('',#42,#47);
#42 = B_SPLINE_SURFACE_WITH_KNOTS('',1,1,(
    (#43,#44)
    ,(#45,#46
    )),.UNSPECIFIED.,.F.,.F.,.F.,(2,2),(2,2),(-2.,2.),(-25.,25.),
  .PIECEWISE_BEZIER_KNOTS.);
#43 = CARTESIAN_POINT('',(-2.,0.,40.));
#44 = CARTESIAN_POINT('',(-2.,50.,40.));
#45 = CARTESIAN_POINT('',(2.,0.,40.));
#46 = CARTESIAN_POINT('',(2.,50.,40.));
#47 = DEFINITIONAL_REPRESENTATION('',(#48),#51);
#48 = B_SPLINE_CURVE_WITH_KNOTS('',1,(#49,#50),.UNSPECIFIED.,.F.,.F.,(2,
    2),(0.,50.),.PIECEWISE_BEZIER_KNOTS.);
#49 = CARTESIAN_POINT('',(2.,-25.));
#50 = CARTESIAN_POINT('',(2.,25.));
#51 = ( GEOMETRIC_REPRESENTATION_CONTEXT(2) 
PARAMETRIC_REPRESENTATION_CONTEXT() REPRESENTATION_CONTEXT('2D SPACE',''
  ) );
#52 = ORIENTED_EDGE('',*,*,#53,.T.);
#53 = EDGE_CURVE('',#24,#54,#56,.T.);
#54 = VERTEX_POINT('',#55);
#55 = CARTESIAN_POINT('',(2.,50.,6.));
#56 = SURFACE_CURVE('',#57,(#60,#66),.PCURVE_S1.);
#57 = B_SPLINE_CURVE_WITH_KNOTS('',1,(#58,#59),.UNSPECIFIED.,.F.,.F.,(2,
    2),(0.,34.),.PIECEWISE_BEZIER_KNOTS.);
#58 = CARTESIAN_POINT('',(2.,50.,40.));
#59 = CARTESIAN_POINT('',(2.,50.,6.));
#60 = PCURVE('',#31,#61);
#61 = DEFINITIONAL_REPRESENTATION('',(#62),#65);
#62 = B_SPLINE_CURVE_WITH_KNOTS('',1,(#63,#64),.UNSPECIFIED.,.F.,.F.,(2,
    2),(0.,34.),.PIECEWISE_BEZIER_KNOTS.);
#63 = CARTESIAN_POINT('',(0.,-50.));
#64 = CARTESIAN_POINT('',(34.,-50.));
#65 = ( GEOMETRIC_REPRESENTATION_CONTEXT(2) 
PARAMETRIC_REPRESENTATION_CONTEXT() REPRESENTATION_CONTEXT('2D SPACE',''
  ) );
#66 = PCURVE('',#67,#72);
#67 = B_SPLINE_SURFACE_WITH_KNOTS('',1,1,(
    (#68,#69)
    ,(#70,#71
    )),.UNSPECIFIED.,.F.,.F.,.F.,(2,2),(2,2),(-17.,17.),(-2.,2.),
  .PIECEWISE_BEZIER_KNOTS.);
#68 = CARTESIAN_POINT('',(-2.,50.,6.));
#69 = CARTESIAN_POINT('',(2.,50.,6.));
#70 = CARTESIAN_POINT('',(-2.,50.,40.));
#71 = CARTESIAN_POINT('',(2.,50.,40.));
#72 = DEFINITIONAL_REPRESENTATION('',(#73),#76);
#73 = B_SPLINE_CURVE_WITH_KNOTS('',1,(#74,#75),.UNSPECIFIED.,.F.,.F.,(2,
    2),(0.,34.),.PIECEWISE_BEZIER_KNOTS.);
#74 = CARTESIAN_POINT('',(17.,2.));
#75 = CARTESIAN_POINT('',(-17.,2.));
#76 = ( GEOMETRIC_REPRESENTATION_CONTEXT(2) 
PARAMETRIC_REPRESENTATION_CONTEXT() REPRESENTATION_CONTEXT('2D SPACE',''
  ) );
#77 = ORIENTED_EDGE('',*,*,#78,.F.);
#78 = EDGE_CURVE('',#79,#54,#81,.T.);
#79 = VERTEX_POINT('',#80);
#80 = CARTESIAN_POINT('',(2.,0.,6.));
#81 = SURFACE_CURVE('',#82,(#85,#91),.PCURVE_S1.);
#82 = B_SPLINE_CURVE_WITH_KNOTS('',1,(#83,#84),.UNSPECIFIED.,.F.,.F.,(2,
    2),(0.,50.),.PIECEWISE_BEZIER_KNOTS.);
#83 = CARTESIAN_POINT('',(2.,0.,6.));
#84 = CARTESIAN_POINT('',(2.,50.,6.));
#85 = PCURVE('',#31,#86);
#86 = DEFINITIONAL_REPRESENTATION('',(#87),#90);
#87 = B_SPLINE_CURVE_WITH_KNOTS('',1,(#88,#89),.UNSPECIFIED.,.F.,.F.,(2,
    2),(0.,50.),.PIECEWISE_BEZIER_KNOTS.);
#88 = CARTESIAN_POINT('',(34.,0.));
#89 = CARTESIAN_POINT('',(34.,-50.));
#90 = ( GEOMETRIC_REPRESENTATION_CONTEXT(2) 
PARAMETRIC_REPRESENTATION_CONTEXT() REPRESENTATION_CONTEXT('2D SPACE',''
  ) );
#91 = PCURVE('',#92,#99);
#92 = ( BOUNDED_SURFACE() B_SPLINE_SURFACE(2,1,(
    (#93,#94)
    ,(#95,#96)
,(#97,#98
  )),.UNSPECIFIED.,.F.,.F.,.F.) B_SPLINE_SURFACE_WITH_KNOTS((3,3),(2,2),
  (1.570796326795,3.14159265359),(-50.,0.),.PIECEWISE_BEZIER_KNOTS.) 
GEOMETRIC_REPRESENTATION_ITEM() RATIONAL_B_SPLINE_SURFACE((
    (1.,1.)
    ,(0.707106781187,0.707106781187)
,(1.,1.))) REPRESENTATION_ITEM('') SURFACE() );
#93 = CARTESIAN_POINT('',(2.,50.,6.));
#94 = CARTESIAN_POINT('',(2.,0.,6.));
#95 = CARTESIAN_POINT('',(2.,50.,2.));
#96 = CARTESIAN_POINT('',(2.,0.,2.));
#97 = CARTESIAN_POINT('',(6.,50.,2.));
#98 = CARTESIAN_POINT('',(6.,0.,2.));
#99 = DEFINITIONAL_REPRESENTATION('',(#100),#104);
#100 = B_SPLINE_CURVE_WITH_KNOTS('',2,(#101,#102,#103),.UNSPECIFIED.,.F.
  ,.F.,(3,3),(0.,50.),.PIECEWISE_BEZIER_KNOTS.);
#101 = CARTESIAN_POINT('',(1.570796326795,0.));
#102 = CARTESIAN_POINT('',(1.570796326795,-25.));
#103 = CARTESIAN_POINT('',(1.570796326795,-50.));
#104 = ( GEOMETRIC_REPRESENTATION_CONTEXT(2) 
PARAMETRIC_REPRESENTATION_CONTEXT() REPRESENTATION_CONTEXT('2D SPACE',''
  ) );
#105 = ORIENTED_EDGE('',*,*,#106,.F.);
#106 = EDGE_CURVE('',#22,#79,#107,.T.);
#107 = SURFACE_CURVE('',#108,(#111,#117),.PCURVE_S1.);
#108 = B_SPLINE_CURVE_WITH_KNOTS('',1,(#109,#110),.UNSPECIFIED.,.F.,.F.,
  (2,2),(0.,34.),.PIECEWISE_BEZIER_KNOTS.);
#109 = CARTESIAN_POINT('',(2.,0.,40.));
#110 = CARTESIAN_POINT('',(2.,0.,6.));
#111 = PCURVE('',#31,#112);
#112 = DEFINITIONAL_REPRESENTATION('',(#113),#116);
#113 = B_SPLINE_CURVE_WITH_KNOTS('',1,(#114,#115),.UNSPECIFIED.,.F.,.F.,
  (2,2),(0.,34.),.PIECEWISE_BEZIER_KNOTS.);
#114 = CARTESIAN_POINT('',(0.,0.));
#115 = CARTESIAN_POINT('',(34.,0.));
#116 = ( GEOMETRIC_REPRESENTATION_CONTEXT(2) 
PARAMETRIC_REPRESENTATION_CONTEXT() REPRESENTATION_CONTEXT('2D SPACE',''
  ) );
#117 = PCURVE('',#118,#123);
#118 = B_SPLINE_SURFACE_WITH_KNOTS('',1,1,(
    (#119,#120)
    ,(#121,#122
    )),.UNSPECIFIED.,.F.,.F.,.F.,(2,2),(2,2),(-17.,17.),(-2.,2.),
  .PIECEWISE_BEZIER_KNOTS.);
#119 = CARTESIAN_POINT('',(-2.,0.,6.));
#120 = CARTESIAN_POINT('',(2.,0.,6.));
#121 = CARTESIAN_POINT('',(-2.,0.,40.));
#122 = CARTESIAN_POINT('',(2.,0.,40.));
#123 = DEFINITIONAL_REPRESENTATION('',(#124),#127);
#124 = B_SPLINE_CURVE_WITH_KNOTS('',1,(#125,#126),.UNSPECIFIED.,.F.,.F.,
  (2,2),(0.,34.),.PIECEWISE_BEZIER_KNOTS.);
#125 = CARTESIAN_POINT('',(17.,2.));
#126 = CARTESIAN_POINT('',(-17.,2.));
#127 = ( GEOMETRIC_REPRESENTATION_CONTEXT(2) 
PARAMETRIC_REPRESENTATION_CONTEXT() REPRESENTATION_CONTEXT('2D SPACE',''
  ) );
#128 = ADVANCED_FACE('',(#129),#92,.F.);
#129 = FACE_BOUND('',#130,.F.);
#130 = EDGE_LOOP('',(#131,#132,#181,#207));
#131 = ORIENTED_EDGE('',*,*,#78,.T.);
#132 = ORIENTED_EDGE('',*,*,#133,.T.);
#133 = EDGE_CURVE('',#54,#134,#136,.T.);
#134 = VERTEX_POINT('',#135);
#135 = CARTESIAN_POINT('',(6.,50.,2.));
#136 = SURFACE_CURVE('',#137,(#147,#163),.PCURVE_S1.);
#137 = B_SPLINE_CURVE_WITH_KNOTS('',8,(#138,#139,#140,#141,#142,#143,
    #144,#145,#146),.UNSPECIFIED.,.F.,.F.,(9,9),(1.570796326795,
    3.14159265359),.PIECEWISE_BEZIER_KNOTS.);
#138 = CARTESIAN_POINT('',(2.,50.,6.));
#139 = CARTESIAN_POINT('',(2.,50.,5.214601836603));
#140 = CARTESIAN_POINT('',(2.176243155845,49.999999999999,4.429203425983
    ));
#141 = CARTESIAN_POINT('',(2.528727736514,50.000000000001,3.68994706266)
  );
#142 = CARTESIAN_POINT('',(3.04296497688,49.999999999998,3.04296497688)
  );
#143 = CARTESIAN_POINT('',(3.68994706266,50.000000000002,2.528727736514)
  );
#144 = CARTESIAN_POINT('',(4.429203425983,49.999999999999,2.176243155845
    ));
#145 = CARTESIAN_POINT('',(5.214601836603,50.,2.));
#146 = CARTESIAN_POINT('',(6.,50.,2.));
#147 = PCURVE('',#92,#148);
#148 = DEFINITIONAL_REPRESENTATION('',(#149),#162);
#149 = B_SPLINE_CURVE_WITH_KNOTS('',6,(#150,#151,#152,#153,#154,#155,
    #156,#157,#158,#159,#160,#161),.UNSPECIFIED.,.F.,.F.,(7,5,7),(
    1.570796326795,2.356194490192,3.14159265359),.UNSPECIFIED.);
#150 = CARTESIAN_POINT('',(1.570796326795,-50.));
#151 = CARTESIAN_POINT('',(1.716188979374,-49.99999999999));
#152 = CARTESIAN_POINT('',(1.852124737777,-50.00000000004));
#153 = CARTESIAN_POINT('',(1.981984129095,-49.99999999995));
#154 = CARTESIAN_POINT('',(2.107991232822,-50.00000000002));
#155 = CARTESIAN_POINT('',(2.232094107825,-49.99999999999));
#156 = CARTESIAN_POINT('',(2.480294872559,-49.99999999999));
#157 = CARTESIAN_POINT('',(2.604397747566,-50.00000000004));
#158 = CARTESIAN_POINT('',(2.730404851287,-49.99999999995));
#159 = CARTESIAN_POINT('',(2.860264242613,-50.00000000003));
#160 = CARTESIAN_POINT('',(2.996200001011,-50.));
#161 = CARTESIAN_POINT('',(3.14159265359,-50.));
#162 = ( GEOMETRIC_REPRESENTATION_CONTEXT(2) 
PARAMETRIC_REPRESENTATION_CONTEXT() REPRESENTATION_CONTEXT('2D SPACE',''
  ) );
#163 = PCURVE('',#164,#169);
#164 = B_SPLINE_SURFACE_WITH_KNOTS('',1,1,(
    (#165,#166)
    ,(#167,#168
    )),.UNSPECIFIED.,.F.,.F.,.F.,(2,2),(2,2),(-4.136557885006,
    3.863442114994),(-4.136557885006,3.863442114994),
  .PIECEWISE_BEZIER_KNOTS.);
#165 = CARTESIAN_POINT('',(-2.,50.,-2.));
#166 = CARTESIAN_POINT('',(6.,50.,-2.));
#167 = CARTESIAN_POINT('',(-2.,50.,6.));
#168 = CARTESIAN_POINT('',(6.,50.,6.));
#169 = DEFINITIONAL_REPRESENTATION('',(#170),#180);
#170 = B_SPLINE_CURVE_WITH_KNOTS('',8,(#171,#172,#173,#174,#175,#176,
    #177,#178,#179),.UNSPECIFIED.,.F.,.F.,(9,9),(1.570796326795,
    3.14159265359),.PIECEWISE_BEZIER_KNOTS.);
#171 = CARTESIAN_POINT('',(3.863442114994,-0.136557885006));
#172 = CARTESIAN_POINT('',(3.078043951596,-0.136557885006));
#173 = CARTESIAN_POINT('',(2.292645540977,3.968527083842E-02));
#174 = CARTESIAN_POINT('',(1.553389177653,0.392169851508));
#175 = CARTESIAN_POINT('',(0.906407091874,0.906407091874));
#176 = CARTESIAN_POINT('',(0.392169851508,1.553389177653));
#177 = CARTESIAN_POINT('',(3.96852708384E-02,2.292645540977));
#178 = CARTESIAN_POINT('',(-0.136557885006,3.078043951596));
#179 = CARTESIAN_POINT('',(-0.136557885006,3.863442114994));
#180 = ( GEOMETRIC_REPRESENTATION_CONTEXT(2) 
PARAMETRIC_REPRESENTATION_CONTEXT() REPRESENTATION_CONTEXT('2D SPACE',''
  ) );
#181 = ORIENTED_EDGE('',*,*,#182,.F.);
#182 = EDGE_CURVE('',#183,#134,#185,.T.);
#183 = VERTEX_POINT('',#184);
#184 = CARTESIAN_POINT('',(6.,0.,2.));
#185 = SURFACE_CURVE('',#186,(#189,#196),.PCURVE_S1.);
#186 = B_SPLINE_CURVE_WITH_KNOTS('',1,(#187,#188),.UNSPECIFIED.,.F.,.F.,
  (2,2),(0.,50.),.PIECEWISE_BEZIER_KNOTS.);
#187 = CARTESIAN_POINT('',(6.,0.,2.));
#188 = CARTESIAN_POINT('',(6.,50.,2.));
#189 = PCURVE('',#92,#190);
#190 = DEFINITIONAL_REPRESENTATION('',(#191),#195);
#191 = B_SPLINE_CURVE_WITH_KNOTS('',2,(#192,#193,#194),.UNSPECIFIED.,.F.
  ,.F.,(3,3),(0.,50.),.PIECEWISE_BEZIER_KNOTS.);
#192 = CARTESIAN_POINT('',(3.14159265359,0.));
#193 = CARTESIAN_POINT('',(3.14159265359,-25.));
#194 = CARTESIAN_POINT('',(3.14159265359,-50.));
#195 = ( GEOMETRIC_REPRESENTATION_CONTEXT(2) 
PARAMETRIC_REPRESENTATION_CONTEXT() REPRESENTATION_CONTEXT('2D SPACE',''
  ) );
#196 = PCURVE('',#197,#202);
#197 = B_SPLINE_SURFACE_WITH_KNOTS('',1,1,(
    (#198,#199)
    ,(#200,#201
    )),.UNSPECIFIED.,.F.,.F.,.F.,(2,2),(2,2),(0.,38.),(-50.,0.),
  .PIECEWISE_BEZIER_KNOTS.);
#198 = CARTESIAN_POINT('',(6.,50.,2.));
#199 = CARTESIAN_POINT('',(6.,0.,2.));
#200 = CARTESIAN_POINT('',(44.,50.,2.));
#201 = CARTESIAN_POINT('',(44.,0.,2.));
#202 = DEFINITIONAL_REPRESENTATION('',(#203),#206);
#203 = B_SPLINE_CURVE_WITH_KNOTS('',1,(#204,#205),.UNSPECIFIED.,.F.,.F.,
  (2,2),(0.,50.),.PIECEWISE_BEZIER_KNOTS.);
#204 = CARTESIAN_POINT('',(0.,0.));
#205 = CARTESIAN_POINT('',(0.,-50.));
#206 = ( GEOMETRIC_REPRESENTATION_CONTEXT(2) 
PARAMETRIC_REPRESENTATION_CONTEXT() REPRESENTATION_CONTEXT('2D SPACE',''
  ) );
#207 = ORIENTED_EDGE('',*,*,#208,.F.);
#208 = EDGE_CURVE('',#79,#183,#209,.T.);
#209 = SURFACE_CURVE('',#210,(#220,#236),.PCURVE_S1.);
#210 = B_SPLINE_CURVE_WITH_KNOTS('',8,(#211,#212,#213,#214,#215,#216,
    #217,#218,#219),.UNSPECIFIED.,.F.,.F.,(9,9),(1.570796326795,
    3.14159265359),.PIECEWISE_BEZIER_KNOTS.);
#211 = CARTESIAN_POINT('',(2.,0.,6.));
#212 = CARTESIAN_POINT('',(2.,0.,5.214601836603));
#213 = CARTESIAN_POINT('',(2.176243155845,0.,4.429203425983));
#214 = CARTESIAN_POINT('',(2.528727736514,0.,3.68994706266));
#215 = CARTESIAN_POINT('',(3.04296497688,0.,3.04296497688));
#216 = CARTESIAN_POINT('',(3.68994706266,0.,2.528727736514));
#217 = CARTESIAN_POINT('',(4.429203425983,0.,2.176243155845));
#218 = CARTESIAN_POINT('',(5.214601836603,0.,2.));
#219 = CARTESIAN_POINT('',(6.,0.,2.));
#220 = PCURVE('',#92,#221);
#221 = DEFINITIONAL_REPRESENTATION('',(#222),#235);
#222 = B_SPLINE_CURVE_WITH_KNOTS('',6,(#223,#224,#225,#226,#227,#228,
    #229,#230,#231,#232,#233,#234),.UNSPECIFIED.,.F.,.F.,(7,5,7),(
    1.570796326795,2.356194490192,3.14159265359),.UNSPECIFIED.);
#223 = CARTESIAN_POINT('',(1.570796326795,-3.552713678801E-15));
#224 = CARTESIAN_POINT('',(1.716188979374,6.528346248042E-15));
#225 = CARTESIAN_POINT('',(1.852124737777,-1.688869909449E-14));
#226 = CARTESIAN_POINT('',(1.981984129095,1.43393757265E-14));
#227 = CARTESIAN_POINT('',(2.107991232822,-5.504788547331E-15));
#228 = CARTESIAN_POINT('',(2.232094107825,8.373695186788E-16));
#229 = CARTESIAN_POINT('',(2.480294872559,5.500560894264E-15));
#230 = CARTESIAN_POINT('',(2.604397747566,-2.469914461349E-14));
#231 = CARTESIAN_POINT('',(2.730404851287,4.269182528775E-14));
#232 = CARTESIAN_POINT('',(2.860264242613,-3.972175252828E-14));
#233 = CARTESIAN_POINT('',(2.996200001011,1.664046821083E-14));
#234 = CARTESIAN_POINT('',(3.14159265359,0.));
#235 = ( GEOMETRIC_REPRESENTATION_CONTEXT(2) 
PARAMETRIC_REPRESENTATION_CONTEXT() REPRESENTATION_CONTEXT('2D SPACE',''
  ) );
#236 = PCURVE('',#237,#242);
#237 = B_SPLINE_SURFACE_WITH_KNOTS('',1,1,(
    (#238,#239)
    ,(#240,#241
    )),.UNSPECIFIED.,.F.,.F.,.F.,(2,2),(2,2),(-4.136557885006,
    3.863442114994),(-4.136557885006,3.863442114994),
  .PIECEWISE_BEZIER_KNOTS.);
#238 = CARTESIAN_POINT('',(-2.,0.,-2.));
#239 = CARTESIAN_POINT('',(6.,0.,-2.));
#240 = CARTESIAN_POINT('',(-2.,0.,6.));
#241 = CARTESIAN_POINT('',(6.,0.,6.));
#242 = DEFINITIONAL_REPRESENTATION('',(#243),#253);
#243 = B_SPLINE_CURVE_WITH_KNOTS('',8,(#244,#245,#246,#247,#248,#249,
    #250,#251,#252),.UNSPECIFIED.,.F.,.F.,(9,9),(1.570796326795,
    3.14159265359),.PIECEWISE_BEZIER_KNOTS.);
#244 = CARTESIAN_POINT('',(3.863442114994,-0.136557885006));
#245 = CARTESIAN_POINT('',(3.078043951596,-0.136557885006));
#246 = CARTESIAN_POINT('',(2.292645540977,3.968527083842E-02));
#247 = CARTESIAN_POINT('',(1.553389177653,0.392169851508));
#248 = CARTESIAN_POINT('',(0.906407091874,0.906407091874));
#249 = CARTESIAN_POINT('',(0.392169851508,1.553389177653));
#250 = CARTESIAN_POINT('',(3.96852708384E-02,2.292645540977));
#251 = CARTESIAN_POINT('',(-0.136557885006,3.078043951596));
#252 = CARTESIAN_POINT('',(-0.136557885006,3.863442114994));
#253 = ( GEOMETRIC_REPRESENTATION_CONTEXT(2) 
PARAMETRIC_REPRESENTATION_CONTEXT() REPRESENTATION_CONTEXT('2D SPACE',''
  ) );
#254 = ADVANCED_FACE('',(#255),#197,.F.);
#255 = FACE_BOUND('',#256,.F.);
#256 = EDGE_LOOP('',(#257,#258,#283,#311));
#257 = ORIENTED_EDGE('',*,*,#182,.T.);
#258 = ORIENTED_EDGE('',*,*,#259,.T.);
#259 = EDGE_CURVE('',#134,#260,#262,.T.);
#260 = VERTEX_POINT('',#261);
#261 = CARTESIAN_POINT('',(44.,50.,2.));
#262 = SURFACE_CURVE('',#263,(#266,#272),.PCURVE_S1.);
#263 = B_SPLINE_CURVE_WITH_KNOTS('',1,(#264,#265),.UNSPECIFIED.,.F.,.F.,
  (2,2),(0.,38.),.PIECEWISE_BEZIER_KNOTS.);
#264 = CARTESIAN_POINT('',(6.,50.,2.));
#265 = CARTESIAN_POINT('',(44.,50.,2.));
#266 = PCURVE('',#197,#267);
#267 = DEFINITIONAL_REPRESENTATION('',(#268),#271);
#268 = B_SPLINE_CURVE_WITH_KNOTS('',1,(#269,#270),.UNSPECIFIED.,.F.,.F.,
  (2,2),(0.,38.),.PIECEWISE_BEZIER_KNOTS.);
#269 = CARTESIAN_POINT('',(0.,-50.));
#270 = CARTESIAN_POINT('',(38.,-50.));
#271 = ( GEOMETRIC_REPRESENTATION_CONTEXT(2) 
PARAMETRIC_REPRESENTATION_CONTEXT() REPRESENTATION_CONTEXT('2D SPACE',''
  ) );
#272 = PCURVE('',#273,#278);
#273 = B_SPLINE_SURFACE_WITH_KNOTS('',1,1,(
    (#274,#275)
    ,(#276,#277
    )),.UNSPECIFIED.,.F.,.F.,.F.,(2,2),(2,2),(-2.,2.),(-19.,19.),
  .PIECEWISE_BEZIER_KNOTS.);
#274 = CARTESIAN_POINT('',(6.,50.,-2.));
#275 = CARTESIAN_POINT('',(44.,50.,-2.));
#276 = CARTESIAN_POINT('',(6.,50.,2.));
#277 = CARTESIAN_POINT('',(44.,50.,2.));
#278 = DEFINITIONAL_REPRESENTATION('',(#279),#282);
#279 = B_SPLINE_CURVE_WITH_KNOTS('',1,(#280,#281),.UNSPECIFIED.,.F.,.F.,
  (2,2),(0.,38.),.PIECEWISE_BEZIER_KNOTS.);
#280 = CARTESIAN_POINT('',(2.,-19.));
#281 = CARTESIAN_POINT('',(2.,19.));
#282 = ( GEOMETRIC_REPRESENTATION_CONTEXT(2) 
PARAMETRIC_REPRESENTATION_CONTEXT() REPRESENTATION_CONTEXT('2D SPACE',''
  ) );
#283 = ORIENTED_EDGE('',*,*,#284,.F.);
#284 = EDGE_CURVE('',#285,#260,#287,.T.);
#285 = VERTEX_POINT('',#286);
#286 = CARTESIAN_POINT('',(44.,0.,2.));
#287 = SURFACE_CURVE('',#288,(#291,#297),.PCURVE_S1.);
#288 = B_SPLINE_CURVE_WITH_KNOTS('',1,(#289,#290),.UNSPECIFIED.,.F.,.F.,
  (2,2),(0.,50.),.PIECEWISE_BEZIER_KNOTS.);
#289 = CARTESIAN_POINT('',(44.,0.,2.));
#290 = CARTESIAN_POINT('',(44.,50.,2.));
#291 = PCURVE('',#197,#292);
#292 = DEFINITIONAL_REPRESENTATION('',(#293),#296);
#293 = B_SPLINE_CURVE_WITH_KNOTS('',1,(#294,#295),.UNSPECIFIED.,.F.,.F.,
  (2,2),(0.,50.),.PIECEWISE_BEZIER_KNOTS.);
#294 = CARTESIAN_POINT('',(38.,0.));
#295 = CARTESIAN_POINT('',(38.,-50.));
#296 = ( GEOMETRIC_REPRESENTATION_CONTEXT(2) 
PARAMETRIC_REPRESENTATION_CONTEXT() REPRESENTATION_CONTEXT('2D SPACE',''
  ) );
#297 = PCURVE('',#298,#305);
#298 = ( BOUNDED_SURFACE() B_SPLINE_SURFACE(2,1,(
    (#299,#300)
    ,(#301,#302)
,(#303,#304
    )),.UNSPECIFIED.,.F.,.F.,.F.) B_SPLINE_SURFACE_WITH_KNOTS((3,3),(2,2
    ),(3.14159265359,4.712388980385),(-50.,0.),
.PIECEWISE_BEZIER_KNOTS.) GEOMETRIC_REPRESENTATION_ITEM() 
RATIONAL_B_SPLINE_SURFACE((
    (1.,1.)
    ,(0.707106781187,0.707106781187)
,(1.,1.))) REPRESENTATION_ITEM('') SURFACE() );
#299 = CARTESIAN_POINT('',(44.,50.,2.));
#300 = CARTESIAN_POINT('',(44.,0.,2.));
#301 = CARTESIAN_POINT('',(48.,50.,2.));
#302 = CARTESIAN_POINT('',(48.,0.,2.));
#303 = CARTESIAN_POINT('',(48.,50.,6.));
#304 = CARTESIAN_POINT('',(48.,0.,6.));
#305 = DEFINITIONAL_REPRESENTATION('',(#306),#310);
#306 = B_SPLINE_CURVE_WITH_KNOTS('',2,(#307,#308,#309),.UNSPECIFIED.,.F.
  ,.F.,(3,3),(0.,50.),.PIECEWISE_BEZIER_KNOTS.);
#307 = CARTESIAN_POINT('',(3.14159265359,-3.552713678801E-15));
#308 = CARTESIAN_POINT('',(3.14159265359,-25.));
#309 = CARTESIAN_POINT('',(3.14159265359,-50.));
#310 = ( GEOMETRIC_REPRESENTATION_CONTEXT(2) 
PARAMETRIC_REPRESENTATION_CONTEXT() REPRESENTATION_CONTEXT('2D SPACE',''
  ) );
#311 = ORIENTED_EDGE('',*,*,#312,.F.);
#312 = EDGE_CURVE('',#183,#285,#313,.T.);
#313 = SURFACE_CURVE('',#314,(#317,#323),.PCURVE_S1.);
#314 = B_SPLINE_CURVE_WITH_KNOTS('',1,(#315,#316),.UNSPECIFIED.,.F.,.F.,
  (2,2),(0.,38.),.PIECEWISE_BEZIER_KNOTS.);
#315 = CARTESIAN_POINT('',(6.,0.,2.));
#316 = CARTESIAN_POINT('',(44.,0.,2.));
#317 = PCURVE('',#197,#318);
#318 = DEFINITIONAL_REPRESENTATION('',(#319),#322);
#319 = B_SPLINE_CURVE_WITH_KNOTS('',1,(#320,#321),.UNSPECIFIED.,.F.,.F.,
  (2,2),(0.,38.),.PIECEWISE_BEZIER_KNOTS.);
#320 = CARTESIAN_POINT('',(0.,0.));
#321 = CARTESIAN_POINT('',(38.,0.));
#322 = ( GEOMETRIC_REPRESENTATION_CONTEXT(2) 
PARAMETRIC_REPRESENTATION_CONTEXT() REPRESENTATION_CONTEXT('2D SPACE',''
  ) );
#323 = PCURVE('',#324,#329);
#324 = B_SPLINE_SURFACE_WITH_KNOTS('',1,1,(
    (#325,#326)
    ,(#327,#328
    )),.UNSPECIFIED.,.F.,.F.,.F.,(2,2),(2,2),(-2.,2.),(-19.,19.),
  .PIECEWISE_BEZIER_KNOTS.);
#325 = CARTESIAN_POINT('',(6.,0.,-2.));
#326 = CARTESIAN_POINT('',(44.,0.,-2.));
#327 = CARTESIAN_POINT('',(6.,0.,2.));
#328 = CARTESIAN_POINT('',(44.,0.,2.));
#329 = DEFINITIONAL_REPRESENTATION('',(#330),#333);
#330 = B_SPLINE_CURVE_WITH_KNOTS('',1,(#331,#332),.UNSPECIFIED.,.F.,.F.,
  (2,2),(0.,38.),.PIECEWISE_BEZIER_KNOTS.);
#331 = CARTESIAN_POINT('',(2.,-19.));
#332 = CARTESIAN_POINT('',(2.,19.));
#333 = ( GEOMETRIC_REPRESENTATION_CONTEXT(2) 
PARAMETRIC_REPRESENTATION_CONTEXT() REPRESENTATION_CONTEXT('2D SPACE',''
  ) );
#334 = ADVANCED_FACE('',(#335),#298,.F.);
#335 = FACE_BOUND('',#336,.F.);
#336 = EDGE_LOOP('',(#337,#338,#387,#413));
#337 = ORIENTED_EDGE('',*,*,#284,.T.);
#338 = ORIENTED_EDGE('',*,*,#339,.T.);
#339 = EDGE_CURVE('',#260,#340,#342,.T.);
#340 = VERTEX_POINT('',#341);
#341 = CARTESIAN_POINT('',(48.,50.,6.));
#342 = SURFACE_CURVE('',#343,(#353,#369),.PCURVE_S1.);
#343 = B_SPLINE_CURVE_WITH_KNOTS('',8,(#344,#345,#346,#347,#348,#349,
    #350,#351,#352),.UNSPECIFIED.,.F.,.F.,(9,9),(3.14159265359,
    4.712388980385),.PIECEWISE_BEZIER_KNOTS.);
#344 = CARTESIAN_POINT('',(44.,50.,2.));
#345 = CARTESIAN_POINT('',(44.785398163399,50.000000000001,2.));
#346 = CARTESIAN_POINT('',(45.570796574013,49.999999999996,
    2.176243155845));
#347 = CARTESIAN_POINT('',(46.310052937347,50.000000000007,
    2.528727736515));
#348 = CARTESIAN_POINT('',(46.957035023113,49.999999999992,3.04296497688
    ));
#349 = CARTESIAN_POINT('',(47.471272263491,50.000000000006,3.68994706266
    ));
#350 = CARTESIAN_POINT('',(47.823756844153,49.999999999997,
    4.429203425983));
#351 = CARTESIAN_POINT('',(48.000000000001,50.000000000001,
    5.214601836603));
#352 = CARTESIAN_POINT('',(48.,50.,6.));
#353 = PCURVE('',#298,#354);
#354 = DEFINITIONAL_REPRESENTATION('',(#355),#368);
#355 = B_SPLINE_CURVE_WITH_KNOTS('',6,(#356,#357,#358,#359,#360,#361,
    #362,#363,#364,#365,#366,#367),.UNSPECIFIED.,.F.,.F.,(7,5,7),(
    3.14159265359,3.926990816987,4.712388980385),.UNSPECIFIED.);
#356 = CARTESIAN_POINT('',(3.14159265359,-50.));
#357 = CARTESIAN_POINT('',(3.286985306169,-49.99999999998));
#358 = CARTESIAN_POINT('',(3.422921064571,-50.00000000008));
#359 = CARTESIAN_POINT('',(3.552780455889,-49.99999999986));
#360 = CARTESIAN_POINT('',(3.678787559616,-50.00000000008));
#361 = CARTESIAN_POINT('',(3.802890434621,-49.99999999998));
#362 = CARTESIAN_POINT('',(4.051091199354,-49.99999999998));
#363 = CARTESIAN_POINT('',(4.17519407436,-50.00000000012));
#364 = CARTESIAN_POINT('',(4.301201178082,-49.99999999984));
#365 = CARTESIAN_POINT('',(4.431060569406,-50.00000000012));
#366 = CARTESIAN_POINT('',(4.566996327806,-49.99999999997));
#367 = CARTESIAN_POINT('',(4.712388980385,-50.));
#368 = ( GEOMETRIC_REPRESENTATION_CONTEXT(2) 
PARAMETRIC_REPRESENTATION_CONTEXT() REPRESENTATION_CONTEXT('2D SPACE',''
  ) );
#369 = PCURVE('',#370,#375);
#370 = B_SPLINE_SURFACE_WITH_KNOTS('',1,1,(
    (#371,#372)
    ,(#373,#374
    )),.UNSPECIFIED.,.F.,.F.,.F.,(2,2),(2,2),(-4.136557885006,
    3.863442114994),(-3.863442114994,4.136557885007),
  .PIECEWISE_BEZIER_KNOTS.);
#371 = CARTESIAN_POINT('',(44.,50.,-2.));
#372 = CARTESIAN_POINT('',(52.000000000001,50.,-2.));
#373 = CARTESIAN_POINT('',(44.,50.,6.));
#374 = CARTESIAN_POINT('',(52.000000000001,50.,6.));
#375 = DEFINITIONAL_REPRESENTATION('',(#376),#386);
#376 = B_SPLINE_CURVE_WITH_KNOTS('',8,(#377,#378,#379,#380,#381,#382,
    #383,#384,#385),.UNSPECIFIED.,.F.,.F.,(9,9),(3.14159265359,
    4.712388980385),.PIECEWISE_BEZIER_KNOTS.);
#377 = CARTESIAN_POINT('',(-0.136557885006,-3.863442114994));
#378 = CARTESIAN_POINT('',(-0.136557885006,-3.078043951595));
#379 = CARTESIAN_POINT('',(3.968527083827E-02,-2.29264554098));
#380 = CARTESIAN_POINT('',(0.392169851508,-1.553389177647));
#381 = CARTESIAN_POINT('',(0.906407091874,-0.906407091881));
#382 = CARTESIAN_POINT('',(1.553389177654,-0.392169851503));
#383 = CARTESIAN_POINT('',(2.292645540977,-3.968527084111E-02));
#384 = CARTESIAN_POINT('',(3.078043951596,0.136557885007));
#385 = CARTESIAN_POINT('',(3.863442114994,0.136557885006));
#386 = ( GEOMETRIC_REPRESENTATION_CONTEXT(2) 
PARAMETRIC_REPRESENTATION_CONTEXT() REPRESENTATION_CONTEXT('2D SPACE',''
  ) );
#387 = ORIENTED_EDGE('',*,*,#388,.F.);
#388 = EDGE_CURVE('',#389,#340,#391,.T.);
#389 = VERTEX_POINT('',#390);
#390 = CARTESIAN_POINT('',(48.,0.,6.));
#391 = SURFACE_CURVE('',#392,(#395,#402),.PCURVE_S1.);
#392 = B_SPLINE_CURVE_WITH_KNOTS('',1,(#393,#394),.UNSPECIFIED.,.F.,.F.,
  (2,2),(0.,50.),.PIECEWISE_BEZIER_KNOTS.);
#393 = CARTESIAN_POINT('',(48.,0.,6.));
#394 = CARTESIAN_POINT('',(48.,50.,6.));
#395 = PCURVE('',#298,#396);
#396 = DEFINITIONAL_REPRESENTATION('',(#397),#401);
#397 = B_SPLINE_CURVE_WITH_KNOTS('',2,(#398,#399,#400),.UNSPECIFIED.,.F.
  ,.F.,(3,3),(0.,50.),.PIECEWISE_BEZIER_KNOTS.);
#398 = CARTESIAN_POINT('',(4.712388980385,0.));
#399 = CARTESIAN_POINT('',(4.712388980385,-25.));
#400 = CARTESIAN_POINT('',(4.712388980385,-50.));
#401 = ( GEOMETRIC_REPRESENTATION_CONTEXT(2) 
PARAMETRIC_REPRESENTATION_CONTEXT() REPRESENTATION_CONTEXT('2D SPACE',''
  ) );
#402 = PCURVE('',#403,#408);
#403 = B_SPLINE_SURFACE_WITH_KNOTS('',1,1,(
    (#404,#405)
    ,(#406,#407
    )),.UNSPECIFIED.,.F.,.F.,.F.,(2,2),(2,2),(0.,34.),(-50.,0.),
  .PIECEWISE_BEZIER_KNOTS.);
#404 = CARTESIAN_POINT('',(48.,50.,6.));
#405 = CARTESIAN_POINT('',(48.,0.,6.));
#406 = CARTESIAN_POINT('',(48.,50.,40.));
#407 = CARTESIAN_POINT('',(48.,0.,40.));
#408 = DEFINITIONAL_REPRESENTATION('',(#409),#412);
#409 = B_SPLINE_CURVE_WITH_KNOTS('',1,(#410,#411),.UNSPECIFIED.,.F.,.F.,
  (2,2),(0.,50.),.PIECEWISE_BEZIER_KNOTS.);
#410 = CARTESIAN_POINT('',(0.,0.));
#411 = CARTESIAN_POINT('',(0.,-50.));
#412 = ( GEOMETRIC_REPRESENTATION_CONTEXT(2) 
PARAMETRIC_REPRESENTATION_CONTEXT() REPRESENTATION_CONTEXT('2D SPACE',''
  ) );
#413 = ORIENTED_EDGE('',*,*,#414,.F.);
#414 = EDGE_CURVE('',#285,#389,#415,.T.);
#415 = SURFACE_CURVE('',#416,(#426,#442),.PCURVE_S1.);
#416 = B_SPLINE_CURVE_WITH_KNOTS('',8,(#417,#418,#419,#420,#421,#422,
    #423,#424,#425),.UNSPECIFIED.,.F.,.F.,(9,9),(3.14159265359,
    4.712388980385),.PIECEWISE_BEZIER_KNOTS.);
#417 = CARTESIAN_POINT('',(44.,0.,2.));
#418 = CARTESIAN_POINT('',(44.785398163399,0.,2.));
#419 = CARTESIAN_POINT('',(45.570796574013,0.,2.176243155845));
#420 = CARTESIAN_POINT('',(46.310052937347,0.,2.528727736515));
#421 = CARTESIAN_POINT('',(46.957035023113,0.,3.04296497688));
#422 = CARTESIAN_POINT('',(47.471272263491,0.,3.68994706266));
#423 = CARTESIAN_POINT('',(47.823756844153,0.,4.429203425983));
#424 = CARTESIAN_POINT('',(48.000000000001,0.,5.214601836603));
#425 = CARTESIAN_POINT('',(48.,0.,6.));
#426 = PCURVE('',#298,#427);
#427 = DEFINITIONAL_REPRESENTATION('',(#428),#441);
#428 = B_SPLINE_CURVE_WITH_KNOTS('',6,(#429,#430,#431,#432,#433,#434,
    #435,#436,#437,#438,#439,#440),.UNSPECIFIED.,.F.,.F.,(7,5,7),(
    3.14159265359,3.926990816987,4.712388980385),.UNSPECIFIED.);
#429 = CARTESIAN_POINT('',(3.14159265359,-3.552713678801E-15));
#430 = CARTESIAN_POINT('',(3.286985306169,-1.132316144199E-14));
#431 = CARTESIAN_POINT('',(3.422921064571,9.853494769469E-15));
#432 = CARTESIAN_POINT('',(3.552780455889,-3.565546065656E-14));
#433 = CARTESIAN_POINT('',(3.678787559616,2.171570961196E-14));
#434 = CARTESIAN_POINT('',(3.802890434621,-1.286490389249E-14));
#435 = CARTESIAN_POINT('',(4.051091199354,-1.579386303049E-14));
#436 = CARTESIAN_POINT('',(4.17519407436,3.099990607124E-14));
#437 = CARTESIAN_POINT('',(4.301201178082,-4.1460835467E-14));
#438 = CARTESIAN_POINT('',(4.431060569406,1.605999604548E-14));
#439 = CARTESIAN_POINT('',(4.566996327806,-1.714628809352E-14));
#440 = CARTESIAN_POINT('',(4.712388980385,0.));
#441 = ( GEOMETRIC_REPRESENTATION_CONTEXT(2) 
PARAMETRIC_REPRESENTATION_CONTEXT() REPRESENTATION_CONTEXT('2D SPACE',''
  ) );
#442 = PCURVE('',#443,#448);
#443 = B_SPLINE_SURFACE_WITH_KNOTS('',1,1,(
    (#444,#445)
    ,(#446,#447
    )),.UNSPECIFIED.,.F.,.F.,.F.,(2,2),(2,2),(-4.136557885006,
    3.863442114994),(-3.863442114994,4.136557885007),
  .PIECEWISE_BEZIER_KNOTS.);
#444 = CARTESIAN_POINT('',(44.,0.,-2.));
#445 = CARTESIAN_POINT('',(52.000000000001,0.,-2.));
#446 = CARTESIAN_POINT('',(44.,0.,6.));
#447 = CARTESIAN_POINT('',(52.000000000001,0.,6.));
#448 = DEFINITIONAL_REPRESENTATION('',(#449),#459);
#449 = B_SPLINE_CURVE_WITH_KNOTS('',8,(#450,#451,#452,#453,#454,#455,
    #456,#457,#458),.UNSPECIFIED.,.F.,.F.,(9,9),(3.14159265359,
    4.712388980385),.PIECEWISE_BEZIER_KNOTS.);
#450 = CARTESIAN_POINT('',(-0.136557885006,-3.863442114994));
#451 = CARTESIAN_POINT('',(-0.136557885006,-3.078043951595));
#452 = CARTESIAN_POINT('',(3.968527083827E-02,-2.29264554098));
#453 = CARTESIAN_POINT('',(0.392169851508,-1.553389177647));
#454 = CARTESIAN_POINT('',(0.906407091874,-0.906407091881));
#455 = CARTESIAN_POINT('',(1.553389177654,-0.392169851503));
#456 = CARTESIAN_POINT('',(2.292645540977,-3.968527084111E-02));
#457 = CARTESIAN_POINT('',(3.078043951596,0.136557885007));
#458 = CARTESIAN_POINT('',(3.863442114994,0.136557885006));
#459 = ( GEOMETRIC_REPRESENTATION_CONTEXT(2) 
PARAMETRIC_REPRESENTATION_CONTEXT() REPRESENTATION_CONTEXT('2D SPACE',''
  ) );
#460 = ADVANCED_FACE('',(#461),#403,.F.);
#461 = FACE_BOUND('',#462,.F.);
#462 = EDGE_LOOP('',(#463,#464,#489,#514));
#463 = ORIENTED_EDGE('',*,*,#388,.T.);
#464 = ORIENTED_EDGE('',*,*,#465,.T.);
#465 = EDGE_CURVE('',#340,#466,#468,.T.);
#466 = VERTEX_POINT('',#467);
#467 = CARTESIAN_POINT('',(48.,50.,40.));
#468 = SURFACE_CURVE('',#469,(#472,#478),.PCURVE_S1.);
#469 = B_SPLINE_CURVE_WITH_KNOTS('',1,(#470,#471),.UNSPECIFIED.,.F.,.F.,
  (2,2),(0.,34.),.PIECEWISE_BEZIER_KNOTS.);
#470 = CARTESIAN_POINT('',(48.,50.,6.));
#471 = CARTESIAN_POINT('',(48.,50.,40.));
#472 = PCURVE('',#403,#473);
#473 = DEFINITIONAL_REPRESENTATION('',(#474),#477);
#474 = B_SPLINE_CURVE_WITH_KNOTS('',1,(#475,#476),.UNSPECIFIED.,.F.,.F.,
  (2,2),(0.,34.),.PIECEWISE_BEZIER_KNOTS.);
#475 = CARTESIAN_POINT('',(0.,-50.));
#476 = CARTESIAN_POINT('',(34.,-50.));
#477 = ( GEOMETRIC_REPRESENTATION_CONTEXT(2) 
PARAMETRIC_REPRESENTATION_CONTEXT() REPRESENTATION_CONTEXT('2D SPACE',''
  ) );
#478 = PCURVE('',#479,#484);
#479 = B_SPLINE_SURFACE_WITH_KNOTS('',1,1,(
    (#480,#481)
    ,(#482,#483
    )),.UNSPECIFIED.,.F.,.F.,.F.,(2,2),(2,2),(-17.,17.),(-2.,2.),
  .PIECEWISE_BEZIER_KNOTS.);
#480 = CARTESIAN_POINT('',(48.,50.,6.));
#481 = CARTESIAN_POINT('',(52.,50.,6.));
#482 = CARTESIAN_POINT('',(48.,50.,40.));
#483 = CARTESIAN_POINT('',(52.,50.,40.));
#484 = DEFINITIONAL_REPRESENTATION('',(#485),#488);
#485 = B_SPLINE_CURVE_WITH_KNOTS('',1,(#486,#487),.UNSPECIFIED.,.F.,.F.,
  (2,2),(0.,34.),.PIECEWISE_BEZIER_KNOTS.);
#486 = CARTESIAN_POINT('',(-17.,-2.));
#487 = CARTESIAN_POINT('',(17.,-2.));
#488 = ( GEOMETRIC_REPRESENTATION_CONTEXT(2) 
PARAMETRIC_REPRESENTATION_CONTEXT() REPRESENTATION_CONTEXT('2D SPACE',''
  ) );
#489 = ORIENTED_EDGE('',*,*,#490,.F.);
#490 = EDGE_CURVE('',#491,#466,#493,.T.);
#491 = VERTEX_POINT('',#492);
#492 = CARTESIAN_POINT('',(48.,0.,40.));
#493 = SURFACE_CURVE('',#494,(#497,#503),.PCURVE_S1.);
#494 = B_SPLINE_CURVE_WITH_KNOTS('',1,(#495,#496),.UNSPECIFIED.,.F.,.F.,
  (2,2),(0.,50.),.PIECEWISE_BEZIER_KNOTS.);
#495 = CARTESIAN_POINT('',(48.,0.,40.));
#496 = CARTESIAN_POINT('',(48.,50.,40.));
#497 = PCURVE('',#403,#498);
#498 = DEFINITIONAL_REPRESENTATION('',(#499),#502);
#499 = B_SPLINE_CURVE_WITH_KNOTS('',1,(#500,#501),.UNSPECIFIED.,.F.,.F.,
  (2,2),(0.,50.),.PIECEWISE_BEZIER_KNOTS.);
#500 = CARTESIAN_POINT('',(34.,0.));
#501 = CARTESIAN_POINT('',(34.,-50.));
#502 = ( GEOMETRIC_REPRESENTATION_CONTEXT(2) 
PARAMETRIC_REPRESENTATION_CONTEXT() REPRESENTATION_CONTEXT('2D SPACE',''
  ) );
#503 = PCURVE('',#504,#509);
#504 = B_SPLINE_SURFACE_WITH_KNOTS('',1,1,(
    (#505,#506)
    ,(#507,#508
    )),.UNSPECIFIED.,.F.,.F.,.F.,(2,2),(2,2),(-2.,2.),(-25.,25.),
  .PIECEWISE_BEZIER_KNOTS.);
#505 = CARTESIAN_POINT('',(48.,0.,40.));
#506 = CARTESIAN_POINT('',(48.,50.,40.));
#507 = CARTESIAN_POINT('',(52.,0.,40.));
#508 = CARTESIAN_POINT('',(52.,50.,40.));
#509 = DEFINITIONAL_REPRESENTATION('',(#510),#513);
#510 = B_SPLINE_CURVE_WITH_KNOTS('',1,(#511,#512),.UNSPECIFIED.,.F.,.F.,
  (2,2),(0.,50.),.PIECEWISE_BEZIER_KNOTS.);
#511 = CARTESIAN_POINT('',(-2.,-25.));
#512 = CARTESIAN_POINT('',(-2.,25.));
#513 = ( GEOMETRIC_REPRESENTATION_CONTEXT(2) 
PARAMETRIC_REPRESENTATION_CONTEXT() REPRESENTATION_CONTEXT('2D SPACE',''
  ) );
#514 = ORIENTED_EDGE('',*,*,#515,.F.);
#515 = EDGE_CURVE('',#389,#491,#516,.T.);
#516 = SURFACE_CURVE('',#517,(#520,#526),.PCURVE_S1.);
#517 = B_SPLINE_CURVE_WITH_KNOTS('',1,(#518,#519),.UNSPECIFIED.,.F.,.F.,
  (2,2),(0.,34.),.PIECEWISE_BEZIER_KNOTS.);
#518 = CARTESIAN_POINT('',(48.,0.,6.));
#519 = CARTESIAN_POINT('',(48.,0.,40.));
#520 = PCURVE('',#403,#521);
#521 = DEFINITIONAL_REPRESENTATION('',(#522),#525);
#522 = B_SPLINE_CURVE_WITH_KNOTS('',1,(#523,#524),.UNSPECIFIED.,.F.,.F.,
  (2,2),(0.,34.),.PIECEWISE_BEZIER_KNOTS.);
#523 = CARTESIAN_POINT('',(0.,0.));
#524 = CARTESIAN_POINT('',(34.,0.));
#525 = ( GEOMETRIC_REPRESENTATION_CONTEXT(2) 
PARAMETRIC_REPRESENTATION_CONTEXT() REPRESENTATION_CONTEXT('2D SPACE',''
  ) );
#526 = PCURVE('',#527,#532);
#527 = B_SPLINE_SURFACE_WITH_KNOTS('',1,1,(
    (#528,#529)
    ,(#530,#531
    )),.UNSPECIFIED.,.F.,.F.,.F.,(2,2),(2,2),(-17.,17.),(-2.,2.),
  .PIECEWISE_BEZIER_KNOTS.);
#528 = CARTESIAN_POINT('',(48.,0.,6.));
#529 = CARTESIAN_POINT('',(52.,0.,6.));
#530 = CARTESIAN_POINT('',(48.,0.,40.));
#531 = CARTESIAN_POINT('',(52.,0.,40.));
#532 = DEFINITIONAL_REPRESENTATION('',(#533),#536);
#533 = B_SPLINE_CURVE_WITH_KNOTS('',1,(#534,#535),.UNSPECIFIED.,.F.,.F.,
  (2,2),(0.,34.),.PIECEWISE_BEZIER_KNOTS.);
#534 = CARTESIAN_POINT('',(-17.,-2.));
#535 = CARTESIAN_POINT('',(17.,-2.));
#536 = ( GEOMETRIC_REPRESENTATION_CONTEXT(2) 
PARAMETRIC_REPRESENTATION_CONTEXT() REPRESENTATION_CONTEXT('2D SPACE',''
  ) );
#537 = ADVANCED_FACE('',(#538),#42,.T.);
#538 = FACE_BOUND('',#539,.T.);
#539 = EDGE_LOOP('',(#540,#541,#561,#586));
#540 = ORIENTED_EDGE('',*,*,#21,.T.);
#541 = ORIENTED_EDGE('',*,*,#542,.T.);
#542 = EDGE_CURVE('',#24,#543,#545,.T.);
#543 = VERTEX_POINT('',#544);
#544 = CARTESIAN_POINT('',(-2.,50.,40.));
#545 = SURFACE_CURVE('',#546,(#549,#555),.PCURVE_S1.);
#546 = B_SPLINE_CURVE_WITH_KNOTS('',1,(#547,#548),.UNSPECIFIED.,.F.,.F.,
  (2,2),(0.,4.),.PIECEWISE_BEZIER_KNOTS.);
#547 = CARTESIAN_POINT('',(2.,50.,40.));
#548 = CARTESIAN_POINT('',(-2.,50.,40.));
#549 = PCURVE('',#42,#550);
#550 = DEFINITIONAL_REPRESENTATION('',(#551),#554);
#551 = B_SPLINE_CURVE_WITH_KNOTS('',1,(#552,#553),.UNSPECIFIED.,.F.,.F.,
  (2,2),(0.,4.),.PIECEWISE_BEZIER_KNOTS.);
#552 = CARTESIAN_POINT('',(2.,25.));
#553 = CARTESIAN_POINT('',(-2.,25.));
#554 = ( GEOMETRIC_REPRESENTATION_CONTEXT(2) 
PARAMETRIC_REPRESENTATION_CONTEXT() REPRESENTATION_CONTEXT('2D SPACE',''
  ) );
#555 = PCURVE('',#67,#556);
#556 = DEFINITIONAL_REPRESENTATION('',(#557),#560);
#557 = B_SPLINE_CURVE_WITH_KNOTS('',1,(#558,#559),.UNSPECIFIED.,.F.,.F.,
  (2,2),(0.,4.),.PIECEWISE_BEZIER_KNOTS.);
#558 = CARTESIAN_POINT('',(17.,2.));
#559 = CARTESIAN_POINT('',(17.,-2.));
#560 = ( GEOMETRIC_REPRESENTATION_CONTEXT(2) 
PARAMETRIC_REPRESENTATION_CONTEXT() REPRESENTATION_CONTEXT('2D SPACE',''
  ) );
#561 = ORIENTED_EDGE('',*,*,#562,.F.);
#562 = EDGE_CURVE('',#563,#543,#565,.T.);
#563 = VERTEX_POINT('',#564);
#564 = CARTESIAN_POINT('',(-2.,0.,40.));
#565 = SURFACE_CURVE('',#566,(#569,#575),.PCURVE_S1.);
#566 = B_SPLINE_CURVE_WITH_KNOTS('',1,(#567,#568),.UNSPECIFIED.,.F.,.F.,
  (2,2),(0.,50.),.PIECEWISE_BEZIER_KNOTS.);
#567 = CARTESIAN_POINT('',(-2.,0.,40.));
#568 = CARTESIAN_POINT('',(-2.,50.,40.));
#569 = PCURVE('',#42,#570);
#570 = DEFINITIONAL_REPRESENTATION('',(#571),#574);
#571 = B_SPLINE_CURVE_WITH_KNOTS('',1,(#572,#573),.UNSPECIFIED.,.F.,.F.,
  (2,2),(0.,50.),.PIECEWISE_BEZIER_KNOTS.);
#572 = CARTESIAN_POINT('',(-2.,-25.));
#573 = CARTESIAN_POINT('',(-2.,25.));
#574 = ( GEOMETRIC_REPRESENTATION_CONTEXT(2) 
PARAMETRIC_REPRESENTATION_CONTEXT() REPRESENTATION_CONTEXT('2D SPACE',''
  ) );
#575 = PCURVE('',#576,#581);
#576 = B_SPLINE_SURFACE_WITH_KNOTS('',1,1,(
    (#577,#578)
    ,(#579,#580
    )),.UNSPECIFIED.,.F.,.F.,.F.,(2,2),(2,2),(0.,34.),(-50.,0.),
  .PIECEWISE_BEZIER_KNOTS.);
#577 = CARTESIAN_POINT('',(-2.,50.,40.));
#578 = CARTESIAN_POINT('',(-2.,0.,40.));
#579 = CARTESIAN_POINT('',(-2.,50.,6.));
#580 = CARTESIAN_POINT('',(-2.,0.,6.));
#581 = DEFINITIONAL_REPRESENTATION('',(#582),#585);
#582 = B_SPLINE_CURVE_WITH_KNOTS('',1,(#583,#584),.UNSPECIFIED.,.F.,.F.,
  (2,2),(0.,50.),.PIECEWISE_BEZIER_KNOTS.);
#583 = CARTESIAN_POINT('',(0.,0.));
#584 = CARTESIAN_POINT('',(0.,-50.));
#585 = ( GEOMETRIC_REPRESENTATION_CONTEXT(2) 
PARAMETRIC_REPRESENTATION_CONTEXT() REPRESENTATION_CONTEXT('2D SPACE',''
  ) );
#586 = ORIENTED_EDGE('',*,*,#587,.F.);
#587 = EDGE_CURVE('',#22,#563,#588,.T.);
#588 = SURFACE_CURVE('',#589,(#592,#598),.PCURVE_S1.);
#589 = B_SPLINE_CURVE_WITH_KNOTS('',1,(#590,#591),.UNSPECIFIED.,.F.,.F.,
  (2,2),(0.,4.),.PIECEWISE_BEZIER_KNOTS.);
#590 = CARTESIAN_POINT('',(2.,0.,40.));
#591 = CARTESIAN_POINT('',(-2.,0.,40.));
#592 = PCURVE('',#42,#593);
#593 = DEFINITIONAL_REPRESENTATION('',(#594),#597);
#594 = B_SPLINE_CURVE_WITH_KNOTS('',1,(#595,#596),.UNSPECIFIED.,.F.,.F.,
  (2,2),(0.,4.),.PIECEWISE_BEZIER_KNOTS.);
#595 = CARTESIAN_POINT('',(2.,-25.));
#596 = CARTESIAN_POINT('',(-2.,-25.));
#597 = ( GEOMETRIC_REPRESENTATION_CONTEXT(2) 
PARAMETRIC_REPRESENTATION_CONTEXT() REPRESENTATION_CONTEXT('2D SPACE',''
  ) );
#598 = PCURVE('',#118,#599);
#599 = DEFINITIONAL_REPRESENTATION('',(#600),#603);
#600 = B_SPLINE_CURVE_WITH_KNOTS('',1,(#601,#602),.UNSPECIFIED.,.F.,.F.,
  (2,2),(0.,4.),.PIECEWISE_BEZIER_KNOTS.);
#601 = CARTESIAN_POINT('',(17.,2.));
#602 = CARTESIAN_POINT('',(17.,-2.));
#603 = ( GEOMETRIC_REPRESENTATION_CONTEXT(2) 
PARAMETRIC_REPRESENTATION_CONTEXT() REPRESENTATION_CONTEXT('2D SPACE',''
  ) );
#604 = ADVANCED_FACE('',(#605),#576,.T.);
#605 = FACE_BOUND('',#606,.T.);
#606 = EDGE_LOOP('',(#607,#608,#628,#656));
#607 = ORIENTED_EDGE('',*,*,#562,.T.);
#608 = ORIENTED_EDGE('',*,*,#609,.T.);
#609 = EDGE_CURVE('',#543,#610,#612,.T.);
#610 = VERTEX_POINT('',#611);
#611 = CARTESIAN_POINT('',(-2.,50.,6.));
#612 = SURFACE_CURVE('',#613,(#616,#622),.PCURVE_S1.);
#613 = B_SPLINE_CURVE_WITH_KNOTS('',1,(#614,#615),.UNSPECIFIED.,.F.,.F.,
  (2,2),(0.,34.),.PIECEWISE_BEZIER_KNOTS.);
#614 = CARTESIAN_POINT('',(-2.,50.,40.));
#615 = CARTESIAN_POINT('',(-2.,50.,6.));
#616 = PCURVE('',#576,#617);
#617 = DEFINITIONAL_REPRESENTATION('',(#618),#621);
#618 = B_SPLINE_CURVE_WITH_KNOTS('',1,(#619,#620),.UNSPECIFIED.,.F.,.F.,
  (2,2),(0.,34.),.PIECEWISE_BEZIER_KNOTS.);
#619 = CARTESIAN_POINT('',(0.,-50.));
#620 = CARTESIAN_POINT('',(34.,-50.));
#621 = ( GEOMETRIC_REPRESENTATION_CONTEXT(2) 
PARAMETRIC_REPRESENTATION_CONTEXT() REPRESENTATION_CONTEXT('2D SPACE',''
  ) );
#622 = PCURVE('',#67,#623);
#623 = DEFINITIONAL_REPRESENTATION('',(#624),#627);
#624 = B_SPLINE_CURVE_WITH_KNOTS('',1,(#625,#626),.UNSPECIFIED.,.F.,.F.,
  (2,2),(0.,34.),.PIECEWISE_BEZIER_KNOTS.);
#625 = CARTESIAN_POINT('',(17.,-2.));
#626 = CARTESIAN_POINT('',(-17.,-2.));
#627 = ( GEOMETRIC_REPRESENTATION_CONTEXT(2) 
PARAMETRIC_REPRESENTATION_CONTEXT() REPRESENTATION_CONTEXT('2D SPACE',''
  ) );
#628 = ORIENTED_EDGE('',*,*,#629,.F.);
#629 = EDGE_CURVE('',#630,#610,#632,.T.);
#630 = VERTEX_POINT('',#631);
#631 = CARTESIAN_POINT('',(-2.,0.,6.));
#632 = SURFACE_CURVE('',#633,(#636,#642),.PCURVE_S1.);
#633 = B_SPLINE_CURVE_WITH_KNOTS('',1,(#634,#635),.UNSPECIFIED.,.F.,.F.,
  (2,2),(0.,50.),.PIECEWISE_BEZIER_KNOTS.);
#634 = CARTESIAN_POINT('',(-2.,0.,6.));
#635 = CARTESIAN_POINT('',(-2.,50.,6.));
#636 = PCURVE('',#576,#637);
#637 = DEFINITIONAL_REPRESENTATION('',(#638),#641);
#638 = B_SPLINE_CURVE_WITH_KNOTS('',1,(#639,#640),.UNSPECIFIED.,.F.,.F.,
  (2,2),(0.,50.),.PIECEWISE_BEZIER_KNOTS.);
#639 = CARTESIAN_POINT('',(34.,0.));
#640 = CARTESIAN_POINT('',(34.,-50.));
#641 = ( GEOMETRIC_REPRESENTATION_CONTEXT(2) 
PARAMETRIC_REPRESENTATION_CONTEXT() REPRESENTATION_CONTEXT('2D SPACE',''
  ) );
#642 = PCURVE('',#643,#650);
#643 = ( BOUNDED_SURFACE() B_SPLINE_SURFACE(2,1,(
    (#644,#645)
    ,(#646,#647)
,(#648,#649
    )),.UNSPECIFIED.,.F.,.F.,.F.) B_SPLINE_SURFACE_WITH_KNOTS((3,3),(2,2
    ),(1.570796326795,3.14159265359),(-50.,0.),
.PIECEWISE_BEZIER_KNOTS.) GEOMETRIC_REPRESENTATION_ITEM() 
RATIONAL_B_SPLINE_SURFACE((
    (1.,1.)
    ,(0.707106781187,0.707106781187)
,(1.,1.))) REPRESENTATION_ITEM('') SURFACE() );
#644 = CARTESIAN_POINT('',(-2.,50.,6.));
#645 = CARTESIAN_POINT('',(-2.,0.,6.));
#646 = CARTESIAN_POINT('',(-2.,50.,-2.));
#647 = CARTESIAN_POINT('',(-2.,0.,-2.));
#648 = CARTESIAN_POINT('',(6.,50.,-2.));
#649 = CARTESIAN_POINT('',(6.,0.,-2.));
#650 = DEFINITIONAL_REPRESENTATION('',(#651),#655);
#651 = B_SPLINE_CURVE_WITH_KNOTS('',2,(#652,#653,#654),.UNSPECIFIED.,.F.
  ,.F.,(3,3),(0.,50.),.PIECEWISE_BEZIER_KNOTS.);
#652 = CARTESIAN_POINT('',(1.570796326795,0.));
#653 = CARTESIAN_POINT('',(1.570796326795,-25.));
#654 = CARTESIAN_POINT('',(1.570796326795,-50.));
#655 = ( GEOMETRIC_REPRESENTATION_CONTEXT(2) 
PARAMETRIC_REPRESENTATION_CONTEXT() REPRESENTATION_CONTEXT('2D SPACE',''
  ) );
#656 = ORIENTED_EDGE('',*,*,#657,.F.);
#657 = EDGE_CURVE('',#563,#630,#658,.T.);
#658 = SURFACE_CURVE('',#659,(#662,#668),.PCURVE_S1.);
#659 = B_SPLINE_CURVE_WITH_KNOTS('',1,(#660,#661),.UNSPECIFIED.,.F.,.F.,
  (2,2),(0.,34.),.PIECEWISE_BEZIER_KNOTS.);
#660 = CARTESIAN_POINT('',(-2.,0.,40.));
#661 = CARTESIAN_POINT('',(-2.,0.,6.));
#662 = PCURVE('',#576,#663);
#663 = DEFINITIONAL_REPRESENTATION('',(#664),#667);
#664 = B_SPLINE_CURVE_WITH_KNOTS('',1,(#665,#666),.UNSPECIFIED.,.F.,.F.,
  (2,2),(0.,34.),.PIECEWISE_BEZIER_KNOTS.);
#665 = CARTESIAN_POINT('',(0.,0.));
#666 = CARTESIAN_POINT('',(34.,0.));
#667 = ( GEOMETRIC_REPRESENTATION_CONTEXT(2) 
PARAMETRIC_REPRESENTATION_CONTEXT() REPRESENTATION_CONTEXT('2D SPACE',''
  ) );
#668 = PCURVE('',#118,#669);
#669 = DEFINITIONAL_REPRESENTATION('',(#670),#673);
#670 = B_SPLINE_CURVE_WITH_KNOTS('',1,(#671,#672),.UNSPECIFIED.,.F.,.F.,
  (2,2),(0.,34.),.PIECEWISE_BEZIER_KNOTS.);
#671 = CARTESIAN_POINT('',(17.,-2.));
#672 = CARTESIAN_POINT('',(-17.,-2.));
#673 = ( GEOMETRIC_REPRESENTATION_CONTEXT(2) 
PARAMETRIC_REPRESENTATION_CONTEXT() REPRESENTATION_CONTEXT('2D SPACE',''
  ) );
#674 = ADVANCED_FACE('',(#675),#643,.T.);
#675 = FACE_BOUND('',#676,.T.);
#676 = EDGE_LOOP('',(#677,#678,#722,#748));
#677 = ORIENTED_EDGE('',*,*,#629,.T.);
#678 = ORIENTED_EDGE('',*,*,#679,.T.);
#679 = EDGE_CURVE('',#610,#680,#682,.T.);
#680 = VERTEX_POINT('',#681);
#681 = CARTESIAN_POINT('',(6.,50.,-2.));
#682 = SURFACE_CURVE('',#683,(#693,#709),.PCURVE_S1.);
#683 = B_SPLINE_CURVE_WITH_KNOTS('',8,(#684,#685,#686,#687,#688,#689,
    #690,#691,#692),.UNSPECIFIED.,.F.,.F.,(9,9),(1.570796326795,
    3.14159265359),.PIECEWISE_BEZIER_KNOTS.);
#684 = CARTESIAN_POINT('',(-2.,50.,6.));
#685 = CARTESIAN_POINT('',(-2.,50.,4.429203673205));
#686 = CARTESIAN_POINT('',(-1.64751368831,49.999999999999,2.858406851966
    ));
#687 = CARTESIAN_POINT('',(-0.942544526971,50.000000000001,
    1.379894125319));
#688 = CARTESIAN_POINT('',(8.592995376085E-02,49.999999999998,
    8.592995376095E-02));
#689 = CARTESIAN_POINT('',(1.379894125319,50.000000000002,
    -0.942544526971));
#690 = CARTESIAN_POINT('',(2.858406851966,49.999999999999,-1.64751368831
    ));
#691 = CARTESIAN_POINT('',(4.429203673205,50.,-2.));
#692 = CARTESIAN_POINT('',(6.,50.,-2.));
#693 = PCURVE('',#643,#694);
#694 = DEFINITIONAL_REPRESENTATION('',(#695),#708);
#695 = B_SPLINE_CURVE_WITH_KNOTS('',6,(#696,#697,#698,#699,#700,#701,
    #702,#703,#704,#705,#706,#707),.UNSPECIFIED.,.F.,.F.,(7,5,7),(
    1.570796326795,2.356194490192,3.14159265359),.UNSPECIFIED.);
#696 = CARTESIAN_POINT('',(1.570796326795,-50.));
#697 = CARTESIAN_POINT('',(1.716188979373,-49.99999999999));
#698 = CARTESIAN_POINT('',(1.852124737779,-50.00000000004));
#699 = CARTESIAN_POINT('',(1.981984129093,-49.99999999995));
#700 = CARTESIAN_POINT('',(2.107991232824,-50.00000000002));
#701 = CARTESIAN_POINT('',(2.232094107826,-49.99999999999));
#702 = CARTESIAN_POINT('',(2.480294872558,-49.99999999999));
#703 = CARTESIAN_POINT('',(2.604397747568,-50.00000000004));
#704 = CARTESIAN_POINT('',(2.730404851285,-49.99999999995));
#705 = CARTESIAN_POINT('',(2.860264242613,-50.00000000003));
#706 = CARTESIAN_POINT('',(2.996200001011,-50.));
#707 = CARTESIAN_POINT('',(3.14159265359,-50.));
#708 = ( GEOMETRIC_REPRESENTATION_CONTEXT(2) 
PARAMETRIC_REPRESENTATION_CONTEXT() REPRESENTATION_CONTEXT('2D SPACE',''
  ) );
#709 = PCURVE('',#164,#710);
#710 = DEFINITIONAL_REPRESENTATION('',(#711),#721);
#711 = B_SPLINE_CURVE_WITH_KNOTS('',8,(#712,#713,#714,#715,#716,#717,
    #718,#719,#720),.UNSPECIFIED.,.F.,.F.,(9,9),(1.570796326795,
    3.14159265359),.PIECEWISE_BEZIER_KNOTS.);
#712 = CARTESIAN_POINT('',(3.863442114994,-4.136557885006));
#713 = CARTESIAN_POINT('',(2.292645788199,-4.136557885006));
#714 = CARTESIAN_POINT('',(0.72184896696,-3.784071573317));
#715 = CARTESIAN_POINT('',(-0.756663759687,-3.079102411978));
#716 = CARTESIAN_POINT('',(-2.050627931245,-2.050627931246));
#717 = CARTESIAN_POINT('',(-3.079102411978,-0.756663759687));
#718 = CARTESIAN_POINT('',(-3.784071573317,0.72184896696));
#719 = CARTESIAN_POINT('',(-4.136557885006,2.292645788199));
#720 = CARTESIAN_POINT('',(-4.136557885006,3.863442114994));
#721 = ( GEOMETRIC_REPRESENTATION_CONTEXT(2) 
PARAMETRIC_REPRESENTATION_CONTEXT() REPRESENTATION_CONTEXT('2D SPACE',''
  ) );
#722 = ORIENTED_EDGE('',*,*,#723,.F.);
#723 = EDGE_CURVE('',#724,#680,#726,.T.);
#724 = VERTEX_POINT('',#725);
#725 = CARTESIAN_POINT('',(6.,0.,-2.));
#726 = SURFACE_CURVE('',#727,(#730,#737),.PCURVE_S1.);
#727 = B_SPLINE_CURVE_WITH_KNOTS('',1,(#728,#729),.UNSPECIFIED.,.F.,.F.,
  (2,2),(0.,50.),.PIECEWISE_BEZIER_KNOTS.);
#728 = CARTESIAN_POINT('',(6.,0.,-2.));
#729 = CARTESIAN_POINT('',(6.,50.,-2.));
#730 = PCURVE('',#643,#731);
#731 = DEFINITIONAL_REPRESENTATION('',(#732),#736);
#732 = B_SPLINE_CURVE_WITH_KNOTS('',2,(#733,#734,#735),.UNSPECIFIED.,.F.
  ,.F.,(3,3),(0.,50.),.PIECEWISE_BEZIER_KNOTS.);
#733 = CARTESIAN_POINT('',(3.14159265359,0.));
#734 = CARTESIAN_POINT('',(3.14159265359,-25.));
#735 = CARTESIAN_POINT('',(3.14159265359,-50.));
#736 = ( GEOMETRIC_REPRESENTATION_CONTEXT(2) 
PARAMETRIC_REPRESENTATION_CONTEXT() REPRESENTATION_CONTEXT('2D SPACE',''
  ) );
#737 = PCURVE('',#738,#743);
#738 = B_SPLINE_SURFACE_WITH_KNOTS('',1,1,(
    (#739,#740)
    ,(#741,#742
    )),.UNSPECIFIED.,.F.,.F.,.F.,(2,2),(2,2),(0.,38.),(-50.,0.),
  .PIECEWISE_BEZIER_KNOTS.);
#739 = CARTESIAN_POINT('',(6.,50.,-2.));
#740 = CARTESIAN_POINT('',(6.,0.,-2.));
#741 = CARTESIAN_POINT('',(44.,50.,-2.));
#742 = CARTESIAN_POINT('',(44.,0.,-2.));
#743 = DEFINITIONAL_REPRESENTATION('',(#744),#747);
#744 = B_SPLINE_CURVE_WITH_KNOTS('',1,(#745,#746),.UNSPECIFIED.,.F.,.F.,
  (2,2),(0.,50.),.PIECEWISE_BEZIER_KNOTS.);
#745 = CARTESIAN_POINT('',(0.,0.));
#746 = CARTESIAN_POINT('',(0.,-50.));
#747 = ( GEOMETRIC_REPRESENTATION_CONTEXT(2) 
PARAMETRIC_REPRESENTATION_CONTEXT() REPRESENTATION_CONTEXT('2D SPACE',''
  ) );
#748 = ORIENTED_EDGE('',*,*,#749,.F.);
#749 = EDGE_CURVE('',#630,#724,#750,.T.);
#750 = SURFACE_CURVE('',#751,(#761,#777),.PCURVE_S1.);
#751 = B_SPLINE_CURVE_WITH_KNOTS('',8,(#752,#753,#754,#755,#756,#757,
    #758,#759,#760),.UNSPECIFIED.,.F.,.F.,(9,9),(1.570796326795,
    3.14159265359),.PIECEWISE_BEZIER_KNOTS.);
#752 = CARTESIAN_POINT('',(-2.,0.,6.));
#753 = CARTESIAN_POINT('',(-2.,0.,4.429203673205));
#754 = CARTESIAN_POINT('',(-1.64751368831,0.,2.858406851966));
#755 = CARTESIAN_POINT('',(-0.942544526971,0.,1.379894125319));
#756 = CARTESIAN_POINT('',(8.592995376085E-02,0.,8.592995376095E-02));
#757 = CARTESIAN_POINT('',(1.379894125319,0.,-0.942544526971));
#758 = CARTESIAN_POINT('',(2.858406851966,0.,-1.64751368831));
#759 = CARTESIAN_POINT('',(4.429203673205,0.,-2.));
#760 = CARTESIAN_POINT('',(6.,0.,-2.));
#761 = PCURVE('',#643,#762);
#762 = DEFINITIONAL_REPRESENTATION('',(#763),#776);
#763 = B_SPLINE_CURVE_WITH_KNOTS('',6,(#764,#765,#766,#767,#768,#769,
    #770,#771,#772,#773,#774,#775),.UNSPECIFIED.,.F.,.F.,(7,5,7),(
    1.570796326795,2.356194490192,3.14159265359),.UNSPECIFIED.);
#764 = CARTESIAN_POINT('',(1.570796326795,-3.552713678801E-15));
#765 = CARTESIAN_POINT('',(1.716188979373,1.284311249135E-14));
#766 = CARTESIAN_POINT('',(1.852124737779,-3.27644514803E-14));
#767 = CARTESIAN_POINT('',(1.981984129093,3.077012215081E-14));
#768 = CARTESIAN_POINT('',(2.107991232824,-1.367918302959E-14));
#769 = CARTESIAN_POINT('',(2.232094107826,2.459696071819E-15));
#770 = CARTESIAN_POINT('',(2.480294872558,7.217846507417E-16));
#771 = CARTESIAN_POINT('',(2.604397747568,-2.888511640189E-15));
#772 = CARTESIAN_POINT('',(2.730404851285,4.84857248478E-15));
#773 = CARTESIAN_POINT('',(2.860264242613,-1.195333976485E-14));
#774 = CARTESIAN_POINT('',(2.996200001011,1.26386134321E-14));
#775 = CARTESIAN_POINT('',(3.14159265359,0.));
#776 = ( GEOMETRIC_REPRESENTATION_CONTEXT(2) 
PARAMETRIC_REPRESENTATION_CONTEXT() REPRESENTATION_CONTEXT('2D SPACE',''
  ) );
#777 = PCURVE('',#237,#778);
#778 = DEFINITIONAL_REPRESENTATION('',(#779),#789);
#779 = B_SPLINE_CURVE_WITH_KNOTS('',8,(#780,#781,#782,#783,#784,#785,
    #786,#787,#788),.UNSPECIFIED.,.F.,.F.,(9,9),(1.570796326795,
    3.14159265359),.PIECEWISE_BEZIER_KNOTS.);
#780 = CARTESIAN_POINT('',(3.863442114994,-4.136557885006));
#781 = CARTESIAN_POINT('',(2.292645788199,-4.136557885006));
#782 = CARTESIAN_POINT('',(0.72184896696,-3.784071573317));
#783 = CARTESIAN_POINT('',(-0.756663759687,-3.079102411978));
#784 = CARTESIAN_POINT('',(-2.050627931245,-2.050627931246));
#785 = CARTESIAN_POINT('',(-3.079102411978,-0.756663759687));
#786 = CARTESIAN_POINT('',(-3.784071573317,0.72184896696));
#787 = CARTESIAN_POINT('',(-4.136557885006,2.292645788199));
#788 = CARTESIAN_POINT('',(-4.136557885006,3.863442114994));
#789 = ( GEOMETRIC_REPRESENTATION_CONTEXT(2) 
PARAMETRIC_REPRESENTATION_CONTEXT() REPRESENTATION_CONTEXT('2D SPACE',''
  ) );
#790 = ADVANCED_FACE('',(#791),#738,.T.);
#791 = FACE_BOUND('',#792,.T.);
#792 = EDGE_LOOP('',(#793,#794,#814,#842));
#793 = ORIENTED_EDGE('',*,*,#723,.T.);
#794 = ORIENTED_EDGE('',*,*,#795,.T.);
#795 = EDGE_CURVE('',#680,#796,#798,.T.);
#796 = VERTEX_POINT('',#797);
#797 = CARTESIAN_POINT('',(44.,50.,-2.));
#798 = SURFACE_CURVE('',#799,(#802,#808),.PCURVE_S1.);
#799 = B_SPLINE_CURVE_WITH_KNOTS('',1,(#800,#801),.UNSPECIFIED.,.F.,.F.,
  (2,2),(0.,38.),.PIECEWISE_BEZIER_KNOTS.);
#800 = CARTESIAN_POINT('',(6.,50.,-2.));
#801 = CARTESIAN_POINT('',(44.,50.,-2.));
#802 = PCURVE('',#738,#803);
#803 = DEFINITIONAL_REPRESENTATION('',(#804),#807);
#804 = B_SPLINE_CURVE_WITH_KNOTS('',1,(#805,#806),.UNSPECIFIED.,.F.,.F.,
  (2,2),(0.,38.),.PIECEWISE_BEZIER_KNOTS.);
#805 = CARTESIAN_POINT('',(0.,-50.));
#806 = CARTESIAN_POINT('',(38.,-50.));
#807 = ( GEOMETRIC_REPRESENTATION_CONTEXT(2) 
PARAMETRIC_REPRESENTATION_CONTEXT() REPRESENTATION_CONTEXT('2D SPACE',''
  ) );
#808 = PCURVE('',#273,#809);
#809 = DEFINITIONAL_REPRESENTATION('',(#810),#813);
#810 = B_SPLINE_CURVE_WITH_KNOTS('',1,(#811,#812),.UNSPECIFIED.,.F.,.F.,
  (2,2),(0.,38.),.PIECEWISE_BEZIER_KNOTS.);
#811 = CARTESIAN_POINT('',(-2.,-19.));
#812 = CARTESIAN_POINT('',(-2.,19.));
#813 = ( GEOMETRIC_REPRESENTATION_CONTEXT(2) 
PARAMETRIC_REPRESENTATION_CONTEXT() REPRESENTATION_CONTEXT('2D SPACE',''
  ) );
#814 = ORIENTED_EDGE('',*,*,#815,.F.);
#815 = EDGE_CURVE('',#816,#796,#818,.T.);
#816 = VERTEX_POINT('',#817);
#817 = CARTESIAN_POINT('',(44.,0.,-2.));
#818 = SURFACE_CURVE('',#819,(#822,#828),.PCURVE_S1.);
#819 = B_SPLINE_CURVE_WITH_KNOTS('',1,(#820,#821),.UNSPECIFIED.,.F.,.F.,
  (2,2),(0.,50.),.PIECEWISE_BEZIER_KNOTS.);
#820 = CARTESIAN_POINT('',(44.,0.,-2.));
#821 = CARTESIAN_POINT('',(44.,50.,-2.));
#822 = PCURVE('',#738,#823);
#823 = DEFINITIONAL_REPRESENTATION('',(#824),#827);
#824 = B_SPLINE_CURVE_WITH_KNOTS('',1,(#825,#826),.UNSPECIFIED.,.F.,.F.,
  (2,2),(0.,50.),.PIECEWISE_BEZIER_KNOTS.);
#825 = CARTESIAN_POINT('',(38.,0.));
#826 = CARTESIAN_POINT('',(38.,-50.));
#827 = ( GEOMETRIC_REPRESENTATION_CONTEXT(2) 
PARAMETRIC_REPRESENTATION_CONTEXT() REPRESENTATION_CONTEXT('2D SPACE',''
  ) );
#828 = PCURVE('',#829,#836);
#829 = ( BOUNDED_SURFACE() B_SPLINE_SURFACE(2,1,(
    (#830,#831)
    ,(#832,#833)
,(#834,#835
    )),.UNSPECIFIED.,.F.,.F.,.F.) B_SPLINE_SURFACE_WITH_KNOTS((3,3),(2,2
    ),(3.14159265359,4.712388980385),(-50.,0.),
.PIECEWISE_BEZIER_KNOTS.) GEOMETRIC_REPRESENTATION_ITEM() 
RATIONAL_B_SPLINE_SURFACE((
    (1.,1.)
    ,(0.707106781187,0.707106781187)
,(1.,1.))) REPRESENTATION_ITEM('') SURFACE() );
#830 = CARTESIAN_POINT('',(44.,50.,-2.));
#831 = CARTESIAN_POINT('',(44.,0.,-2.));
#832 = CARTESIAN_POINT('',(52.,50.,-2.));
#833 = CARTESIAN_POINT('',(52.,0.,-2.));
#834 = CARTESIAN_POINT('',(52.,50.,6.));
#835 = CARTESIAN_POINT('',(52.,0.,6.));
#836 = DEFINITIONAL_REPRESENTATION('',(#837),#841);
#837 = B_SPLINE_CURVE_WITH_KNOTS('',2,(#838,#839,#840),.UNSPECIFIED.,.F.
  ,.F.,(3,3),(0.,50.),.PIECEWISE_BEZIER_KNOTS.);
#838 = CARTESIAN_POINT('',(3.14159265359,-3.552713678801E-15));
#839 = CARTESIAN_POINT('',(3.14159265359,-25.));
#840 = CARTESIAN_POINT('',(3.14159265359,-50.));
#841 = ( GEOMETRIC_REPRESENTATION_CONTEXT(2) 
PARAMETRIC_REPRESENTATION_CONTEXT() REPRESENTATION_CONTEXT('2D SPACE',''
  ) );
#842 = ORIENTED_EDGE('',*,*,#843,.F.);
#843 = EDGE_CURVE('',#724,#816,#844,.T.);
#844 = SURFACE_CURVE('',#845,(#848,#854),.PCURVE_S1.);
#845 = B_SPLINE_CURVE_WITH_KNOTS('',1,(#846,#847),.UNSPECIFIED.,.F.,.F.,
  (2,2),(0.,38.),.PIECEWISE_BEZIER_KNOTS.);
#846 = CARTESIAN_POINT('',(6.,0.,-2.));
#847 = CARTESIAN_POINT('',(44.,0.,-2.));
#848 = PCURVE('',#738,#849);
#849 = DEFINITIONAL_REPRESENTATION('',(#850),#853);
#850 = B_SPLINE_CURVE_WITH_KNOTS('',1,(#851,#852),.UNSPECIFIED.,.F.,.F.,
  (2,2),(0.,38.),.PIECEWISE_BEZIER_KNOTS.);
#851 = CARTESIAN_POINT('',(0.,0.));
#852 = CARTESIAN_POINT('',(38.,0.));
#853 = ( GEOMETRIC_REPRESENTATION_CONTEXT(2) 
PARAMETRIC_REPRESENTATION_CONTEXT() REPRESENTATION_CONTEXT('2D SPACE',''
  ) );
#854 = PCURVE('',#324,#855);
#855 = DEFINITIONAL_REPRESENTATION('',(#856),#859);
#856 = B_SPLINE_CURVE_WITH_KNOTS('',1,(#857,#858),.UNSPECIFIED.,.F.,.F.,
  (2,2),(0.,38.),.PIECEWISE_BEZIER_KNOTS.);
#857 = CARTESIAN_POINT('',(-2.,-19.));
#858 = CARTESIAN_POINT('',(-2.,19.));
#859 = ( GEOMETRIC_REPRESENTATION_CONTEXT(2) 
PARAMETRIC_REPRESENTATION_CONTEXT() REPRESENTATION_CONTEXT('2D SPACE',''
  ) );
#860 = ADVANCED_FACE('',(#861),#829,.T.);
#861 = FACE_BOUND('',#862,.T.);
#862 = EDGE_LOOP('',(#863,#864,#908,#934));
#863 = ORIENTED_EDGE('',*,*,#815,.T.);
#864 = ORIENTED_EDGE('',*,*,#865,.T.);
#865 = EDGE_CURVE('',#796,#866,#868,.T.);
#866 = VERTEX_POINT('',#867);
#867 = CARTESIAN_POINT('',(52.,50.,6.));
#868 = SURFACE_CURVE('',#869,(#879,#895),.PCURVE_S1.);
#869 = B_SPLINE_CURVE_WITH_KNOTS('',8,(#870,#871,#872,#873,#874,#875,
    #876,#877,#878),.UNSPECIFIED.,.F.,.F.,(9,9),(3.14159265359,
    4.712388980385),.PIECEWISE_BEZIER_KNOTS.);
#870 = CARTESIAN_POINT('',(44.,50.,-2.));
#871 = CARTESIAN_POINT('',(45.570796326796,50.000000000001,-2.));
#872 = CARTESIAN_POINT('',(47.14159314803,49.999999999996,-1.64751368831
    ));
#873 = CARTESIAN_POINT('',(48.620105874687,50.000000000007,
    -0.942544526972));
#874 = CARTESIAN_POINT('',(49.914070046232,49.999999999992,
    8.59299537609E-02));
#875 = CARTESIAN_POINT('',(50.942544526976,50.000000000006,
    1.379894125319));
#876 = CARTESIAN_POINT('',(51.647513688308,49.999999999997,
    2.858406851966));
#877 = CARTESIAN_POINT('',(52.000000000001,50.000000000001,
    4.429203673205));
#878 = CARTESIAN_POINT('',(52.,50.,6.));
#879 = PCURVE('',#829,#880);
#880 = DEFINITIONAL_REPRESENTATION('',(#881),#894);
#881 = B_SPLINE_CURVE_WITH_KNOTS('',6,(#882,#883,#884,#885,#886,#887,
    #888,#889,#890,#891,#892,#893),.UNSPECIFIED.,.F.,.F.,(7,5,7),(
    3.14159265359,3.926990816987,4.712388980385),.UNSPECIFIED.);
#882 = CARTESIAN_POINT('',(3.14159265359,-50.));
#883 = CARTESIAN_POINT('',(3.28698530617,-49.99999999998));
#884 = CARTESIAN_POINT('',(3.422921064567,-50.00000000007));
#885 = CARTESIAN_POINT('',(3.552780455893,-49.99999999987));
#886 = CARTESIAN_POINT('',(3.678787559613,-50.00000000007));
#887 = CARTESIAN_POINT('',(3.802890434621,-49.99999999998));
#888 = CARTESIAN_POINT('',(4.051091199352,-49.99999999998));
#889 = CARTESIAN_POINT('',(4.175194074363,-50.00000000013));
#890 = CARTESIAN_POINT('',(4.301201178076,-49.99999999983));
#891 = CARTESIAN_POINT('',(4.431060569411,-50.00000000013));
#892 = CARTESIAN_POINT('',(4.566996327804,-49.99999999997));
#893 = CARTESIAN_POINT('',(4.712388980385,-50.));
#894 = ( GEOMETRIC_REPRESENTATION_CONTEXT(2) 
PARAMETRIC_REPRESENTATION_CONTEXT() REPRESENTATION_CONTEXT('2D SPACE',''
  ) );
#895 = PCURVE('',#370,#896);
#896 = DEFINITIONAL_REPRESENTATION('',(#897),#907);
#897 = B_SPLINE_CURVE_WITH_KNOTS('',8,(#898,#899,#900,#901,#902,#903,
    #904,#905,#906),.UNSPECIFIED.,.F.,.F.,(9,9),(3.14159265359,
    4.712388980385),.PIECEWISE_BEZIER_KNOTS.);
#898 = CARTESIAN_POINT('',(-4.136557885006,-3.863442114994));
#899 = CARTESIAN_POINT('',(-4.136557885006,-2.292645788198));
#900 = CARTESIAN_POINT('',(-3.784071573317,-0.721848966964));
#901 = CARTESIAN_POINT('',(-3.079102411978,0.756663759693));
#902 = CARTESIAN_POINT('',(-2.050627931245,2.050627931239));
#903 = CARTESIAN_POINT('',(-0.756663759687,3.079102411983));
#904 = CARTESIAN_POINT('',(0.72184896696,3.784071573314));
#905 = CARTESIAN_POINT('',(2.292645788199,4.136557885007));
#906 = CARTESIAN_POINT('',(3.863442114994,4.136557885006));
#907 = ( GEOMETRIC_REPRESENTATION_CONTEXT(2) 
PARAMETRIC_REPRESENTATION_CONTEXT() REPRESENTATION_CONTEXT('2D SPACE',''
  ) );
#908 = ORIENTED_EDGE('',*,*,#909,.F.);
#909 = EDGE_CURVE('',#910,#866,#912,.T.);
#910 = VERTEX_POINT('',#911);
#911 = CARTESIAN_POINT('',(52.,0.,6.));
#912 = SURFACE_CURVE('',#913,(#916,#923),.PCURVE_S1.);
#913 = B_SPLINE_CURVE_WITH_KNOTS('',1,(#914,#915),.UNSPECIFIED.,.F.,.F.,
  (2,2),(0.,50.),.PIECEWISE_BEZIER_KNOTS.);
#914 = CARTESIAN_POINT('',(52.,0.,6.));
#915 = CARTESIAN_POINT('',(52.,50.,6.));
#916 = PCURVE('',#829,#917);
#917 = DEFINITIONAL_REPRESENTATION('',(#918),#922);
#918 = B_SPLINE_CURVE_WITH_KNOTS('',2,(#919,#920,#921),.UNSPECIFIED.,.F.
  ,.F.,(3,3),(0.,50.),.PIECEWISE_BEZIER_KNOTS.);
#919 = CARTESIAN_POINT('',(4.712388980385,0.));
#920 = CARTESIAN_POINT('',(4.712388980385,-25.));
#921 = CARTESIAN_POINT('',(4.712388980385,-50.));
#922 = ( GEOMETRIC_REPRESENTATION_CONTEXT(2) 
PARAMETRIC_REPRESENTATION_CONTEXT() REPRESENTATION_CONTEXT('2D SPACE',''
  ) );
#923 = PCURVE('',#924,#929);
#924 = B_SPLINE_SURFACE_WITH_KNOTS('',1,1,(
    (#925,#926)
    ,(#927,#928
    )),.UNSPECIFIED.,.F.,.F.,.F.,(2,2),(2,2),(0.,34.),(-50.,0.),
  .PIECEWISE_BEZIER_KNOTS.);
#925 = CARTESIAN_POINT('',(52.,50.,6.));
#926 = CARTESIAN_POINT('',(52.,0.,6.));
#927 = CARTESIAN_POINT('',(52.,50.,40.));
#928 = CARTESIAN_POINT('',(52.,0.,40.));
#929 = DEFINITIONAL_REPRESENTATION('',(#930),#933);
#930 = B_SPLINE_CURVE_WITH_KNOTS('',1,(#931,#932),.UNSPECIFIED.,.F.,.F.,
  (2,2),(0.,50.),.PIECEWISE_BEZIER_KNOTS.);
#931 = CARTESIAN_POINT('',(-8.881784197001E-16,0.));
#932 = CARTESIAN_POINT('',(-8.881784197001E-16,-50.));
#933 = ( GEOMETRIC_REPRESENTATION_CONTEXT(2) 
PARAMETRIC_REPRESENTATION_CONTEXT() REPRESENTATION_CONTEXT('2D SPACE',''
  ) );
#934 = ORIENTED_EDGE('',*,*,#935,.F.);
#935 = EDGE_CURVE('',#816,#910,#936,.T.);
#936 = SURFACE_CURVE('',#937,(#947,#963),.PCURVE_S1.);
#937 = B_SPLINE_CURVE_WITH_KNOTS('',8,(#938,#939,#940,#941,#942,#943,
    #944,#945,#946),.UNSPECIFIED.,.F.,.F.,(9,9),(3.14159265359,
    4.712388980385),.PIECEWISE_BEZIER_KNOTS.);
#938 = CARTESIAN_POINT('',(44.,0.,-2.));
#939 = CARTESIAN_POINT('',(45.570796326796,0.,-2.));
#940 = CARTESIAN_POINT('',(47.14159314803,0.,-1.64751368831));
#941 = CARTESIAN_POINT('',(48.620105874687,0.,-0.942544526972));
#942 = CARTESIAN_POINT('',(49.914070046232,0.,8.59299537609E-02));
#943 = CARTESIAN_POINT('',(50.942544526976,0.,1.379894125319));
#944 = CARTESIAN_POINT('',(51.647513688308,0.,2.858406851966));
#945 = CARTESIAN_POINT('',(52.000000000001,0.,4.429203673205));
#946 = CARTESIAN_POINT('',(52.,0.,6.));
#947 = PCURVE('',#829,#948);
#948 = DEFINITIONAL_REPRESENTATION('',(#949),#962);
#949 = B_SPLINE_CURVE_WITH_KNOTS('',6,(#950,#951,#952,#953,#954,#955,
    #956,#957,#958,#959,#960,#961),.UNSPECIFIED.,.F.,.F.,(7,5,7),(
    3.14159265359,3.926990816987,4.712388980385),.UNSPECIFIED.);
#950 = CARTESIAN_POINT('',(3.14159265359,-3.552713678801E-15));
#951 = CARTESIAN_POINT('',(3.28698530617,-9.680524082597E-15));
#952 = CARTESIAN_POINT('',(3.422921064567,7.658850964465E-15));
#953 = CARTESIAN_POINT('',(3.552780455893,-3.435484968223E-14));
#954 = CARTESIAN_POINT('',(3.678787559613,2.137542749054E-14));
#955 = CARTESIAN_POINT('',(3.802890434621,-1.284188681342E-14));
#956 = CARTESIAN_POINT('',(4.051091199352,-1.59351349626E-14));
#957 = CARTESIAN_POINT('',(4.175194074363,3.589307083588E-14));
#958 = CARTESIAN_POINT('',(4.301201178076,-6.105272032706E-14));
#959 = CARTESIAN_POINT('',(4.431060569411,2.994980832879E-14));
#960 = CARTESIAN_POINT('',(4.566996327804,-1.681750554542E-14));
#961 = CARTESIAN_POINT('',(4.712388980385,0.));
#962 = ( GEOMETRIC_REPRESENTATION_CONTEXT(2) 
PARAMETRIC_REPRESENTATION_CONTEXT() REPRESENTATION_CONTEXT('2D SPACE',''
  ) );
#963 = PCURVE('',#443,#964);
#964 = DEFINITIONAL_REPRESENTATION('',(#965),#975);
#965 = B_SPLINE_CURVE_WITH_KNOTS('',8,(#966,#967,#968,#969,#970,#971,
    #972,#973,#974),.UNSPECIFIED.,.F.,.F.,(9,9),(3.14159265359,
    4.712388980385),.PIECEWISE_BEZIER_KNOTS.);
#966 = CARTESIAN_POINT('',(-4.136557885006,-3.863442114994));
#967 = CARTESIAN_POINT('',(-4.136557885006,-2.292645788198));
#968 = CARTESIAN_POINT('',(-3.784071573317,-0.721848966964));
#969 = CARTESIAN_POINT('',(-3.079102411978,0.756663759693));
#970 = CARTESIAN_POINT('',(-2.050627931245,2.050627931239));
#971 = CARTESIAN_POINT('',(-0.756663759687,3.079102411983));
#972 = CARTESIAN_POINT('',(0.72184896696,3.784071573314));
#973 = CARTESIAN_POINT('',(2.292645788199,4.136557885007));
#974 = CARTESIAN_POINT('',(3.863442114994,4.136557885006));
#975 = ( GEOMETRIC_REPRESENTATION_CONTEXT(2) 
PARAMETRIC_REPRESENTATION_CONTEXT() REPRESENTATION_CONTEXT('2D SPACE',''
  ) );
#976 = ADVANCED_FACE('',(#977),#924,.T.);
#977 = FACE_BOUND('',#978,.T.);
#978 = EDGE_LOOP('',(#979,#980,#1000,#1020));
#979 = ORIENTED_EDGE('',*,*,#909,.T.);
#980 = ORIENTED_EDGE('',*,*,#981,.T.);
#981 = EDGE_CURVE('',#866,#982,#984,.T.);
#982 = VERTEX_POINT('',#983);
#983 = CARTESIAN_POINT('',(52.,50.,40.));
#984 = SURFACE_CURVE('',#985,(#988,#994),.PCURVE_S1.);
#985 = B_SPLINE_CURVE_WITH_KNOTS('',1,(#986,#987),.UNSPECIFIED.,.F.,.F.,
  (2,2),(0.,34.),.PIECEWISE_BEZIER_KNOTS.);
#986 = CARTESIAN_POINT('',(52.,50.,6.));
#987 = CARTESIAN_POINT('',(52.,50.,40.));
#988 = PCURVE('',#924,#989);
#989 = DEFINITIONAL_REPRESENTATION('',(#990),#993);
#990 = B_SPLINE_CURVE_WITH_KNOTS('',1,(#991,#992),.UNSPECIFIED.,.F.,.F.,
  (2,2),(0.,34.),.PIECEWISE_BEZIER_KNOTS.);
#991 = CARTESIAN_POINT('',(0.,-50.));
#992 = CARTESIAN_POINT('',(34.,-50.));
#993 = ( GEOMETRIC_REPRESENTATION_CONTEXT(2) 
PARAMETRIC_REPRESENTATION_CONTEXT() REPRESENTATION_CONTEXT('2D SPACE',''
  ) );
#994 = PCURVE('',#479,#995);
#995 = DEFINITIONAL_REPRESENTATION('',(#996),#999);
#996 = B_SPLINE_CURVE_WITH_KNOTS('',1,(#997,#998),.UNSPECIFIED.,.F.,.F.,
  (2,2),(0.,34.),.PIECEWISE_BEZIER_KNOTS.);
#997 = CARTESIAN_POINT('',(-17.,2.));
#998 = CARTESIAN_POINT('',(17.,2.));
#999 = ( GEOMETRIC_REPRESENTATION_CONTEXT(2) 
PARAMETRIC_REPRESENTATION_CONTEXT() REPRESENTATION_CONTEXT('2D SPACE',''
  ) );
#1000 = ORIENTED_EDGE('',*,*,#1001,.F.);
#1001 = EDGE_CURVE('',#1002,#982,#1004,.T.);
#1002 = VERTEX_POINT('',#1003);
#1003 = CARTESIAN_POINT('',(52.,0.,40.));
#1004 = SURFACE_CURVE('',#1005,(#1008,#1014),.PCURVE_S1.);
#1005 = B_SPLINE_CURVE_WITH_KNOTS('',1,(#1006,#1007),.UNSPECIFIED.,.F.,
  .F.,(2,2),(0.,50.),.PIECEWISE_BEZIER_KNOTS.);
#1006 = CARTESIAN_POINT('',(52.,0.,40.));
#1007 = CARTESIAN_POINT('',(52.,50.,40.));
#1008 = PCURVE('',#924,#1009);
#1009 = DEFINITIONAL_REPRESENTATION('',(#1010),#1013);
#1010 = B_SPLINE_CURVE_WITH_KNOTS('',1,(#1011,#1012),.UNSPECIFIED.,.F.,
  .F.,(2,2),(0.,50.),.PIECEWISE_BEZIER_KNOTS.);
#1011 = CARTESIAN_POINT('',(34.,0.));
#1012 = CARTESIAN_POINT('',(34.,-50.));
#1013 = ( GEOMETRIC_REPRESENTATION_CONTEXT(2) 
PARAMETRIC_REPRESENTATION_CONTEXT() REPRESENTATION_CONTEXT('2D SPACE',''
  ) );
#1014 = PCURVE('',#504,#1015);
#1015 = DEFINITIONAL_REPRESENTATION('',(#1016),#1019);
#1016 = B_SPLINE_CURVE_WITH_KNOTS('',1,(#1017,#1018),.UNSPECIFIED.,.F.,
  .F.,(2,2),(0.,50.),.PIECEWISE_BEZIER_KNOTS.);
#1017 = CARTESIAN_POINT('',(2.,-25.));
#1018 = CARTESIAN_POINT('',(2.,25.));
#1019 = ( GEOMETRIC_REPRESENTATION_CONTEXT(2) 
PARAMETRIC_REPRESENTATION_CONTEXT() REPRESENTATION_CONTEXT('2D SPACE',''
  ) );
#1020 = ORIENTED_EDGE('',*,*,#1021,.F.);
#1021 = EDGE_CURVE('',#910,#1002,#1022,.T.);
#1022 = SURFACE_CURVE('',#1023,(#1026,#1032),.PCURVE_S1.);
#1023 = B_SPLINE_CURVE_WITH_KNOTS('',1,(#1024,#1025),.UNSPECIFIED.,.F.,
  .F.,(2,2),(0.,34.),.PIECEWISE_BEZIER_KNOTS.);
#1024 = CARTESIAN_POINT('',(52.,0.,6.));
#1025 = CARTESIAN_POINT('',(52.,0.,40.));
#1026 = PCURVE('',#924,#1027);
#1027 = DEFINITIONAL_REPRESENTATION('',(#1028),#1031);
#1028 = B_SPLINE_CURVE_WITH_KNOTS('',1,(#1029,#1030),.UNSPECIFIED.,.F.,
  .F.,(2,2),(0.,34.),.PIECEWISE_BEZIER_KNOTS.);
#1029 = CARTESIAN_POINT('',(0.,0.));
#1030 = CARTESIAN_POINT('',(34.,0.));
#1031 = ( GEOMETRIC_REPRESENTATION_CONTEXT(2) 
PARAMETRIC_REPRESENTATION_CONTEXT() REPRESENTATION_CONTEXT('2D SPACE',''
  ) );
#1032 = PCURVE('',#527,#1033);
#1033 = DEFINITIONAL_REPRESENTATION('',(#1034),#1037);
#1034 = B_SPLINE_CURVE_WITH_KNOTS('',1,(#1035,#1036),.UNSPECIFIED.,.F.,
  .F.,(2,2),(0.,34.),.PIECEWISE_BEZIER_KNOTS.);
#1035 = CARTESIAN_POINT('',(-17.,2.));
#1036 = CARTESIAN_POINT('',(17.,2.));
#1037 = ( GEOMETRIC_REPRESENTATION_CONTEXT(2) 
PARAMETRIC_REPRESENTATION_CONTEXT() REPRESENTATION_CONTEXT('2D SPACE',''
  ) );
#1038 = ADVANCED_FACE('',(#1039),#67,.T.);
#1039 = FACE_BOUND('',#1040,.T.);
#1040 = EDGE_LOOP('',(#1041,#1042,#1060,#1061));
#1041 = ORIENTED_EDGE('',*,*,#53,.T.);
#1042 = ORIENTED_EDGE('',*,*,#1043,.T.);
#1043 = EDGE_CURVE('',#54,#610,#1044,.T.);
#1044 = SURFACE_CURVE('',#1045,(#1048,#1054),.PCURVE_S1.);
#1045 = B_SPLINE_CURVE_WITH_KNOTS('',1,(#1046,#1047),.UNSPECIFIED.,.F.,
  .F.,(2,2),(0.,4.),.PIECEWISE_BEZIER_KNOTS.);
#1046 = CARTESIAN_POINT('',(2.,50.,6.));
#1047 = CARTESIAN_POINT('',(-2.,50.,6.));
#1048 = PCURVE('',#67,#1049);
#1049 = DEFINITIONAL_REPRESENTATION('',(#1050),#1053);
#1050 = B_SPLINE_CURVE_WITH_KNOTS('',1,(#1051,#1052),.UNSPECIFIED.,.F.,
  .F.,(2,2),(0.,4.),.PIECEWISE_BEZIER_KNOTS.);
#1051 = CARTESIAN_POINT('',(-17.,2.));
#1052 = CARTESIAN_POINT('',(-17.,-2.));
#1053 = ( GEOMETRIC_REPRESENTATION_CONTEXT(2) 
PARAMETRIC_REPRESENTATION_CONTEXT() REPRESENTATION_CONTEXT('2D SPACE',''
  ) );
#1054 = PCURVE('',#164,#1055);
#1055 = DEFINITIONAL_REPRESENTATION('',(#1056),#1059);
#1056 = B_SPLINE_CURVE_WITH_KNOTS('',1,(#1057,#1058),.UNSPECIFIED.,.F.,
  .F.,(2,2),(0.,4.),.PIECEWISE_BEZIER_KNOTS.);
#1057 = CARTESIAN_POINT('',(3.863442114994,-0.136557885006));
#1058 = CARTESIAN_POINT('',(3.863442114994,-4.136557885006));
#1059 = ( GEOMETRIC_REPRESENTATION_CONTEXT(2) 
PARAMETRIC_REPRESENTATION_CONTEXT() REPRESENTATION_CONTEXT('2D SPACE',''
  ) );
#1060 = ORIENTED_EDGE('',*,*,#609,.F.);
#1061 = ORIENTED_EDGE('',*,*,#542,.F.);
#1062 = ADVANCED_FACE('',(#1063),#164,.T.);
#1063 = FACE_BOUND('',#1064,.T.);
#1064 = EDGE_LOOP('',(#1065,#1066,#1084,#1085));
#1065 = ORIENTED_EDGE('',*,*,#133,.T.);
#1066 = ORIENTED_EDGE('',*,*,#1067,.T.);
#1067 = EDGE_CURVE('',#134,#680,#1068,.T.);
#1068 = SURFACE_CURVE('',#1069,(#1072,#1078),.PCURVE_S1.);
#1069 = B_SPLINE_CURVE_WITH_KNOTS('',1,(#1070,#1071),.UNSPECIFIED.,.F.,
  .F.,(2,2),(0.,4.),.PIECEWISE_BEZIER_KNOTS.);
#1070 = CARTESIAN_POINT('',(6.,50.,2.));
#1071 = CARTESIAN_POINT('',(6.,50.,-2.));
#1072 = PCURVE('',#164,#1073);
#1073 = DEFINITIONAL_REPRESENTATION('',(#1074),#1077);
#1074 = B_SPLINE_CURVE_WITH_KNOTS('',1,(#1075,#1076),.UNSPECIFIED.,.F.,
  .F.,(2,2),(0.,4.),.PIECEWISE_BEZIER_KNOTS.);
#1075 = CARTESIAN_POINT('',(-0.136557885006,3.863442114994));
#1076 = CARTESIAN_POINT('',(-4.136557885006,3.863442114994));
#1077 = ( GEOMETRIC_REPRESENTATION_CONTEXT(2) 
PARAMETRIC_REPRESENTATION_CONTEXT() REPRESENTATION_CONTEXT('2D SPACE',''
  ) );
#1078 = PCURVE('',#273,#1079);
#1079 = DEFINITIONAL_REPRESENTATION('',(#1080),#1083);
#1080 = B_SPLINE_CURVE_WITH_KNOTS('',1,(#1081,#1082),.UNSPECIFIED.,.F.,
  .F.,(2,2),(0.,4.),.PIECEWISE_BEZIER_KNOTS.);
#1081 = CARTESIAN_POINT('',(2.,-19.));
#1082 = CARTESIAN_POINT('',(-2.,-19.));
#1083 = ( GEOMETRIC_REPRESENTATION_CONTEXT(2) 
PARAMETRIC_REPRESENTATION_CONTEXT() REPRESENTATION_CONTEXT('2D SPACE',''
  ) );
#1084 = ORIENTED_EDGE('',*,*,#679,.F.);
#1085 = ORIENTED_EDGE('',*,*,#1043,.F.);
#1086 = ADVANCED_FACE('',(#1087),#273,.T.);
#1087 = FACE_BOUND('',#1088,.T.);
#1088 = EDGE_LOOP('',(#1089,#1090,#1108,#1109));
#1089 = ORIENTED_EDGE('',*,*,#259,.T.);
#1090 = ORIENTED_EDGE('',*,*,#1091,.T.);
#1091 = EDGE_CURVE('',#260,#796,#1092,.T.);
#1092 = SURFACE_CURVE('',#1093,(#1096,#1102),.PCURVE_S1.);
#1093 = B_SPLINE_CURVE_WITH_KNOTS('',1,(#1094,#1095),.UNSPECIFIED.,.F.,
  .F.,(2,2),(0.,4.),.PIECEWISE_BEZIER_KNOTS.);
#1094 = CARTESIAN_POINT('',(44.,50.,2.));
#1095 = CARTESIAN_POINT('',(44.,50.,-2.));
#1096 = PCURVE('',#273,#1097);
#1097 = DEFINITIONAL_REPRESENTATION('',(#1098),#1101);
#1098 = B_SPLINE_CURVE_WITH_KNOTS('',1,(#1099,#1100),.UNSPECIFIED.,.F.,
  .F.,(2,2),(0.,4.),.PIECEWISE_BEZIER_KNOTS.);
#1099 = CARTESIAN_POINT('',(2.,19.));
#1100 = CARTESIAN_POINT('',(-2.,19.));
#1101 = ( GEOMETRIC_REPRESENTATION_CONTEXT(2) 
PARAMETRIC_REPRESENTATION_CONTEXT() REPRESENTATION_CONTEXT('2D SPACE',''
  ) );
#1102 = PCURVE('',#370,#1103);
#1103 = DEFINITIONAL_REPRESENTATION('',(#1104),#1107);
#1104 = B_SPLINE_CURVE_WITH_KNOTS('',1,(#1105,#1106),.UNSPECIFIED.,.F.,
  .F.,(2,2),(0.,4.),.PIECEWISE_BEZIER_KNOTS.);
#1105 = CARTESIAN_POINT('',(-0.136557885006,-3.863442114994));
#1106 = CARTESIAN_POINT('',(-4.136557885006,-3.863442114994));
#1107 = ( GEOMETRIC_REPRESENTATION_CONTEXT(2) 
PARAMETRIC_REPRESENTATION_CONTEXT() REPRESENTATION_CONTEXT('2D SPACE',''
  ) );
#1108 = ORIENTED_EDGE('',*,*,#795,.F.);
#1109 = ORIENTED_EDGE('',*,*,#1067,.F.);
#1110 = ADVANCED_FACE('',(#1111),#370,.T.);
#1111 = FACE_BOUND('',#1112,.T.);
#1112 = EDGE_LOOP('',(#1113,#1114,#1132,#1133));
#1113 = ORIENTED_EDGE('',*,*,#339,.T.);
#1114 = ORIENTED_EDGE('',*,*,#1115,.T.);
#1115 = EDGE_CURVE('',#340,#866,#1116,.T.);
#1116 = SURFACE_CURVE('',#1117,(#1120,#1126),.PCURVE_S1.);
#1117 = B_SPLINE_CURVE_WITH_KNOTS('',1,(#1118,#1119),.UNSPECIFIED.,.F.,
  .F.,(2,2),(0.,4.),.PIECEWISE_BEZIER_KNOTS.);
#1118 = CARTESIAN_POINT('',(48.,50.,6.));
#1119 = CARTESIAN_POINT('',(52.,50.,6.));
#1120 = PCURVE('',#370,#1121);
#1121 = DEFINITIONAL_REPRESENTATION('',(#1122),#1125);
#1122 = B_SPLINE_CURVE_WITH_KNOTS('',1,(#1123,#1124),.UNSPECIFIED.,.F.,
  .F.,(2,2),(0.,4.),.PIECEWISE_BEZIER_KNOTS.);
#1123 = CARTESIAN_POINT('',(3.863442114994,0.136557885006));
#1124 = CARTESIAN_POINT('',(3.863442114994,4.136557885006));
#1125 = ( GEOMETRIC_REPRESENTATION_CONTEXT(2) 
PARAMETRIC_REPRESENTATION_CONTEXT() REPRESENTATION_CONTEXT('2D SPACE',''
  ) );
#1126 = PCURVE('',#479,#1127);
#1127 = DEFINITIONAL_REPRESENTATION('',(#1128),#1131);
#1128 = B_SPLINE_CURVE_WITH_KNOTS('',1,(#1129,#1130),.UNSPECIFIED.,.F.,
  .F.,(2,2),(0.,4.),.PIECEWISE_BEZIER_KNOTS.);
#1129 = CARTESIAN_POINT('',(-17.,-2.));
#1130 = CARTESIAN_POINT('',(-17.,2.));
#1131 = ( GEOMETRIC_REPRESENTATION_CONTEXT(2) 
PARAMETRIC_REPRESENTATION_CONTEXT() REPRESENTATION_CONTEXT('2D SPACE',''
  ) );
#1132 = ORIENTED_EDGE('',*,*,#865,.F.);
#1133 = ORIENTED_EDGE('',*,*,#1091,.F.);
#1134 = ADVANCED_FACE('',(#1135),#479,.T.);
#1135 = FACE_BOUND('',#1136,.T.);
#1136 = EDGE_LOOP('',(#1137,#1138,#1156,#1157));
#1137 = ORIENTED_EDGE('',*,*,#465,.T.);
#1138 = ORIENTED_EDGE('',*,*,#1139,.T.);
#1139 = EDGE_CURVE('',#466,#982,#1140,.T.);
#1140 = SURFACE_CURVE('',#1141,(#1144,#1150),.PCURVE_S1.);
#1141 = B_SPLINE_CURVE_WITH_KNOTS('',1,(#1142,#1143),.UNSPECIFIED.,.F.,
  .F.,(2,2),(0.,4.),.PIECEWISE_BEZIER_KNOTS.);
#1142 = CARTESIAN_POINT('',(48.,50.,40.));
#1143 = CARTESIAN_POINT('',(52.,50.,40.));
#1144 = PCURVE('',#479,#1145);
#1145 = DEFINITIONAL_REPRESENTATION('',(#1146),#1149);
#1146 = B_SPLINE_CURVE_WITH_KNOTS('',1,(#1147,#1148),.UNSPECIFIED.,.F.,
  .F.,(2,2),(0.,4.),.PIECEWISE_BEZIER_KNOTS.);
#1147 = CARTESIAN_POINT('',(17.,-2.));
#1148 = CARTESIAN_POINT('',(17.,2.));
#1149 = ( GEOMETRIC_REPRESENTATION_CONTEXT(2) 
PARAMETRIC_REPRESENTATION_CONTEXT() REPRESENTATION_CONTEXT('2D SPACE',''
  ) );
#1150 = PCURVE('',#504,#1151);
#1151 = DEFINITIONAL_REPRESENTATION('',(#1152),#1155);
#1152 = B_SPLINE_CURVE_WITH_KNOTS('',1,(#1153,#1154),.UNSPECIFIED.,.F.,
  .F.,(2,2),(0.,4.),.PIECEWISE_BEZIER_KNOTS.);
#1153 = CARTESIAN_POINT('',(-2.,25.));
#1154 = CARTESIAN_POINT('',(2.,25.));
#1155 = ( GEOMETRIC_REPRESENTATION_CONTEXT(2) 
PARAMETRIC_REPRESENTATION_CONTEXT() REPRESENTATION_CONTEXT('2D SPACE',''
  ) );
#1156 = ORIENTED_EDGE('',*,*,#981,.F.);
#1157 = ORIENTED_EDGE('',*,*,#1115,.F.);
#1158 = ADVANCED_FACE('',(#1159),#504,.T.);
#1159 = FACE_BOUND('',#1160,.F.);
#1160 = EDGE_LOOP('',(#1161,#1162,#1163,#1164));
#1161 = ORIENTED_EDGE('',*,*,#490,.T.);
#1162 = ORIENTED_EDGE('',*,*,#1139,.T.);
#1163 = ORIENTED_EDGE('',*,*,#1001,.F.);
#1164 = ORIENTED_EDGE('',*,*,#1165,.F.);
#1165 = EDGE_CURVE('',#491,#1002,#1166,.T.);
#1166 = SURFACE_CURVE('',#1167,(#1170,#1176),.PCURVE_S1.);
#1167 = B_SPLINE_CURVE_WITH_KNOTS('',1,(#1168,#1169),.UNSPECIFIED.,.F.,
  .F.,(2,2),(0.,4.),.PIECEWISE_BEZIER_KNOTS.);
#1168 = CARTESIAN_POINT('',(48.,0.,40.));
#1169 = CARTESIAN_POINT('',(52.,0.,40.));
#1170 = PCURVE('',#504,#1171);
#1171 = DEFINITIONAL_REPRESENTATION('',(#1172),#1175);
#1172 = B_SPLINE_CURVE_WITH_KNOTS('',1,(#1173,#1174),.UNSPECIFIED.,.F.,
  .F.,(2,2),(0.,4.),.PIECEWISE_BEZIER_KNOTS.);
#1173 = CARTESIAN_POINT('',(-2.,-25.));
#1174 = CARTESIAN_POINT('',(2.,-25.));
#1175 = ( GEOMETRIC_REPRESENTATION_CONTEXT(2) 
PARAMETRIC_REPRESENTATION_CONTEXT() REPRESENTATION_CONTEXT('2D SPACE',''
  ) );
#1176 = PCURVE('',#527,#1177);
#1177 = DEFINITIONAL_REPRESENTATION('',(#1178),#1181);
#1178 = B_SPLINE_CURVE_WITH_KNOTS('',1,(#1179,#1180),.UNSPECIFIED.,.F.,
  .F.,(2,2),(0.,4.),.PIECEWISE_BEZIER_KNOTS.);
#1179 = CARTESIAN_POINT('',(17.,-2.));
#1180 = CARTESIAN_POINT('',(17.,2.));
#1181 = ( GEOMETRIC_REPRESENTATION_CONTEXT(2) 
PARAMETRIC_REPRESENTATION_CONTEXT() REPRESENTATION_CONTEXT('2D SPACE',''
  ) );
#1182 = ADVANCED_FACE('',(#1183),#527,.F.);
#1183 = FACE_BOUND('',#1184,.F.);
#1184 = EDGE_LOOP('',(#1185,#1186,#1187,#1188));
#1185 = ORIENTED_EDGE('',*,*,#515,.T.);
#1186 = ORIENTED_EDGE('',*,*,#1165,.T.);
#1187 = ORIENTED_EDGE('',*,*,#1021,.F.);
#1188 = ORIENTED_EDGE('',*,*,#1189,.F.);
#1189 = EDGE_CURVE('',#389,#910,#1190,.T.);
#1190 = SURFACE_CURVE('',#1191,(#1194,#1200),.PCURVE_S1.);
#1191 = B_SPLINE_CURVE_WITH_KNOTS('',1,(#1192,#1193),.UNSPECIFIED.,.F.,
  .F.,(2,2),(0.,4.),.PIECEWISE_BEZIER_KNOTS.);
#1192 = CARTESIAN_POINT('',(48.,0.,6.));
#1193 = CARTESIAN_POINT('',(52.,0.,6.));
#1194 = PCURVE('',#527,#1195);
#1195 = DEFINITIONAL_REPRESENTATION('',(#1196),#1199);
#1196 = B_SPLINE_CURVE_WITH_KNOTS('',1,(#1197,#1198),.UNSPECIFIED.,.F.,
  .F.,(2,2),(0.,4.),.PIECEWISE_BEZIER_KNOTS.);
#1197 = CARTESIAN_POINT('',(-17.,-2.));
#1198 = CARTESIAN_POINT('',(-17.,2.));
#1199 = ( GEOMETRIC_REPRESENTATION_CONTEXT(2) 
PARAMETRIC_REPRESENTATION_CONTEXT() REPRESENTATION_CONTEXT('2D SPACE',''
  ) );
#1200 = PCURVE('',#443,#1201);
#1201 = DEFINITIONAL_REPRESENTATION('',(#1202),#1205);
#1202 = B_SPLINE_CURVE_WITH_KNOTS('',1,(#1203,#1204),.UNSPECIFIED.,.F.,
  .F.,(2,2),(0.,4.),.PIECEWISE_BEZIER_KNOTS.);
#1203 = CARTESIAN_POINT('',(3.863442114994,0.136557885006));
#1204 = CARTESIAN_POINT('',(3.863442114994,4.136557885006));
#1205 = ( GEOMETRIC_REPRESENTATION_CONTEXT(2) 
PARAMETRIC_REPRESENTATION_CONTEXT() REPRESENTATION_CONTEXT('2D SPACE',''
  ) );
#1206 = ADVANCED_FACE('',(#1207),#443,.F.);
#1207 = FACE_BOUND('',#1208,.F.);
#1208 = EDGE_LOOP('',(#1209,#1210,#1211,#1212));
#1209 = ORIENTED_EDGE('',*,*,#414,.T.);
#1210 = ORIENTED_EDGE('',*,*,#1189,.T.);
#1211 = ORIENTED_EDGE('',*,*,#935,.F.);
#1212 = ORIENTED_EDGE('',*,*,#1213,.F.);
#1213 = EDGE_CURVE('',#285,#816,#1214,.T.);
#1214 = SURFACE_CURVE('',#1215,(#1218,#1224),.PCURVE_S1.);
#1215 = B_SPLINE_CURVE_WITH_KNOTS('',1,(#1216,#1217),.UNSPECIFIED.,.F.,
  .F.,(2,2),(0.,4.),.PIECEWISE_BEZIER_KNOTS.);
#1216 = CARTESIAN_POINT('',(44.,0.,2.));
#1217 = CARTESIAN_POINT('',(44.,0.,-2.));
#1218 = PCURVE('',#443,#1219);
#1219 = DEFINITIONAL_REPRESENTATION('',(#1220),#1223);
#1220 = B_SPLINE_CURVE_WITH_KNOTS('',1,(#1221,#1222),.UNSPECIFIED.,.F.,
  .F.,(2,2),(0.,4.),.PIECEWISE_BEZIER_KNOTS.);
#1221 = CARTESIAN_POINT('',(-0.136557885006,-3.863442114994));
#1222 = CARTESIAN_POINT('',(-4.136557885006,-3.863442114994));
#1223 = ( GEOMETRIC_REPRESENTATION_CONTEXT(2) 
PARAMETRIC_REPRESENTATION_CONTEXT() REPRESENTATION_CONTEXT('2D SPACE',''
  ) );
#1224 = PCURVE('',#324,#1225);
#1225 = DEFINITIONAL_REPRESENTATION('',(#1226),#1229);
#1226 = B_SPLINE_CURVE_WITH_KNOTS('',1,(#1227,#1228),.UNSPECIFIED.,.F.,
  .F.,(2,2),(0.,4.),.PIECEWISE_BEZIER_KNOTS.);
#1227 = CARTESIAN_POINT('',(2.,19.));
#1228 = CARTESIAN_POINT('',(-2.,19.));
#1229 = ( GEOMETRIC_REPRESENTATION_CONTEXT(2) 
PARAMETRIC_REPRESENTATION_CONTEXT() REPRESENTATION_CONTEXT('2D SPACE',''
  ) );
#1230 = ADVANCED_FACE('',(#1231),#324,.F.);
#1231 = FACE_BOUND('',#1232,.F.);
#1232 = EDGE_LOOP('',(#1233,#1234,#1235,#1236));
#1233 = ORIENTED_EDGE('',*,*,#312,.T.);
#1234 = ORIENTED_EDGE('',*,*,#1213,.T.);
#1235 = ORIENTED_EDGE('',*,*,#843,.F.);
#1236 = ORIENTED_EDGE('',*,*,#1237,.F.);
#1237 = EDGE_CURVE('',#183,#724,#1238,.T.);
#1238 = SURFACE_CURVE('',#1239,(#1242,#1248),.PCURVE_S1.);
#1239 = B_SPLINE_CURVE_WITH_KNOTS('',1,(#1240,#1241),.UNSPECIFIED.,.F.,
  .F.,(2,2),(0.,4.),.PIECEWISE_BEZIER_KNOTS.);
#1240 = CARTESIAN_POINT('',(6.,0.,2.));
#1241 = CARTESIAN_POINT('',(6.,0.,-2.));
#1242 = PCURVE('',#324,#1243);
#1243 = DEFINITIONAL_REPRESENTATION('',(#1244),#1247);
#1244 = B_SPLINE_CURVE_WITH_KNOTS('',1,(#1245,#1246),.UNSPECIFIED.,.F.,
  .F.,(2,2),(0.,4.),.PIECEWISE_BEZIER_KNOTS.);
#1245 = CARTESIAN_POINT('',(2.,-19.));
#1246 = CARTESIAN_POINT('',(-2.,-19.));
#1247 = ( GEOMETRIC_REPRESENTATION_CONTEXT(2) 
PARAMETRIC_REPRESENTATION_CONTEXT() REPRESENTATION_CONTEXT('2D SPACE',''
  ) );
#1248 = PCURVE('',#237,#1249);
#1249 = DEFINITIONAL_REPRESENTATION('',(#1250),#1253);
#1250 = B_SPLINE_CURVE_WITH_KNOTS('',1,(#1251,#1252),.UNSPECIFIED.,.F.,
  .F.,(2,2),(0.,4.),.PIECEWISE_BEZIER_KNOTS.);
#1251 = CARTESIAN_POINT('',(-0.136557885006,3.863442114994));
#1252 = CARTESIAN_POINT('',(-4.136557885006,3.863442114994));
#1253 = ( GEOMETRIC_REPRESENTATION_CONTEXT(2) 
PARAMETRIC_REPRESENTATION_CONTEXT() REPRESENTATION_CONTEXT('2D SPACE',''
  ) );
#1254 = ADVANCED_FACE('',(#1255),#237,.F.);
#1255 = FACE_BOUND('',#1256,.F.);
#1256 = EDGE_LOOP('',(#1257,#1258,#1259,#1260));
#1257 = ORIENTED_EDGE('',*,*,#208,.T.);
#1258 = ORIENTED_EDGE('',*,*,#1237,.T.);
#1259 = ORIENTED_EDGE('',*,*,#749,.F.);
#1260 = ORIENTED_EDGE('',*,*,#1261,.F.);
#1261 = EDGE_CURVE('',#79,#630,#1262,.T.);
#1262 = SURFACE_CURVE('',#1263,(#1266,#1272),.PCURVE_S1.);
#1263 = B_SPLINE_CURVE_WITH_KNOTS('',1,(#1264,#1265),.UNSPECIFIED.,.F.,
  .F.,(2,2),(0.,4.),.PIECEWISE_BEZIER_KNOTS.);
#1264 = CARTESIAN_POINT('',(2.,0.,6.));
#1265 = CARTESIAN_POINT('',(-2.,0.,6.));
#1266 = PCURVE('',#237,#1267);
#1267 = DEFINITIONAL_REPRESENTATION('',(#1268),#1271);
#1268 = B_SPLINE_CURVE_WITH_KNOTS('',1,(#1269,#1270),.UNSPECIFIED.,.F.,
  .F.,(2,2),(0.,4.),.PIECEWISE_BEZIER_KNOTS.);
#1269 = CARTESIAN_POINT('',(3.863442114994,-0.136557885006));
#1270 = CARTESIAN_POINT('',(3.863442114994,-4.136557885006));
#1271 = ( GEOMETRIC_REPRESENTATION_CONTEXT(2) 
PARAMETRIC_REPRESENTATION_CONTEXT() REPRESENTATION_CONTEXT('2D SPACE',''
  ) );
#1272 = PCURVE('',#118,#1273);
#1273 = DEFINITIONAL_REPRESENTATION('',(#1274),#1277);
#1274 = B_SPLINE_CURVE_WITH_KNOTS('',1,(#1275,#1276),.UNSPECIFIED.,.F.,
  .F.,(2,2),(0.,4.),.PIECEWISE_BEZIER_KNOTS.);
#1275 = CARTESIAN_POINT('',(-17.,2.));
#1276 = CARTESIAN_POINT('',(-17.,-2.));
#1277 = ( GEOMETRIC_REPRESENTATION_CONTEXT(2) 
PARAMETRIC_REPRESENTATION_CONTEXT() REPRESENTATION_CONTEXT('2D SPACE',''
  ) );
#1278 = ADVANCED_FACE('',(#1279),#118,.F.);
#1279 = FACE_BOUND('',#1280,.F.);
#1280 = EDGE_LOOP('',(#1281,#1282,#1283,#1284));
#1281 = ORIENTED_EDGE('',*,*,#106,.T.);
#1282 = ORIENTED_EDGE('',*,*,#1261,.T.);
#1283 = ORIENTED_EDGE('',*,*,#657,.F.);
#1284 = ORIENTED_EDGE('',*,*,#587,.F.);
#1285 = ( GEOMETRIC_REPRESENTATION_CONTEXT(3) 
GLOBAL_UNCERTAINTY_ASSIGNED_CONTEXT((#1289)) 
GLOBAL_UNIT_ASSIGNED_CONTEXT((#1286,#1287,#1288)) REPRESENTATION_CONTEXT
('Context #1','3D Context with UNIT and UNCERTAINTY') );
#1286 = ( LENGTH_UNIT() NAMED_UNIT(*) SI_UNIT(.MILLI.,.METRE.) );
#1287 = ( NAMED_UNIT(*) PLANE_ANGLE_UNIT() SI_UNIT($,.RADIAN.) );
#1288 = ( NAMED_UNIT(*) SI_UNIT($,.STERADIAN.) SOLID_ANGLE_UNIT() );
#1289 = UNCERTAINTY_MEASURE_WITH_UNIT(LENGTH_MEASURE(2.E-07),#1286,
  'distance_accuracy_value','confusion accuracy');
#1290 = PRODUCT_RELATED_PRODUCT_CATEGORY('part',$,(#7));
ENDSEC;
END-ISO-10303-21;
