DBRep_DrawableShape

CASCADE Topology V1, (c) Matra-Datavision
Locations 0
Curve2ds 5
1 0 316.22776601683796 1 0 
1 6.2831853071795862 -0 0 1 
1 0 -0 0 1 
1 0 0 1 0 
2 0 0 1 0 -0 1 100
Curves 2
1 100 -2.4492127076447545e-14 0 -0.316227766016838 7.7450906303855167e-17 0.94868329805051388 
2 0 0 0 0 0 1 1 0 -0 -0 1 0 100
Polygon3D 0
PolygonOnTriangulations 4
2 1 2 
p 1e-05 1 0 6.28318530717959 
2 3 2 
p 30.00000002 1 0 316.227766016838 
2 4 1 
p 30.00000002 1 0 316.227766016838 
49 1 2 3 4 5 6 7 8 9 10 11 12 13 14 15 16 17 18 19 20 21 22 23 24 25 26 27 28 29 30 31 32 33 34 35 36 37 38 39 40 41 42 43 44 45 46 47 48 1 
p 21.6478440258479 1 0 0.130899693899575 0.261799387799149 0.392699081698724 0.523598775598299 0.654498469497873 0.785398163397448 0.916297857297023 1.0471975511966 1.17809724509617 1.30899693899575 1.43989663289532 1.5707963267949 1.70169602069447 1.83259571459405 1.96349540849362 2.0943951023932 2.22529479629277 2.35619449019234 2.48709418409192 2.61799387799149 2.74889357189107 2.87979326579064 3.01069295969022 3.14159265358979 3.27249234748937 3.40339204138894 3.53429173528852 3.66519142918809 3.79609112308767 3.92699081698724 4.05789051088681 4.18879020478639 4.31968989868596 4.45058959258554 4.58148928648511 4.71238898038469 4.84328867428426 4.97418836818384 5.10508806208341 5.23598775598299 5.36688744988256 5.49778714378213 5.62868683768171 5.75958653158128 5.89048622548086 6.02138591938043 6.15228561328001 6.28318530717959 
Surfaces 2
3 0 0 0 0 0 1 1 0 -0 -0 1 0 100
-0.32175055439664219
1 0 0 0 0 0 1 1 0 -0 -0 1 0 
Triangulations 2
45 51 1 15.3663120362899
-1.4210854715202e-14 3.48054059549661e-30 300 -1.4210854715202e-14 3.48054059549661e-30 300 100 -2.44921270764475e-14 0 100 -2.44921270764475e-14 0 98.2973099683902 18.374951781657 0 93.2472229404356 36.1241666187153 0 85.0217135729614 52.6432162877356 0 73.9008917220659 67.3695643646557 0 60.2634636379256 79.8017227280239 0 44.5738355776538 89.5163291355062 0 27.3662990072083 96.1825643172819 0 9.22683594633022 99.5734176295035 0 -9.22683594633017 99.5734176295035 0 -27.3662990072082 96.1825643172819 0 -44.5738355776538 89.5163291355063 0 -60.2634636379256 79.801722728024 0 -73.9008917220659 67.3695643646558 0 -85.0217135729614 52.6432162877356 0 -93.2472229404355 36.1241666187154 0 -98.2973099683902 18.3749517816571 0 -100 1.01063905508236e-13 0 -98.2973099683902 -18.3749517816569 0 -93.2472229404356 -36.1241666187152 0 -85.0217135729615 -52.6432162877355 0 -73.900891722066 -67.3695643646556 0 -60.2634636379257 -79.8017227280239 0 -44.5738355776539 -89.5163291355062 0 -27.3662990072083 -96.1825643172819 0 -9.22683594633019 -99.5734176295035 0 9.22683594633024 -99.5734176295035 0 27.3662990072084 -96.1825643172819 0 44.5738355776539 -89.5163291355062 0 60.2634636379258 -79.8017227280239 0 73.900891722066 -67.3695643646556 0 85.0217135729615 -52.6432162877354 0 93.2472229404357 -36.1241666187151 0 98.2973099683902 -18.3749517816567 0 20.6011329583298 63.4037677530102 100 -53.9344662916631 39.1856834861649 100 -53.9344662916632 -39.1856834861649 100 20.6011329583298 -63.4037677530102 100 10.3005664791649 31.7018838765051 200 -26.9672331458316 19.5928417430824 200 -26.9672331458316 -19.5928417430824 200 10.3005664791649 -31.7018838765051 200 0 316.227766016838 6.28318530717959 316.227766016838 6.28318530717959 0 0 0 0.184799567858223 0 0.369599135716446 0 0.554398703574669 0 0.739198271432892 0 0.923997839291116 0 1.10879740714934 0 1.29359697500756 0 1.47839654286578 0 1.66319611072401 0 1.84799567858223 0 2.03279524644045 0 2.21759481429868 0 2.4023943821569 0 2.58719395001512 0 2.77199351787335 0 2.95679308573157 0 3.14159265358979 0 3.32639222144802 0 3.51119178930624 0 3.69599135716446 0 3.88079092502268 0 4.06559049288091 0 4.25039006073913 0 4.43518962859735 0 4.61998919645558 0 4.8047887643138 0 4.98958833217203 0 5.17438790003025 0 5.35918746788847 0 5.5439870357467 0 5.72878660360492 0 5.91358617146314 0 6.09838573932137 0 1.25663706143592 105.409255338946 2.51327412287183 105.409255338946 3.76991118430775 105.409255338946 5.02654824574367 105.409255338946 1.25663706143592 210.818510677892 2.51327412287183 210.818510677892 3.76991118430775 210.818510677892 5.02654824574367 210.818510677892 4 5 38 6 7 38 7 8 38 5 6 38 9 10 38 10 11 38 12 13 38 13 14 38 11 12 38 8 9 38 14 39 38 4 42 1 42 4 38 39 42 38 1 42 43 39 15 16 39 14 15 17 18 39 18 19 39 43 39 40 20 39 19 21 39 20 43 42 39 39 16 17 1 43 44 21 22 40 23 24 40 24 25 40 22 23 40 26 27 40 27 28 40 29 30 41 30 31 41 28 29 41 25 26 40 40 28 41 41 31 32 41 32 33 44 41 45 41 44 40 3 45 41 44 45 2 41 33 34 44 43 40 36 41 35 37 41 36 3 2 45 41 37 3 35 41 34 44 2 1 40 39 21 
49 48 1 0
100 -2.44921270764475e-14 0 99.144486137381 13.0526192220052 0 96.5925826289068 25.8819045102521 0 92.3879532511287 38.268343236509 0 86.6025403784439 50 0 79.3353340291235 60.8761429008721 0 70.7106781186548 70.7106781186547 0 60.8761429008721 79.3353340291235 0 50 86.6025403784439 0 38.268343236509 92.3879532511287 0 25.8819045102521 96.5925826289068 0 13.0526192220052 99.144486137381 0 -1.60814287233912e-14 100 0 -13.0526192220052 99.144486137381 0 -25.8819045102521 96.5925826289068 0 -38.268343236509 92.3879532511287 0 -50 86.6025403784438 0 -60.8761429008721 79.3353340291235 0 -70.7106781186547 70.7106781186548 0 -79.3353340291235 60.8761429008721 0 -86.6025403784438 50 0 -92.3879532511286 38.268343236509 0 -96.5925826289068 25.8819045102521 0 -99.144486137381 13.0526192220052 0 -100 1.01063905508236e-13 0 -99.1444861373811 -13.052619222005 0 -96.5925826289069 -25.8819045102519 0 -92.3879532511287 -38.2683432365088 0 -86.6025403784439 -49.9999999999999 0 -79.3353340291236 -60.8761429008719 0 -70.7106781186549 -70.7106781186546 0 -60.8761429008722 -79.3353340291234 0 -50.0000000000002 -86.6025403784437 0 -38.2683432365092 -92.3879532511286 0 -25.8819045102523 -96.5925826289068 0 -13.0526192220054 -99.144486137381 0 -2.84822621217373e-13 -100 0 13.0526192220049 -99.1444861373811 0 25.8819045102518 -96.5925826289069 0 38.2683432365087 -92.3879532511288 0 49.9999999999997 -86.602540378444 0 60.8761429008718 -79.3353340291237 0 70.7106781186545 -70.710678118655 0 79.3353340291233 -60.8761429008724 0 86.6025403784437 -50.0000000000004 0 92.3879532511285 -38.2683432365094 0 96.5925826289067 -25.8819045102525 0 99.144486137381 -13.0526192220056 0 0 0 0 100 -2.8421709430404e-14 99.144486137381 13.0526192220052 96.5925826289068 25.8819045102521 92.3879532511287 38.268343236509 86.6025403784438 50 79.3353340291235 60.8761429008721 70.7106781186548 70.7106781186548 60.8761429008721 79.3353340291235 50 86.6025403784438 38.268343236509 92.3879532511287 25.8819045102521 96.5925826289068 13.0526192220051 99.144486137381 -1.4210854715202e-14 100 -13.0526192220052 99.144486137381 -25.8819045102521 96.5925826289068 -38.268343236509 92.3879532511287 -50 86.6025403784438 -60.8761429008721 79.3353340291235 -70.7106781186547 70.7106781186548 -79.3353340291235 60.8761429008721 -86.6025403784438 50 -92.3879532511286 38.268343236509 -96.5925826289068 25.8819045102521 -99.144486137381 13.0526192220052 -100 9.9475983006414e-14 -99.1444861373811 -13.052619222005 -96.5925826289069 -25.881904510252 -92.3879532511287 -38.2683432365088 -86.6025403784439 -49.9999999999999 -79.3353340291236 -60.8761429008719 -70.7106781186549 -70.7106781186546 -60.8761429008722 -79.3353340291234 -50.0000000000002 -86.6025403784437 -38.2683432365092 -92.3879532511286 -25.8819045102523 -96.5925826289068 -13.0526192220054 -99.144486137381 -2.8421709430404e-13 -100 13.0526192220049 -99.1444861373811 25.8819045102518 -96.5925826289069 38.2683432365087 -92.3879532511288 49.9999999999997 -86.602540378444 60.8761429008718 -79.3353340291237 70.7106781186545 -70.710678118655 79.3353340291233 -60.8761429008724 86.6025403784437 -50.0000000000004 92.3879532511285 -38.2683432365094 96.5925826289067 -25.8819045102525 99.144486137381 -13.0526192220056 0 0 49 29 30 49 28 29 49 26 27 28 49 27 26 49 25 49 34 35 36 49 35 49 30 31 33 49 32 49 31 32 33 34 49 24 49 23 22 23 49 21 49 20 49 19 20 25 49 24 18 49 17 49 16 17 15 49 14 16 49 15 19 49 18 22 49 21 49 36 37 49 38 39 39 40 49 49 41 42 41 49 40 42 43 49 49 44 45 46 49 45 49 47 48 46 47 49 49 43 44 49 48 1 49 9 10 9 49 8 49 10 11 49 12 13 12 49 11 49 13 14 49 3 4 49 4 5 8 49 7 7 49 6 5 6 49 49 2 3 49 1 2 38 49 37 

TShapes 11
Ve
1e-07
-1.4210854715202e-14 3.48054059549661e-30 300
0 0

0101101
*
Ed
 1e-07 1 1 1
2  1 1 0 0 6.28318530717959
6  1 1 0
0

0101100
+11 0 -11 0 *
Ve
1e-07
100 -2.44921270764475e-14 0
0 0

0101101
*
Ed
 1e-07 1 1 0
1  1 0 0 316.227766016838
3  2 3CN 1 0 0 316.227766016838
7  2 3 1 0
0

0101000
-11 0 +9 0 *
Ed
 1e-07 1 1 0
1  2 0 0 6.28318530717959
2  4 1 0 0 6.28318530717959
2  5 2 0 0 6.28318530717959
6  4 2 0
0

0101100
+9 0 -9 0 *
Wi

0101000
-10 0 +8 0 +7 0 -8 0 *
Fa
0  1e-07 1 0
2  1
0101000
+6 0 *
Wi

0101000
-7 0 *
Fa
0  1e-07 2 0
2  2
0101000
-4 0 *
Sh

0101100
+5 0 -3 0 *
So

1100100
+2 0 *

+1 0 