DBRep_DrawableShape

CASCADE Topology V1, (c) Matra-Datavision
Locations 0
Curve2ds 41
1 0 0 1 0 
1 0 0 1 0 
1 0.5 0 0 -1 
1 0 0 0 1 
1 0 -1 1 0 
1 0 0 1 0 
1 0 0 0 -1 
1 0 0 0 1 
1 0 0 0 1 
1 0 0 1 0 
1 0 0 1 0 
1 0 2 1 0 
1 0.5 0 0 1 
1 0 0 1 0 
1 0.5 0 0 1 
1 0 1 1 0 
1 0.5 0 0 -1 
1 2 0 0 1 
1 0 0 0 1 
1 0 1 1 0 
1 0 -1 1 0 
1 0 2 1 0 
1 0 0 0 -1 
1 2 0 0 1 
2 0.60000000000000009 0.5 1 0 -0 1 0.25
1 0 0 1 0 
8 -6.000000000172534e-07 1.0000005999999999
1 0.60000000000000009 0.25 1 0 
8 -6.000000000172534e-07 1.0000005999999999
1 1.5707963267948966 0 0 1 
8 0 0.5
1 1.6000000000000001 0.25 0 1 
8 0 0.5
1 0 0.25 0 -1 
8 -6.000000000172534e-07 1.0000005999999999
1 0.60000000000000009 0.75 1 0 
8 -6.000000000172534e-07 1.0000005999999999
1 4.7123889803846897 0 0 1 
1 0 1.5707963267948966 1 0 
1 0 0 1 0 
2 0 0 1 0 -0 1 0.25
1 4.7123889803846897 1.5707963267948966 0 -1 
1 1.5707963267948966 -4.7123889803846897 -0 1 
1 6.2831853071795862 -0 0 1 
1 0 -0 0 1 
1 0 1 1 0 
2 0 0 1 0 -0 1 0.25
Curves 19
1 -1.1000000000000001 -0.5 0 0 0 1 
1 -1.1000000000000001 -0.5 0.5 -0 1 0 
1 -1.1000000000000001 0.5 0 0 0 1 
1 -1.1000000000000001 -0.5 0 -0 1 0 
1 -1.1000000000000001 -0.5 0 1 0 -0 
1 0.89999999999999991 -0.5 0 0 0 1 
1 -1.1000000000000001 -0.5 0.5 1 0 -0 
1 -1.1000000000000001 0.5 0.5 1 0 -0 
1 0.89999999999999991 -0.5 0.5 -0 1 0 
1 -1.1000000000000001 0.5 0 1 0 -0 
1 0.89999999999999991 0.5 0 0 0 1 
1 0.89999999999999991 -0.5 0 -0 1 0 
2 -0.5 0 0 0 0 1 1 0 -0 -0 1 0 0.25
1 -0.5 -0.25 0 1 0 0 
1 0.5 -0.25 0 0 1 0 
1 -0.5 0.25 0 1 0 0 
2 -0.5 0 0 1 0 0 -0 0 1 0 -1 0 0.25
1 -0.5 6.123233995736766e-17 0.25 1 0 0 
2 0.5 0 0 1 0 0 -0 0 1 0 -1 0 0.25
Polygon3D 0
PolygonOnTriangulations 0
Surfaces 10
1 -1.1000000000000001 -0.5 0 1 0 -0 0 0 1 0 -1 0 
1 -1.1000000000000001 -0.5 0 -0 1 0 0 0 1 1 0 -0 
1 -1.1000000000000001 -0.5 0.5 0 0 1 1 0 -0 -0 1 0 
1 -1.1000000000000001 0.5 0 -0 1 0 0 0 1 1 0 -0 
1 -1.1000000000000001 -0.5 0 0 0 1 1 0 -0 -0 1 0 
1 0.89999999999999991 -0.5 0 1 0 -0 0 0 1 0 -1 0 
4 -0.5 0 0 0 0 1 1 0 -0 -0 1 0 0.25
2 -0.5 -0 0 1 0 0 -0 0 1 0 -1 0 0.25
1 0.5 0 0 1 0 0 -0 0 1 0 -1 0 
1 -0.5 0 0 1 0 0 -0 0 1 0 -1 0 
Triangulations 0

TShapes 60
Ve
1e-07
-1.1 -0.5 0.5
0 0

0101101
*
Ve
1e-07
-1.1 -0.5 0
0 0

0101101
*
Ed
 1e-07 1 1 0
1  1 0 0 0.5
2  1 1 0 0 0.5
2  2 2 0 0 0.5
0

0101000
-60 0 +59 0 *
Ve
1e-07
-1.1 0.5 0.5
0 0

0101101
*
Ed
 1e-07 1 1 0
1  2 0 0 1
2  3 1 0 0 1
2  4 3 0 0 1
0

0101000
-57 0 +60 0 *
Ve
1e-07
-1.1 0.5 0
0 0

0101101
*
Ed
 1e-07 1 1 0
1  3 0 0 0.5
2  5 1 0 0 0.5
2  6 4 0 0 0.5
0

0101000
-57 0 +55 0 *
Ed
 1e-07 1 1 0
1  4 0 0 1
2  7 1 0 0 1
2  8 5 0 0 1
0

0101000
-55 0 +59 0 *
Wi

0101100
-58 0 -56 0 +54 0 +53 0 *
Fa
0  1e-07 1 0

0111000
+52 0 *
Ve
1e-07
0.9 -0.5 0
0 0

0101101
*
Ed
 1e-07 1 1 0
1  5 0 0 2
2  9 2 0 0 2
2  10 5 0 0 2
0

0101000
-50 0 +59 0 *
Ve
1e-07
0.9 -0.5 0.5
0 0

0101101
*
Ed
 1e-07 1 1 0
1  6 0 0 0.5
2  11 6 0 0 0.5
2  12 2 0 0 0.5
0

0101000
-48 0 +50 0 *
Ed
 1e-07 1 1 0
1  7 0 0 2
2  13 2 0 0 2
2  14 3 0 0 2
0

0101000
-48 0 +60 0 *
Wi

0101100
-49 0 -47 0 +46 0 +58 0 *
Fa
0  1e-07 2 0

0111000
+45 0 *
Ve
1e-07
0.9 0.5 0.5
0 0

0101101
*
Ed
 1e-07 1 1 0
1  8 0 0 2
2  15 4 0 0 2
2  16 3 0 0 2
0

0101000
-43 0 +57 0 *
Ed
 1e-07 1 1 0
1  9 0 0 1
2  17 6 0 0 1
2  18 3 0 0 1
0

0101000
-43 0 +48 0 *
Wi

0101100
-56 0 -42 0 +41 0 +46 0 *
Fa
0  1e-07 3 0

0111000
+40 0 *
Ve
1e-07
0.9 0.5 0
0 0

0101101
*
Ed
 1e-07 1 1 0
1  10 0 0 2
2  19 4 0 0 2
2  20 5 0 0 2
0

0101000
-38 0 +55 0 *
Ed
 1e-07 1 1 0
1  11 0 0 0.5
2  21 6 0 0 0.5
2  22 4 0 0 0.5
0

0101000
-43 0 +38 0 *
Wi

0101100
-37 0 -36 0 +42 0 +54 0 *
Fa
0  1e-07 4 0

0111000
+35 0 *
Ed
 1e-07 1 1 0
1  12 0 0 1
2  23 6 0 0 1
2  24 5 0 0 1
0

0101000
-38 0 +50 0 *
Wi

0101100
-53 0 -37 0 +49 0 +33 0 *
Ve
1.00000000050037e-07
-0.5 0.25 -4.59242549680257e-17
0 0

0101101
*
Ve
1.00000000015308e-07
-0.5 -0.25 1.53080849893419e-17
0 0

0101101
*
Ed
 1e-07 1 1 0
1  13 0 1.5707963267949 4.71238898038469
2  25 5 0 1.5707963267949 4.71238898038469
2  26 7 0 1.5707963267949 4.71238898038469
0

0101000
+31 0 -30 0 *
Ve
1.50000000015308e-07
0.5 -0.25 1.53080849893419e-17
0 0

0101101
*
Ed
 1e-07 1 1 0
1  14 0 0 1
2  27 5 0 0 1
2  28 8 0 0 1
0

0101000
+30 0 -28 0 *
Ve
1.50000000045924e-07
0.5 0.25 -4.59242549680257e-17
0 0

0101101
*
Ed
 1.5e-07 1 1 0
1  15 0 0 0.5
2  29 5 0 0 0.5
2  30 9 0 0 0.5
0

0101000
+28 0 -26 0 *
Ed
 1e-07 1 1 0
1  16 0 0 1
2  31 5 0 0 1
2  32 8 0 0 1
0

0101000
+31 0 -26 0 *
Wi

0101100
-29 0 -27 0 -25 0 +24 0 *
Fa
0  1e-07 5 0

0101000
+32 0 +23 0 *
Wi

0101100
-47 0 -41 0 +36 0 +33 0 *
Fa
0  1e-07 6 0

0111000
+21 0 *
Ve
1.00000000134311e-07
-0.5 2.04107799857892e-17 0.25
0 0

0101101
*
Ed
 1e-07 1 1 1
2  33 7 0 1.5707963267949 4.71238898038469
0

0101000
+19 0 -19 0 *
Ed
 1.00000000013878e-07 1 1 0
1  17 0 0 1.5707963267949
2  34 8 0 0 1.5707963267949
2  35 10 0 0 1.5707963267949
2  36 7 0 0 1.5707963267949
0

0101000
+19 0 -30 0 *
Ed
 1.00000000050037e-07 1 1 0
1  17 0 4.71238898038469 6.28318530717959
2  34 8 0 4.71238898038469 6.28318530717959
2  35 10 0 4.71238898038469 6.28318530717959
2  37 7 0 4.71238898038469 6.28318530717959
0

0101000
+31 0 -19 0 *
Wi

0101100
-18 0 -17 0 +29 0 -16 0 *
Fa
0  1e-07 7 0

0101000
+15 0 *
Ve
1e-07
0.5 6.12323399573677e-17 0.25
0 0

0101101
*
Ed
 1e-07 1 1 0
1  18 0 0 1
3  38 39CN 8 0 0 1
0

0101000
+19 0 -13 0 *
Ed
 1e-07 1 1 0
1  19 0 0 1.5707963267949
2  40 8 0 0 1.5707963267949
2  41 9 0 0 1.5707963267949
0

0101000
+13 0 -28 0 *
Wi

0101100
-12 0 -11 0 +27 0 +17 0 *
Fa
0  1e-07 8 0

0101000
+10 0 *
Ed
 1e-07 1 1 0
1  19 0 4.71238898038469 6.28318530717959
2  40 8 0 4.71238898038469 6.28318530717959
2  41 9 0 4.71238898038469 6.28318530717959
0

0101000
+26 0 -13 0 *
Wi

0101100
+8 0 +25 0 +11 0 *
Fa
0  1e-07 9 0

0101000
+7 0 *
Wi

0101100
+16 0 -24 0 -8 0 +12 0 *
Fa
0  1e-07 8 0

0101000
+5 0 *
Sh

0101100
-51 0 -44 0 +39 0 +34 0 -22 0 +20 0 -14 0 -9 0 -6 0 -4 0 
*
So

0100000
+3 0 *
Co

1100000
+2 0 *

+1 0 