DBRep_DrawableShape

CASCADE Topology V1, (c) Matra-Datavision
Locations 0
Curve2ds 34
1 0 0 1 0 
1 0 0 1 0 
1 1 0 0 -1 
1 0 0 0 1 
1 0 -1 1 0 
1 0 0 1 0 
1 0 0 0 -1 
1 0 0 0 1 
1 0 0 0 1 
1 0 0 1 0 
1 0 0 1 0 
1 0 2 1 0 
1 1 0 0 1 
1 0 0 1 0 
1 1 0 0 1 
1 0 1 1 0 
1 1 0 0 -1 
1 2 0 0 1 
1 0 0 0 1 
1 0 1 1 0 
1 0 -1 1 0 
1 0 2 1 0 
1 0 0 0 -1 
1 2 0 0 1 
1 0 0 1 0 
2 0 0 1 0 -0 1 0.25
1 4.7123889803846897 1.5707963267948966 0 -1 
1 0 -1.5707963267948966 1 0 
1 1.5707963267948966 -4.7123889803846897 -0 1 
1 0 1.5707963267948966 1 0 
1 6.2831853071795862 -0 0 1 
1 0 -0 0 1 
1 0 1 1 0 
2 0 0 1 0 -0 1 0.25
Curves 15
1 -1.1000000000000001 -0.5 -0.5 0 0 1 
1 -1.1000000000000001 -0.5 0.5 -0 1 0 
1 -1.1000000000000001 0.5 -0.5 0 0 1 
1 -1.1000000000000001 -0.5 -0.5 -0 1 0 
1 -1.1000000000000001 -0.5 -0.5 1 0 -0 
1 0.89999999999999991 -0.5 -0.5 0 0 1 
1 -1.1000000000000001 -0.5 0.5 1 0 -0 
1 -1.1000000000000001 0.5 0.5 1 0 -0 
1 0.89999999999999991 -0.5 0.5 -0 1 0 
1 -1.1000000000000001 0.5 -0.5 1 0 -0 
1 0.89999999999999991 0.5 -0.5 0 0 1 
1 0.89999999999999991 -0.5 -0.5 -0 1 0 
2 -0.5 0 0 1 0 0 -0 0 1 0 -1 0 0.25
1 -0.5 6.123233995736766e-17 0.25 1 0 0 
2 0.5 0 0 1 0 0 -0 0 1 0 -1 0 0.25
Polygon3D 0
PolygonOnTriangulations 0
Surfaces 10
1 -1.1000000000000001 -0.5 -0.5 1 0 -0 0 0 1 0 -1 0 
1 -1.1000000000000001 -0.5 -0.5 -0 1 0 0 0 1 1 0 -0 
1 -1.1000000000000001 -0.5 0.5 0 0 1 1 0 -0 -0 1 0 
1 -1.1000000000000001 0.5 -0.5 -0 1 0 0 0 1 1 0 -0 
1 -1.1000000000000001 -0.5 -0.5 0 0 1 1 0 -0 -0 1 0 
1 0.89999999999999991 -0.5 -0.5 1 0 -0 0 0 1 0 -1 0 
4 -0.5 0 0 0 0 1 1 0 -0 -0 1 0 0.25
2 -0.5 -0 0 1 0 0 -0 0 1 0 -1 0 0.25
1 -0.5 0 0 1 0 0 -0 0 1 0 -1 0 
1 0.5 0 0 1 0 0 -0 0 1 0 -1 0 
Triangulations 0

TShapes 51
Ve
1e-07
-1.1 -0.5 0.5
0 0

0101101
*
Ve
1e-07
-1.1 -0.5 -0.5
0 0

0101101
*
Ed
 1e-07 1 1 0
1  1 0 0 1
2  1 1 0 0 1
2  2 2 0 0 1
0

0101000
-51 0 +50 0 *
Ve
1e-07
-1.1 0.5 0.5
0 0

0101101
*
Ed
 1e-07 1 1 0
1  2 0 0 1
2  3 1 0 0 1
2  4 3 0 0 1
0

0101000
-48 0 +51 0 *
Ve
1e-07
-1.1 0.5 -0.5
0 0

0101101
*
Ed
 1e-07 1 1 0
1  3 0 0 1
2  5 1 0 0 1
2  6 4 0 0 1
0

0101000
-48 0 +46 0 *
Ed
 1e-07 1 1 0
1  4 0 0 1
2  7 1 0 0 1
2  8 5 0 0 1
0

0101000
-46 0 +50 0 *
Wi

0101100
-49 0 -47 0 +45 0 +44 0 *
Fa
0  1e-07 1 0

0111000
+43 0 *
Ve
1e-07
0.9 -0.5 -0.5
0 0

0101101
*
Ed
 1e-07 1 1 0
1  5 0 0 2
2  9 2 0 0 2
2  10 5 0 0 2
0

0101000
-41 0 +50 0 *
Ve
1e-07
0.9 -0.5 0.5
0 0

0101101
*
Ed
 1e-07 1 1 0
1  6 0 0 1
2  11 6 0 0 1
2  12 2 0 0 1
0

0101000
-39 0 +41 0 *
Ed
 1e-07 1 1 0
1  7 0 0 2
2  13 2 0 0 2
2  14 3 0 0 2
0

0101000
-39 0 +51 0 *
Wi

0101100
-40 0 -38 0 +37 0 +49 0 *
Fa
0  1e-07 2 0

0111000
+36 0 *
Ve
1e-07
0.9 0.5 0.5
0 0

0101101
*
Ed
 1e-07 1 1 0
1  8 0 0 2
2  15 4 0 0 2
2  16 3 0 0 2
0

0101000
-34 0 +48 0 *
Ed
 1e-07 1 1 0
1  9 0 0 1
2  17 6 0 0 1
2  18 3 0 0 1
0

0101000
-34 0 +39 0 *
Wi

0101100
-47 0 -33 0 +32 0 +37 0 *
Fa
0  1e-07 3 0

0111000
+31 0 *
Ve
1e-07
0.9 0.5 -0.5
0 0

0101101
*
Ed
 1e-07 1 1 0
1  10 0 0 2
2  19 4 0 0 2
2  20 5 0 0 2
0

0101000
-29 0 +46 0 *
Ed
 1e-07 1 1 0
1  11 0 0 1
2  21 6 0 0 1
2  22 4 0 0 1
0

0101000
-34 0 +29 0 *
Wi

0101100
-28 0 -27 0 +33 0 +45 0 *
Fa
0  1e-07 4 0

0111000
+26 0 *
Ed
 1e-07 1 1 0
1  12 0 0 1
2  23 6 0 0 1
2  24 5 0 0 1
0

0101000
-29 0 +41 0 *
Wi

0101100
-44 0 -28 0 +24 0 +40 0 *
Fa
0  1e-07 5 0

0111000
+23 0 *
Wi

0101100
-38 0 -32 0 +27 0 +24 0 *
Fa
0  1e-07 6 0

0111000
+21 0 *
Sh

0101100
-42 0 -35 0 +30 0 +25 0 -22 0 +20 0 *
Ve
1.00000000134311e-07
-0.5 2.04107799857892e-17 0.25
0 0

0101101
*
Ve
1.00000000050037e-07
-0.5 0 -0.25
0 0

0101101
*
Ed
 1.00000000013878e-07 1 1 0
1  13 0 0 3.14159265358979
2  25 8 0 0 3.14159265358979
2  26 9 0 0 3.14159265358979
2  27 7 0 0 3.14159265358979
0

0101000
+18 0 -17 0 *
Ed
 1e-07 1 1 1
2  28 7 0 1.5707963267949 4.71238898038469
0

0101000
+17 0 -17 0 *
Ed
 1.00000000050037e-07 1 1 0
1  13 0 3.14159265358979 6.28318530717959
2  25 8 0 3.14159265358979 6.28318530717959
2  26 9 0 3.14159265358979 6.28318530717959
2  29 7 0 3.14159265358979 6.28318530717959
0

0101000
+17 0 -18 0 *
Ed
 1e-07 1 1 1
2  30 7 0 1.5707963267949 4.71238898038469
0

0101000
+18 0 -18 0 *
Wi

0101100
-16 0 +15 0 -14 0 -13 0 *
Fa
0  1e-07 7 0

0101000
+12 0 *
Ve
1e-07
0.5 6.12323399573677e-17 0.25
0 0

0101101
*
Ed
 1e-07 1 1 0
1  14 0 0 1
3  31 32CN 8 0 0 1
0

0101000
+18 0 -10 0 *
Ed
 1e-07 1 1 0
1  15 0 0 6.28318530717959
2  33 8 0 0 6.28318530717959
2  34 10 0 0 6.28318530717959
0

0101000
+10 0 -10 0 *
Wi

0101100
+9 0 +14 0 +16 0 -9 0 -8 0 *
Fa
0  1e-07 8 0

0101000
+7 0 *
Wi

0101100
+8 0 *
Fa
0  1e-07 10 0

0111000
+5 0 *
Sh

0101100
-11 0 -6 0 -4 0 *
So

0100000
+19 0 +3 0 *
Co

1100000
+2 0 *

+1 0 