DBRep_DrawableShape

CASCADE Topology V1, (c) Matra-Datavision
Locations 2
1
              1               0               0               0 
              0               1               0               0 
              0               0               1              -1 
2  1 -1 0
Curve2ds 57
1 0 0 1 0 
1 0 0 1 0 
1 0.69999999999999996 0 0 -1 
1 0 0 0 1 
1 0 -1 1 0 
1 0 0 1 0 
1 0 0 0 -1 
1 0 0 0 1 
1 0 0 0 1 
1 0 0 1 0 
1 0 0 1 0 
1 0 2 1 0 
1 0.69999999999999996 0 0 1 
1 0 0 1 0 
1 0.69999999999999996 0 0 1 
1 0 1 1 0 
1 0.69999999999999996 0 0 -1 
1 2 0 0 1 
1 0 0 0 1 
1 0 1 1 0 
1 0 -1 1 0 
1 0 2 1 0 
1 0 0 0 -1 
1 2 0 0 1 
2 0.60000000000000009 0.5 1 0 -0 1 0.25
1 0 0 1 0 
8 -6.000000000172534e-07 1.0000005999999999
1 0.60000000000000009 0.25 1 0 
8 -6.000000000172534e-07 1.0000005999999999
1 1.5707963267948966 0 0 1 
8 0 0.5
1 1.6000000000000001 0.25 0 1 
8 0 0.5
1 0 0.25 0 -1 
8 -6.000000000172534e-07 1.0000005999999999
1 0.60000000000000009 0.75 1 0 
8 -6.000000000172534e-07 1.0000005999999999
1 4.7123889803846897 0 0 1 
1 0 1.5707963267948966 1 0 
1 0 0 1 0 
2 0 0 1 0 -0 1 0.25
1 4.7123889803846897 1.5707963267948966 0 -1 
1 1.5707963267948966 -4.7123889803846897 -0 1 
1 0 1 1 0 
2 0 0 1 0 -0 1 0.25
1 6.2831853071795862 -0 0 1 
1 0 -0 0 1 
7 0 0  7 8 2  0.33881235569190027 0.15999999999999998  0.27351456648814199 0.15502022985826336  0.21350173528795544 0.15143991799681428  0.15923169967468556 0.14944941219259242  0.11092229122647734 0.149083792303527  0.068561365365494092 0.15021324506608921  0.031797065265256094 0.15256985637296119  0 0.15580341485106755 
 0 8 1 8
7 0 0  7 8 2  9 -0.26421248384878387  8.9170038309710566 -0.25878677300782305  8.829204842574411 -0.25497309784245137  8.7372591181970698 -0.25250560542570294  8.641816982456664 -0.25105059924280615  8.5435143271338134 -0.25029487278807627  8.4430244469829496 -0.25  8.3410285844064624 -0.25 
 0 8 1 8
7 0 0  7 86 15  0.31432940256488356 0.67999999999999983  0.31213104125911217 0.66647633619277535  0.30853821379253882 0.65432007036626616  0.30378042938888478 0.64339414724778454  0.29810805682334962 0.63354182061467179  0.2917770760726946 0.62459518722178242  0.28504103033063288 0.61638047698830822  0.27556405586392485 0.60584517554760908  0.27295619635724039 0.60304840555484651  0.27033987277900784 0.60032042797239582  0.26772831716669226 0.59765184245880609  0.26513472068469135 0.59503320982443575  0.26257223362433507 0.59245505203145099  0.25841907492351729 0.58825417895429222  0.25680256547852648 0.58661369727385659  0.25520933199446533 0.58498309777061153  0.25364046566471415 0.58336113156279068  0.25210096072329768 0.58174442494147272  0.25059735821859791 0.58012875880545844  0.23996726635866938 0.56848107029392536  0.23205184462490708 0.55854058099086423  0.22519764010780316 0.54863162136136701  0.21922601352516161 0.53869062649851773  0.21396048825046579 0.52865348025273207  0.20922613077188121 0.51845580530824187  0.20168744392217527 0.50050543455077168  0.19871563141726725 0.49286105950757592  0.1959847777760293 0.48510007368633179  0.19354611542302874 0.47722248605002304  0.19145082506790509 0.4692283689682758  0.18975003570536991 0.4611178582173579  0.18801180812420498 0.44972544298342271  0.18759477781018555 0.44654252961009561  0.18724664867222243 0.44334242567378201  0.18697033778256161 0.4401251466267993  0.18676876428662112 0.43689071056019735  0.186644849402991 0.43363913820375993  0.1865575569620106 0.4270545109843597  0.18659588485627784 0.42372075644638602  0.18672168494606886 0.42036988231092953  0.18694103479668087 0.41700286431935651  0.18726040497696692 0.41362080487538844  0.18768615933742852 0.4102247769649382  0.18970002140324924 0.397461202413806  0.19202125509759385 0.38800865004693902  0.19531494138346819 0.37847871207154171  0.19970849103785554 0.36889269978044731  0.20532993871450061 0.35927248319109933  0.21230834105581395 0.34964043957352597  0.22730576825483337 0.3325965410997474  0.23472303444158801 0.32518037654121013  0.2428993266442836 0.31778440943573633  0.25171025214831139 0.31042165644987146  0.26103275174819313 0.3031046996961802  0.2707441792505631 0.29584573664575375  0.28467790818108418 0.28580574092027283  0.28867619370465025 0.28296585480886111  0.29270855185871764 0.28013772026734191  0.29676724513690295 0.27732208567186939  0.30084448421557164 0.27451969921389352  0.30493242795383713 0.27173130890015906  0.31278968147162889 0.26640387174539615  0.31655902927190904 0.26386270876541335  0.32032192588171238 0.2613339228943784  0.32408142656308969 0.25882058203839853  0.3278149856314575 0.25631893771807401  0.33153452559784546 0.25383447178576946  0.33910975636326046 0.24875705836004713  0.34295946922754811 0.24616518683409572  0.34673769872356053 0.2435828480159262  0.35041238641070593 0.24100435200539591  0.35395093273198253 0.23842403110893221  0.35732019701397844 0.23583623983953239  0.36844112298404857 0.22670121013748618  0.37511355117089745 0.22008514632337883  0.37997359633980821 0.21329638153269323  0.3824599361329783 0.20624924264409575  0.38200335006844582 0.19886273802375135  0.37809108550835252 0.19106665461257674  0.36750825761950739 0.17975203756747729  0.36412038308404782 0.17662729423466925  0.36019054028490477 0.17343763626870018  0.35570410241830885 0.1701812192246763  0.35065000303487676 0.16685666737934798  0.34502073603961103 0.16346307373110977  0.33881235569190027 0.15999999999999995 
 0 8 0.10644419439019573 6 0.14639248105178429 6 0.17232739657813767 6 0.33367824729784046 6 0.45021591936301908 6 0.49506066131247717 6 0.54055374126860978 6 0.66538502949431189 6 0.76169535742119854 6 0.79988787300871689 6 0.83505302494130118 6 0.87216582516446273 6 0.96540347966415685 6 1 8
7 0 0  7 86 15  6 -0.26224901818938789  5.9098422412851699 -0.26207909651176664  5.8193173492339332 -0.26180273397731491  5.7285294575849788 -0.26144071166864685  5.6375594679671943 -0.26101758547278725  5.5464641509230024 -0.26055747438179372  5.4552754566293258 -0.26008176744952111  5.3297445579116376 -0.25943122670762647  5.2954777547052485 -0.25925408791779414  5.2612004837311064 -0.25907830239500873  5.2269134928986265 -0.25890477932805517  5.1926174199925299 -0.25873436773452407  5.1583127926728407 -0.25856785646081193  5.1017237629497112 -0.25830087822998088  5.0794440919226114 -0.25819771821842186  5.0571611649189725 -0.2580967735818977  5.0348751206467819 -0.25799808320758538  5.0125861323034782 -0.25790191504124926  4.9902943899529646 -0.2578086225202933  4.8292983704952723 -0.25715339327035064  4.6904971893566119 -0.25668915368005435  4.5516298492403271 -0.2563026690871873  4.4127249650266469 -0.25597626516661576  4.2738064018621627 -0.25569584988922645  4.1348932832295224 -0.25544967016715625  3.8956825855333741 -0.25506629165721167  3.7953764632047853 -0.25491808568777541  3.6950804225706704 -0.2547842871195895  3.5947940286826685 -0.25466668263777109  3.4945176211047282 -0.25456700908367813  3.3942523139131131 -0.25448695345491007  3.2554220040427686 -0.25440552592617927  3.2168459574895505 -0.2543860578282095  3.1782719754943818 -0.2543698501438616  3.1397002035991126 -0.2543570114514177  3.1011308134298008 -0.25434765737497889  3.0625640026967114 -0.2543419105844647  2.9848784527242387 -0.25433786195045677  2.945759826474426 -0.25433964008698068  2.906644236913611 -0.25434547224085963  2.8675318078494336 -0.25435564617342754  2.8284227034773091 -0.25437048230200549  2.7893171654293054 -0.25439031563022946  2.6429221976792086 -0.25448452138541749  2.5356594015912686 -0.25459370402449905  2.4284323297692048 -0.25475036061062811  2.3212527252338933 -0.25496304367682054  2.2141389443797812 -0.25524280460213111  2.1071159955375891 -0.25560447493968236  1.9177393453399918 -0.25642552811152403  1.8353378431504606 -0.25684371194149053  1.7530081988898389 -0.25732156361141062  1.6707437540151291 -0.25785781597096974  1.5885339407795025 -0.25845023746572565  1.5063641594928814 -0.25909499926011309  1.3916391079087471 -0.26006008020196963  1.3590660952440288 -0.26034139642415199  1.3264955522289648 -0.26062962080274565  1.2939263824766503 -0.26092432680335098  1.2613574587726788 -0.26122503158141908  1.2287876230751424 -0.26153119598225172  1.1662255934225914 -0.26212859914491426  1.1362337786726195 -0.2624191352058669  1.1062390386520817 -0.26271310774769557  1.0762412648943216 -0.26301077216653557  1.0462381181660052 -0.26331023386957692  1.0162302922767246 -0.26361240152670984  0.95453873285788882 -0.26423542070967793  0.92285429305397959 -0.2645562171194844  0.89115886517345566 -0.26487512465250951  0.8594494669213909 -0.2651891455238492  0.82772365195390118 -0.26549506572054088  0.79597950987814436 -0.26578945500156431  0.684416075282129 -0.2667701246741534  0.60450136388723852 -0.26737570812749673  0.52443162931154697 -0.26782896494411984  0.44424623209847536 -0.26806512237409408  0.36406252604959449 -0.26802064465784209  0.28407601249553205 -0.26765031494804981  0.17505762716840584 -0.26669266807949915  0.14562033195494278 -0.26638833855855965  0.11626549700556146 -0.26603864802863614  0.087009156510349211 -0.26564425737535996  0.057867915082686759 -0.26520669350549936  0.028858947759247983 -0.26472834934695977  0 -0.26421248384878387 
 0 8 0.10644419439019573 6 0.14639248105178429 6 0.17232739657813767 6 0.33367824729784046 6 0.45021591936301908 6 0.49506066131247717 6 0.54055374126860978 6 0.66538502949431189 6 0.76169535742119854 6 0.79988787300871689 6 0.83505302494130118 6 0.87216582516446273 6 0.96540347966415685 6 1 8
7 0 0  5 14 4  0 0.58307677583666351  0.0052500764972109861 0.5849410553458203  0.010639842454516855 0.58681500965673972  0.016176122851060282 0.58869962442890877  0.021865602668791041 0.59059584459934056  0.042716409711342732 0.59739991893205557  0.058768748324569117 0.60237750774276677  0.075821961326137957 0.60749450068259281  0.093833223303732671 0.612805081982845  0.14728338227396742 0.62848814108422724  0.18486413433187562 0.6394289579984247  0.2252986979727826 0.65149217943139337  0.26845462913572815 0.66494865029325545  0.31432940256488356 0.67999999999999994 
 0 6 0.12135495306801942 4 0.43259560812141484 4 1 6
7 0 0  5 14 4  1.1416575003129936 -0.25  1.1132498528307351 -0.25  1.0848709062709232 -0.25000861446120648  1.056523148817393 -0.25002675639887828  1.0282092842369943 -0.25005548543695982  0.92740970126838262 -0.25019993606987218  0.85512961921983788 -0.25038141266728975  0.78311093904303841 -0.25065987008311874  0.71137236536663706 -0.25105522117776491  0.5096943037159678 -0.25255887998005916  0.3804534963089346 -0.25398594510551142  0.25231468586334066 -0.25599274992448612  0.12542791422287089 -0.25870314133961336  0 -0.26224901818938789 
 0 6 0.12135495306801942 4 0.43259560812141484 4 1 6
7 0 0  8 114 17  6.2831853071795862 0.15580341485106761  6.2759666258053786 0.15653750864757343  6.2689975848236665 0.15731602188846755  6.2622709298486834 0.15813515651367854  6.2557788474995455 0.15899099445770934  6.2495129654002683 0.15987949764963699  6.2434643521797568 0.16079650801311277  6.2376235174718033 0.16173774746636205  6.227696696292389 0.16342837232884119  6.2235269615167477 0.1641693702331915  6.2194668284329948 0.1649198988397689  6.2155117909563948 0.16567802698296341  6.2116572160726493 0.16644180512702111  6.2078983438379023 0.16720926536604455  6.2042302873787349 0.16797842142399241  6.1950993261697578 0.16993816891411623  6.189754896586356 0.17112732853254897  6.1846046750120953 0.17231267666013075  6.1796466834972605 0.17349746314475248  6.1748738127079932 0.17468181569012542  6.1702776369223029 0.17586516890569204  6.1658539843583986 0.17704980632830578  6.1571951648692407 0.17946091677153148  6.1529713106999449 0.18068762194219529  6.1489159536246651 0.18191671272559851  6.1450214731989705 0.18314904124484055  6.141280093008783 0.18438547102813502  6.1376838806703766 0.18562687700880959  6.1342247478303822 0.1868741455253059  6.1249002706363971 0.19038529200089416  6.1193235831826414 0.19266428405937652  6.1141164052800461 0.19497039728549054  6.109229600705099 0.19730893601245378  6.1046130746055276 0.1996852532475803  6.1002159685706161 0.20210474180202306  6.0959868557015087 0.2045728254205163  6.090562783600765 0.20789897448676634  6.0892634810602155 0.20870848554066582  6.0879742954378351 0.20952366335743799  6.0866935191665803 0.21034468558394379  6.0854194697343713 0.2111717272292834  6.0841504896841165 0.21200496066479552  6.0828849466136985 0.21284455562405816  6.0723505308373733 0.21989790910709892  6.063205991793458 0.22645406951475583  6.0543228078411264 0.23335943258486547  6.0458387580708202 0.24061431077877168  6.0378938747349382 0.24821899173085832  6.0306301091162693 0.25617367311925299  6.024190997396409 0.2644783975365303  6.0141964802792023 0.28029259333698464  6.010337753834186 0.28769282352516506  6.0070958432964519 0.29526838851897408  6.0044205182641406 0.30295415794598923  6.0022608107216762 0.31068511371427604  6.0005652039352073 0.31839630325931711  5.9992818213480517 0.32602279279094032  5.9981457108179264 0.33522388541429243  5.9979519651171298 0.3369401911342797  5.9977767332620262 0.33864773193820535  5.9976193725513838 0.3403457051472138  5.997479242694447 0.34203331116559815  5.9973557058109437 0.34370975348080041  5.9972481264310868 0.34537423866341155  5.9967908378187955 0.35356156043830533  5.9966675377796221 0.35989981059847553  5.9967964363950035 0.36605275584232483  5.997187832247489 0.37203248026164765  5.9978518574852329 0.37785112304539131  5.9987984778219827 0.38352087847965471  6.0000374925370785 0.38905399594768908  6.0022079995285447 0.39667209066418574  6.0028880927499326 0.39886077355969124  6.0036184518309499 0.40102916347411421  6.0044010705811148 0.40317876548936504  6.0052367197871659 0.40531048299699557  6.0061244615470191 0.40742437715591545  6.0070642570786417 0.40952095772239577  6.0111198672170492 0.41798243231974908  6.0147228556473822 0.42423205931299052  6.0189874151542675 0.43042560031443827  6.024027902444975 0.43663577359660777  6.0299562490060445 0.44293498976840284  6.0368809610347176 0.4493950399213425  6.0449061193703795 0.45608678377578921  6.0610837675433382 0.46835130878005593  6.068722673543224 0.47379598674718632  6.0769671789803104 0.47938253034625905  6.0857391022980041 0.48507994633062318  6.0949620722983164 0.49085757507934141  6.1045616016117288 0.49668507608724466  6.1144651601670521 0.50253241345498778  6.1285097522198217 0.51061997171969109  6.1324519203855239 0.51286861539000161  6.1364246979160146 0.51511406172156871  6.1404240542950497 0.51735460054671167  6.1444459837325205 0.51958852219853757  6.1484865051644597 0.52181411751094031  6.1525416622530402 0.52402967781860099  6.1609456993389173 0.52858491479133696  6.1652972891613738 0.5309232532892868  6.169643507723606 0.5332431586511267  6.1740334580915404 0.53555513663205923  6.1784430321515273 0.53785261903046666  6.1829072025209815 0.54014283554449383  6.1874260135297421 0.54242487488854307  6.2016517314900517 0.54948326842216655  6.2115916006990926 0.55423939783259335  6.2219358081365801 0.55898502399730887  6.2327853486715235 0.56373542768226548  6.2442393693366407 0.56850556639168537  6.2563948475323556 0.57330996279918767  6.2693462692307582 0.57816259317891538  6.2831853071795862 0.5830767758366634 
 0 9 0.026811354352869177 7 0.047164015906531118 7 0.078689121229231385 7 0.11125651554281454 7 0.16987434132901646 7 0.18856103688223763 7 0.32564812244626629 7 0.43905494323007943 7 0.46520820021432385 7 0.56869122258854654 7 0.61096064079788048 7 0.74039234955689182 7 0.83795994850449551 7 0.87556894642344651 7 0.91569684184464017 7 1 9
7 0 0  8 114 17  8.3410285844064607 -0.25  8.317873125646825 -0.25  8.2946378011357194 -0.25001488444916348  8.2713286346515513 -0.25004285867481746  8.2479513250198551 -0.25008229097788315  8.2245112461132894 -0.25013171263287548  8.2010134468516398 -0.2501898178879034  8.1774626512018127 -0.25025546396466952  8.1359488159319646 -0.25038248390091666  8.1180063717168771 -0.25044107225613726  8.1000378322010196 -0.25050300716930068  8.0820450017162155 -0.25056790540279333  8.0640295822576569 -0.25063542943622075  8.0459931734839394 -0.25070528746640686  8.0279372727170379 -0.25077723340739411  7.9818676891095803 -0.25096543072061617  7.9538288797755285 -0.25108434958175663  7.9257508398960974 -0.2512069050762975  7.8976358165228211 -0.25133212309844122  7.8694868507586326 -0.25145923827686345  7.8413069994239351 -0.25158761057569473  7.8130982680279839 -0.25171660561366693  7.755694790895646 -0.25197916471369258  7.7264982438247305 -0.25211272650208894  7.697276232345672 -0.25224590397558094  7.6680311804969357 -0.25237825184881046  7.6387653474376354 -0.25250941120197362  7.6094808274475421 -0.25263910948082136  7.5801795499270783 -0.25276716049665893  7.4980971286249209 -0.25312079798810544  7.445282895206307 -0.25334243852558447  7.3924303384280234 -0.25355773964004585  7.3395482196476962 -0.25376676695498485  7.2866442816540893 -0.25397020341741272  7.2337252280271374 -0.25416925459913864  7.1807967024980073 -0.25436555399805311  7.1109886920858374 -0.25462339608569301  7.0941136626536174 -0.25468564258132409  7.0772383517574786 -0.25474787513421387  7.0603629266110115 -0.25481016325302869  7.0434875498963905 -0.25487257864719121  7.0266123797643818 -0.25493519522688024  7.0097375698343436 -0.25499808910303096  6.8690720569332191 -0.25552534183723535  6.7453075380670215 -0.25600702481845672  6.6215590078574103 -0.25649862038104299  6.4978183502772984 -0.25698992755406369  6.3740800474018888 -0.25746882481589828  6.2503411887998066 -0.2579217833645196  6.126601480924271 -0.25833438038777801  5.9004994300126681 -0.25898750189820741  5.7981388844088793 -0.2592453012487001  5.6957800599043305 -0.25946553602120859  5.5934200670755958 -0.25964950895508315  5.491054671720069 -0.25979931012515933  5.388678279711729 -0.25991762717393707  5.2862839218568558 -0.26000755554375987  5.160243544384941 -0.26008736478910421  5.1366225042479012 -0.26010098734751291  5.113000031667414 -0.26011331794099651  5.0893760412495315 -0.26012439850351904  5.0657504488776155 -0.26013427134623307  5.0421231717123343 -0.26014297915747947  5.0184941281916577 -0.26015056500278755  4.9013606988746368 -0.26018282045091357  4.8078295993179312 -0.26019157225935474  4.7142732887569103 -0.26018246885364149  4.6206950745265951 -0.26015477131530534  4.5270982219008564 -0.26010786070396752  4.4334859540924185 -0.26004123805733775  4.3398614522528645 -0.25995452439121502  4.2079816043490803 -0.25980372869536877  4.1697338730416744 -0.2597565885835656  4.1314847857964887 -0.25970609385513838  4.0932346635495671 -0.25965214330056002  4.0549837324723512 -0.25959472261695349  4.0167320844337899 -0.25953393722463314  3.9784798893791375 -0.25946983629295201  3.8230976557034952 -0.25919439449541626  3.7059702135521579 -0.25895223710271503  3.5888577566967945 -0.25866938671799872  3.4717765746268054 -0.25834056251627902  3.3547469371752974 -0.25796206203785815  3.2377930088987719 -0.25753245129925717  3.1209427634567946 -0.25705325490414488  2.9162464497506742 -0.25613494188122904  2.8283444460976077 -0.25571475744675409  2.7405174142143225 -0.25527836709328977  2.6527591361873863 -0.2548346244949381  2.5650616449697217 -0.25439175749938908  2.477415220342241 -0.25395716286985437  2.3898083848754799 -0.25353720102700106  2.2684685954393284 -0.25298272332812582  2.2347133487142568 -0.25283139451456987  2.2009614674207243 -0.25268330288722524  2.1672122531695321 -0.25253872152629936  2.1334650014775711 -0.25239789805520046  2.0997190017678249 -0.25226105464053705  2.0659735373693686 -0.25212838799211801  1.9962220873475995 -0.25186315647463747  1.9602162693351186 -0.2517311580920833  1.9242073700637534 -0.25160469853880052  1.8882030058491579 -0.25148228022080371  1.8521993534694219 -0.25136486828680887  1.8162018613228141 -0.25125157329216102  1.780210604568861 -0.25114273512421809  1.6686331276195603 -0.25081893867498695  1.5930771919809676 -0.25061910294576728  1.5175755756794012 -0.25043947063195288  1.4421471639546359 -0.250282316572084  1.3668141474008442 -0.25015187712398285  1.291601952694692 -0.25005470098295646  1.2165391733234308 -0.25  1.141657500312995 -0.25 
 0 9 0.026811354352869177 7 0.047164015906531118 7 0.078689121229231385 7 0.11125651554281454 7 0.16987434132901646 7 0.18856103688223763 7 0.32564812244626629 7 0.43905494323007943 7 0.46520820021432385 7 0.56869122258854654 7 0.61096064079788048 7 0.74039234955689182 7 0.83795994850449551 7 0.87556894642344651 7 0.91569684184464017 7 1 9
1 0 0 1 0 
1 0 -1 1 0 
1 9 0 0 -1 
1 0 0 0 -1 
1 0 0 0 -1 
1 6 0 0 -1 
1 0 0 1 0 
1 0 -1 1 0 
Curves 27
1 -1.1000000000000001 -0.5 0 0 0 1 
1 -1.1000000000000001 -0.5 0.69999999999999996 -0 1 0 
1 -1.1000000000000001 0.5 0 0 0 1 
1 -1.1000000000000001 -0.5 0 -0 1 0 
1 -1.1000000000000001 -0.5 0 1 0 -0 
1 0.89999999999999991 -0.5 0 0 0 1 
1 -1.1000000000000001 -0.5 0.69999999999999996 1 0 -0 
1 -1.1000000000000001 0.5 0.69999999999999996 1 0 -0 
1 0.89999999999999991 -0.5 0.69999999999999996 -0 1 0 
1 -1.1000000000000001 0.5 0 1 0 -0 
1 0.89999999999999991 0.5 0 0 0 1 
1 0.89999999999999991 -0.5 0 -0 1 0 
2 -0.5 0 0 0 0 1 1 0 -0 -0 1 0 0.25
1 -0.5 -0.25 0 1 0 0 
1 0.5 -0.25 0 0 1 0 
1 -0.5 0.25 0 1 0 0 
2 -0.5 0 0 1 0 0 -0 0 1 0 -1 0 0.25
2 0.5 0 0 1 0 0 -0 0 1 0 -1 0 0.25
1 -0.5 6.123233995736766e-17 0.25 1 0 0 
7 0 0  7 8 2  -0.34000000000000002 -0.083091799999999993 0.23578751615121613  -0.34497977014173664 -0.067695396473480135 0.24121322699217695  -0.34856008200318583 -0.053131764379434246 0.24502690215754866  -0.35055058780740733 -0.039736665968614984 0.24749439457429706  -0.35091620769647336 -0.027717553162698499 0.24894940075719385  -0.34978675493391059 -0.017140318247552119 0.24970512721192373  -0.34743014362703883 -0.007949266316314027 0.25  -0.34419658514893248 0 0.25 
 0 8 1 8
7 0 0  7 86 15  0.17999999999999997 -0.077294700000000008 0.23775098181061208  0.16647633619277544 -0.076772037441178359 0.23792090348823333  0.15432007036626622 -0.075917402213143734 0.23819726602268507  0.14339414724778457 -0.07478437709120897 0.23855928833135318  0.13354182061467176 -0.073430820312627473 0.23898241452721278  0.12459518722178238 -0.071916333057323964 0.23944252561820628  0.11638047698830818 -0.070300849425059195 0.23991823255047892  0.10584517554760907 -0.068022667681145885 0.24056877329237353  0.10304840555484655 -0.06739522494505551 0.24074591208220592  0.10032042797239575 -0.066765203173319868 0.24092169760499127  0.097651842458806135 -0.066135790570062691 0.2410952206719448  0.09503320982443568 -0.065510181070968912 0.24126563226547587  0.092455052031450866 -0.064891574343284603 0.24143214353918804  0.088254178954292134 -0.063888196012893486 0.24169912177001912  0.086613697273856302 -0.063497456279082015 0.24180228178157814  0.084983097770611832 -0.0631121503526961 0.24190322641810227  0.083361131562790999 -0.062732551897414821 0.24200191679241459  0.081744424941472715 -0.06235988296603006 0.24209808495875071  0.080128758805458319 -0.061995742630167015 0.24219137747970668  0.068481070293925181 -0.059420261521824912 0.24284660672964939  0.058540580990864344 -0.057496492072806306 0.24331084631994557  0.048631621361367283 -0.055826972291607366 0.2436973309128127  0.038690626498517601 -0.054370140244160162 0.24402373483338427  0.02865348025273182 -0.05308396641865875 0.24430415011077361  0.018455805308241861 -0.051926232974574105 0.24455032983284383  0.00050543455077172513 -0.050080966494703706 0.2449337083427883  -0.0071389404924240762 -0.049352940577591722 0.24508191431222454  -0.014899926313668229 -0.048683459944743782 0.24521571288041047  -0.022777513949976937 -0.048085239697859501 0.24533331736222896  -0.030771631031724256 -0.047570985335927539 0.2454329909163219  -0.038882141782642134 -0.047153392755225634 0.24551304654508996  -0.050274557016577279 -0.046726532997448021 0.24559447407382071  -0.053457470389904414 -0.04662410918342582 0.2456139421717905  -0.056657574326217951 -0.046538599341436303 0.2456301498561384  -0.059874853373200809 -0.046470725177060745 0.2456429885485823  -0.063109289439802679 -0.046421207567279334 0.24565234262502114  -0.066360861796240123 -0.046390766560471156 0.2456580894155353  -0.072945489015640241 -0.046369322290760122 0.2456621380495432  -0.076279243553613832 -0.046378737838960182 0.24566035991301932  -0.079630117689070384 -0.046409642358872474 0.2456545277591404  -0.082997135680643527 -0.046463527775154431 0.24564435382657249  -0.086379195124611577 -0.046541979825851267 0.24562951769799454  -0.089775223035061691 -0.046646554288984378 0.24560968436977057  -0.102538797586194 -0.047141127642440585 0.24551547861458251  -0.11199134995306095 -0.047711087838388011 0.24540629597550098  -0.12152128792845829 -0.048519448061043691 0.24524963938937189  -0.13110730021955272 -0.049597053200731496 0.24503695632317951  -0.14072751680890072 -0.050974370287710007 0.24475719539786889  -0.150359560426474 -0.052681180005844923 0.24439552506031761  -0.1674034589002526 -0.056339533201051291 0.24357447188847597  -0.17481962345878982 -0.058146115618168348 0.24315628805850947  -0.18221559056426367 -0.06013368777928018 0.24267843638858941  -0.18957834355012862 -0.062270368201388031 0.24214218402903023  -0.19689530030381985 -0.064524687253664934 0.2415497625342744  -0.20415426335424619 -0.066865552814273838 0.24090500073988691  -0.21419425907972717 -0.070212628985350994 0.23993991979803031  -0.21703414519113881 -0.071171808965756964 0.23965860357584803  -0.21986227973265815 -0.072137835029370254 0.23937037919725435  -0.22267791432813061 -0.073108788497625657 0.23907567319664902  -0.22548030078610645 -0.074082752852426062 0.23877496841858095  -0.22826869109984096 -0.075057813736142523 0.23846880401774828  -0.23359612825460382 -0.076929079755157212 0.23787140085508576  -0.23613729123458821 -0.077825519820035854 0.2375808647941331  -0.23866607710561724 -0.078719147145252216 0.2372868922523044  -0.24117941796160647 -0.079610658062256354 0.23698922783346446  -0.24368106228192377 -0.080494720072511822 0.23668976613042308  -0.24616552821423054 -0.081374149727117026 0.23638759847329016  -0.25124294163995287 -0.0831625441661277 0.23576457929032202  -0.25383481316590423 -0.08406994737086286 0.2354437828805156  -0.25641715198407378 -0.084959056214504544 0.23512487534749044  -0.25899564799460412 -0.085822406605571985 0.23481085447615083  -0.26157596889106782 -0.086652475092733147 0.23450493427945909  -0.26416376016046766 -0.087441678864804695 0.2342105449984356  -0.27329878986251382 -0.090043211902313638 0.2332298753258466  -0.27991485367662117 -0.091597650562766739 0.23262429187250327  -0.28670361846730674 -0.092724946699764041 0.23217103505588016  -0.29375075735590428 -0.093299966517940522 0.23193487762590595  -0.30113726197624863 -0.093194854560443324 0.23197935534215791  -0.30893334538742323 -0.092289476838437648 0.23234968505195019  -0.32024796243252268 -0.08982316828962171 0.23330733192050085  -0.32337270576533073 -0.089032774171188961 0.23361166144144038  -0.32656236373129982 -0.088114637559349854 0.23396135197136386  -0.32981878077532378 -0.087064610817331661 0.23435574262463996  -0.3331433326206521 -0.085879218745530034 0.23479330649450061  -0.33653692626889026 -0.08455565858150875 0.2352716506530402  -0.33999999999999997 -0.08309179999999998 0.23578751615121615 
 0 8 0.10644419439019573 6 0.14639248105178429 6 0.17232739657813767 6 0.33367824729784046 6 0.45021591936301908 6 0.49506066131247717 6 0.54055374126860978 6 0.66538502949431189 6 0.76169535742119854 6 0.79988787300871689 6 0.83505302494130118 6 0.87216582516446273 6 0.96540347966415685 6 1 8
7 0 0  5 14 4  0.083076775836663508 0 0.25  0.084941055345820263 -0.0013125191243027468 0.25  0.086815009656739828 -0.0026599599105942952 0.24999138553879349  0.088699624428908747 -0.0040439560076070856 0.24997324360112166  0.090595844599340475 -0.0054660752690909257 0.2499445145630402  0.09739991893205556 -0.010676775189447979 0.24980006393012788  0.10237750774276674 -0.014686339900183882 0.24961858733271028  0.10749450068259288 -0.018941865481537489 0.24934012991688123  0.11280508198284504 -0.023428658398200047 0.24894477882223512  0.12848814108422724 -0.036706326814670752 0.24744112001994084  0.13942895799842486 -0.045999993742082454 0.2460140548944886  0.15149217943139315 -0.055924292211629381 0.24400725007551388  0.16494865029325551 -0.066387927576878919 0.24129685866038664  0.17999999999999999 -0.077294699999999994 0.23775098181061211 
 0 6 0.12135495306801942 4 0.43259560812141484 4 1 6
7 0 0  8 114 17  -0.34419658514893248 3.061616997868383e-17 0.25  -0.3434624913524264 0.0018046703435518898 0.25  -0.34268397811153245 0.0035469230239020735 0.24998511555083663  -0.34186484348632146 0.0052284438374625925 0.2499571413251826  -0.34100900554229069 0.0068510836915315646 0.24991770902211688  -0.34012050235036295 0.0084168586042932241 0.24986828736712449  -0.33920349198688721 0.0099279497048179108 0.24981018211209657  -0.33826225253363795 0.011386703233062076 0.24974453603533037  -0.33657162767115872 0.013865155795912317 0.24961751609908336  -0.33583062976680855 0.014905953806372095 0.24955892774386271  -0.33508010116023118 0.015919115138022355 0.2494969928306994  -0.3343219730170367 0.01690576402747301 0.24943209459720667  -0.33355819487297894 0.017867058381169167 0.24936457056377925  -0.33279073463395548 0.018804189775391122 0.24929471253359317  -0.33202157857600761 0.019718383456254339 0.24922276659260592  -0.33006183108588372 0.02199335269973585 0.24903456927938386  -0.3288726714674518 0.023324186511134892 0.24891565041824337  -0.327687323339868 0.024605936346337193 0.24879309492370252  -0.32650253685524766 0.025839133696137544 0.24866787690155878  -0.32531818430987591 0.027025595412785638 0.24854076172313658  -0.32413483109430707 0.02816746984903375 0.24841238942430524  -0.32295019367169425 0.029265846417967638 0.24828339438633309  -0.32053908322846858 0.03141456927192264 0.2480208352863075  -0.31931237805780471 0.032462064427540474 0.24788727349791106  -0.31808328727440149 0.033467138662087628 0.24775409602441903  -0.3168509587551594 0.034431743593417628 0.24762174815118951  -0.31561452897186498 0.035357865560450653 0.24749058879802635  -0.31437312299119047 0.036247525623173391 0.24736089051917862  -0.3131258544746941 0.037102779562639132 0.24723283950334099  -0.30961470799910579 0.03940691881807986 0.24687920201189453  -0.30733571594062353 0.040783396531007127 0.2466575614744155  -0.30502960271450952 0.042067309429018068 0.24644226035995412  -0.30269106398754625 0.043271035275144365 0.24623323304501513  -0.3003147467524197 0.044407123424796448 0.24602979658258731  -0.29789525819797696 0.045488247064379102 0.24583074540086139  -0.29542717457948375 0.04652715544990705 0.24563444600194695  -0.29210102551323358 0.04785843391156356 0.24537660391430696  -0.29129151445933416 0.048177239955291093 0.24531435741867588  -0.29047633664256195 0.048493471617470862 0.2452521248657861  -0.28965531441605613 0.048807549450581786 0.24518983674697128  -0.28882827277071671 0.049119887218913777 0.24512742135280877  -0.28799503933520459 0.049430891898567877 0.2450648047731197  -0.28715544437594193 0.049740963677456201 0.24500191089696904  -0.28010209089290106 0.05232124937647336 0.24447465816276467  -0.27354593048524434 0.054556212576981102 0.24399297518154328  -0.26664056741513459 0.056722120438045046 0.24350137961895701  -0.25938568922122823 0.05878565604854899 0.24301007244593623  -0.25178100826914157 0.060713451696895689 0.24253117518410169  -0.24382632688074693 0.0624720898628617 0.24207821663548038  -0.2355216024634697 0.064028104209452555 0.24166561961222191  -0.21970740666301525 0.066439863021605816 0.24101249810179259  -0.21230717647483494 0.067369475068903867 0.2407546987512999  -0.20473161148102587 0.068149472211552584 0.24053446397879152  -0.19704584205401077 0.068792510639535551 0.24035049104491688  -0.18931488628572393 0.069311239329070573 0.24020068987484067  -0.18160369674068294 0.069718292133761309 0.24008237282606296  -0.17397720720905965 0.070026279875748748 0.23999244445624016  -0.16477611458570759 0.070298864138681652 0.23991263521089576  -0.1630598088657203 0.070345345460512784 0.23989901265248709  -0.1613522680617947 0.070387382281492786 0.23988668205900351  -0.15965429485278629 0.070425129743331108 0.23987560149648088  -0.1579666888344019 0.070458742250310319 0.2398657286537669  -0.15629024651919954 0.070488373469285992 0.23985702084252047  -0.15462576133658837 0.070514176329686776 0.23984943499721248  -0.14643843956169467 0.070623853769251552 0.2398171795490866  -0.14010018940152441 0.070653410802550623 0.23980842774064531  -0.13394724415767525 0.070622498905395209 0.23981753114635868  -0.12796751973835233 0.070528651422197525 0.23984522868469466  -0.12214887695460871 0.07036941025979844 0.23989213929603245  -0.11647912152034533 0.070142325887467424 0.23995876194266225  -0.11094600405231096 0.069844957336902533 0.24004547560878498  -0.10332790933581433 0.06932370457133219 0.2401962713046312  -0.1011392264403084 0.069160346846186951 0.24024341141643443  -0.098970836525885827 0.068984877932428371 0.24029390614486174  -0.09682123451063529 0.068796808395656078 0.24034785669943998  -0.094689517003004472 0.06859594203478131 0.24040527738304659  -0.092575622844084104 0.068382492810732678 0.24046606277536692  -0.090479042277604144 0.068156457130522277 0.24053016370704799  -0.082017567680250911 0.067180685555899733 0.24080560550458377  -0.075767940687009303 0.06631307788839659 0.24104776289728497  -0.06957439968556163 0.065285149034229023 0.24133061328200128  -0.063364226403392204 0.064068677021680842 0.24165943748372093  -0.057065010231597331 0.062635661098372569 0.24203793796214182  -0.050604960078657744 0.060958495472381226 0.24246754870074275  -0.043913216224210933 0.059010143053359734 0.24294674509585498  -0.031648691219944146 0.05507136532829756 0.2438650581187711  -0.026204013252813869 0.05320839244147766 0.24428524255324593  -0.020617469653741172 0.051193855419791094 0.24472163290671023  -0.014920053669376796 0.049046016441458971 0.24516537550506193  -0.0091424249206584259 0.046782935176896565 0.24560824250061086  -0.0033149239127551688 0.044422468989280713 0.24604283713014558  0.0025324134549878988 0.0419822731351173 0.24646279897299891  0.010619971719691425 0.038515182877856359 0.24701727667187418  0.012868615390001781 0.037541318068627171 0.24716860548542999  0.015114061721568664 0.036559209463187456 0.24731669711277474  0.017354600546711653 0.035569858570929237 0.24746127847370059  0.019588522198537524 0.034574265484570335 0.24760210194479951  0.021814117510940204 0.033573428880154278 0.24773894535946298  0.024029677818600822 0.032568346017050345 0.24787161200788199  0.028584914791336957 0.030484145402681739 0.24813684352536253  0.030923253289286801 0.029404272137277549 0.24826884190791668  0.033243158651126703 0.02832507909225743 0.24839530146119951  0.035555136632059225 0.027234413613257357 0.24851771977919629  0.037852619030466661 0.026138261837775598 0.24863513171319115  0.040142835544493938 0.025027960129527137 0.24874842670783898  0.042424874888543074 0.023903496314206671 0.24885726487578191  0.049483268422166694 0.020361837581726151 0.24918106132501303  0.054239397832593454 0.017884759846366741 0.24938089705423264  0.058985023997308976 0.015304706107526407 0.24956052936804715  0.063735427682265561 0.012596512940212639 0.249717683427916  0.06850556639168541 0.0097354807211660083 0.24984812287601721  0.073309962799187625 0.006697596936144393 0.2499452990170436  0.078162593178915454 0.0034597594872072903 0.25  0.083076775836663397 6.1407511677272162e-17 0.25 
 0 9 0.026811354352869177 7 0.047164015906531118 7 0.078689121229231385 7 0.11125651554281454 7 0.16987434132901646 7 0.18856103688223763 7 0.32564812244626629 7 0.43905494323007943 7 0.46520820021432385 7 0.56869122258854654 7 0.61096064079788048 7 0.74039234955689182 7 0.83795994850449551 7 0.87556894642344651 7 0.91569684184464017 7 1 9
7 0 0  3 12 10  0.17999999999999999 -0.077294699999999994 0.5  0.14000000000000001 -0.048309199999999997 0.5  0.089999999999999997 0 0.5  0.029999999999999999 0.030917900000000002 0.5  -0.040000000000000001 0.059903400000000002 0.5  -0.089999999999999997 0.069565199999999994 0.5  -0.14999999999999999 0.071497599999999994 0.5  -0.23000000000000001 0.067632899999999996 0.5  -0.28999999999999998 0.050241599999999997 0.5  -0.33000000000000002 0.030917900000000002 0.5  -0.35999999999999999 -0.021256000000000001 0.5  -0.34000000000000002 -0.083091799999999993 0.5 
 0 4 1 1 2 1 3 1 4 1 5 1 6 1 7 1 8 1 9 4
1 -0.34000000000000002 -0.083091799999999993 0.5 0 0 -1 
1 0.17999999999999999 -0.077294699999999994 0.5 0 0 -1 
7 0 0  3 9 7  -0.34000000000000002 -0.083091799999999993 0.5  -0.29999999999999999 -0.10000000000000001 0.5  -0.25 -0.083091799999999993 0.5  -0.16 -0.050241599999999997 0.5  -0.070000000000000007 -0.044444400000000002 0.5  0.01 -0.050241599999999997 0.5  0.080000000000000002 -0.059903400000000002 0.5  0.13 -0.075362299999999993 0.5  0.17999999999999999 -0.077294699999999994 0.5 
 0 4 1 1 2 1 3 1 4 1 5 1 6 4
Polygon3D 0
PolygonOnTriangulations 0
Surfaces 13
1 -1.1000000000000001 -0.5 0 1 0 -0 0 0 1 0 -1 0 
1 -1.1000000000000001 -0.5 0 -0 1 0 0 0 1 1 0 -0 
1 -1.1000000000000001 -0.5 0.69999999999999996 0 0 1 1 0 -0 -0 1 0 
1 -1.1000000000000001 0.5 0 -0 1 0 0 0 1 1 0 -0 
1 -1.1000000000000001 -0.5 0 0 0 1 1 0 -0 -0 1 0 
1 0.89999999999999991 -0.5 0 1 0 -0 0 0 1 0 -1 0 
4 -0.5 0 0 0 0 1 1 0 -0 -0 1 0 0.25
2 -0.5 -0 0 1 0 0 -0 0 1 0 -1 0 0.25
1 0.5 0 0 1 0 0 -0 0 1 0 -1 0 
1 -0.5 0 0 1 0 0 -0 0 1 0 -1 0 
6 -0 -0 1 
7 0 0  3 12 10  0.17999999999999999 -0.077294699999999994 0.5  0.14000000000000001 -0.048309199999999997 0.5  0.089999999999999997 0 0.5  0.029999999999999999 0.030917900000000002 0.5  -0.040000000000000001 0.059903400000000002 0.5  -0.089999999999999997 0.069565199999999994 0.5  -0.14999999999999999 0.071497599999999994 0.5  -0.23000000000000001 0.067632899999999996 0.5  -0.28999999999999998 0.050241599999999997 0.5  -0.33000000000000002 0.030917900000000002 0.5  -0.35999999999999999 -0.021256000000000001 0.5  -0.34000000000000002 -0.083091799999999993 0.5 
 0 4 1 1 2 1 3 1 4 1 5 1 6 1 7 1 8 1 9 4
6 -0 -0 1 
7 0 0  3 9 7  -0.34000000000000002 -0.083091799999999993 0.5  -0.29999999999999999 -0.10000000000000001 0.5  -0.25 -0.083091799999999993 0.5  -0.16 -0.050241599999999997 0.5  -0.070000000000000007 -0.044444400000000002 0.5  0.01 -0.050241599999999997 0.5  0.080000000000000002 -0.059903400000000002 0.5  0.13 -0.075362299999999993 0.5  0.17999999999999999 -0.077294699999999994 0.5 
 0 4 1 1 2 1 3 1 4 1 5 1 6 4
1 -0.098744573027155419 -0.016183981116203262 0.5 0 0 1 1 0 -0 -0 1 0 
Triangulations 0

TShapes 98
Ve
1e-07
-1.1 -0.5 0.7
0 0

0101101
*
Ve
1e-07
-1.1 -0.5 0
0 0

0101101
*
Ed
 1e-07 1 1 0
1  1 0 0 0.7
2  1 1 0 0 0.7
2  2 2 0 0 0.7
0

0101000
-98 0 +97 0 *
Ve
1e-07
-1.1 0.5 0.7
0 0

0101101
*
Ed
 1e-07 1 1 0
1  2 0 0 1
2  3 1 0 0 1
2  4 3 0 0 1
0

0101000
-95 0 +98 0 *
Ve
1e-07
-1.1 0.5 0
0 0

0101101
*
Ed
 1e-07 1 1 0
1  3 0 0 0.7
2  5 1 0 0 0.7
2  6 4 0 0 0.7
0

0101000
-95 0 +93 0 *
Ed
 1e-07 1 1 0
1  4 0 0 1
2  7 1 0 0 1
2  8 5 0 0 1
0

0101000
-93 0 +97 0 *
Wi

0101100
-96 0 -94 0 +92 0 +91 0 *
Fa
0  1e-07 1 0

0111000
+90 0 *
Ve
1e-07
0.9 -0.5 0
0 0

0101101
*
Ed
 1e-07 1 1 0
1  5 0 0 2
2  9 2 0 0 2
2  10 5 0 0 2
0

0101000
-88 0 +97 0 *
Ve
1e-07
0.9 -0.5 0.7
0 0

0101101
*
Ed
 1e-07 1 1 0
1  6 0 0 0.7
2  11 6 0 0 0.7
2  12 2 0 0 0.7
0

0101000
-86 0 +88 0 *
Ed
 1e-07 1 1 0
1  7 0 0 2
2  13 2 0 0 2
2  14 3 0 0 2
0

0101000
-86 0 +98 0 *
Wi

0101100
-87 0 -85 0 +84 0 +96 0 *
Fa
0  1e-07 2 0

0111000
+83 0 *
Ve
1e-07
0.9 0.5 0.7
0 0

0101101
*
Ed
 1e-07 1 1 0
1  8 0 0 2
2  15 4 0 0 2
2  16 3 0 0 2
0

0101000
-81 0 +95 0 *
Ed
 1e-07 1 1 0
1  9 0 0 1
2  17 6 0 0 1
2  18 3 0 0 1
0

0101000
-81 0 +86 0 *
Wi

0101100
-94 0 -80 0 +79 0 +84 0 *
Fa
0  1e-07 3 0

0111000
+78 0 *
Ve
1e-07
0.9 0.5 0
0 0

0101101
*
Ed
 1e-07 1 1 0
1  10 0 0 2
2  19 4 0 0 2
2  20 5 0 0 2
0

0101000
-76 0 +93 0 *
Ed
 1e-07 1 1 0
1  11 0 0 0.7
2  21 6 0 0 0.7
2  22 4 0 0 0.7
0

0101000
-81 0 +76 0 *
Wi

0101100
-75 0 -74 0 +80 0 +92 0 *
Fa
0  1e-07 4 0

0111000
+73 0 *
Ed
 1e-07 1 1 0
1  12 0 0 1
2  23 6 0 0 1
2  24 5 0 0 1
0

0101000
-76 0 +88 0 *
Wi

0101100
-91 0 -75 0 +87 0 +71 0 *
Ve
1.00000000050037e-07
-0.5 0.25 -4.59242549680257e-17
0 0

0101101
*
Ve
1.00000000015308e-07
-0.5 -0.25 1.53080849893419e-17
0 0

0101101
*
Ed
 1e-07 1 1 0
1  13 0 1.5707963267949 4.71238898038469
2  25 5 0 1.5707963267949 4.71238898038469
2  26 7 0 1.5707963267949 4.71238898038469
0

0101000
+69 0 -68 0 *
Ve
1.50000000015308e-07
0.5 -0.25 1.53080849893419e-17
0 0

0101101
*
Ed
 1e-07 1 1 0
1  14 0 0 1
2  27 5 0 0 1
2  28 8 0 0 1
0

0101000
+68 0 -66 0 *
Ve
1.50000000045924e-07
0.5 0.25 -4.59242549680257e-17
0 0

0101101
*
Ed
 1.5e-07 1 1 0
1  15 0 0 0.5
2  29 5 0 0 0.5
2  30 9 0 0 0.5
0

0101000
+66 0 -64 0 *
Ed
 1e-07 1 1 0
1  16 0 0 1
2  31 5 0 0 1
2  32 8 0 0 1
0

0101000
+69 0 -64 0 *
Wi

0101100
-67 0 -65 0 -63 0 +62 0 *
Fa
0  1e-07 5 0

0101000
+70 0 +61 0 *
Wi

0101100
-85 0 -79 0 +74 0 +71 0 *
Fa
0  1e-07 6 0

0111000
+59 0 *
Ve
1.00000000134311e-07
-0.5 2.04107799857892e-17 0.25
0 0

0101101
*
Ed
 1e-07 1 1 1
2  33 7 0 1.5707963267949 4.71238898038469
0

0101000
+57 0 -57 0 *
Ed
 1.00000000013878e-07 1 1 0
1  17 0 0 1.5707963267949
2  34 8 0 0 1.5707963267949
2  35 10 0 0 1.5707963267949
2  36 7 0 0 1.5707963267949
0

0101000
+57 0 -68 0 *
Ed
 1.00000000050037e-07 1 1 0
1  17 0 4.71238898038469 6.28318530717959
2  34 8 0 4.71238898038469 6.28318530717959
2  35 10 0 4.71238898038469 6.28318530717959
2  37 7 0 4.71238898038469 6.28318530717959
0

0101000
+69 0 -57 0 *
Wi

0101100
-56 0 -55 0 +67 0 -54 0 *
Fa
0  1e-07 7 0

0101000
+53 0 *
Ve
1e-07
0.5 6.12323399573677e-17 0.25
0 0

0101101
*
Ed
 1e-07 1 1 0
1  18 0 0 1.5707963267949
2  38 8 0 0 1.5707963267949
2  39 9 0 0 1.5707963267949
0

0101000
+51 0 -66 0 *
Ve
5.000001e-06
-0.344196585148932 6.12323399573677e-17 0.25
0 0

0101101
*
Ed
 1e-07 1 1 0
1  19 0 0 0.155803414851068
3  40 41CN 8 0 0 0.155803414851068
0

0101000
+57 0 -49 0 *
Ve
5.000001e-06
-0.34 -0.0830918 0.235787516151216
0 0

0101101
*
Ed
 5e-06 1 1 0
1  20 0 0 1
2  42 8 0 0 1
2  43 11 0 0 1
0

0101000
+47 0 -49 0 *
Ve
5.000001e-06
0.18 -0.0772947 0.237750981810612
0 0

0101101
*
Ed
 5e-06 1 1 0
1  21 0 0 1
2  44 8 0 0 1
2  45 12 0 0 1
0

0101000
+45 0 -47 0 *
Ve
5.000001e-06
0.0830767758366634 6.12323399573677e-17 0.25
0 0

0101101
*
Ed
 5e-06 1 1 0
1  22 0 0 1
2  46 8 0 0 1
2  47 11 0 0 1
0

0101000
+43 0 -45 0 *
Ed
 1e-07 1 1 0
1  19 0 0.583076775836663 1
3  40 41CN 8 0 0.583076775836663 1
0

0101000
+43 0 -51 0 *
Wi

0101100
-50 0 +65 0 +55 0 -48 0 +46 0 +44 0 +42 0 -41 0 *
Fa
0  1e-07 8 0

0101000
+40 0 *
Ed
 1e-07 1 1 0
1  18 0 4.71238898038469 6.28318530717959
2  38 8 0 4.71238898038469 6.28318530717959
2  39 9 0 4.71238898038469 6.28318530717959
0

0101000
+64 0 -51 0 *
Wi

0101100
+38 0 +63 0 +50 0 *
Fa
0  1e-07 9 0

0101000
+37 0 *
Ed
 5e-06 1 1 0
1  23 0 0 1
2  48 8 0 0 1
2  49 11 0 0 1
0

0101000
+49 0 -43 0 *
Wi

0101100
-62 0 -38 0 +41 0 +35 0 +48 0 +54 0 *
Fa
0  1e-07 8 0

0101000
+34 0 *
Ve
1e-07
0.18 -0.0772947 0.5
0 0

0101101
*
Ve
1e-07
-0.34 -0.0830918 0.5
0 0

0101101
*
Ed
 1e-07 1 1 0
1  24 0 0 9
2  50 11 0 0 9
2  51 11 2 0 9
0

0101000
+32 0 -31 0 *
Ed
 1e-07 1 1 0
1  25 0 0 0.264212483848784
2  52 11 0 0 0.264212483848784
2  53 12 0 0 0.264212483848784
0

0101000
+31 0 -47 0 *
Ed
 1e-07 1 1 0
1  26 0 0 0.262249018189388
2  54 11 0 0 0.262249018189388
2  55 12 0 0 0.262249018189388
0

0101000
+32 0 -45 0 *
Wi

0101100
-30 0 -29 0 -46 0 -35 0 -42 0 +28 0 *
Fa
0  1e-07 11 0

0101000
+27 0 *
Ed
 1e-07 1 1 0
1  27 0 0 6
2  56 12 0 0 6
2  57 12 2 0 6
0

0101000
+31 0 -32 0 *
Wi

0101100
-25 0 -28 0 -44 0 +29 0 *
Fa
0  1e-07 12 0

0101000
+24 0 *
Wi

0101100
+30 0 +25 0 *
Fa
0  1e-07 13 0

0111000
+22 0 *
Sh

0101100
-89 0 -82 0 +77 0 +72 0 -60 0 +58 0 -52 0 -39 0 -36 0 -33 0 
-26 0 -23 0 -21 0 *
So

0100000
+20 0 *
Ve
1e-07
-0.3 -0.1 0.5
0 0

0101101
*
Ve
1e-07
-0.36 -0.021256 0.5
0 0

0101101
*
Ve
1e-07
-0.33 0.0309179 0.5
0 0

0101101
*
Ve
1e-07
-0.29 0.0502416 0.5
0 0

0101101
*
Ve
1e-07
-0.23 0.0676329 0.5
0 0

0101101
*
Ve
1e-07
-0.15 0.0714976 0.5
0 0

0101101
*
Ve
1e-07
-0.09 0.0695652 0.5
0 0

0101101
*
Ve
1e-07
-0.04 0.0599034 0.5
0 0

0101101
*
Ve
1e-07
0.03 0.0309179 0.5
0 0

0101101
*
Ve
1e-07
0.09 0 0.5
0 0

0101101
*
Ve
1e-07
0.14 -0.0483092 0.5
0 0

0101101
*
Ve
1e-07
-0.25 -0.0830918 0.5
0 0

0101101
*
Ve
1e-07
-0.16 -0.0502416 0.5
0 0

0101101
*
Ve
1e-07
-0.07 -0.0444444 0.5
0 0

0101101
*
Ve
1e-07
0.01 -0.0502416 0.5
0 0

0101101
*
Ve
1e-07
0.08 -0.0599034 0.5
0 0

0101101
*
Ve
1e-07
0.13 -0.0753623 0.5
0 0

0101101
*
Co

1100000
+19 0 +18 0 +17 0 +16 0 +15 0 +14 0 +13 0 +12 0 +11 0 +10 0 
+9 0 +8 0 +7 0 +6 0 +5 0 +4 0 +3 0 +2 0 *

+1 0 