DBRep_DrawableShape

CASCADE Topology V1, (c) Matra-Datavision
Locations 0
Curve2ds 48
1 0 0 1 0 
1 0 0 1 0 
1 1 0 0 -1 
1 0 0 0 1 
1 0 -1 1 0 
1 0 0 1 0 
1 0 0 0 -1 
1 0 0 0 1 
1 0 0 0 1 
1 0 0 1 0 
1 0 0 1 0 
1 0 1 1 0 
1 1 0 0 1 
1 0 0 1 0 
1 1 0 0 1 
1 0 1 1 0 
1 1 0 0 -1 
1 1 0 0 1 
1 0 0 0 1 
1 0 1 1 0 
1 0 -1 1 0 
1 0 1 1 0 
1 0 0 0 -1 
1 1 0 0 1 
8 -0.625 -0.125
1 0.125 0.25 -1 0 
8 -0.625 -0.125
1 0.25 -0.125 0 -1 
8 0.125 0.625
1 0.75 0.125 0 1 
8 0.125 0.625
1 0.25 0.125 0 -1 
8 -0.625 -0.125
1 0.125 0.75 -1 0 
8 -0.625 -0.125
1 0.25 -0.125 0 -1 
8 0.125 0.625
1 0.25 0.125 0 1 
8 0.125 0.625
1 0.25 0.125 0 -1 
1 0 0 1 0 
1 0 0.5 1 0 
1 0.5 0 0 1 
1 0 0 1 0 
1 0 0 1 0 
1 0 0 1 0 
1 0.5 0 0 -1 
1 0.5 0 0 1 
1 0 -0.5 1 0 
1 0 0.5 1 0 
1 0.5 0 0 1 
1 0 0.5 1 0 
1 0 -0.5 1 0 
1 0 0 1 0 
1 0.5 0 0 -1 
1 0 0 0 1 
Curves 24
1 -0.5 -0.5 0 0 0 1 
1 -0.5 -0.5 1 -0 1 0 
1 -0.5 0.5 0 0 0 1 
1 -0.5 -0.5 0 -0 1 0 
1 -0.5 -0.5 0 1 0 -0 
1 0.5 -0.5 0 0 0 1 
1 -0.5 -0.5 1 1 0 -0 
1 -0.5 0.5 1 1 0 -0 
1 0.5 -0.5 1 -0 1 0 
1 -0.5 0.5 0 1 0 -0 
1 0.5 0.5 0 0 0 1 
1 0.5 -0.5 0 -0 1 0 
1 -0.375 -0.25 0 -1 -0 0 
1 0.25 -0.375 0 -0 1 0 
1 -0.375 0.25 0 -1 -0 0 
1 -0.25 -0.375 0 -0 1 0 
1 0.25 -0.25 -0.25 0 0 1 
1 -0.25 -0.25 0.25 1 0 -0 
1 -0.25 -0.25 -0.25 0 0 1 
1 0.25 -0.25 0.25 -0 1 0 
1 0.25 0.25 -0.25 0 0 1 
1 -0.25 0.25 0.25 1 0 -0 
1 -0.25 0.25 -0.25 0 0 1 
1 -0.25 -0.25 0.25 -0 1 0 
Polygon3D 0
PolygonOnTriangulations 0
Surfaces 11
1 -0.5 -0.5 0 1 0 -0 0 0 1 0 -1 0 
1 -0.5 -0.5 0 -0 1 0 0 0 1 1 0 -0 
1 -0.5 -0.5 1 0 0 1 1 0 -0 -0 1 0 
1 -0.5 0.5 0 -0 1 0 0 0 1 1 0 -0 
1 -0.5 -0.5 0 0 0 1 1 0 -0 -0 1 0 
1 0.5 -0.5 0 1 0 -0 0 0 1 0 -1 0 
1 -0.25 -0.25 -0.25 -0 1 0 0 0 1 1 0 -0 
1 0.25 -0.25 -0.25 1 0 -0 0 0 1 0 -1 0 
1 -0.25 0.25 -0.25 -0 1 0 0 0 1 1 0 -0 
1 -0.25 -0.25 -0.25 1 0 -0 0 0 1 0 -1 0 
1 -0.25 -0.25 0.25 0 0 1 1 0 -0 -0 1 0 
Triangulations 0

TShapes 66
Ve
1e-07
-0.5 -0.5 1
0 0

0101101
*
Ve
1e-07
-0.5 -0.5 0
0 0

0101101
*
Ed
 1e-07 1 1 0
1  1 0 0 1
2  1 1 0 0 1
2  2 2 0 0 1
0

0101000
-66 0 +65 0 *
Ve
1e-07
-0.5 0.5 1
0 0

0101101
*
Ed
 1e-07 1 1 0
1  2 0 0 1
2  3 1 0 0 1
2  4 3 0 0 1
0

0101000
-63 0 +66 0 *
Ve
1e-07
-0.5 0.5 0
0 0

0101101
*
Ed
 1e-07 1 1 0
1  3 0 0 1
2  5 1 0 0 1
2  6 4 0 0 1
0

0101000
-63 0 +61 0 *
Ed
 1e-07 1 1 0
1  4 0 0 1
2  7 1 0 0 1
2  8 5 0 0 1
0

0101000
-61 0 +65 0 *
Wi

0101100
-64 0 -62 0 +60 0 +59 0 *
Fa
0  1e-07 1 0

0111000
+58 0 *
Ve
1e-07
0.5 -0.5 0
0 0

0101101
*
Ed
 1e-07 1 1 0
1  5 0 0 1
2  9 2 0 0 1
2  10 5 0 0 1
0

0101000
-56 0 +65 0 *
Ve
1e-07
0.5 -0.5 1
0 0

0101101
*
Ed
 1e-07 1 1 0
1  6 0 0 1
2  11 6 0 0 1
2  12 2 0 0 1
0

0101000
-54 0 +56 0 *
Ed
 1e-07 1 1 0
1  7 0 0 1
2  13 2 0 0 1
2  14 3 0 0 1
0

0101000
-54 0 +66 0 *
Wi

0101100
-55 0 -53 0 +52 0 +64 0 *
Fa
0  1e-07 2 0

0111000
+51 0 *
Ve
1e-07
0.5 0.5 1
0 0

0101101
*
Ed
 1e-07 1 1 0
1  8 0 0 1
2  15 4 0 0 1
2  16 3 0 0 1
0

0101000
-49 0 +63 0 *
Ed
 1e-07 1 1 0
1  9 0 0 1
2  17 6 0 0 1
2  18 3 0 0 1
0

0101000
-49 0 +54 0 *
Wi

0101100
-62 0 -48 0 +47 0 +52 0 *
Fa
0  1e-07 3 0

0111000
+46 0 *
Ve
1e-07
0.5 0.5 0
0 0

0101101
*
Ed
 1e-07 1 1 0
1  10 0 0 1
2  19 4 0 0 1
2  20 5 0 0 1
0

0101000
-44 0 +61 0 *
Ed
 1e-07 1 1 0
1  11 0 0 1
2  21 6 0 0 1
2  22 4 0 0 1
0

0101000
-49 0 +44 0 *
Wi

0101100
-43 0 -42 0 +48 0 +60 0 *
Fa
0  1e-07 4 0

0111000
+41 0 *
Ed
 1e-07 1 1 0
1  12 0 0 1
2  23 6 0 0 1
2  24 5 0 0 1
0

0101000
-44 0 +56 0 *
Wi

0101100
-59 0 -43 0 +55 0 +39 0 *
Ve
1.5e-07
0.25 -0.25 0
0 0

0101101
*
Ve
1.5e-07
-0.25 -0.25 0
0 0

0101101
*
Ed
 1.5e-07 1 1 0
1  13 0 -0.625 -0.125
2  25 5 0 -0.625 -0.125
2  26 7 0 -0.625 -0.125
0

0101000
+37 0 -36 0 *
Ve
1.5e-07
0.25 0.25 0
0 0

0101101
*
Ed
 1.5e-07 1 1 0
1  14 0 0.125 0.625
2  27 5 0 0.125 0.625
2  28 8 0 0.125 0.625
0

0101000
+37 0 -34 0 *
Ve
1.5e-07
-0.25 0.25 0
0 0

0101101
*
Ed
 1.5e-07 1 1 0
1  15 0 -0.625 -0.125
2  29 5 0 -0.625 -0.125
2  30 9 0 -0.625 -0.125
0

0101000
+34 0 -32 0 *
Ed
 1.5e-07 1 1 0
1  16 0 0.125 0.625
2  31 5 0 0.125 0.625
2  32 10 0 0.125 0.625
0

0101000
+36 0 -32 0 *
Wi

0101100
+35 0 -33 0 -31 0 +30 0 *
Fa
0  1e-07 5 0

0101000
+38 0 +29 0 *
Wi

0101100
-53 0 -47 0 +42 0 +39 0 *
Fa
0  1e-07 6 0

0111000
+27 0 *
Ve
1e-07
0.25 -0.25 0.25
0 0

0101101
*
Ed
 1e-07 1 1 0
1  17 0 0.25 0.5
2  33 8 0 0.25 0.5
2  34 7 0 0.25 0.5
0

0101000
+37 0 -25 0 *
Ve
1e-07
-0.25 -0.25 0.25
0 0

0101101
*
Ed
 1e-07 1 1 0
1  18 0 0 0.5
2  35 7 0 0 0.5
2  36 11 0 0 0.5
0

0101000
-25 0 +23 0 *
Ed
 1e-07 1 1 0
1  19 0 0.25 0.5
2  37 10 0 0.25 0.5
2  38 7 0 0.25 0.5
0

0101000
+36 0 -23 0 *
Wi

0101100
-24 0 +22 0 +21 0 +35 0 *
Fa
0  1e-07 7 0

0101000
+20 0 *
Ve
1e-07
0.25 0.25 0.25
0 0

0101101
*
Ed
 1e-07 1 1 0
1  20 0 0 0.5
2  39 8 0 0 0.5
2  40 11 0 0 0.5
0

0101000
-18 0 +25 0 *
Ed
 1e-07 1 1 0
1  21 0 0.25 0.5
2  41 8 0 0.25 0.5
2  42 9 0 0.25 0.5
0

0101000
+34 0 -18 0 *
Wi

0101100
-24 0 -17 0 +16 0 +33 0 *
Fa
0  1e-07 8 0

0101000
+15 0 *
Ve
1e-07
-0.25 0.25 0.25
0 0

0101101
*
Ed
 1e-07 1 1 0
1  22 0 0 0.5
2  43 9 0 0 0.5
2  44 11 0 0 0.5
0

0101000
-18 0 +13 0 *
Ed
 1e-07 1 1 0
1  23 0 0.25 0.5
2  45 10 0 0.25 0.5
2  46 9 0 0.25 0.5
0

0101000
+32 0 -13 0 *
Wi

0101100
-16 0 +12 0 +11 0 +31 0 *
Fa
0  1e-07 9 0

0101000
+10 0 *
Ed
 1e-07 1 1 0
1  24 0 0 0.5
2  47 10 0 0 0.5
2  48 11 0 0 0.5
0

0101000
-13 0 +23 0 *
Wi

0101100
-21 0 -8 0 +11 0 +30 0 *
Fa
0  1e-07 10 0

0101000
+7 0 *
Wi

0101100
-8 0 -12 0 +17 0 +22 0 *
Fa
0  1e-07 11 0

0111000
+5 0 *
Sh

0101100
-57 0 -50 0 +45 0 +40 0 -28 0 +26 0 +19 0 -14 0 -9 0 +6 0 
-4 0 *
So

0100000
+3 0 *
Co

1100000
+2 0 *

+1 0 