DBRep_DrawableShape

CASCADE Topology V1, (c) Matra-Datavision
Locations 0
Curve2ds 27
1 0 0 1 0 
1 0 0 1 0 
1 1 0 0 -1 
1 0 0 0 1 
1 0 -1 1 0 
1 0 0 1 0 
1 0 0 0 -1 
1 0 0 0 1 
1 0 0 0 1 
1 0 0 1 0 
1 0 0 1 0 
1 0 1 1 0 
1 1 0 0 1 
1 0 0 1 0 
1 1 0 0 1 
1 0 1 1 0 
1 1 0 0 -1 
1 1 0 0 1 
1 0 0 0 1 
1 0 1 1 0 
1 0 -1 1 0 
1 0 1 1 0 
1 0 0 0 -1 
1 1 0 0 1 
8 -0.5 0
1 0.5 -0.25 0 1 
8 -0.5 0
1 -0.04357652264175027 -0.25 0 -1 
3 -0.04357652264175027 -1.5851181042378744e-17 1 0 -0 1 0.5 0.25
Curves 14
1 -0.5 -0.5 0 0 0 1 
1 -0.5 -0.5 1 -0 1 0 
1 -0.5 0.5 0 0 0 1 
1 -0.5 -0.5 0 -0 1 0 
1 -0.5 -0.5 0 1 0 -0 
1 0.5 -0.5 0 0 0 1 
1 -0.5 -0.5 1 1 0 -0 
1 -0.5 0.5 1 1 0 -0 
1 0.5 -0.5 1 -0 1 0 
1 -0.5 0.5 0 1 0 -0 
1 0.5 0.5 0 0 0 1 
1 0.5 -0.5 0 -0 1 0 
1 0.5 -0.25 0.5 0 -1 0 
3 0.5 0 0.5 0 0 1 1 0 -0 -0 1 0 0.5 0.25
Polygon3D 0
PolygonOnTriangulations 0
Surfaces 7
1 -0.5 -0.5 0 1 0 -0 0 0 1 0 -1 0 
1 -0.5 -0.5 0 -0 1 0 0 0 1 1 0 -0 
1 -0.5 -0.5 1 0 0 1 1 0 -0 -0 1 0 
1 -0.5 0.5 0 -0 1 0 0 0 1 1 0 -0 
1 -0.5 -0.5 0 0 0 1 1 0 -0 -0 1 0 
1 0.5 -0.5 0 1 0 -0 0 0 1 0 -1 0 
1 0.54357652264175027 1.5851181042378744e-17 0.5 0 0 1 1 0 -0 -0 1 0 
Triangulations 0

TShapes 43
Ve
1e-07
-0.5 -0.5 1
0 0

0101101
*
Ve
1e-07
-0.5 -0.5 0
0 0

0101101
*
Ed
 1e-07 1 1 0
1  1 0 0 1
2  1 1 0 0 1
2  2 2 0 0 1
0

0101000
-43 0 +42 0 *
Ve
1e-07
-0.5 0.5 1
0 0

0101101
*
Ed
 1e-07 1 1 0
1  2 0 0 1
2  3 1 0 0 1
2  4 3 0 0 1
0

0101000
-40 0 +43 0 *
Ve
1e-07
-0.5 0.5 0
0 0

0101101
*
Ed
 1e-07 1 1 0
1  3 0 0 1
2  5 1 0 0 1
2  6 4 0 0 1
0

0101000
-40 0 +38 0 *
Ed
 1e-07 1 1 0
1  4 0 0 1
2  7 1 0 0 1
2  8 5 0 0 1
0

0101000
-38 0 +42 0 *
Wi

0101100
-41 0 -39 0 +37 0 +36 0 *
Fa
0  1e-07 1 0

0111000
+35 0 *
Ve
1e-07
0.5 -0.5 0
0 0

0101101
*
Ed
 1e-07 1 1 0
1  5 0 0 1
2  9 2 0 0 1
2  10 5 0 0 1
0

0101000
-33 0 +42 0 *
Ve
1e-07
0.5 -0.5 1
0 0

0101101
*
Ed
 1e-07 1 1 0
1  6 0 0 1
2  11 6 0 0 1
2  12 2 0 0 1
0

0101000
-31 0 +33 0 *
Ed
 1e-07 1 1 0
1  7 0 0 1
2  13 2 0 0 1
2  14 3 0 0 1
0

0101000
-31 0 +43 0 *
Wi

0101100
-32 0 -30 0 +29 0 +41 0 *
Fa
0  1e-07 2 0

0111000
+28 0 *
Ve
1e-07
0.5 0.5 1
0 0

0101101
*
Ed
 1e-07 1 1 0
1  8 0 0 1
2  15 4 0 0 1
2  16 3 0 0 1
0

0101000
-26 0 +40 0 *
Ed
 1e-07 1 1 0
1  9 0 0 1
2  17 6 0 0 1
2  18 3 0 0 1
0

0101000
-26 0 +31 0 *
Wi

0101100
-39 0 -25 0 +24 0 +29 0 *
Fa
0  1e-07 3 0

0111000
+23 0 *
Ve
1e-07
0.5 0.5 0
0 0

0101101
*
Ed
 1e-07 1 1 0
1  10 0 0 1
2  19 4 0 0 1
2  20 5 0 0 1
0

0101000
-21 0 +38 0 *
Ed
 1e-07 1 1 0
1  11 0 0 1
2  21 6 0 0 1
2  22 4 0 0 1
0

0101000
-26 0 +21 0 *
Wi

0101100
-20 0 -19 0 +25 0 +37 0 *
Fa
0  1e-07 4 0

0111000
+18 0 *
Ed
 1e-07 1 1 0
1  12 0 0 1
2  23 6 0 0 1
2  24 5 0 0 1
0

0101000
-21 0 +33 0 *
Wi

0101100
-36 0 -20 0 +16 0 +32 0 *
Fa
0  1e-07 5 0

0111000
+15 0 *
Wi

0101100
-30 0 -24 0 +16 0 +19 0 *
Ve
1.5e-07
0.5 0.25 0.5
0 0

0101101
*
Ve
1.50000000111022e-07
0.5 -0.25 0.5
0 0

0101101
*
Ed
 1.5e-07 1 1 0
1  13 0 -0.5 0
2  25 6 0 -0.5 0
2  26 7 0 -0.5 0
0

0101000
+12 0 -11 0 *
Wi

0101000
i10 0 *
Fa
0  1e-07 6 0

0101000
+13 0 +9 0 *
Sh

0101100
-34 0 -27 0 +22 0 +17 0 -14 0 +8 0 *
Ed
 1e-07 1 1 0
1  14 0 1.5707963267949 4.71238898038469
2  27 7 0 1.5707963267949 4.71238898038469
0

0101000
+12 0 -11 0 *
Wi

0101100
-10 0 +6 0 *
Fa
0  1e-07 7 0

0101000
+5 0 *
Sh

0101000
i4 0 *
So

0100000
+7 0 +3 0 *
Co

1100000
+2 0 +4 0 *

+1 0 