DBRep_DrawableShape

CASCADE Topology V1, (c) Matra-Datavision
Locations 0
Curve2ds 17
2 0 0 -1 0 0 1 0.0094999999999999998
1 0 0 1 0 
1 0 0.02 1 0 
1 0 0 1 0 
1 6.2831853071795862 0 0 1 
1 0 0 0 1 
1 -0.028342310843063209 -0.0056020075693706609 1 0 
1 0 0.34514416232314088 1 0 
1 0 0 1 0 
1 6.2831853071795862 0 0 1 
1 0 0 0 1 
2 0.007043529540173777 -0.040457221177976919 -0.40382783158102087 0.91483500285055264 0.91483500285055264 0.40382783158102087 0.038100000000000224
1 6.2831853071795862 0 0 1 
1 0 0 0 1 
1 0 0.34514416232314088 1 0 
1 0 0 1 0 
1 0 0.050799999999999991 1 0 
Curves 11
2 0 0 0 0 0 1 -1 0 0 0 -1 0 0.0094999999999999998
2 0 0 0.02 0 0 1 -1 0 0 0 -1 0 0.0095000000000000015
1 -0.0094999999999999998 0 0 0 0 1 
2 0 0 0.0327 0 0 1 -1 0 0 0 -1 0 0.0063500000000000015
2 -0.04435521360860626 0 0.035385840383236986 0 -1 0 0.91483500285055264 0 -0.40382783158102087 0.40382783158102087 0 0.91483500285055264 0.038100000000000224
7 0 0  1 2 2  -0.0063500000000000015 0 0.032700000000000007  -0.0063500000000000015 0 0.083499999999999991 
 0 2 0.050799999999999991 2
2 0 0 0.083499999999999991 0 0 1 -1 -0 -0 -0 -1 -0 0.0063500000000000015
2 0 0 0.096199999999999994 0 0 1 -1 -0 -0 -0 -1 -0 0.0095000000000000015
2 -0.04435521360860626 0 0.080814159616763012 0 1 0 0.91483500285055264 -0 0.40382783158102087 0.40382783158102087 -0 -0.91483500285055264 0.038100000000000224
2 0 0 0.1162 0 0 1 -1 -0 -0 -0 -1 -0 0.0094999999999999998
1 -0.0094999999999999998 0 0.1162 -0 -0 -1 
Polygon3D 0
PolygonOnTriangulations 0
Surfaces 9
1 0 0 0 0 0 1 1 -0 -0 0 -1 0 
2 0 0 0 0 0 1 -1 0 0 0 -1 0 0.0094999999999999998
7 0 0 0 0 0 1 
8 0 0.34514416232314088
2 -0.04435521360860626 0 0.035385840383236986 0 -1 0 0.91483500285055264 0 -0.40382783158102087 0.40382783158102087 0 0.91483500285055264 0.038100000000000224
1 -0.0038979924306293393 0 0.028342310843063209 0 1 0 0 -0 1 1 0 -0 
2 0 0 0.0327 0 0 1 -1 0 0 0 -1 0 0.0063500000000000015
7 0 0 0.1162 0 0 1 
8 0 0.34514416232314088
2 -0.04435521360860626 0 0.080814159616763012 0 1 0 0.91483500285055264 -0 0.40382783158102087 0.40382783158102087 -0 -0.91483500285055264 0.038100000000000224
2 0 0 0.083499999999999991 -0 -0 -1 -1 -0 -0 -0 -1 -0 0.0063500000000000015
2 0 0 0.1162 -0 -0 -1 -1 -0 -0 -0 -1 -0 0.0094999999999999998
1 0 0 0.1162 -0 -0 -1 1 -0 -0 -0 -1 -0 
Triangulations 0

TShapes 34
Ve
1e-07
-0.0095 0 0
0 0

0101101
*
Ed
 1e-07 1 1 0
1  1 0 0 6.28318530717959
2  1 1 0 0 6.28318530717959
2  2 2 0 0 6.28318530717959
0

0101000
+34 0 -34 0 *
Wi

0101100
-33 0 *
Fa
0  1e-07 1 0

0111000
+32 0 *
Ve
1.00000000000867e-07
-0.0095 0 0.02
0 0

0101101
*
Ed
 1.00000000000867e-07 1 1 0
1  2 0 0 6.28318530717959
2  3 2 0 0 6.28318530717959
2  4 3 0 0 6.28318530717959
0

0101000
+30 0 -30 0 *
Ed
 1e-07 1 1 0
1  3 0 0 0.02
3  5 6CN 2 0 0 0.02
2  7 4 0 0 0.02
0

0101000
+34 0 -30 0 *
Wi

0101100
+33 0 -29 0 -28 0 +28 0 *
Fa
0  1e-07 2 0

0111000
+27 0 *
Ve
1e-05
-0.00635 0 0.0327
0 0

0101101
*
Ed
 1e-07 1 1 0
1  4 0 0 6.28318530717959
2  8 3 0 0 6.28318530717959
2  9 5 0 0 6.28318530717959
0

0101000
+25 0 -25 0 *
Ed
 1e-07 1 1 0
1  5 0 0 0.345144162323141
3  10 11CN 3 0 0 0.345144162323141
2  12 4 0 0 0.345144162323141
0

0101000
+30 0 -25 0 *
Wi

0101100
+29 0 -24 0 -23 0 +23 0 *
Fa
0  1e-07 3 0

0101000
+22 0 *
Ve
1e-05
-0.00635 0 0.0835
0 0

0101101
*
Ed
 1e-05 1 1 0
1  6 0 0 0.0508
3  13 14C0 5 0 0 0.0508
0

0101000
+25 0 -20 0 *
Ed
 1e-07 1 1 0
1  7 0 0 6.28318530717959
2  15 6 0 0 6.28318530717959
2  16 7 0 0 6.28318530717959
2  17 5 0 0 6.28318530717959
0

0101000
-20 0 +20 0 *
Wi

0101100
+24 0 +19 0 -18 0 -19 0 *
Fa
0  1e-07 5 0

0101000
+17 0 *
Ve
1.00000000000867e-07
-0.0095 0 0.0962
0 0

0101101
*
Ed
 1.00000000000867e-07 1 1 0
1  8 0 0 6.28318530717959
2  3 8 0 0 6.28318530717959
2  4 6 0 0 6.28318530717959
0

0101000
+15 0 -15 0 *
Ed
 1e-07 1 1 0
1  9 0 0 0.345144162323141
3  10 11CN 6 0 0 0.345144162323141
0

0101000
+15 0 -20 0 *
Wi

0101100
+14 0 -18 0 -13 0 +13 0 *
Fa
0  1e-07 6 0

0101000
+12 0 *
Ve
1e-07
-0.0095 0 0.1162
0 0

0101101
*
Ed
 1e-07 1 1 0
1  10 0 0 6.28318530717959
2  2 8 0 0 6.28318530717959
0

0101000
+10 0 -10 0 *
Ed
 1e-07 1 1 0
1  11 0 0 0.02
3  5 6CN 8 0 0 0.02
0

0101000
+10 0 -15 0 *
Wi

0101100
+9 0 -14 0 -8 0 +8 0 *
Fa
0  1e-07 8 0

0111000
+7 0 *
Wi

0101100
-9 0 *
Fa
0  1e-07 9 0

0111000
+5 0 *
Sh

0101100
+31 0 +26 0 +21 0 +16 0 -11 0 -6 0 -4 0 *
So

0100000
+3 0 *
Co

1100000
+2 0 *

+1 0 