$MeshFormat
4.1 0 8
$EndMeshFormat
$PhysicalNames
3
2 1 "bottom"
2 2 "rest"
3 3 "domain"
$EndPhysicalNames
$Entities
8 12 6 1
1 0 0 0 0 
2 1 0 0 0 
3 1 1 0 0 
4 0 1 0 0 
5 0 0 1 0 
6 1 0 1 0 
10 1 1 1 0 
14 0 1 1 0 
1 0 0 0 1 0 0 0 2 1 -2 
2 1 0 0 1 1 0 0 2 2 -3 
3 0 1 0 1 1 0 0 2 3 -4 
4 0 0 0 0 1 0 0 2 4 -1 
6 0 0 1 1 0 1 0 2 5 -6 
7 1 0 1 1 1 1 0 2 6 -10 
8 0 1 1 1 1 1 0 2 10 -14 
9 0 0 1 0 1 1 0 2 14 -5 
11 0 0 0 0 0 1 0 2 1 -5 
12 1 0 0 1 0 1 0 2 2 -6 
16 1 1 0 1 1 1 0 2 3 -10 
20 0 1 0 0 1 1 0 2 4 -14 
1 0 0 0 1 1 0 1 1 4 1 2 3 4 
13 0 0 0 1 0 1 1 2 4 1 12 -6 -11 
17 1 0 0 1 1 1 1 2 4 2 16 -7 -12 
21 0 1 0 1 1 1 1 2 4 3 20 -8 -16 
25 0 0 0 0 1 1 1 2 4 4 11 -9 -20 
26 0 0 1 1 1 1 1 2 4 6 7 8 9 
1 0 0 0 1 1 1 1 3 6 -1 26 13 17 21 25 
$EndEntities
$Nodes
27 45 1 45
0 1 0 1
1
0 0 0
0 2 0 1
2
1 0 0
0 3 0 1
3
1 1 0
0 4 0 1
4
0 1 0
0 5 0 1
5
0 0 1
0 6 0 1
6
1 0 1
0 10 0 1
7
1 1 1
0 14 0 1
8
0 1 1
1 1 0 1
9
0.4999999999986942 0 0
1 2 0 1
10
1 0.4999999999986942 0
1 3 0 1
11
0.500000000002059 1 0
1 4 0 1
12
0 0.500000000002059 0
1 6 0 1
13
0.4999999999986942 0 1
1 7 0 1
14
1 0.4999999999986942 1
1 8 0 1
15
0.500000000002059 1 1
1 9 0 1
16
0 0.500000000002059 1
1 11 0 1
17
0 0 0.4999999999986942
1 12 0 1
18
1 0 0.4999999999986942
1 16 0 1
19
1 1 0.4999999999986942
1 20 0 1
20
0 1 0.4999999999986942
2 1 0 4
21
22
23
24
0.2937500000004588 0.7062500000004164 0
0.3749999999995795 0.3750000000004207 0
0.6479166666669072 0.6437499999998404 0
0.7187499999993463 0.2812499999995111 0
2 13 0 4
25
26
27
28
0.7499999999993472 0 0.7499999999993471
0.3749999993054579 0 0.6250000020816681
0.6510416672042949 0 0.3593750009540967
0.2812500013014915 0 0.2812500013014915
2 17 0 4
29
30
31
32
1 0.7499999999993472 0.7499999999993471
1 0.3749999993054579 0.6250000020816681
1 0.6510416672042949 0.3593750009540967
1 0.2812500013014915 0.2812500013014915
2 21 0 4
33
34
35
36
0.2500000000010294 1 0.7499999999993471
0.3749999979183318 1 0.3749999993052694
0.6406249995866217 1 0.6510416670633159
0.7187499992188784 1 0.2812500004345064
2 25 0 4
37
38
39
40
0 0.2500000000010294 0.7499999999993472
0 0.3749999979183318 0.3749999993052695
0 0.6406249995866217 0.6510416670633159
0 0.7187499992188784 0.2812500004345063
2 26 0 4
41
42
43
44
0.2937500000004588 0.7062500000004164 1
0.3749999999995795 0.3750000000004207 1
0.6479166666669072 0.6437499999998404 1
0.7187499999993463 0.2812499999995111 1
3 1 0 1
45
0.5078496616233865 0.5130396201086065 0.5130827684953748
$EndNodes
$Elements
7 184 1 184
2 1 2 14
1 1 9 22 
2 12 1 22 
3 9 2 24 
4 2 10 24 
5 10 3 23 
6 3 11 23 
7 11 4 21 
8 4 12 21 
9 22 9 24 
10 10 23 24 
11 11 21 23 
12 21 12 22 
13 21 22 23 
14 23 22 24 
2 13 2 14
15 9 28 1 
16 1 28 17 
17 2 27 9 
18 18 27 2 
19 5 26 13 
20 17 26 5 
21 13 25 6 
22 6 25 18 
23 27 28 9 
24 13 26 25 
25 17 28 26 
26 25 27 18 
27 26 27 25 
28 26 28 27 
2 17 2 14
29 10 32 2 
30 2 32 18 
31 3 31 10 
32 19 31 3 
33 6 30 14 
34 18 30 6 
35 14 29 7 
36 7 29 19 
37 31 32 10 
38 14 30 29 
39 18 32 30 
40 29 31 19 
41 30 31 29 
42 30 32 31 
2 21 2 14
43 11 36 3 
44 3 36 19 
45 4 34 11 
46 20 34 4 
47 7 35 15 
48 19 35 7 
49 15 33 8 
50 8 33 20 
51 34 36 11 
52 15 35 33 
53 19 36 35 
54 33 34 20 
55 33 35 34 
56 35 36 34 
2 25 2 14
57 1 38 12 
58 17 38 1 
59 12 40 4 
60 4 40 20 
61 16 37 5 
62 5 37 17 
63 8 39 16 
64 20 39 8 
65 38 40 12 
66 16 39 37 
67 37 38 17 
68 20 40 39 
69 37 39 38 
70 39 40 38 
2 26 2 14
71 5 13 42 
72 16 5 42 
73 13 6 44 
74 6 14 44 
75 14 7 43 
76 7 15 43 
77 15 8 41 
78 8 16 41 
79 42 13 44 
80 14 43 44 
81 15 41 43 
82 41 16 42 
83 41 42 43 
84 43 42 44 
3 1 4 100
85 24 32 23 45 
86 24 27 32 45 
87 26 44 25 45 
88 21 40 38 45 
89 33 35 41 45 
90 44 30 25 45 
91 21 34 40 45 
92 39 33 41 45 
93 31 23 32 45 
94 28 27 22 45 
95 23 10 32 24 
96 24 22 27 45 
97 30 27 25 45 
98 37 39 42 45 
99 29 35 31 45 
100 28 22 38 45 
101 26 42 44 45 
102 36 23 31 45 
103 35 36 31 45 
104 34 39 40 45 
105 21 38 22 45 
106 41 35 43 45 
107 38 37 26 45 
108 33 39 34 45 
109 32 27 30 45 
110 28 38 26 45 
111 37 42 26 45 
112 36 34 23 45 
113 44 13 26 25 
114 21 23 34 45 
115 35 29 43 45 
116 44 43 30 45 
117 21 12 38 40 
118 43 29 30 45 
119 41 33 15 35 
120 37 38 39 45 
121 25 27 26 45 
122 39 41 42 45 
123 31 23 10 32 
124 26 27 28 45 
125 24 23 22 45 
126 33 34 35 45 
127 38 40 39 45 
128 29 31 30 45 
129 15 43 41 35 
130 35 29 31 19 
131 22 1 28 38 
132 36 35 31 19 
133 28 9 22 27 
134 40 34 20 39 
135 42 13 26 44 
136 32 30 31 45 
137 31 36 3 23 
138 24 22 9 27 
139 22 23 21 45 
140 26 37 5 42 
141 39 34 20 33 
142 11 36 34 23 
143 14 30 44 43 
144 30 25 27 18 
145 37 39 16 42 
146 34 36 35 45 
147 11 34 21 23 
148 42 43 44 45 
149 12 38 22 21 
150 35 7 43 29 
151 43 14 30 29 
152 4 21 34 40 
153 37 17 38 26 
154 27 24 32 2 
155 17 28 38 26 
156 27 32 30 18 
157 39 41 16 42 
158 44 25 30 6 
159 41 43 42 45 
160 39 33 8 41 
161 38 22 1 12 
162 13 26 5 42 
163 23 3 31 10 
164 43 15 7 35 
165 9 24 27 2 
166 11 3 36 23 
167 1 28 9 22 
168 6 30 44 14 
169 34 20 4 40 
170 1 17 28 38 
171 21 4 34 11 
172 31 36 19 3 
173 18 27 32 2 
174 41 8 39 16 
175 29 35 7 19 
176 20 39 33 8 
177 25 30 6 18 
178 16 5 37 42 
179 37 5 17 26 
180 14 43 7 29 
181 10 32 24 2 
182 33 8 41 15 
183 12 21 4 40 
184 25 44 13 6 
$EndElements
$InterpolationScheme
"INTERPOLATION_SCHEME"
4
1
2
1 1
1 
1 1
0 
2
2
2 2
0.5 -0.5 
0.5 0.5 
2 1
0 
1 
3
2
3 3
1 -1 -1 
0 1 0 
0 0 1 
3 2
0 0 
1 0 
0 1 
5
2
4 4
1 -1 -1 -1 
0 1 0 0 
0 0 1 0 
0 0 0 1 
4 3
0 0 0 
1 0 0 
0 1 0 
0 0 1 
$EndInterpolationScheme
$NodeData
1
"scalar"
1
0
4
0
1
45
0
1 0
2 1
3 3.141120008059867
4 2
5 0.5
6 1.5
7 3.641120008059867
8 2.5
9 0.2499999999986942
10 2.070560004027138
11 3.24749498660655
12 1.000000000004118
13 0.7499999999986942
14 2.570560004027138
15 3.74749498660655
16 1.500000000004118
17 0.2499999999993471
18 1.249999999999347
19 3.391120008059215
20 2.249999999999347
21 2.043685455311304
22 1.228975347787862
23 2.30679153322245
24 1.313512604320308
25 0.9374999999986944
26 0.4531250005199274
27 0.6035427529131963
28 0.2197265638828347
29 2.980840006043176
30 2.115420002576186
31 2.573645840208818
32 1.742815005704233
33 3.119138760025782
34 3.23039258949778
35 3.674923515798751
36 3.490688044924226
37 0.8750000000017324
38 0.9374999954892984
39 1.606770832704901
40 1.57812499865501
41 2.543685455311304
42 1.728975347787862
43 2.80679153322245
44 1.813512604320308
45 2.052998997825471
$EndNodeData
$NodeData
1
"scalar"
1
1
4
1
1
45
0
1 0
2 2
3 6.141120008059867
4 4
5 1
6 3
7 7.141120008059867
8 5
9 0.4999999999973884
10 4.070560004024526
11 5.497494986608609
12 2.000000000008236
13 1.499999999997388
14 5.070560004024526
15 6.497494986608609
16 3.000000000008236
17 0.4999999999986942
18 2.499999999998694
19 6.641120008058562
20 4.499999999998694
21 3.542474517812406
22 2.119600347788388
23 4.014087540166886
24 2.39261416681839
25 1.874999999997389
26 0.9062500010398549
27 1.207085505826393
28 0.4394531277656694
29 5.855840006041544
30 4.177920002227935
31 5.055416675094455
32 3.445940008957961
33 5.556638760025971
34 5.558517587589163
35 6.410844739425768
36 6.147914606518617
37 1.750000000003465
38 1.874999990978597
39 3.213541665409803
40 3.15624999731002
41 4.542474517812406
42 3.119600347788388
43 5.014087540166886
44 3.39261416681839
45 3.593530901101359
$EndNodeData
$NodeData
1
"scalar"
1
2
4
2
1
45
0
1 0
2 3
3 9.141120008059866
4 6
5 1.5
6 4.5
7 10.64112000805987
8 7.5
9 0.7499999999960827
10 6.070560004021914
11 7.747494986610667
12 3.000000000012354
13 2.249999999996082
14 7.570560004021914
15 9.247494986610668
16 4.500000000012355
17 0.7499999999980413
18 3.749999999998042
19 9.891120008057909
20 6.749999999998042
21 5.041263580313508
22 3.010225347788915
23 5.721383547111323
24 3.471715729316473
25 2.812499999996083
26 1.359375001559782
27 1.810628258739589
28 0.659179691648504
29 8.730840006039912
30 6.240420001879685
31 7.537187509980093
32 5.14906501221169
33 7.994138760026159
34 7.886642585680547
35 9.146765963052784
36 8.805141168113007
37 2.625000000005197
38 2.812499986467895
39 4.820312498114704
40 4.734374995965029
41 6.541263580313508
42 4.510225347788914
43 7.221383547111323
44 4.971715729316473
45 5.134062804377248
$EndNodeData
$InterpolationScheme
"INTERPOLATION_SCHEME"
4
1
2
1 1
1 
1 1
0 
2
2
2 2
0.5 -0.5 
0.5 0.5 
2 1
0 
1 
3
2
3 3
1 -1 -1 
0 1 0 
0 0 1 
3 2
0 0 
1 0 
0 1 
5
2
4 4
1 -1 -1 -1 
0 1 0 0 
0 0 1 0 
0 0 0 1 
4 3
0 0 0 
1 0 0 
0 1 0 
0 0 1 
$EndInterpolationScheme
$NodeData
1
"vector"
1
0
4
0
3
45
0
1 0.5 -0.5 0
2 0.5 0.5 0
3 -0.5 0.5 0
4 -0.5 -0.5 0
5 0.5 -0.5 0.2
6 0.5 0.5 0.2
7 -0.5 0.5 0.2
8 -0.5 -0.5 0.2
9 0.5 -1.305788810412878e-12 0
10 1.305788810412878e-12 0.5 0
11 -0.5 2.059019621469815e-12 0
12 -2.059019621469815e-12 -0.5 0
13 0.5 -1.305788810412878e-12 0.2
14 1.305788810412878e-12 0.5 0.2
15 -0.5 2.059019621469815e-12 0.2
16 -2.059019621469815e-12 -0.5 0.2
17 0.5 -0.5 0.09999999999973885
18 0.5 0.5 0.09999999999973885
19 -0.5 0.5 0.09999999999973885
20 -0.5 -0.5 0.09999999999973885
21 -0.2062500000004164 -0.2062499999995412 0
22 0.1249999999995793 -0.1250000000004205 0
23 -0.1437499999998404 0.1479166666669072 0
24 0.2187500000004889 0.2187499999993463 0
25 0.5 0.2499999999993472 0.1499999999998694
26 0.5 -0.1250000006945421 0.1250000004163336
27 0.5 0.1510416672042949 0.07187500019081935
28 0.5 -0.2187499986985085 0.0562500002602983
29 -0.2499999999993472 0.5 0.1499999999998694
30 0.1250000006945421 0.5 0.1250000004163336
31 -0.1510416672042949 0.5 0.07187500019081935
32 0.2187499986985085 0.5 0.0562500002602983
33 -0.5 -0.2499999999989706 0.1499999999998694
34 -0.5 -0.1250000020816682 0.07499999986105389
35 -0.5 0.1406249995866217 0.1302083334126632
36 -0.5 0.2187499992188784 0.05625000008690128
37 0.2499999999989706 -0.5 0.1499999999998694
38 0.1250000020816682 -0.5 0.07499999986105391
39 -0.1406249995866217 -0.5 0.1302083334126632
40 -0.2187499992188784 -0.5 0.05625000008690127
41 -0.2062500000004164 -0.2062499999995412 0.2
42 0.1249999999995793 -0.1250000000004205 0.2
43 -0.1437499999998404 0.1479166666669072 0.2
44 0.2187500000004889 0.2187499999993463 0.2
45 -0.01303962010860649 0.007849661623386517 0.102616553699075
$EndNodeData
$NodeData
1
"vector"
1
1
4
1
3
45
0
1 1 -0.5 0.1
2 1 0.5 0.1
3 -1 0.5 0.1
4 -1 -0.5 0.1
5 1 -0.5 0.3
6 1 0.5 0.3
7 -1 0.5 0.3
8 -1 -0.5 0.3
9 1 -1.305788810412878e-12 0.1
10 2.611577620825756e-12 0.5 0.1
11 -1 2.059019621469815e-12 0.1
12 -4.118039242939631e-12 -0.5 0.1
13 1 -1.305788810412878e-12 0.3
14 2.611577620825756e-12 0.5 0.3
15 -1 2.059019621469815e-12 0.3
16 -4.118039242939631e-12 -0.5 0.3
17 1 -0.5 0.1999999999997389
18 1 0.5 0.1999999999997389
19 -1 0.5 0.1999999999997389
20 -1 -0.5 0.1999999999997389
21 -0.4125000000008328 -0.2062499999995412 0.1
22 0.2499999999991587 -0.1250000000004205 0.1
23 -0.2874999999996808 0.1479166666669072 0.1
24 0.4375000000009779 0.2187499999993463 0.1
25 1 0.2499999999993472 0.2499999999998694
26 1 -0.1250000006945421 0.2250000004163336
27 1 0.1510416672042949 0.1718750001908194
28 1 -0.2187499986985085 0.1562500002602983
29 -0.4999999999986944 0.5 0.2499999999998694
30 0.2500000013890843 0.5 0.2250000004163336
31 -0.3020833344085898 0.5 0.1718750001908194
32 0.4374999973970171 0.5 0.1562500002602983
33 -1 -0.2499999999989706 0.2499999999998694
34 -1 -0.1250000020816682 0.1749999998610539
35 -1 0.1406249995866217 0.2302083334126632
36 -1 0.2187499992188784 0.1562500000869013
37 0.4999999999979412 -0.5 0.2499999999998694
38 0.2500000041633363 -0.5 0.1749999998610539
39 -0.2812499991732433 -0.5 0.2302083334126632
40 -0.4374999984377568 -0.5 0.1562500000869013
41 -0.4125000000008328 -0.2062499999995412 0.3
42 0.2499999999991587 -0.1250000000004205 0.3
43 -0.2874999999996808 0.1479166666669072 0.3
44 0.4375000000009779 0.2187499999993463 0.3
45 -0.02607924021721297 0.007849661623386517 0.202616553699075
$EndNodeData
$NodeData
1
"vector"
1
2
4
2
3
45
0
1 1.5 -0.5 0.2
2 1.5 0.5 0.2
3 -1.5 0.5 0.2
4 -1.5 -0.5 0.2
5 1.5 -0.5 0.4
6 1.5 0.5 0.4
7 -1.5 0.5 0.4
8 -1.5 -0.5 0.4
9 1.5 -1.305788810412878e-12 0.2
10 3.917366431238634e-12 0.5 0.2
11 -1.5 2.059019621469815e-12 0.2
12 -6.177058864409446e-12 -0.5 0.2
13 1.5 -1.305788810412878e-12 0.4
14 3.917366431238634e-12 0.5 0.4
15 -1.5 2.059019621469815e-12 0.4
16 -6.177058864409446e-12 -0.5 0.4
17 1.5 -0.5 0.2999999999997389
18 1.5 0.5 0.2999999999997389
19 -1.5 0.5 0.2999999999997389
20 -1.5 -0.5 0.2999999999997389
21 -0.6187500000012491 -0.2062499999995412 0.2
22 0.374999999998738 -0.1250000000004205 0.2
23 -0.4312499999995212 0.1479166666669072 0.2
24 0.6562500000014668 0.2187499999993463 0.2
25 1.5 0.2499999999993472 0.3499999999998694
26 1.5 -0.1250000006945421 0.3250000004163336
27 1.5 0.1510416672042949 0.2718750001908193
28 1.5 -0.2187499986985085 0.2562500002602983
29 -0.7499999999980416 0.5 0.3499999999998694
30 0.3750000020836264 0.5 0.3250000004163336
31 -0.4531250016128847 0.5 0.2718750001908193
32 0.6562499960955256 0.5 0.2562500002602983
33 -1.5 -0.2499999999989706 0.3499999999998694
34 -1.5 -0.1250000020816682 0.2749999998610539
35 -1.5 0.1406249995866217 0.3302083334126632
36 -1.5 0.2187499992188784 0.2562500000869013
37 0.7499999999969118 -0.5 0.3499999999998694
38 0.3750000062450045 -0.5 0.2749999998610539
39 -0.421874998759865 -0.5 0.3302083334126632
40 -0.6562499976566352 -0.5 0.2562500000869013
41 -0.6187500000012491 -0.2062499999995412 0.4
42 0.374999999998738 -0.1250000000004205 0.4
43 -0.4312499999995212 0.1479166666669072 0.4
44 0.6562500000014668 0.2187499999993463 0.4
45 -0.03911886032581946 0.007849661623386517 0.302616553699075
$EndNodeData
$InterpolationScheme
"INTERPOLATION_SCHEME"
4
1
2
1 1
1 
1 1
0 
2
2
2 2
0.5 -0.5 
0.5 0.5 
2 1
0 
1 
3
2
3 3
1 -1 -1 
0 1 0 
0 0 1 
3 2
0 0 
1 0 
0 1 
5
2
4 4
1 -1 -1 -1 
0 1 0 0 
0 0 1 0 
0 0 0 1 
4 3
0 0 0 
1 0 0 
0 1 0 
0 0 1 
$EndInterpolationScheme
$NodeData
1
"tensor"
1
0
4
0
9
45
0
1 1 0 0 0 2 0 0 0 3
2 2 0 0 0 2 0 0 0 3
3 2 1 0 1 3 0 0 0 3
4 1 1 0 1 3 0 0 0 3
5 1 0 1 0 2 0 1 0 4
6 2 0 1 0 2 1 1 1 4
7 2 1 1 1 3 1 1 1 4
8 1 1 1 1 3 0 1 0 4
9 1.499999999998694 0 0 0 2 0 0 0 3
10 2 0.4999999999986942 0 0.4999999999986942 2.499999999998694 0 0 0 3
11 1.500000000002059 1 0 1 3 0 0 0 3
12 1 0.500000000002059 0 0.500000000002059 2.500000000002059 0 0 0 3
13 1.499999999998694 0 1 0 2 0.4999999999986942 1 0.4999999999986942 4
14 2 0.4999999999986942 1 0.4999999999986942 2.499999999998694 1 1 1 4
15 1.500000000002059 1 1 1 3 0.500000000002059 1 0.500000000002059 4
16 1 0.500000000002059 1 0.500000000002059 2.500000000002059 0 1 0 4
17 1 0 0.4999999999986942 0 2 0 0.4999999999986942 0 3.499999999998694
18 2 0 0.4999999999986942 0 2 0.4999999999986942 0.4999999999986942 0.4999999999986942 3.499999999998694
19 2 1 0.4999999999986942 1 3 0.4999999999986942 0.4999999999986942 0.4999999999986942 3.499999999998694
20 1 1 0.4999999999986942 1 3 0 0.4999999999986942 0 3.499999999998694
21 1.293750000000459 0.7062500000004164 0 0.7062500000004164 2.706250000000416 0 0 0 3
22 1.374999999999579 0.3750000000004207 0 0.3750000000004207 2.375000000000421 0 0 0 3
23 1.647916666666907 0.6437499999998404 0 0.6437499999998404 2.64374999999984 0 0 0 3
24 1.718749999999346 0.2812499999995111 0 0.2812499999995111 2.281249999999511 0 0 0 3
25 1.749999999999347 0 0.7499999999993471 0 2 0.5624999999990207 0.7499999999993471 0.5624999999990207 3.749999999999347
26 1.374999999305458 0 0.6250000020816681 0 2 0.2343750003465367 0.6250000020816681 0.2343750003465367 3.625000002081668
27 1.651041667204295 0 0.3593750009540967 0 2 0.2339680997727002 0.3593750009540967 0.2339680997727002 3.359375000954097
28 1.281250001301491 0 0.2812500013014915 0 2 0.07910156323208896 0.2812500013014915 0.07910156323208896 3.281250001301491
29 2 0.7499999999993472 0.7499999999993471 0.7499999999993472 2.749999999999347 0.7499999999993471 0.7499999999993471 0.7499999999993471 3.749999999999347
30 2 0.3749999993054579 0.6250000020816681 0.3749999993054579 2.374999999305458 0.6250000020816681 0.6250000020816681 0.6250000020816681 3.625000002081668
31 2 0.6510416672042949 0.3593750009540967 0.6510416672042949 2.651041667204295 0.3593750009540967 0.3593750009540967 0.3593750009540967 3.359375000954097
32 2 0.2812500013014915 0.2812500013014915 0.2812500013014915 2.281250001301491 0.2812500013014915 0.2812500013014915 0.2812500013014915 3.281250001301491
33 1.250000000001029 1 0.7499999999993471 1 3 0.1875000000006088 0.7499999999993471 0.1875000000006088 3.749999999999347
34 1.374999997918332 1 0.3749999993052694 1 3 0.1406249989588505 0.3749999993052694 0.1406249989588505 3.37499999930527
35 1.640624999586622 1 0.6510416670633159 1 3 0.4170735676933102 0.6510416670633159 0.4170735676933102 3.651041667063316
36 1.718749999218878 1 0.2812500004345064 1 3 0.202148437592611 0.2812500004345064 0.202148437592611 3.281250000434506
37 1 0.2500000000010294 0.7499999999993472 0.2500000000010294 2.250000000001029 0 0.7499999999993472 0 3.749999999999347
38 1 0.3749999979183318 0.3749999993052695 0.3749999979183318 2.374999997918332 0 0.3749999993052695 0 3.37499999930527
39 1 0.6406249995866217 0.6510416670633159 0.6406249995866217 2.640624999586622 0 0.6510416670633159 0 3.651041667063316
40 1 0.7187499992188784 0.2812500004345063 0.7187499992188784 2.718749999218878 0 0.2812500004345063 0 3.281250000434506
41 1.293750000000459 0.7062500000004164 1 0.7062500000004164 2.706250000000416 0.2937500000004588 1 0.2937500000004588 4
42 1.374999999999579 0.3750000000004207 1 0.3750000000004207 2.375000000000421 0.3749999999995795 1 0.3749999999995795 4
43 1.647916666666907 0.6437499999998404 1 0.6437499999998404 2.64374999999984 0.6479166666669072 1 0.6479166666669072 4
44 1.718749999999346 0.2812499999995111 1 0.2812499999995111 2.281249999999511 0.7187499999993463 1 0.7187499999993463 4
45 1.507849661623387 0.5130396201086065 0.5130827684953748 0.5130396201086065 2.513039620108606 0.2605689103651664 0.5130827684953748 0.2605689103651664 3.513082768495375
$EndNodeData
$InterpolationScheme
"INTERPOLATION_SCHEME"
4
1
2
1 1
1 
1 1
0 
2
2
2 2
0.5 -0.5 
0.5 0.5 
2 1
0 
1 
3
2
3 3
1 -1 -1 
0 1 0 
0 0 1 
3 2
0 0 
1 0 
0 1 
5
2
4 4
1 -1 -1 -1 
0 1 0 0 
0 0 1 0 
0 0 0 1 
4 3
0 0 0 
1 0 0 
0 1 0 
0 0 1 
$EndInterpolationScheme
$ElementData
2
"cell"
"INTERPOLATION_SCHEME"
1
0
4
0
1
100
0
85 1.833690717663032
86 1.423344944294375
87 1.298670703173574
88 1.66992898733047
89 2.92137491037544
90 1.730050027314503
91 2.268970684240809
92 2.370571895497424
93 2.176537267208579
94 1.011312827559328
95 1.843347474424738
96 1.301117577504972
97 1.435664063568951
98 1.575694302306953
99 2.873259769503812
100 1.104351247476124
101 1.512271636454487
102 2.649752347612969
103 2.983268098126542
104 2.153960980651168
105 1.562398652128044
106 2.815834800108156
107 1.07553691238344
108 2.535314948859493
109 1.634649499443906
110 0.9231348726066407
111 1.259242107917349
112 2.824694087887497
113 0.9749092419774411
114 2.451731650083031
115 2.934680787296905
116 2.193073416583855
117 1.363081698502025
118 2.523390597575261
119 3.338671380982347
120 1.356894416386063
121 0.990428747951303
122 2.031001737516319
123 2.154617281034612
124 0.8102365060420071
125 1.737121267561327
126 3.092179014567423
127 1.576239448495613
128 2.474257536081758
129 3.239841864072479
130 3.151255246186857
131 0.5725517899169391
132 3.286692826471791
133 0.5633070538241929
134 2.147492321953299
135 1.186833135465102
136 2.124008384814493
137 2.912187163179909
138 0.8510098782605718
139 1.93929647526189
140 0.8528597928670029
141 2.540414397462675
142 3.123359511613566
143 2.321744159809688
144 1.241961688901844
145 1.439247055555695
146 3.171157195308562
147 2.7475394985686
148 2.112121267561327
149 1.288091038391486
150 3.328221629911042
151 2.611780001726118
152 2.234164633619523
153 0.6459073038224188
154 1.152095117907586
155 0.4813747715194649
156 1.446348691303285
157 1.862336618929401
158 1.586368839219073
159 2.31429647526189
160 2.448891187386894
161 0.7674005461186569
162 0.813851354022179
163 2.549744460303869
164 3.554505816955628
165 0.759032471350752
166 3.133004853420486
167 0.3776989113574918
168 1.995374458369295
169 2.270736353076725
170 0.3566041634754349
171 2.697477697323958
172 3.147569758030295
173 1.143929984647411
174 2.040745932936422
175 3.440676949811174
176 2.356505083726224
177 1.456079797387534
178 1.118101898902344
179 0.5105113596746118
180 3.032814506413082
181 1.522438362615483
182 3.043445746197027
183 1.662852727926776
184 1.215945634881541
$EndElementData
