$MeshFormat
4.1 0 8
$EndMeshFormat
$PhysicalNames
3
2 1 "bottom"
2 2 "rest"
3 3 "domain"
$EndPhysicalNames
$Entities
8 12 6 1
1 0 0 0 0 
2 1 0 0 0 
3 1 1 0 0 
4 0 1 0 0 
5 0 0 1 0 
6 1 0 1 0 
10 1 1 1 0 
14 0 1 1 0 
1 0 0 0 1 0 0 0 2 1 -2 
2 1 0 0 1 1 0 0 2 2 -3 
3 0 1 0 1 1 0 0 2 3 -4 
4 0 0 0 0 1 0 0 2 4 -1 
6 0 0 1 1 0 1 0 2 5 -6 
7 1 0 1 1 1 1 0 2 6 -10 
8 0 1 1 1 1 1 0 2 10 -14 
9 0 0 1 0 1 1 0 2 14 -5 
11 0 0 0 0 0 1 0 2 1 -5 
12 1 0 0 1 0 1 0 2 2 -6 
16 1 1 0 1 1 1 0 2 3 -10 
20 0 1 0 0 1 1 0 2 4 -14 
1 0 0 0 1 1 0 1 1 4 1 2 3 4 
13 0 0 0 1 0 1 1 2 4 1 12 -6 -11 
17 1 0 0 1 1 1 1 2 4 2 16 -7 -12 
21 0 1 0 1 1 1 1 2 4 3 20 -8 -16 
25 0 0 0 0 1 1 1 2 4 4 11 -9 -20 
26 0 0 1 1 1 1 1 2 4 6 7 8 9 
1 0 0 0 1 1 1 1 3 6 -1 26 13 17 21 25 
$EndEntities
$Nodes
27 64 1 64
0 1 0 1
1
0 0 0
0 2 0 1
2
1 0 0
0 3 0 1
3
1 1 0
0 4 0 1
4
0 1 0
0 5 0 1
5
0 0 1
0 6 0 1
6
1 0 1
0 10 0 1
7
1 1 1
0 14 0 1
8
0 1 1
1 1 0 2
9
10
0.333333333332501 0 0
0.6666666666657874 0 0
1 2 0 2
11
12
1 0.333333333332501 0
1 0.6666666666657874 0
1 3 0 2
13
14
0.6666666666675918 1 0
0.3333333333347207 1 0
1 4 0 2
15
16
0 0.6666666666675918 0
0 0.3333333333347207 0
1 6 0 2
17
18
0.333333333332501 0 1
0.6666666666657874 0 1
1 7 0 2
19
20
1 0.333333333332501 1
1 0.6666666666657874 1
1 8 0 2
21
22
0.6666666666675918 1 1
0.3333333333347207 1 1
1 9 0 2
23
24
0 0.6666666666675918 1
0 0.3333333333347207 1
1 11 0 2
25
26
0 0 0.333333333332501
0 0 0.6666666666657874
1 12 0 2
27
28
1 0 0.333333333332501
1 0 0.6666666666657874
1 16 0 2
29
30
1 1 0.333333333332501
1 1 0.6666666666657874
1 20 0 2
31
32
0 1 0.333333333332501
0 1 0.6666666666657874
2 1 0 4
33
34
35
36
0.3333333333332409 0.3333333333339809 0
0.3333333333339808 0.6666666666669903 0
0.666666666666389 0.3333333333332409 0
0.6666666666669905 0.666666666666389 0
2 13 0 4
37
38
39
40
0.333333333332501 0 0.333333333332501
0.333333333332501 0 0.6666666666657874
0.6666666666657874 0 0.333333333332501
0.6666666666657874 0 0.6666666666657874
2 17 0 4
41
42
43
44
1 0.333333333332501 0.333333333332501
1 0.333333333332501 0.6666666666657874
1 0.6666666666657874 0.333333333332501
1 0.6666666666657874 0.6666666666657874
2 21 0 4
45
46
47
48
0.6666666666675918 1 0.333333333332501
0.6666666666675918 1 0.6666666666657874
0.3333333333347207 1 0.333333333332501
0.3333333333347207 1 0.6666666666657874
2 25 0 4
49
50
51
52
0 0.6666666666675918 0.333333333332501
0 0.6666666666675918 0.6666666666657874
0 0.3333333333347207 0.333333333332501
0 0.3333333333347207 0.6666666666657874
2 26 0 4
53
54
55
56
0.3333333333332409 0.3333333333339809 1
0.3333333333339808 0.6666666666669903 1
0.666666666666389 0.3333333333332409 1
0.6666666666669905 0.666666666666389 1
3 1 0 8
57
58
59
60
61
62
63
64
0.3333333333332408 0.3333333333339809 0.333333333332501
0.333333333333241 0.3333333333339809 0.6666666666657874
0.333333333333981 0.6666666666669904 0.333333333332501
0.3333333333339809 0.6666666666669905 0.6666666666657874
0.6666666666663887 0.3333333333332409 0.333333333332501
0.6666666666663887 0.3333333333332409 0.6666666666657873
0.6666666666669905 0.6666666666663889 0.333333333332501
0.6666666666669904 0.6666666666663889 0.6666666666657874
$EndNodes
$Elements
7 81 1 81
2 1 3 9
1 1 9 33 16 
2 16 33 34 15 
3 15 34 14 4 
4 9 10 35 33 
5 33 35 36 34 
6 34 36 13 14 
7 10 2 11 35 
8 35 11 12 36 
9 36 12 3 13 
2 13 3 9
10 1 9 37 25 
11 25 37 38 26 
12 26 38 17 5 
13 9 10 39 37 
14 37 39 40 38 
15 38 40 18 17 
16 10 2 27 39 
17 39 27 28 40 
18 40 28 6 18 
2 17 3 9
19 2 11 41 27 
20 27 41 42 28 
21 28 42 19 6 
22 11 12 43 41 
23 41 43 44 42 
24 42 44 20 19 
25 12 3 29 43 
26 43 29 30 44 
27 44 30 7 20 
2 21 3 9
28 3 13 45 29 
29 29 45 46 30 
30 30 46 21 7 
31 13 14 47 45 
32 45 47 48 46 
33 46 48 22 21 
34 14 4 31 47 
35 47 31 32 48 
36 48 32 8 22 
2 25 3 9
37 4 15 49 31 
38 31 49 50 32 
39 32 50 23 8 
40 15 16 51 49 
41 49 51 52 50 
42 50 52 24 23 
43 16 1 25 51 
44 51 25 26 52 
45 52 26 5 24 
2 26 3 9
46 5 17 53 24 
47 24 53 54 23 
48 23 54 22 8 
49 17 18 55 53 
50 53 55 56 54 
51 54 56 21 22 
52 18 6 19 55 
53 55 19 20 56 
54 56 20 7 21 
3 1 5 27
55 1 9 33 16 25 37 57 51 
56 25 37 57 51 26 38 58 52 
57 26 38 58 52 5 17 53 24 
58 16 33 34 15 51 57 59 49 
59 51 57 59 49 52 58 60 50 
60 52 58 60 50 24 53 54 23 
61 15 34 14 4 49 59 47 31 
62 49 59 47 31 50 60 48 32 
63 50 60 48 32 23 54 22 8 
64 9 10 35 33 37 39 61 57 
65 37 39 61 57 38 40 62 58 
66 38 40 62 58 17 18 55 53 
67 33 35 36 34 57 61 63 59 
68 57 61 63 59 58 62 64 60 
69 58 62 64 60 53 55 56 54 
70 34 36 13 14 59 63 45 47 
71 59 63 45 47 60 64 46 48 
72 60 64 46 48 54 56 21 22 
73 10 2 11 35 39 27 41 61 
74 39 27 41 61 40 28 42 62 
75 40 28 42 62 18 6 19 55 
76 35 11 12 36 61 41 43 63 
77 61 41 43 63 62 42 44 64 
78 62 42 44 64 55 19 20 56 
79 36 12 3 13 63 43 29 45 
80 63 43 29 45 64 44 30 46 
81 64 44 30 46 56 20 7 21 
$EndElements
$InterpolationScheme
"INTERPOLATION_SCHEME"
4
1
2
1 1
1 
1 1
0 
2
2
2 2
0.5 -0.5 
0.5 0.5 
2 1
0 
1 
4
2
4 4
0.25 -0.25 0.25 -0.25 
0.25 0.25 -0.25 -0.25 
0.25 0.25 0.25 0.25 
0.25 -0.25 -0.25 0.25 
4 2
0 0 
1 0 
1 1 
0 1 
8
2
8 8
0.125 -0.125 0.125 -0.125 -0.125 0.125 -0.125 0.125 
0.125 0.125 -0.125 -0.125 -0.125 -0.125 0.125 0.125 
0.125 0.125 0.125 0.125 -0.125 -0.125 -0.125 -0.125 
0.125 -0.125 -0.125 0.125 -0.125 0.125 0.125 -0.125 
0.125 -0.125 0.125 -0.125 0.125 -0.125 0.125 -0.125 
0.125 0.125 -0.125 -0.125 0.125 0.125 -0.125 -0.125 
0.125 0.125 0.125 0.125 0.125 0.125 0.125 0.125 
0.125 -0.125 -0.125 0.125 0.125 -0.125 -0.125 0.125 
8 3
0 0 0 
1 0 0 
1 1 0 
0 1 0 
0 0 1 
1 0 1 
1 1 1 
0 1 1 
$EndInterpolationScheme
$NodeData
1
"scalar"
1
0
4
0
1
64
0
1 0
2 1
3 3.141120008059867
4 2
5 0.5
6 1.5
7 3.641120008059867
8 2.5
9 0.1111111111105562
10 0.4444444444432721
11 1.713706669351507
12 2.427413338704695
13 3.353741871270205
14 2.952582095922181
15 1.333333333335184
16 0.6666666666694414
17 0.6111111111105563
18 0.9444444444432721
19 2.213706669351507
20 2.927413338704695
21 3.853741871270205
22 3.452582095922181
23 1.833333333335184
24 1.166666666669441
25 0.1666666666662505
26 0.3333333333328937
27 1.16666666666625
28 1.333333333332894
29 3.307786674726118
30 3.474453341392761
31 2.16666666666625
32 2.333333333332894
33 1.058268106048805
34 2.005425100985093
35 1.414210253385815
36 2.383976062327587
37 0.2777777777768068
38 0.44444444444345
39 0.6111111111095227
40 0.7777777777761659
41 1.880373336017757
42 2.047040002684401
43 2.594080005370946
44 2.760746672037589
45 3.520408537936455
46 3.687075204603098
47 3.119248762588432
48 3.285915429255075
49 1.500000000001434
50 1.666666666668077
51 0.8333333333356919
52 1.000000000002335
53 1.558268106048805
54 2.505425100985093
55 1.914210253385815
56 2.883976062327587
57 1.224934772715055
58 1.391601439381699
59 2.172091767651344
60 2.338758434317987
61 1.580876920052065
62 1.747543586718708
63 2.550642728993837
64 2.71730939566048
$EndNodeData
$NodeData
1
"scalar"
1
1
4
1
1
64
0
1 0
2 2
3 6.141120008059867
4 4
5 1
6 3
7 7.141120008059867
8 5
9 0.2222222222211125
10 0.8888888888865443
11 3.380373336016509
12 4.76074667203627
13 5.798186315715882
14 5.063693207034218
15 2.666666666670367
16 1.333333333338883
17 1.222222222221113
18 1.888888888886544
19 4.380373336016509
20 5.76074667203627
21 6.798186315715882
22 6.063693207034218
23 3.666666666670367
24 2.333333333338883
25 0.333333333332501
26 0.6666666666657874
27 2.333333333332501
28 2.666666666665788
29 6.474453341392368
30 6.807786674725655
31 4.333333333332501
32 4.666666666665788
33 1.836045883827817
34 3.449869545430616
35 2.525321364496371
36 4.161753840105241
37 0.5555555555536136
38 0.8888888888869
39 1.222222222219045
40 1.555555555552332
41 3.71370666934901
42 4.047040002682297
43 5.094080005368771
44 5.427413338702058
45 6.131519649048383
46 6.46485298238167
47 5.397026540366719
48 5.730359873700006
49 3.000000000002868
50 3.333333333336155
51 1.666666666671384
52 2.00000000000467
53 2.836045883827817
54 4.449869545430616
55 3.525321364496371
56 5.161753840105241
57 2.169379217160317
58 2.502712550493604
59 3.783202878763118
60 4.116536212096405
61 2.858654697828871
62 3.191988031162158
63 4.49508717343774
64 4.828420506771027
$EndNodeData
$NodeData
1
"scalar"
1
2
4
2
1
64
0
1 0
2 3
3 9.141120008059866
4 6
5 1.5
6 4.5
7 10.64112000805987
8 7.5
9 0.3333333333316687
10 1.333333333329816
11 5.047040002681512
12 7.094080005367845
13 8.24263076016156
14 7.174804318146254
15 4.000000000005551
16 2.000000000008324
17 1.833333333331669
18 2.833333333329816
19 6.547040002681512
20 8.594080005367845
21 9.74263076016156
22 8.674804318146254
23 5.500000000005551
24 3.500000000008324
25 0.4999999999987516
26 0.9999999999986812
27 3.499999999998751
28 3.999999999998681
29 9.641120008058618
30 10.14112000805855
31 6.499999999998751
32 6.999999999998682
33 2.613823661606828
34 4.894313989876141
35 3.636432475606927
36 5.939531617882895
37 0.8333333333304204
38 1.33333333333035
39 1.833333333328568
40 2.333333333328498
41 5.547040002680263
42 6.047040002680193
43 7.594080005366596
44 8.094080005366527
45 8.742630760160312
46 9.242630760160242
47 7.674804318145005
48 8.174804318144936
49 4.500000000004302
50 5.000000000004232
51 2.500000000007076
52 3.000000000007005
53 4.113823661606828
54 6.394313989876141
55 5.136432475606926
56 7.439531617882895
57 3.113823661605578
58 3.613823661605509
59 5.394313989874893
60 5.894313989874822
61 4.136432475605677
62 4.636432475605607
63 6.439531617881644
64 6.939531617881575
$EndNodeData
$InterpolationScheme
"INTERPOLATION_SCHEME"
4
1
2
1 1
1 
1 1
0 
2
2
2 2
0.5 -0.5 
0.5 0.5 
2 1
0 
1 
4
2
4 4
0.25 -0.25 0.25 -0.25 
0.25 0.25 -0.25 -0.25 
0.25 0.25 0.25 0.25 
0.25 -0.25 -0.25 0.25 
4 2
0 0 
1 0 
1 1 
0 1 
8
2
8 8
0.125 -0.125 0.125 -0.125 -0.125 0.125 -0.125 0.125 
0.125 0.125 -0.125 -0.125 -0.125 -0.125 0.125 0.125 
0.125 0.125 0.125 0.125 -0.125 -0.125 -0.125 -0.125 
0.125 -0.125 -0.125 0.125 -0.125 0.125 0.125 -0.125 
0.125 -0.125 0.125 -0.125 0.125 -0.125 0.125 -0.125 
0.125 0.125 -0.125 -0.125 0.125 0.125 -0.125 -0.125 
0.125 0.125 0.125 0.125 0.125 0.125 0.125 0.125 
0.125 -0.125 -0.125 0.125 0.125 -0.125 -0.125 0.125 
8 3
0 0 0 
1 0 0 
1 1 0 
0 1 0 
0 0 1 
1 0 1 
1 1 1 
0 1 1 
$EndInterpolationScheme
$NodeData
1
"vector"
1
0
4
0
3
64
0
1 0.5 -0.5 0
2 0.5 0.5 0
3 -0.5 0.5 0
4 -0.5 -0.5 0
5 0.5 -0.5 0.2
6 0.5 0.5 0.2
7 -0.5 0.5 0.2
8 -0.5 -0.5 0.2
9 0.5 -0.166666666667499 0
10 0.5 0.1666666666657874 0
11 0.166666666667499 0.5 0
12 -0.1666666666657874 0.5 0
13 -0.5 0.1666666666675918 0
14 -0.5 -0.1666666666652793 0
15 -0.1666666666675918 -0.5 0
16 0.1666666666652793 -0.5 0
17 0.5 -0.166666666667499 0.2
18 0.5 0.1666666666657874 0.2
19 0.166666666667499 0.5 0.2
20 -0.1666666666657874 0.5 0.2
21 -0.5 0.1666666666675918 0.2
22 -0.5 -0.1666666666652793 0.2
23 -0.1666666666675918 -0.5 0.2
24 0.1666666666652793 -0.5 0.2
25 0.5 -0.5 0.06666666666650022
26 0.5 -0.5 0.1333333333331575
27 0.5 0.5 0.06666666666650022
28 0.5 0.5 0.1333333333331575
29 -0.5 0.5 0.06666666666650022
30 -0.5 0.5 0.1333333333331575
31 -0.5 -0.5 0.06666666666650022
32 -0.5 -0.5 0.1333333333331575
33 0.1666666666660191 -0.1666666666667591 0
34 -0.1666666666669903 -0.1666666666660192 0
35 0.1666666666667591 0.166666666666389 0
36 -0.166666666666389 0.1666666666669905 0
37 0.5 -0.166666666667499 0.06666666666650022
38 0.5 -0.166666666667499 0.1333333333331575
39 0.5 0.1666666666657874 0.06666666666650022
40 0.5 0.1666666666657874 0.1333333333331575
41 0.166666666667499 0.5 0.06666666666650022
42 0.166666666667499 0.5 0.1333333333331575
43 -0.1666666666657874 0.5 0.06666666666650022
44 -0.1666666666657874 0.5 0.1333333333331575
45 -0.5 0.1666666666675918 0.06666666666650022
46 -0.5 0.1666666666675918 0.1333333333331575
47 -0.5 -0.1666666666652793 0.06666666666650022
48 -0.5 -0.1666666666652793 0.1333333333331575
49 -0.1666666666675918 -0.5 0.06666666666650022
50 -0.1666666666675918 -0.5 0.1333333333331575
51 0.1666666666652793 -0.5 0.06666666666650022
52 0.1666666666652793 -0.5 0.1333333333331575
53 0.1666666666660191 -0.1666666666667591 0.2
54 -0.1666666666669903 -0.1666666666660192 0.2
55 0.1666666666667591 0.166666666666389 0.2
56 -0.166666666666389 0.1666666666669905 0.2
57 0.1666666666660191 -0.1666666666667592 0.06666666666650022
58 0.1666666666660191 -0.166666666666759 0.1333333333331575
59 -0.1666666666669904 -0.166666666666019 0.06666666666650022
60 -0.1666666666669905 -0.1666666666660191 0.1333333333331575
61 0.1666666666667591 0.1666666666663887 0.0666666666665002
62 0.1666666666667591 0.1666666666663887 0.1333333333331575
63 -0.1666666666663889 0.1666666666669905 0.06666666666650022
64 -0.1666666666663889 0.1666666666669904 0.1333333333331575
$EndNodeData
$NodeData
1
"vector"
1
1
4
1
3
64
0
1 1 -0.5 0.1
2 1 0.5 0.1
3 -1 0.5 0.1
4 -1 -0.5 0.1
5 1 -0.5 0.3
6 1 0.5 0.3
7 -1 0.5 0.3
8 -1 -0.5 0.3
9 1 -0.166666666667499 0.1
10 1 0.1666666666657874 0.1
11 0.3333333333349979 0.5 0.1
12 -0.3333333333315749 0.5 0.1
13 -1 0.1666666666675918 0.1
14 -1 -0.1666666666652793 0.1
15 -0.3333333333351836 -0.5 0.1
16 0.3333333333305586 -0.5 0.1
17 1 -0.166666666667499 0.3
18 1 0.1666666666657874 0.3
19 0.3333333333349979 0.5 0.3
20 -0.3333333333315749 0.5 0.3
21 -1 0.1666666666675918 0.3
22 -1 -0.1666666666652793 0.3
23 -0.3333333333351836 -0.5 0.3
24 0.3333333333305586 -0.5 0.3
25 1 -0.5 0.1666666666665002
26 1 -0.5 0.2333333333331575
27 1 0.5 0.1666666666665002
28 1 0.5 0.2333333333331575
29 -1 0.5 0.1666666666665002
30 -1 0.5 0.2333333333331575
31 -1 -0.5 0.1666666666665002
32 -1 -0.5 0.2333333333331575
33 0.3333333333320382 -0.1666666666667591 0.1
34 -0.3333333333339805 -0.1666666666660192 0.1
35 0.3333333333335181 0.166666666666389 0.1
36 -0.3333333333327779 0.1666666666669905 0.1
37 1 -0.166666666667499 0.1666666666665002
38 1 -0.166666666667499 0.2333333333331575
39 1 0.1666666666657874 0.1666666666665002
40 1 0.1666666666657874 0.2333333333331575
41 0.3333333333349979 0.5 0.1666666666665002
42 0.3333333333349979 0.5 0.2333333333331575
43 -0.3333333333315749 0.5 0.1666666666665002
44 -0.3333333333315749 0.5 0.2333333333331575
45 -1 0.1666666666675918 0.1666666666665002
46 -1 0.1666666666675918 0.2333333333331575
47 -1 -0.1666666666652793 0.1666666666665002
48 -1 -0.1666666666652793 0.2333333333331575
49 -0.3333333333351836 -0.5 0.1666666666665002
50 -0.3333333333351836 -0.5 0.2333333333331575
51 0.3333333333305586 -0.5 0.1666666666665002
52 0.3333333333305586 -0.5 0.2333333333331575
53 0.3333333333320382 -0.1666666666667591 0.3
54 -0.3333333333339805 -0.1666666666660192 0.3
55 0.3333333333335181 0.166666666666389 0.3
56 -0.3333333333327779 0.1666666666669905 0.3
57 0.3333333333320383 -0.1666666666667592 0.1666666666665002
58 0.3333333333320383 -0.166666666666759 0.2333333333331575
59 -0.3333333333339807 -0.166666666666019 0.1666666666665002
60 -0.333333333333981 -0.1666666666660191 0.2333333333331575
61 0.3333333333335182 0.1666666666663887 0.1666666666665002
62 0.3333333333335181 0.1666666666663887 0.2333333333331575
63 -0.3333333333327777 0.1666666666669905 0.1666666666665002
64 -0.3333333333327777 0.1666666666669904 0.2333333333331575
$EndNodeData
$NodeData
1
"vector"
1
2
4
2
3
64
0
1 1.5 -0.5 0.2
2 1.5 0.5 0.2
3 -1.5 0.5 0.2
4 -1.5 -0.5 0.2
5 1.5 -0.5 0.4
6 1.5 0.5 0.4
7 -1.5 0.5 0.4
8 -1.5 -0.5 0.4
9 1.5 -0.166666666667499 0.2
10 1.5 0.1666666666657874 0.2
11 0.5000000000024969 0.5 0.2
12 -0.4999999999973623 0.5 0.2
13 -1.5 0.1666666666675918 0.2
14 -1.5 -0.1666666666652793 0.2
15 -0.5000000000027753 -0.5 0.2
16 0.4999999999958379 -0.5 0.2
17 1.5 -0.166666666667499 0.4
18 1.5 0.1666666666657874 0.4
19 0.5000000000024969 0.5 0.4
20 -0.4999999999973623 0.5 0.4
21 -1.5 0.1666666666675918 0.4
22 -1.5 -0.1666666666652793 0.4
23 -0.5000000000027753 -0.5 0.4
24 0.4999999999958379 -0.5 0.4
25 1.5 -0.5 0.2666666666665002
26 1.5 -0.5 0.3333333333331575
27 1.5 0.5 0.2666666666665002
28 1.5 0.5 0.3333333333331575
29 -1.5 0.5 0.2666666666665002
30 -1.5 0.5 0.3333333333331575
31 -1.5 -0.5 0.2666666666665002
32 -1.5 -0.5 0.3333333333331575
33 0.4999999999980573 -0.1666666666667591 0.2
34 -0.5000000000009708 -0.1666666666660192 0.2
35 0.5000000000002771 0.166666666666389 0.2
36 -0.4999999999991669 0.1666666666669905 0.2
37 1.5 -0.166666666667499 0.2666666666665002
38 1.5 -0.166666666667499 0.3333333333331575
39 1.5 0.1666666666657874 0.2666666666665002
40 1.5 0.1666666666657874 0.3333333333331575
41 0.5000000000024969 0.5 0.2666666666665002
42 0.5000000000024969 0.5 0.3333333333331575
43 -0.4999999999973623 0.5 0.2666666666665002
44 -0.4999999999973623 0.5 0.3333333333331575
45 -1.5 0.1666666666675918 0.2666666666665002
46 -1.5 0.1666666666675918 0.3333333333331575
47 -1.5 -0.1666666666652793 0.2666666666665002
48 -1.5 -0.1666666666652793 0.3333333333331575
49 -0.5000000000027753 -0.5 0.2666666666665002
50 -0.5000000000027753 -0.5 0.3333333333331575
51 0.4999999999958379 -0.5 0.2666666666665002
52 0.4999999999958379 -0.5 0.3333333333331575
53 0.4999999999980573 -0.1666666666667591 0.4
54 -0.5000000000009708 -0.1666666666660192 0.4
55 0.5000000000002771 0.166666666666389 0.4
56 -0.4999999999991669 0.1666666666669905 0.4
57 0.4999999999980574 -0.1666666666667592 0.2666666666665002
58 0.4999999999980574 -0.166666666666759 0.3333333333331575
59 -0.5000000000009711 -0.166666666666019 0.2666666666665002
60 -0.5000000000009714 -0.1666666666660191 0.3333333333331575
61 0.5000000000002773 0.1666666666663887 0.2666666666665002
62 0.5000000000002771 0.1666666666663887 0.3333333333331575
63 -0.4999999999991666 0.1666666666669905 0.2666666666665002
64 -0.4999999999991666 0.1666666666669904 0.3333333333331575
$EndNodeData
$InterpolationScheme
"INTERPOLATION_SCHEME"
4
1
2
1 1
1 
1 1
0 
2
2
2 2
0.5 -0.5 
0.5 0.5 
2 1
0 
1 
4
2
4 4
0.25 -0.25 0.25 -0.25 
0.25 0.25 -0.25 -0.25 
0.25 0.25 0.25 0.25 
0.25 -0.25 -0.25 0.25 
4 2
0 0 
1 0 
1 1 
0 1 
8
2
8 8
0.125 -0.125 0.125 -0.125 -0.125 0.125 -0.125 0.125 
0.125 0.125 -0.125 -0.125 -0.125 -0.125 0.125 0.125 
0.125 0.125 0.125 0.125 -0.125 -0.125 -0.125 -0.125 
0.125 -0.125 -0.125 0.125 -0.125 0.125 0.125 -0.125 
0.125 -0.125 0.125 -0.125 0.125 -0.125 0.125 -0.125 
0.125 0.125 -0.125 -0.125 0.125 0.125 -0.125 -0.125 
0.125 0.125 0.125 0.125 0.125 0.125 0.125 0.125 
0.125 -0.125 -0.125 0.125 0.125 -0.125 -0.125 0.125 
8 3
0 0 0 
1 0 0 
1 1 0 
0 1 0 
0 0 1 
1 0 1 
1 1 1 
0 1 1 
$EndInterpolationScheme
$NodeData
1
"tensor"
1
0
4
0
9
64
0
1 1 0 0 0 2 0 0 0 3
2 2 0 0 0 2 0 0 0 3
3 2 1 0 1 3 0 0 0 3
4 1 1 0 1 3 0 0 0 3
5 1 0 1 0 2 0 1 0 4
6 2 0 1 0 2 1 1 1 4
7 2 1 1 1 3 1 1 1 4
8 1 1 1 1 3 0 1 0 4
9 1.333333333332501 0 0 0 2 0 0 0 3
10 1.666666666665787 0 0 0 2 0 0 0 3
11 2 0.333333333332501 0 0.333333333332501 2.333333333332501 0 0 0 3
12 2 0.6666666666657874 0 0.6666666666657874 2.666666666665788 0 0 0 3
13 1.666666666667592 1 0 1 3 0 0 0 3
14 1.333333333334721 1 0 1 3 0 0 0 3
15 1 0.6666666666675918 0 0.6666666666675918 2.666666666667592 0 0 0 3
16 1 0.3333333333347207 0 0.3333333333347207 2.333333333334721 0 0 0 3
17 1.333333333332501 0 1 0 2 0.333333333332501 1 0.333333333332501 4
18 1.666666666665787 0 1 0 2 0.6666666666657874 1 0.6666666666657874 4
19 2 0.333333333332501 1 0.333333333332501 2.333333333332501 1 1 1 4
20 2 0.6666666666657874 1 0.6666666666657874 2.666666666665788 1 1 1 4
21 1.666666666667592 1 1 1 3 0.6666666666675918 1 0.6666666666675918 4
22 1.333333333334721 1 1 1 3 0.3333333333347207 1 0.3333333333347207 4
23 1 0.6666666666675918 1 0.6666666666675918 2.666666666667592 0 1 0 4
24 1 0.3333333333347207 1 0.3333333333347207 2.333333333334721 0 1 0 4
25 1 0 0.333333333332501 0 2 0 0.333333333332501 0 3.333333333332501
26 1 0 0.6666666666657874 0 2 0 0.6666666666657874 0 3.666666666665788
27 2 0 0.333333333332501 0 2 0.333333333332501 0.333333333332501 0.333333333332501 3.333333333332501
28 2 0 0.6666666666657874 0 2 0.6666666666657874 0.6666666666657874 0.6666666666657874 3.666666666665788
29 2 1 0.333333333332501 1 3 0.333333333332501 0.333333333332501 0.333333333332501 3.333333333332501
30 2 1 0.6666666666657874 1 3 0.6666666666657874 0.6666666666657874 0.6666666666657874 3.666666666665788
31 1 1 0.333333333332501 1 3 0 0.333333333332501 0 3.333333333332501
32 1 1 0.6666666666657874 1 3 0 0.6666666666657874 0 3.666666666665788
33 1.333333333333241 0.3333333333339809 0 0.3333333333339809 2.333333333333981 0 0 0 3
34 1.333333333333981 0.6666666666669903 0 0.6666666666669903 2.66666666666699 0 0 0 3
35 1.666666666666389 0.3333333333332409 0 0.3333333333332409 2.333333333333241 0 0 0 3
36 1.66666666666699 0.666666666666389 0 0.666666666666389 2.666666666666389 0 0 0 3
37 1.333333333332501 0 0.333333333332501 0 2 0.1111111111105562 0.333333333332501 0.1111111111105562 3.333333333332501
38 1.333333333332501 0 0.6666666666657874 0 2 0.2222222222213743 0.6666666666657874 0.2222222222213743 3.666666666665788
39 1.666666666665787 0 0.333333333332501 0 2 0.2222222222213743 0.333333333332501 0.2222222222213743 3.333333333332501
40 1.666666666665787 0 0.6666666666657874 0 2 0.4444444444432721 0.6666666666657874 0.4444444444432721 3.666666666665788
41 2 0.333333333332501 0.333333333332501 0.333333333332501 2.333333333332501 0.333333333332501 0.333333333332501 0.333333333332501 3.333333333332501
42 2 0.333333333332501 0.6666666666657874 0.333333333332501 2.333333333332501 0.6666666666657874 0.6666666666657874 0.6666666666657874 3.666666666665788
43 2 0.6666666666657874 0.333333333332501 0.6666666666657874 2.666666666665788 0.333333333332501 0.333333333332501 0.333333333332501 3.333333333332501
44 2 0.6666666666657874 0.6666666666657874 0.6666666666657874 2.666666666665788 0.6666666666657874 0.6666666666657874 0.6666666666657874 3.666666666665788
45 1.666666666667592 1 0.333333333332501 1 3 0.2222222222219757 0.333333333332501 0.2222222222219757 3.333333333332501
46 1.666666666667592 1 0.6666666666657874 1 3 0.4444444444444751 0.6666666666657874 0.4444444444444751 3.666666666665788
47 1.333333333334721 1 0.333333333332501 1 3 0.1111111111112961 0.333333333332501 0.1111111111112961 3.333333333332501
48 1.333333333334721 1 0.6666666666657874 1 3 0.2222222222228541 0.6666666666657874 0.2222222222228541 3.666666666665788
49 1 0.6666666666675918 0.333333333332501 0.6666666666675918 2.666666666667592 0 0.333333333332501 0 3.333333333332501
50 1 0.6666666666675918 0.6666666666657874 0.6666666666675918 2.666666666667592 0 0.6666666666657874 0 3.666666666665788
51 1 0.3333333333347207 0.333333333332501 0.3333333333347207 2.333333333334721 0 0.333333333332501 0 3.333333333332501
52 1 0.3333333333347207 0.6666666666657874 0.3333333333347207 2.333333333334721 0 0.6666666666657874 0 3.666666666665788
53 1.333333333333241 0.3333333333339809 1 0.3333333333339809 2.333333333333981 0.3333333333332409 1 0.3333333333332409 4
54 1.333333333333981 0.6666666666669903 1 0.6666666666669903 2.66666666666699 0.3333333333339808 1 0.3333333333339808 4
55 1.666666666666389 0.3333333333332409 1 0.3333333333332409 2.333333333333241 0.666666666666389 1 0.666666666666389 4
56 1.66666666666699 0.666666666666389 1 0.666666666666389 2.666666666666389 0.6666666666669905 1 0.6666666666669905 4
57 1.333333333333241 0.3333333333339809 0.333333333332501 0.3333333333339809 2.333333333333981 0.1111111111108028 0.333333333332501 0.1111111111108028 3.333333333332501
58 1.333333333333241 0.3333333333339809 0.6666666666657874 0.3333333333339809 2.333333333333981 0.2222222222218676 0.6666666666657874 0.2222222222218676 3.666666666665788
59 1.333333333333981 0.6666666666669904 0.333333333332501 0.6666666666669904 2.66666666666699 0.1111111111110496 0.333333333332501 0.1111111111110496 3.333333333332501
60 1.333333333333981 0.6666666666669905 0.6666666666657874 0.6666666666669905 2.66666666666699 0.2222222222223608 0.6666666666657874 0.2222222222223608 3.666666666665788
61 1.666666666666389 0.3333333333332409 0.333333333332501 0.3333333333332409 2.333333333333241 0.2222222222215747 0.333333333332501 0.2222222222215747 3.333333333332501
62 1.666666666666389 0.3333333333332409 0.6666666666657873 0.3333333333332409 2.333333333333241 0.4444444444436729 0.6666666666657873 0.4444444444436729 3.666666666665787
63 1.66666666666699 0.6666666666663889 0.333333333332501 0.6666666666663889 2.666666666666389 0.2222222222217753 0.333333333332501 0.2222222222217753 3.333333333332501
64 1.66666666666699 0.6666666666663889 0.6666666666657874 0.6666666666663889 2.666666666666389 0.4444444444440741 0.6666666666657874 0.4444444444440741 3.666666666665788
$EndNodeData
$InterpolationScheme
"INTERPOLATION_SCHEME"
4
1
2
1 1
1 
1 1
0 
2
2
2 2
0.5 -0.5 
0.5 0.5 
2 1
0 
1 
4
2
4 4
0.25 -0.25 0.25 -0.25 
0.25 0.25 -0.25 -0.25 
0.25 0.25 0.25 0.25 
0.25 -0.25 -0.25 0.25 
4 2
0 0 
1 0 
1 1 
0 1 
8
2
8 8
0.125 -0.125 0.125 -0.125 -0.125 0.125 -0.125 0.125 
0.125 0.125 -0.125 -0.125 -0.125 -0.125 0.125 0.125 
0.125 0.125 0.125 0.125 -0.125 -0.125 -0.125 -0.125 
0.125 -0.125 -0.125 0.125 -0.125 0.125 0.125 -0.125 
0.125 -0.125 0.125 -0.125 0.125 -0.125 0.125 -0.125 
0.125 0.125 -0.125 -0.125 0.125 0.125 -0.125 -0.125 
0.125 0.125 0.125 0.125 0.125 0.125 0.125 0.125 
0.125 -0.125 -0.125 0.125 0.125 -0.125 -0.125 0.125 
8 3
0 0 0 
1 0 0 
1 1 0 
0 1 0 
0 0 1 
1 0 1 
1 1 1 
0 1 1 
$EndInterpolationScheme
$ElementData
2
"cell"
"INTERPOLATION_SCHEME"
1
0
4
0
1
27
0
55 0.524348700879353
56 0.6910153675458
57 0.8576820342126747
58 1.350823880415269
59 1.517490547081716
60 1.684157213748591
61 2.177299059949798
62 2.343965726616245
63 2.51063239328312
64 0.8329158311003448
65 0.9995824977667918
66 1.166249164433667
67 1.832080826635769
68 1.998747493302216
69 2.165414159969091
70 2.831245822170838
71 2.997912488837285
72 3.16457915550416
73 1.210856468460596
74 1.377523135127042
75 1.544189801793917
76 2.077013849828201
77 2.243680516494648
78 2.410347183161523
79 2.943171231196677
80 3.109837897863124
81 3.276504564529999
$EndElementData
