$MeshFormat
4.2 0 8
$EndMeshFormat
$Entities
0 0 1 1
1 0 0.0669872981077807 -1 1 0.9330127018922194 -1 0 0 0 
1 0 0.0669872981077807 0 1 0.9330127018922194 1 0 0 0 
$EndEntities
$Nodes
2 19 1 19
2 1 0 7
13
19
14
15
16
17
18
1 0.5 -1
0.875 0.7165063509461096 -1
0.75 0.9330127018922193 -1
0.2500000000000001 0.9330127018922194 -1
0 0.5000000000000001 -1
0.2499999999999998 0.06698729810778081 -1
0.75 0.0669872981077807 -1
3 1 0 12
1
2
3
4
5
6
7
8
9
10
11
12
1 0.5 0
0.75 0.9330127018922193 0
0.2500000000000001 0.9330127018922194 0
0 0.5000000000000001 0
0.2499999999999998 0.06698729810778081 0
0.75 0.0669872981077807 0
1 0.5 1
0.75 0.9330127018922193 1
0.2500000000000001 0.9330127018922194 1
0 0.5000000000000001 1
0.2499999999999998 0.06698729810778081 1
0.75 0.0669872981077807 1
$EndNodes
$Polytopes
2 2 1 2
2 1 34 1
2 7 13 19 14 15 16 17 18 
0 
3 1 35 1
1 8
6 6 5 4 3 2 1 
6 7 8 9 10 11 12 
4 1 2 8 7 
4 2 3 9 8 
4 3 4 10 9 
4 4 5 11 10 
4 5 6 12 11 
4 6 1 7 12 
0 
$EndPolytopes
$NodeData
1
"scalar"
1
0
4
0
1
19
0
1 19 1 19
19
1
2
3
4
5
6
7
8
9
10
11
12
13
14
15
16
17
18
19
2.070560004029934
3.154477579482754
2.564503024988272
1
0.2421357350350626
0.7485956174051666
2.570560004029934
3.654477579482754
3.064503024988272
1.5
0.7421357350350626
1.248595617405166
1.570560004029934
2.654477579482754
2.064503024988272
0.5000000000000002
-0.2578642649649374
0.2485956174051665
2.052534732707547
$EndNodeData
