$MeshFormat
4.1 0 8
$EndMeshFormat
$PhysicalNames
3
1 1 "bottom"
1 2 "rest"
2 3 "domain"
$EndPhysicalNames
$Entities
4 4 1 0
1 0 0 0 0 
2 1 0 0 0 
3 1 1 0 0 
4 0 1 0 0 
1 0 0 0 1 0 0 1 1 2 1 -2 
2 1 0 0 1 1 0 1 2 2 2 -3 
3 0 1 0 1 1 0 1 2 2 3 -4 
4 0 0 0 0 1 0 1 2 2 4 -1 
1 0 0 0 1 1 0 1 3 4 1 2 3 4 
$EndEntities
$Nodes
9 44 1 44
0 1 0 1
1
0 0 0
0 2 0 1
2
1 0 0
0 3 0 1
3
1 1 0
0 4 0 1
4
0 1 0
1 1 0 4
5
6
7
8
0.1999999999995579 0 0
0.399999999998975 0 0
0.5999999999989468 0 0
0.7999999999994734 0 0
1 2 0 4
9
10
11
12
1 0.1999999999995579 0
1 0.399999999998975 0
1 0.5999999999989468 0
1 0.7999999999994734 0
1 3 0 4
13
14
15
16
0.7999999999999998 1 0
0.6000000000013869 1 0
0.4000000000016644 1 0
0.2000000000008322 1 0
1 4 0 4
17
18
19
20
0 0.7999999999999998 0
0 0.6000000000013869 0
0 0.4000000000016644 0
0 0.2000000000008322 0
2 1 0 24
21
22
23
24
25
26
27
28
29
30
31
32
33
34
35
36
37
38
39
40
41
42
43
44
0.17787903949678 0.4714804038918034 0
0.8361002348924937 0.4830131744877965 0
0.5106045194397557 0.1678496020140732 0
0.5006187929075534 0.8473114322428079 0
0.3681865836002557 0.8384576218969021 0
0.3584618639304753 0.6753323161309946 0
0.5670286758697267 0.7201045305893017 0
0.5240441670326009 0.517562167884958 0
0.76805759816677 0.6653433714026008 0
0.8344674048300353 0.3572393530807341 0
0.2149583979953767 0.322395186122919 0
0.1784899174410972 0.6426814596581822 0
0.2957923799803225 0.1909558689232854 0
0.6708365011622087 0.84616430889422 0
0.6432139038418585 0.1712755717602608 0
0.3373064249586917 0.3883840941581721 0
0.666014874505892 0.3395209160352908 0
0.4648542559759298 0.3157925139356045 0
0.1866705500278782 0.8206384668735711 0
0.8051740522430277 0.8290999588493613 0
0.1778047075916408 0.123129219651701 0
0.8194092688433183 0.182416313846465 0
0.3503776467552507 0.5100481166142772 0
0.7034133657928587 0.5126550573858624 0
$EndNodes
$Elements
5 53 1 53
1 1 1 5
1 1 5 
2 5 6 
3 6 7 
4 7 8 
5 8 2 
1 2 1 5
6 2 9 
7 9 10 
8 10 11 
9 11 12 
10 12 3 
1 3 1 5
11 3 13 
12 13 14 
13 14 15 
14 15 16 
15 16 4 
1 4 1 5
16 4 17 
17 17 18 
18 18 19 
19 19 20 
20 20 1 
2 1 3 33
21 37 38 23 35 
22 38 36 31 33 
23 11 22 30 10 
24 27 24 25 26 
25 14 15 25 24 
26 20 31 21 19 
27 19 21 32 18 
28 27 34 14 24 
29 38 33 6 23 
30 6 7 35 23 
31 5 41 20 1 
32 17 39 16 4 
33 13 40 12 3 
34 9 42 8 2 
35 11 29 44 22 
36 27 26 43 28 
37 29 27 28 44 
38 26 32 21 43 
39 38 37 44 28 
40 7 8 42 35 
41 14 34 40 13 
42 18 32 39 17 
43 6 33 41 5 
44 11 12 40 29 
45 15 16 39 25 
46 10 30 42 9 
47 37 35 42 30 
48 27 29 40 34 
49 26 25 39 32 
50 20 41 33 31 
51 43 36 38 28 
52 31 36 43 21 
53 30 22 44 37 
$EndElements
$InterpolationScheme
"INTERPOLATION_SCHEME"
3
1
2
1 1
1 
1 1
0 
2
2
2 2
0.5 -0.5 
0.5 0.5 
2 1
0 
1 
4
2
4 4
0.25 -0.25 0.25 -0.25 
0.25 0.25 -0.25 -0.25 
0.25 0.25 0.25 0.25 
0.25 -0.25 -0.25 0.25 
4 2
0 0 
1 0 
1 1 
0 1 
$EndInterpolationScheme
$NodeData
1
"scalar"
1
0
4
0
1
44
0
1 0
2 1
3 3.141120008059867
4 2
5 0.03999999999982316
6 0.15999999999918
7 0.3599999999987362
8 0.6399999999991574
9 1.428224001611027
10 1.856448003221752
11 2.284672004833665
12 2.712896006446766
13 3.315463180551151
14 3.333847630878914
15 3.092039085970367
16 2.604642473397428
17 1.6
18 1.200000000002774
19 0.8000000000033287
20 0.4000000000016644
21 1.214428812122221
22 1.950937895239612
23 0.7641382606173438
24 2.790540754399662
25 2.561442603379241
26 2.073299031442357
27 2.475731718888652
28 1.827308330637982
29 2.414895113145918
30 1.623637408121147
31 0.8847888128227461
32 1.645146633249167
33 0.6174755292812606
34 2.907300217561049
35 0.9166410911692784
36 1.219835682907773
37 1.431618826285383
38 1.158575716260407
39 2.112042755239693
40 2.856974755013483
41 0.3404812210210921
42 1.151442909398622
43 1.585575550539346
44 1.959955711027875
$EndNodeData
$NodeData
1
"scalar"
1
1
4
1
1
44
0
1 0
2 2
3 6.141120008059867
4 4
5 0.07999999999964631
6 0.3199999999983599
7 0.7199999999974723
8 1.279999999998315
9 2.828224001610142
10 3.656448003219702
11 4.484672004831559
12 5.312896006445713
13 5.955463180551151
14 5.693847630880579
15 5.252039085971699
16 4.644642473397761
17 3.199999999999999
18 2.400000000005547
19 1.600000000006657
20 0.8000000000033287
21 2.189030572598125
22 3.616027847002488
23 1.360554439917794
24 4.735782794697494
25 4.373919207516273
26 3.552458571596857
27 4.237462299325832
28 3.13705495540879
29 4.335494330052827
30 3.034451964006389
31 1.575786297937323
32 2.962368203193661
33 1.086880399182255
34 5.049650446641042
35 1.672916360785284
36 2.110379495542531
37 2.554236471419063
38 2.006250223430551
39 3.788165583234546
40 5.163479927117663
41 0.6183541743662431
42 2.187707086957893
43 2.728436279113648
44 3.480056188975638
$EndNodeData
$NodeData
1
"scalar"
1
2
4
2
1
44
0
1 0
2 3
3 9.141120008059866
4 6
5 0.1199999999994695
6 0.4799999999975399
7 1.079999999996208
8 1.919999999997472
9 4.228224001609258
10 5.456448003217652
11 6.684672004829452
12 7.91289600644466
13 8.59546318055115
14 8.053847630882244
15 7.412039085973031
16 6.684642473398093
17 4.799999999999999
18 3.600000000008321
19 2.400000000009986
20 1.200000000004993
21 3.163632333074029
22 5.281117798765364
23 1.956970619218244
24 6.681024834995326
25 6.186395811653306
26 5.031618111751357
27 5.99919287976301
28 4.446801580179598
29 6.256093546959736
30 4.445266519891631
31 2.2667837830519
32 4.279589773138155
33 1.556285269083249
34 7.192000675721036
35 2.429191630401289
36 3.000923308177288
37 3.676854116552744
38 2.853924730600696
39 5.464288411229399
40 7.469985099221844
41 0.8962271277113938
42 3.223971264517165
43 3.871297007687949
44 5.000156666923401
$EndNodeData
$InterpolationScheme
"INTERPOLATION_SCHEME"
3
1
2
1 1
1 
1 1
0 
2
2
2 2
0.5 -0.5 
0.5 0.5 
2 1
0 
1 
4
2
4 4
0.25 -0.25 0.25 -0.25 
0.25 0.25 -0.25 -0.25 
0.25 0.25 0.25 0.25 
0.25 -0.25 -0.25 0.25 
4 2
0 0 
1 0 
1 1 
0 1 
$EndInterpolationScheme
$NodeData
1
"vector"
1
0
4
0
3
44
0
1 0.5 -0.5 0
2 0.5 0.5 0
3 -0.5 0.5 0
4 -0.5 -0.5 0
5 0.5 -0.3000000000004421 0
6 0.5 -0.100000000001025 0
7 0.5 0.09999999999894682 0
8 0.5 0.2999999999994734 0
9 0.3000000000004421 0.5 0
10 0.100000000001025 0.5 0
11 -0.09999999999894682 0.5 0
12 -0.2999999999994734 0.5 0
13 -0.5 0.2999999999999998 0
14 -0.5 0.1000000000013869 0
15 -0.5 -0.09999999999833564 0
16 -0.5 -0.2999999999991678 0
17 -0.2999999999999998 -0.5 0
18 -0.1000000000013869 -0.5 0
19 0.09999999999833564 -0.5 0
20 0.2999999999991678 -0.5 0
21 0.0285195961081966 -0.32212096050322 0
22 0.01698682551220354 0.3361002348924937 0
23 0.3321503979859268 0.01060451943975571 0
24 -0.3473114322428079 0.0006187929075534004 0
25 -0.3384576218969021 -0.1318134163997443 0
26 -0.1753323161309946 -0.1415381360695247 0
27 -0.2201045305893017 0.06702867586972672 0
28 -0.01756216788495801 0.02404416703260093 0
29 -0.1653433714026008 0.26805759816677 0
30 0.1427606469192659 0.3344674048300353 0
31 0.177604813877081 -0.2850416020046234 0
32 -0.1426814596581822 -0.3215100825589028 0
33 0.3090441310767146 -0.2042076200196775 0
34 -0.34616430889422 0.1708365011622087 0
35 0.3287244282397392 0.1432139038418585 0
36 0.1116159058418279 -0.1626935750413083 0
37 0.1604790839647092 0.166014874505892 0
38 0.1842074860643955 -0.03514574402407022 0
39 -0.3206384668735711 -0.3133294499721218 0
40 -0.3290999588493613 0.3051740522430277 0
41 0.376870780348299 -0.3221952924083592 0
42 0.317583686153535 0.3194092688433183 0
43 -0.01004811661427718 -0.1496223532447493 0
44 -0.01265505738586237 0.2034133657928587 0
$EndNodeData
$NodeData
1
"vector"
1
1
4
1
3
44
0
1 1 -0.5 0.1
2 1 0.5 0.1
3 -1 0.5 0.1
4 -1 -0.5 0.1
5 1 -0.3000000000004421 0.1
6 1 -0.100000000001025 0.1
7 1 0.09999999999894682 0.1
8 1 0.2999999999994734 0.1
9 0.6000000000008843 0.5 0.1
10 0.2000000000020501 0.5 0.1
11 -0.1999999999978936 0.5 0.1
12 -0.5999999999989467 0.5 0.1
13 -1 0.2999999999999998 0.1
14 -1 0.1000000000013869 0.1
15 -1 -0.09999999999833564 0.1
16 -1 -0.2999999999991678 0.1
17 -0.5999999999999996 -0.5 0.1
18 -0.2000000000027737 -0.5 0.1
19 0.1999999999966713 -0.5 0.1
20 0.5999999999983356 -0.5 0.1
21 0.0570391922163932 -0.32212096050322 0.1
22 0.03397365102440708 0.3361002348924937 0.1
23 0.6643007959718537 0.01060451943975571 0.1
24 -0.6946228644856158 0.0006187929075534004 0.1
25 -0.6769152437938042 -0.1318134163997443 0.1
26 -0.3506646322619893 -0.1415381360695247 0.1
27 -0.4402090611786034 0.06702867586972672 0.1
28 -0.03512433576991603 0.02404416703260093 0.1
29 -0.3306867428052016 0.26805759816677 0.1
30 0.2855212938385319 0.3344674048300353 0.1
31 0.355209627754162 -0.2850416020046234 0.1
32 -0.2853629193163645 -0.3215100825589028 0.1
33 0.6180882621534292 -0.2042076200196775 0.1
34 -0.69232861778844 0.1708365011622087 0.1
35 0.6574488564794784 0.1432139038418585 0.1
36 0.2232318116836558 -0.1626935750413083 0.1
37 0.3209581679294184 0.166014874505892 0.1
38 0.368414972128791 -0.03514574402407022 0.1
39 -0.6412769337471422 -0.3133294499721218 0.1
40 -0.6581999176987225 0.3051740522430277 0.1
41 0.753741560696598 -0.3221952924083592 0.1
42 0.63516737230707 0.3194092688433183 0.1
43 -0.02009623322855436 -0.1496223532447493 0.1
44 -0.02531011477172473 0.2034133657928587 0.1
$EndNodeData
$NodeData
1
"vector"
1
2
4
2
3
44
0
1 1.5 -0.5 0.2
2 1.5 0.5 0.2
3 -1.5 0.5 0.2
4 -1.5 -0.5 0.2
5 1.5 -0.3000000000004421 0.2
6 1.5 -0.100000000001025 0.2
7 1.5 0.09999999999894682 0.2
8 1.5 0.2999999999994734 0.2
9 0.9000000000013264 0.5 0.2
10 0.3000000000030751 0.5 0.2
11 -0.2999999999968405 0.5 0.2
12 -0.8999999999984201 0.5 0.2
13 -1.5 0.2999999999999998 0.2
14 -1.5 0.1000000000013869 0.2
15 -1.5 -0.09999999999833564 0.2
16 -1.5 -0.2999999999991678 0.2
17 -0.8999999999999995 -0.5 0.2
18 -0.3000000000041606 -0.5 0.2
19 0.2999999999950069 -0.5 0.2
20 0.8999999999975035 -0.5 0.2
21 0.0855587883245898 -0.32212096050322 0.2
22 0.05096047653661062 0.3361002348924937 0.2
23 0.9964511939577805 0.01060451943975571 0.2
24 -1.041934296728424 0.0006187929075534004 0.2
25 -1.015372865690706 -0.1318134163997443 0.2
26 -0.5259969483929839 -0.1415381360695247 0.2
27 -0.6603135917679051 0.06702867586972672 0.2
28 -0.05268650365487404 0.02404416703260093 0.2
29 -0.4960301142078024 0.26805759816677 0.2
30 0.4282819407577978 0.3344674048300353 0.2
31 0.532814441631243 -0.2850416020046234 0.2
32 -0.4280443789745467 -0.3215100825589028 0.2
33 0.9271323932301437 -0.2042076200196775 0.2
34 -1.03849292668266 0.1708365011622087 0.2
35 0.9861732847192175 0.1432139038418585 0.2
36 0.3348477175254837 -0.1626935750413083 0.2
37 0.4814372518941277 0.166014874505892 0.2
38 0.5526224581931866 -0.03514574402407022 0.2
39 -0.9619154006207133 -0.3133294499721218 0.2
40 -0.9872998765480838 0.3051740522430277 0.2
41 1.130612341044897 -0.3221952924083592 0.2
42 0.9527510584606049 0.3194092688433183 0.2
43 -0.03014434984283154 -0.1496223532447493 0.2
44 -0.0379651721575871 0.2034133657928587 0.2
$EndNodeData
$InterpolationScheme
"INTERPOLATION_SCHEME"
3
1
2
1 1
1 
1 1
0 
2
2
2 2
0.5 -0.5 
0.5 0.5 
2 1
0 
1 
4
2
4 4
0.25 -0.25 0.25 -0.25 
0.25 0.25 -0.25 -0.25 
0.25 0.25 0.25 0.25 
0.25 -0.25 -0.25 0.25 
4 2
0 0 
1 0 
1 1 
0 1 
$EndInterpolationScheme
$NodeData
1
"tensor"
1
0
4
0
9
44
0
1 1 0 0 0 2 0 0 0 3
2 2 0 0 0 2 0 0 0 3
3 2 1 0 1 3 0 0 0 3
4 1 1 0 1 3 0 0 0 3
5 1.199999999999558 0 0 0 2 0 0 0 3
6 1.399999999998975 0 0 0 2 0 0 0 3
7 1.599999999998947 0 0 0 2 0 0 0 3
8 1.799999999999473 0 0 0 2 0 0 0 3
9 2 0.1999999999995579 0 0.1999999999995579 2.199999999999558 0 0 0 3
10 2 0.399999999998975 0 0.399999999998975 2.399999999998975 0 0 0 3
11 2 0.5999999999989468 0 0.5999999999989468 2.599999999998947 0 0 0 3
12 2 0.7999999999994734 0 0.7999999999994734 2.799999999999473 0 0 0 3
13 1.8 1 0 1 3 0 0 0 3
14 1.600000000001387 1 0 1 3 0 0 0 3
15 1.400000000001664 1 0 1 3 0 0 0 3
16 1.200000000000832 1 0 1 3 0 0 0 3
17 1 0.7999999999999998 0 0.7999999999999998 2.8 0 0 0 3
18 1 0.6000000000013869 0 0.6000000000013869 2.600000000001387 0 0 0 3
19 1 0.4000000000016644 0 0.4000000000016644 2.400000000001664 0 0 0 3
20 1 0.2000000000008322 0 0.2000000000008322 2.200000000000832 0 0 0 3
21 1.17787903949678 0.4714804038918034 0 0.4714804038918034 2.471480403891803 0 0 0 3
22 1.836100234892494 0.4830131744877965 0 0.4830131744877965 2.483013174487796 0 0 0 3
23 1.510604519439756 0.1678496020140732 0 0.1678496020140732 2.167849602014073 0 0 0 3
24 1.500618792907553 0.8473114322428079 0 0.8473114322428079 2.847311432242808 0 0 0 3
25 1.368186583600256 0.8384576218969021 0 0.8384576218969021 2.838457621896902 0 0 0 3
26 1.358461863930475 0.6753323161309946 0 0.6753323161309946 2.675332316130995 0 0 0 3
27 1.567028675869727 0.7201045305893017 0 0.7201045305893017 2.720104530589301 0 0 0 3
28 1.524044167032601 0.517562167884958 0 0.517562167884958 2.517562167884958 0 0 0 3
29 1.76805759816677 0.6653433714026008 0 0.6653433714026008 2.665343371402601 0 0 0 3
30 1.834467404830035 0.3572393530807341 0 0.3572393530807341 2.357239353080734 0 0 0 3
31 1.214958397995377 0.322395186122919 0 0.322395186122919 2.322395186122919 0 0 0 3
32 1.178489917441097 0.6426814596581822 0 0.6426814596581822 2.642681459658182 0 0 0 3
33 1.295792379980323 0.1909558689232854 0 0.1909558689232854 2.190955868923286 0 0 0 3
34 1.670836501162209 0.84616430889422 0 0.84616430889422 2.84616430889422 0 0 0 3
35 1.643213903841859 0.1712755717602608 0 0.1712755717602608 2.171275571760261 0 0 0 3
36 1.337306424958692 0.3883840941581721 0 0.3883840941581721 2.388384094158172 0 0 0 3
37 1.666014874505892 0.3395209160352908 0 0.3395209160352908 2.339520916035291 0 0 0 3
38 1.46485425597593 0.3157925139356045 0 0.3157925139356045 2.315792513935604 0 0 0 3
39 1.186670550027878 0.8206384668735711 0 0.8206384668735711 2.820638466873571 0 0 0 3
40 1.805174052243028 0.8290999588493613 0 0.8290999588493613 2.829099958849361 0 0 0 3
41 1.177804707591641 0.123129219651701 0 0.123129219651701 2.123129219651701 0 0 0 3
42 1.819409268843318 0.182416313846465 0 0.182416313846465 2.182416313846465 0 0 0 3
43 1.350377646755251 0.5100481166142772 0 0.5100481166142772 2.510048116614277 0 0 0 3
44 1.703413365792859 0.5126550573858624 0 0.5126550573858624 2.512655057385862 0 0 0 3
$EndNodeData
$InterpolationScheme
"INTERPOLATION_SCHEME"
3
1
2
1 1
1 
1 1
0 
2
2
2 2
0.5 -0.5 
0.5 0.5 
2 1
0 
1 
4
2
4 4
0.25 -0.25 0.25 -0.25 
0.25 0.25 -0.25 -0.25 
0.25 0.25 0.25 0.25 
0.25 -0.25 -0.25 0.25 
4 2
0 0 
1 0 
1 1 
0 1 
$EndInterpolationScheme
$ElementData
2
"cell"
"INTERPOLATION_SCHEME"
1
0
4
0
1
33
0
21 1.06953863243527
22 0.9700770600562316
23 1.936536210368546
24 2.492694117235506
25 2.969446699952408
26 0.8077726566790595
27 1.20460897763746
28 2.887706716567032
29 0.6720941992647653
30 0.5441930578973747
31 0.1930705105151299
32 2.078498798267905
33 3.01144515966506
34 1.049562647094813
35 2.161231694196126
36 2.005051044365294
37 2.185318934806395
38 1.632647351539055
39 1.603525793254602
40 0.7631566702087982
41 3.120009702317401
42 1.633596911201773
43 0.2856920173366662
44 2.567548017058658
45 2.609811823200918
46 1.515515392570259
47 1.282793835588598
48 2.681518681273721
49 2.1066523303204
50 0.5511285640648808
51 1.4534401755387
52 1.22566760392913
53 1.744901371160536
$EndElementData
