$MeshFormat
4.1 0 8
$EndMeshFormat
$PhysicalNames
3
1 1 "bottom"
1 2 "rest"
2 3 "domain"
$EndPhysicalNames
$Entities
4 4 1 0
1 0 0 0 0 
2 1 0 0 0 
3 1 1 0 0 
4 0 1 0 0 
1 0 0 0 1 0 0 1 1 2 1 -2 
2 1 0 0 1 1 0 1 2 2 2 -3 
3 0 1 0 1 1 0 1 2 2 3 -4 
4 0 0 0 0 1 0 1 2 2 4 -1 
1 0 0 0 1 1 0 1 3 4 1 2 3 4 
$EndEntities
$Nodes
9 44 1 44
0 1 0 1
1
0 0 0
0 2 0 1
2
1 0 0
0 3 0 1
3
1 1 0
0 4 0 1
4
0 1 0
1 1 0 4
5
6
7
8
0.1999999999995579 0 0
0.399999999998975 0 0
0.5999999999989468 0 0
0.7999999999994734 0 0
1 2 0 4
9
10
11
12
1 0.1999999999995579 0
1 0.399999999998975 0
1 0.5999999999989468 0
1 0.7999999999994734 0
1 3 0 4
13
14
15
16
0.7999999999999998 1 0
0.6000000000013869 1 0
0.4000000000016644 1 0
0.2000000000008322 1 0
1 4 0 4
17
18
19
20
0 0.7999999999999998 0
0 0.6000000000013869 0
0 0.4000000000016644 0
0 0.2000000000008322 0
2 1 0 24
21
22
23
24
25
26
27
28
29
30
31
32
33
34
35
36
37
38
39
40
41
42
43
44
0.1637066120482704 0.4886650857430957 0
0.8353496491682408 0.4902996892628637 0
0.4939184515862498 0.1323760430705655 0
0.4983653964791731 0.827738658027235 0
0.3007481903591385 0.8307029123438383 0
0.3961598772770956 0.670734446840082 0
0.6002015905170175 0.6755188916874412 0
0.5000000000025091 0.4803847577304367 0
0.8146996124644994 0.6891493782611213 0
0.830576912698845 0.3001844933888439 0
0.1693821434765658 0.3001135766065062 0
0.1881896957092664 0.6836414884284229 0
0.3157845613177837 0.1865278143482666 0
0.6944760729912969 0.8409994610768936 0
0.685921163520119 0.1724872797865501 0
0.3214614339243645 0.3873807148762195 0
0.6685228257598594 0.3853248791658107 0
0.4768832689941643 0.3174113279240561 0
0.1464101615147968 0.8535898384854264 0
0.8535898384857052 0.8535898384855641 0
0.1464101615145242 0.1464101615148656 0
0.8535898384865049 0.1464101615132355 0
0.3103030287655641 0.5417981355851315 0
0.6896969712339486 0.5417981355822888 0
$EndNodes
$Elements
5 86 1 86
1 1 1 5
1 1 5 
2 5 6 
3 6 7 
4 7 8 
5 8 2 
1 2 1 5
6 2 9 
7 9 10 
8 10 11 
9 11 12 
10 12 3 
1 3 1 5
11 3 13 
12 13 14 
13 14 15 
14 15 16 
15 16 4 
1 4 1 5
16 4 17 
17 17 18 
18 18 19 
19 19 20 
20 20 1 
2 1 2 66
21 35 37 38 
22 23 35 38 
23 26 25 32 
24 36 33 38 
25 27 29 34 
26 31 33 36 
27 35 30 37 
28 26 32 43 
29 29 27 44 
30 10 11 22 
31 14 15 24 
32 18 19 21 
33 24 26 27 
34 6 7 23 
35 27 26 28 
36 11 12 29 
37 15 16 25 
38 19 20 31 
39 10 22 30 
40 24 25 26 
41 22 11 29 
42 9 10 30 
43 24 15 25 
44 21 19 31 
45 33 23 38 
46 17 18 32 
47 13 14 34 
48 5 6 33 
49 7 8 35 
50 24 27 34 
51 18 21 32 
52 14 24 34 
53 6 23 33 
54 23 7 35 
55 21 31 36 
56 30 22 37 
57 4 17 39 
58 3 13 40 
59 1 5 41 
60 20 1 41 
61 16 4 39 
62 12 3 40 
63 2 9 42 
64 8 2 42 
65 37 28 38 
66 22 29 44 
67 28 26 43 
68 27 28 44 
69 32 21 43 
70 36 28 43 
71 28 37 44 
72 35 8 42 
73 13 34 40 
74 17 32 39 
75 5 33 41 
76 29 12 40 
77 25 16 39 
78 31 20 41 
79 9 30 42 
80 30 35 42 
81 34 29 40 
82 32 25 39 
83 33 31 41 
84 28 36 38 
85 21 36 43 
86 37 22 44 
$EndElements
$InterpolationScheme
"INTERPOLATION_SCHEME"
3
1
2
1 1
1 
1 1
0 
2
2
2 2
0.5 -0.5 
0.5 0.5 
2 1
0 
1 
3
2
3 3
1 -1 -1 
0 1 0 
0 0 1 
3 2
0 0 
1 0 
0 1 
$EndInterpolationScheme
$NodeData
1
"scalar"
1
0
4
0
1
44
0
1 0
2 1
3 3.141120008059867
4 2
5 0.03999999999982316
6 0.15999999999918
7 0.3599999999987362
8 0.6399999999991574
9 1.428224001611027
10 1.856448003221752
11 2.284672004833665
12 2.712896006446766
13 3.315463180551151
14 3.333847630878914
15 3.092039085970367
16 2.604642473397428
17 1.6
18 1.200000000002774
19 0.8000000000033287
20 0.4000000000016644
21 1.2345911564542
22 1.969457738006323
23 0.6405591545001239
24 2.729213492194637
25 2.40372464006311
26 2.120720863124199
27 2.369039264699993
28 1.689950902940752
29 2.484674055107548
30 1.471861569233499
31 0.7749403403877917
32 1.768481962552182
33 0.6242124777107196
34 2.897190516634077
35 0.9678990929584503
36 1.196408908402463
37 1.567049105474929
38 1.176539589272062
39 2.091598817318752
40 2.904170511836154
41 0.3765161721068399
42 1.101772988253242
43 1.6144947086451
44 2.035193071718786
$EndNodeData
$NodeData
1
"scalar"
1
1
4
1
1
44
0
1 0
2 2
3 6.141120008059867
4 4
5 0.07999999999964631
6 0.3199999999983599
7 0.7199999999974723
8 1.279999999998315
9 2.828224001610142
10 3.656448003219702
11 4.484672004831559
12 5.312896006445713
13 5.955463180551151
14 5.693847630880579
15 5.252039085971699
16 4.644642473397761
17 3.199999999999999
18 2.400000000005547
19 1.600000000006657
20 0.8000000000033287
21 2.238721182768715
22 3.647866152897553
23 1.149266677458614
24 4.63305887665695
25 4.155579938755084
26 3.619132405168566
27 4.080318997334033
28 2.900720418404135
29 4.526708270179597
30 2.762088563919531
31 1.40385780412952
32 3.171180300980174
33 1.096987995573918
34 5.061486454745277
35 1.783361495096344
36 2.074507791655611
37 2.784621632368498
38 2.038779897366735
39 3.820214429684394
40 5.339965801173334
41 0.6907724305312802
42 2.123208923647131
43 2.794378949476445
44 3.594471255012647
$EndNodeData
$NodeData
1
"scalar"
1
2
4
2
1
44
0
1 0
2 3
3 9.141120008059866
4 6
5 0.1199999999994695
6 0.4799999999975399
7 1.079999999996208
8 1.919999999997472
9 4.228224001609258
10 5.456448003217652
11 6.684672004829452
12 7.91289600644466
13 8.59546318055115
14 8.053847630882244
15 7.412039085973031
16 6.684642473398093
17 4.799999999999999
18 3.600000000008321
19 2.400000000009986
20 1.200000000004993
21 3.242851209083229
22 5.326274567788785
23 1.657974200417103
24 6.536904261119263
25 5.907435237447057
26 5.117543947212933
27 5.791598729968073
28 4.111489933867517
29 6.568742485251645
30 4.052315558605565
31 2.032775267871248
32 4.573878639408166
33 1.569763513437116
34 7.225782392856478
35 2.598823897234239
36 2.952606674908758
37 4.002194159262067
38 2.901020205461408
39 5.548830042050035
40 7.775761090510515
41 1.005028688955721
42 3.144644859041019
43 3.974263190307791
44 5.153749438306506
$EndNodeData
$InterpolationScheme
"INTERPOLATION_SCHEME"
3
1
2
1 1
1 
1 1
0 
2
2
2 2
0.5 -0.5 
0.5 0.5 
2 1
0 
1 
3
2
3 3
1 -1 -1 
0 1 0 
0 0 1 
3 2
0 0 
1 0 
0 1 
$EndInterpolationScheme
$NodeData
1
"vector"
1
0
4
0
3
44
0
1 0.5 -0.5 0
2 0.5 0.5 0
3 -0.5 0.5 0
4 -0.5 -0.5 0
5 0.5 -0.3000000000004421 0
6 0.5 -0.100000000001025 0
7 0.5 0.09999999999894682 0
8 0.5 0.2999999999994734 0
9 0.3000000000004421 0.5 0
10 0.100000000001025 0.5 0
11 -0.09999999999894682 0.5 0
12 -0.2999999999994734 0.5 0
13 -0.5 0.2999999999999998 0
14 -0.5 0.1000000000013869 0
15 -0.5 -0.09999999999833564 0
16 -0.5 -0.2999999999991678 0
17 -0.2999999999999998 -0.5 0
18 -0.1000000000013869 -0.5 0
19 0.09999999999833564 -0.5 0
20 0.2999999999991678 -0.5 0
21 0.0113349142569043 -0.3362933879517296 0
22 0.009700310737136286 0.3353496491682408 0
23 0.3676239569294345 -0.006081548413750193 0
24 -0.327738658027235 -0.001634603520826949 0
25 -0.3307029123438383 -0.1992518096408615 0
26 -0.170734446840082 -0.1038401227229044 0
27 -0.1755188916874412 0.1002015905170175 0
28 0.01961524226956335 2.509104035652854e-12 0
29 -0.1891493782611213 0.3146996124644994 0
30 0.1998155066111561 0.330576912698845 0
31 0.1998864233934938 -0.3306178565234342 0
32 -0.1836414884284229 -0.3118103042907335 0
33 0.3134721856517334 -0.1842154386822163 0
34 -0.3409994610768936 0.1944760729912969 0
35 0.3275127202134499 0.185921163520119 0
36 0.1126192851237805 -0.1785385660756355 0
37 0.1146751208341893 0.1685228257598594 0
38 0.1825886720759439 -0.02311673100583567 0
39 -0.3535898384854264 -0.3535898384852032 0
40 -0.3535898384855641 0.3535898384857052 0
41 0.3535898384851344 -0.3535898384854758 0
42 0.3535898384867645 0.3535898384865049 0
43 -0.04179813558513146 -0.1896969712344359 0
44 -0.04179813558228884 0.1896969712339486 0
$EndNodeData
$NodeData
1
"vector"
1
1
4
1
3
44
0
1 1 -0.5 0.1
2 1 0.5 0.1
3 -1 0.5 0.1
4 -1 -0.5 0.1
5 1 -0.3000000000004421 0.1
6 1 -0.100000000001025 0.1
7 1 0.09999999999894682 0.1
8 1 0.2999999999994734 0.1
9 0.6000000000008843 0.5 0.1
10 0.2000000000020501 0.5 0.1
11 -0.1999999999978936 0.5 0.1
12 -0.5999999999989467 0.5 0.1
13 -1 0.2999999999999998 0.1
14 -1 0.1000000000013869 0.1
15 -1 -0.09999999999833564 0.1
16 -1 -0.2999999999991678 0.1
17 -0.5999999999999996 -0.5 0.1
18 -0.2000000000027737 -0.5 0.1
19 0.1999999999966713 -0.5 0.1
20 0.5999999999983356 -0.5 0.1
21 0.02266982851380861 -0.3362933879517296 0.1
22 0.01940062147427257 0.3353496491682408 0.1
23 0.735247913858869 -0.006081548413750193 0.1
24 -0.65547731605447 -0.001634603520826949 0.1
25 -0.6614058246876766 -0.1992518096408615 0.1
26 -0.341468893680164 -0.1038401227229044 0.1
27 -0.3510377833748823 0.1002015905170175 0.1
28 0.0392304845391267 2.509104035652854e-12 0.1
29 -0.3782987565222427 0.3146996124644994 0.1
30 0.3996310132223122 0.330576912698845 0.1
31 0.3997728467869877 -0.3306178565234342 0.1
32 -0.3672829768568457 -0.3118103042907335 0.1
33 0.6269443713034668 -0.1842154386822163 0.1
34 -0.6819989221537872 0.1944760729912969 0.1
35 0.6550254404268998 0.185921163520119 0.1
36 0.225238570247561 -0.1785385660756355 0.1
37 0.2293502416683787 0.1685228257598594 0.1
38 0.3651773441518879 -0.02311673100583567 0.1
39 -0.7071796769708527 -0.3535898384852032 0.1
40 -0.7071796769711283 0.3535898384857052 0.1
41 0.7071796769702687 -0.3535898384854758 0.1
42 0.7071796769735289 0.3535898384865049 0.1
43 -0.08359627117026291 -0.1896969712344359 0.1
44 -0.08359627116457768 0.1896969712339486 0.1
$EndNodeData
$NodeData
1
"vector"
1
2
4
2
3
44
0
1 1.5 -0.5 0.2
2 1.5 0.5 0.2
3 -1.5 0.5 0.2
4 -1.5 -0.5 0.2
5 1.5 -0.3000000000004421 0.2
6 1.5 -0.100000000001025 0.2
7 1.5 0.09999999999894682 0.2
8 1.5 0.2999999999994734 0.2
9 0.9000000000013264 0.5 0.2
10 0.3000000000030751 0.5 0.2
11 -0.2999999999968405 0.5 0.2
12 -0.8999999999984201 0.5 0.2
13 -1.5 0.2999999999999998 0.2
14 -1.5 0.1000000000013869 0.2
15 -1.5 -0.09999999999833564 0.2
16 -1.5 -0.2999999999991678 0.2
17 -0.8999999999999995 -0.5 0.2
18 -0.3000000000041606 -0.5 0.2
19 0.2999999999950069 -0.5 0.2
20 0.8999999999975035 -0.5 0.2
21 0.03400474277071291 -0.3362933879517296 0.2
22 0.02910093221140886 0.3353496491682408 0.2
23 1.102871870788304 -0.006081548413750193 0.2
24 -0.983215974081705 -0.001634603520826949 0.2
25 -0.9921087370315149 -0.1992518096408615 0.2
26 -0.512203340520246 -0.1038401227229044 0.2
27 -0.5265566750623235 0.1002015905170175 0.2
28 0.05884572680869005 2.509104035652854e-12 0.2
29 -0.567448134783364 0.3146996124644994 0.2
30 0.5994465198334683 0.330576912698845 0.2
31 0.5996592701804815 -0.3306178565234342 0.2
32 -0.5509244652852686 -0.3118103042907335 0.2
33 0.9404165569552002 -0.1842154386822163 0.2
34 -1.022998383230681 0.1944760729912969 0.2
35 0.9825381606403497 0.185921163520119 0.2
36 0.3378578553713415 -0.1785385660756355 0.2
37 0.344025362502568 0.1685228257598594 0.2
38 0.5477660162278317 -0.02311673100583567 0.2
39 -1.060769515456279 -0.3535898384852032 0.2
40 -1.060769515456693 0.3535898384857052 0.2
41 1.060769515455403 -0.3535898384854758 0.2
42 1.060769515460293 0.3535898384865049 0.2
43 -0.1253944067553944 -0.1896969712344359 0.2
44 -0.1253944067468665 0.1896969712339486 0.2
$EndNodeData
$InterpolationScheme
"INTERPOLATION_SCHEME"
3
1
2
1 1
1 
1 1
0 
2
2
2 2
0.5 -0.5 
0.5 0.5 
2 1
0 
1 
3
2
3 3
1 -1 -1 
0 1 0 
0 0 1 
3 2
0 0 
1 0 
0 1 
$EndInterpolationScheme
$NodeData
1
"tensor"
1
0
4
0
9
44
0
1 1 0 0 0 2 0 0 0 3
2 2 0 0 0 2 0 0 0 3
3 2 1 0 1 3 0 0 0 3
4 1 1 0 1 3 0 0 0 3
5 1.199999999999558 0 0 0 2 0 0 0 3
6 1.399999999998975 0 0 0 2 0 0 0 3
7 1.599999999998947 0 0 0 2 0 0 0 3
8 1.799999999999473 0 0 0 2 0 0 0 3
9 2 0.1999999999995579 0 0.1999999999995579 2.199999999999558 0 0 0 3
10 2 0.399999999998975 0 0.399999999998975 2.399999999998975 0 0 0 3
11 2 0.5999999999989468 0 0.5999999999989468 2.599999999998947 0 0 0 3
12 2 0.7999999999994734 0 0.7999999999994734 2.799999999999473 0 0 0 3
13 1.8 1 0 1 3 0 0 0 3
14 1.600000000001387 1 0 1 3 0 0 0 3
15 1.400000000001664 1 0 1 3 0 0 0 3
16 1.200000000000832 1 0 1 3 0 0 0 3
17 1 0.7999999999999998 0 0.7999999999999998 2.8 0 0 0 3
18 1 0.6000000000013869 0 0.6000000000013869 2.600000000001387 0 0 0 3
19 1 0.4000000000016644 0 0.4000000000016644 2.400000000001664 0 0 0 3
20 1 0.2000000000008322 0 0.2000000000008322 2.200000000000832 0 0 0 3
21 1.16370661204827 0.4886650857430957 0 0.4886650857430957 2.488665085743096 0 0 0 3
22 1.835349649168241 0.4902996892628637 0 0.4902996892628637 2.490299689262864 0 0 0 3
23 1.49391845158625 0.1323760430705655 0 0.1323760430705655 2.132376043070566 0 0 0 3
24 1.498365396479173 0.827738658027235 0 0.827738658027235 2.827738658027235 0 0 0 3
25 1.300748190359138 0.8307029123438383 0 0.8307029123438383 2.830702912343838 0 0 0 3
26 1.396159877277096 0.670734446840082 0 0.670734446840082 2.670734446840082 0 0 0 3
27 1.600201590517017 0.6755188916874412 0 0.6755188916874412 2.675518891687441 0 0 0 3
28 1.500000000002509 0.4803847577304367 0 0.4803847577304367 2.480384757730437 0 0 0 3
29 1.814699612464499 0.6891493782611213 0 0.6891493782611213 2.689149378261122 0 0 0 3
30 1.830576912698845 0.3001844933888439 0 0.3001844933888439 2.300184493388844 0 0 0 3
31 1.169382143476566 0.3001135766065062 0 0.3001135766065062 2.300113576606506 0 0 0 3
32 1.188189695709266 0.6836414884284229 0 0.6836414884284229 2.683641488428423 0 0 0 3
33 1.315784561317784 0.1865278143482666 0 0.1865278143482666 2.186527814348266 0 0 0 3
34 1.694476072991297 0.8409994610768936 0 0.8409994610768936 2.840999461076894 0 0 0 3
35 1.685921163520119 0.1724872797865501 0 0.1724872797865501 2.17248727978655 0 0 0 3
36 1.321461433924365 0.3873807148762195 0 0.3873807148762195 2.387380714876219 0 0 0 3
37 1.668522825759859 0.3853248791658107 0 0.3853248791658107 2.385324879165811 0 0 0 3
38 1.476883268994164 0.3174113279240561 0 0.3174113279240561 2.317411327924056 0 0 0 3
39 1.146410161514797 0.8535898384854264 0 0.8535898384854264 2.853589838485426 0 0 0 3
40 1.853589838485705 0.8535898384855641 0 0.8535898384855641 2.853589838485564 0 0 0 3
41 1.146410161514524 0.1464101615148656 0 0.1464101615148656 2.146410161514866 0 0 0 3
42 1.853589838486505 0.1464101615132355 0 0.1464101615132355 2.146410161513236 0 0 0 3
43 1.310303028765564 0.5417981355851315 0 0.5417981355851315 2.541798135585132 0 0 0 3
44 1.689696971233948 0.5417981355822888 0 0.5417981355822888 2.541798135582289 0 0 0 3
$EndNodeData
$InterpolationScheme
"INTERPOLATION_SCHEME"
3
1
2
1 1
1 
1 1
0 
2
2
2 2
0.5 -0.5 
0.5 0.5 
2 1
0 
1 
3
2
3 3
1 -1 -1 
0 1 0 
0 0 1 
3 2
0 0 
1 0 
0 1 
$EndInterpolationScheme
$ElementData
2
"cell"
"INTERPOLATION_SCHEME"
1
0
4
0
1
66
0
21 1.238018147349771
22 0.926479453558182
23 2.10749697420863
24 0.9987949472174866
25 2.595973545870206
26 0.8653115316660328
27 1.336201538394316
28 1.846049776044363
29 2.310204654912787
30 2.036542896217187
31 3.074722668704721
32 1.076293563915588
33 2.420141728050425
34 0.3802226389597776
35 2.073740739089853
36 2.496657919657192
37 2.716845526594349
38 0.6538419220681405
39 1.765060808989273
40 2.433815977311393
41 2.24656517512087
42 1.582190185165848
43 2.757696954074897
44 0.9344091160786837
45 0.8117289587216963
46 1.522965846325495
47 3.201512758083507
48 0.266844525372038
49 0.6484780257335303
50 2.682260364299861
51 1.398922058725939
52 3.004040424749449
53 0.4746465373986183
54 0.6546320276658951
55 1.070393153540304
56 1.672491127355122
57 1.900483656999512
58 3.130767128954896
59 0.1275100000565236
60 0.2501675329297025
61 2.238680075543626
62 2.925074886800726
63 1.168512971598034
64 0.9028820912392693
65 1.482841723238044
66 2.168085948661894
67 1.817605231414356
68 2.040143547675514
69 1.542766955214253
70 1.507325498382117
71 1.771925792013763
72 0.897152382834101
73 3.049256748026167
74 1.826435993225866
75 0.3389166264892312
76 2.708874243695911
77 2.37553623219965
78 0.5090265831520526
79 1.326778387252903
80 1.180745271277344
81 2.767603315286991
82 2.091897652124358
83 0.5909437869152374
84 1.357904571829896
85 1.353075804908318
86 1.863360850572726
$EndElementData
