DBRep_DrawableShape

CASCADE Topology V1, (c) Matra-Datavision
Locations 18
1
              1               0               0               0 
              0               1               0               0 
              0               0               1               1 
1
              1               0               0               0 
              0               1               0               1 
              0               0               1               1 
1
              1               0               0               0 
              0               1               0               1 
              0               0               1               0 
1
              1               0               0               0 
              0               1               0             0.5 
              0               0               1             0.5 
1
              1               0               0               1 
              0               1               0               0 
              0               0               1               0 
1
              1               0               0               1 
              0               1               0               0 
              0               0               1               1 
2  1 -1 0
1
              1               0               0             0.5 
              0               1               0               0 
              0               0               1             0.5 
1
              1               0               0               1 
              0               1               0               1 
              0               0               1               1 
1
              1               0               0             0.5 
              0               1               0             0.5 
              0               0               1               1 
2  2 -1 0
1
              1               0               0               1 
              0               1               0               1 
              0               0               1               0 
2  3 -1 0
1
              1               0               0             0.5 
              0               1               0               1 
              0               0               1             0.5 
1
              1               0               0             0.5 
              0               1               0             0.5 
              0               0               1               0 
1
              1               0               0               1 
              0               1               0             0.5 
              0               0               1             0.5 
2  10 -1 0
2  15 -1 0
Curve2ds 88
1 0 0 1 0 
1 0 0 1 0 
2 0 0 1 0 -0 1 0.31017524544970004
1 1.5707963267948966 -4.7123889803846897 -0 1 
1 0 0 0 -1 
1 0 0 0 1 
1 0 0 0 1 
1 0 0 1 0 
1 6.2831853071795862 -6.2831853071795862 0 1 
1 0 -6.2831853071795862 0 1 
2 0 0 0 -1 1 0 0.31017524544970004
1 -1.5707963267948966 0 1 0 
1 0 1.5707963267948966 1 0 
2 1 0 1 0 -0 1 0.31017524544970004
1 1.5707963267948966 -4.7123889803846897 -0 1 
1 1 0 0 -1 
1 0 0 0 1 
2 1 -1 1 0 -0 1 0.31017524544970004
1 4.7123889803846897 1.5707963267948966 0 -1 
1 0 -1 1 0 
1 0 0 1 0 
2 0 -1 1 0 -0 1 0.31017524544970004
1 4.7123889803846897 1.5707963267948966 0 -1 
2 0.5 -0.5 1 0 -0 1 0.31017524544970004
1 4.7123889803846897 1.5707963267948966 0 -1 
2 0.5 -0.5 1 0 -0 1 0.31017524544970004
1 1.5707963267948966 -4.7123889803846897 -0 1 
2 0 1 1 0 -0 1 0.31017524544970004
1 3.1415926535897931 -4.7123889803846897 -0 1 
1 0 0 1 0 
1 0 1 1 0 
2 1 1 1 0 -0 1 0.31017524544970004
1 3.1415926535897931 -4.7123889803846897 -0 1 
1 1 0 0 1 
1 0 0 1 0 
2 0.5 0.5 1 0 -0 1 0.31017524544970004
1 3.1415926535897931 -4.7123889803846897 -0 1 
2 0 0 0 -1 1 0 0.31017524544970004
1 -1.5707963267948966 0 1 0 
1 0 -1.5707963267948966 1 0 
2 0 1 0 -1 1 0 0.31017524544970004
1 4.7123889803846897 0 1 0 
1 1 0 0 1 
1 0 1 1 0 
2 1 1 0 -1 1 0 0.31017524544970004
1 -1.5707963267948966 0 1 0 
1 1 0 0 -1 
1 1 0 0 1 
2 1 0 0 -1 1 0 0.31017524544970004
1 -1.5707963267948966 0 1 0 
2 0.5 0.5 0 -1 1 0 0.31017524544970004
1 -1.5707963267948966 0 1 0 
2 0.5 0.5 0 -1 1 0 0.31017524544970004
1 4.7123889803846897 0 1 0 
1 0 0 0 1 
1 0 1 1 0 
2 0 1 1 0 -0 1 0.31017524544970004
1 3.1415926535897931 -4.7123889803846897 -0 1 
1 0 -1 1 0 
1 0 1 1 0 
2 1 1 1 0 -0 1 0.31017524544970004
1 3.1415926535897931 -4.7123889803846897 -0 1 
2 0.5 0.5 1 0 -0 1 0.31017524544970004
1 3.1415926535897931 -4.7123889803846897 -0 1 
2 0 1 0 -1 1 0 0.31017524544970004
1 4.7123889803846897 0 1 0 
2 1 1 0 -1 1 0 0.31017524544970004
1 -1.5707963267948966 0 1 0 
1 0 0 0 -1 
1 1 0 0 1 
2 1 0 0 -1 1 0 0.31017524544970004
1 -1.5707963267948966 0 1 0 
2 0.5 0.5 0 -1 1 0 0.31017524544970004
1 -1.5707963267948966 0 1 0 
2 0.5 0.5 0 -1 1 0 0.31017524544970004
1 4.7123889803846897 0 1 0 
2 0 0 1 0 -0 1 0.31017524544970004
1 1.5707963267948966 -4.7123889803846897 -0 1 
2 1 0 1 0 -0 1 0.31017524544970004
1 1.5707963267948966 -4.7123889803846897 -0 1 
2 1 -1 1 0 -0 1 0.31017524544970004
1 4.7123889803846897 1.5707963267948966 0 -1 
2 0 -1 1 0 -0 1 0.31017524544970004
1 4.7123889803846897 1.5707963267948966 0 -1 
2 0.5 -0.5 1 0 -0 1 0.31017524544970004
1 4.7123889803846897 1.5707963267948966 0 -1 
2 0.5 -0.5 1 0 -0 1 0.31017524544970004
1 1.5707963267948966 -4.7123889803846897 -0 1 
Curves 43
1 0 0 0 0 0 1 
2 0 0 0 1 0 -0 0 0 1 0 -1 0 0.31017524544970004
1 0 0 0 -0 1 0 
1 0 0 0 1 0 -0 
2 0 0 0 -2.4492935982947064e-016 -1 0 1 -2.4492935982947064e-016 0 0 0 1 0.31017524544970004
2 0 0 0 0 0 1 0 -1 0 1 0 -0 0.31017524544970004
2 0 0 1 1 0 -0 0 0 1 0 -1 0 0.31017524544970004
1 0 0 1 -0 1 0 
2 0 1 1 1 0 -0 0 0 1 0 -1 0 0.31017524544970004
1 0 1 0 0 0 1 
2 0 1 0 1 0 -0 0 0 1 0 -1 0 0.31017524544970004
2 0 0.5 0.5 1 0 -0 0 0 1 0 -1 0 0.31017524544970004
2 0 0.5 0.5 1 0 -0 0 0 1 0 -1 0 0.31017524544970004
2 1 0 0 -0 1 0 0 0 1 1 0 -0 0.31017524544970004
1 1 0 0 0 0 1 
2 1 0 1 -0 1 0 0 0 1 1 0 -0 0.31017524544970004
1 0 0 1 1 0 -0 
2 0.5 0 0.5 -0 1 0 0 0 1 1 0 -0 0.31017524544970004
2 0 0 1 0 0 1 0 -1 0 1 0 -0 0.31017524544970004
2 0 1 1 0 0 1 0 -1 0 1 0 -0 0.31017524544970004
1 0 1 1 1 0 -0 
2 1 1 1 0 0 1 0 -1 0 1 0 -0 0.31017524544970004
1 1 0 1 0 1 0 
2 1 0 1 0 0 1 0 -1 0 1 0 -0 0.31017524544970004
2 0.5 0.5 1 0 0 1 0 -1 0 1 0 -0 0.31017524544970004
2 0.5 0.5 1 0 0 1 0 -1 0 1 0 -0 0.31017524544970004
1 0 1 0 1 0 -0 
2 1 1 0 -0 1 0 0 0 1 1 0 -0 0.31017524544970004
1 1 1 0 0 0 1 
2 1 1 1 -0 1 0 0 0 1 1 0 -0 0.31017524544970004
2 0.5 1 0.5 -0 1 0 0 0 1 1 0 -0 0.31017524544970004
2 0 1 0 0 0 1 0 -1 0 1 0 -0 0.31017524544970004
2 1 1 0 0 0 1 0 -1 0 1 0 -0 0.31017524544970004
1 1 0 0 -0 1 0 
2 1 0 0 0 0 1 0 -1 0 1 0 -0 0.31017524544970004
2 0.5 0.5 0 0 0 1 0 -1 0 1 0 -0 0.31017524544970004
2 0.5 0.5 0 0 0 1 0 -1 0 1 0 -0 0.31017524544970004
2 1 0 0 1 0 -0 0 0 1 0 -1 0 0.31017524544970004
2 1 0 1 1 0 -0 0 0 1 0 -1 0 0.31017524544970004
2 1 1 1 1 0 -0 0 0 1 0 -1 0 0.31017524544970004
2 1 1 0 1 0 -0 0 0 1 0 -1 0 0.31017524544970004
2 1 0.5 0.5 1 0 -0 0 0 1 0 -1 0 0.31017524544970004
2 1 0.5 0.5 1 0 -0 0 0 1 0 -1 0 0.31017524544970004
Polygon3D 0
PolygonOnTriangulations 0
Surfaces 7
1 0 0 0 1 0 -0 0 0 1 0 -1 0 
1 0 0 0 -0 1 0 0 0 1 1 0 -0 
4 0 0 0 0 0 1 1 0 -0 -0 1 0 0.31017524544970004
1 0 0 0 0 0 1 1 0 -0 -0 1 0 
1 0 0 1 0 0 1 1 0 -0 -0 1 0 
1 0 1 0 -0 1 0 0 0 1 1 0 -0 
1 1 0 0 1 0 -0 0 0 1 0 -1 0 
Triangulations 0

TShapes 262
Ve
1e-007
0 0 0
0 0

0101101
*
Ve
1.00000000018993e-007
1.8992756075736e-017 -4.6518835870273e-033 0.3101752454497
0 0

0101101
*
Ed
 1e-007 1 1 0
1  1 0 0 0.3101752454497
2  1 1 0 0 0.3101752454497
2  2 2 0 0 0.3101752454497
0

0101000
+262 0 -261 0 *
Ve
2.00001e-007
0 0.3101752454497 0
0 0

0101101
*
Ed
 1e-007 1 1 0
1  2 0 4.71238898038469 6.28318530717959
2  3 1 0 4.71238898038469 6.28318530717959
2  4 3 0 4.71238898038469 6.28318530717959
0

0101000
+259 0 -261 0 *
Ed
 1e-007 1 1 0
1  3 0 0 0.3101752454497
2  5 1 0 0 0.3101752454497
2  6 4 0 0 0.3101752454497
0

0101000
+262 0 -259 0 *
Wi

0101000
-260 0 +258 0 +257 0 *
Fa
0  1e-007 1 0

0111000
+256 0 *
Ve
1.00000032224268e-007
0.310175245449668 -3.7985512151472e-017 -3.7985512151472e-017
0 0

0101101
*
Ed
 1e-007 1 1 0
1  4 0 0 0.310175245449636
2  7 2 0 0 0.310175245449636
2  8 4 0 0 0.310175245449636
0

0101000
+262 0 -254 0 *
Ed
 1e-007 1 1 0
1  5 0 6.28318530717959 7.85398163397448
3  9 10CN 3 0 6.28318530717959 7.85398163397448
0

0101000
+254 0 -261 0 *
Wi

0101000
-253 0 -252 0 +260 0 *
Fa
0  1e-007 2 0

0111000
+251 0 *
Ed
 1e-007 1 1 0
1  6 0 1.5707963267949 3.14159265358979
2  11 4 0 1.5707963267949 3.14159265358979
2  12 3 0 1.5707963267949 3.14159265358979
0

0101000
+254 0 -259 0 *
Ed
 1e-007 0 0 1
2  13 3 0 0 1.5707963267949
0

0101100
-261 0 +261 0 *
Wi

0101000
+258 0 +249 0 -252 0 -248 0 *
Fa
0  1e-007 3 0

0111000
+247 0 *
Wi

0101000
-257 0 +249 0 +253 0 *
Fa
0  1e-007 4 0

0111000
+245 0 *
Sh

0101000
-255 0 -250 0 +246 0 -244 0 *
So

0100000
+243 0 *
Ve
1.00000000018993e-007
1.8992756075736e-017 -4.6518835870273e-033 -0.3101752454497
0 0

0101101
*
Ed
 1e-007 1 1 0
1  1 0 0.3101752454497 0.6898247545503
2  1 1 0 0.3101752454497 0.6898247545503
2  2 2 0 0.3101752454497 0.6898247545503
0

0101000
+261 0 -241 1 *
Ve
2.00001e-007
0 0.3101752454497 1
0 0

0101101
*
Ed
 1e-007 1 1 0
1  7 0 3.14159265358979 4.71238898038469
2  14 1 0 3.14159265358979 4.71238898038469
2  15 3 1 3.14159265358979 4.71238898038469
0

0101000
+241 1 -239 0 *
Ve
2.00001e-007
0 0.6898248045503 1
0 0

0101101
*
Ed
 1e-007 1 1 0
1  8 0 0.3101752454497 0.6898248045503
2  16 1 0 0.3101752454497 0.6898248045503
2  17 5 0 0.3101752454497 0.6898248045503
0

0101000
+239 0 -237 0 *
Ed
 1e-007 1 1 0
1  9 0 1.5707963267949 3.14159265358979
2  18 1 0 1.5707963267949 3.14159265358979
2  19 3 2 1.5707963267949 3.14159265358979
0

0101000
+237 0 -241 2 *
Ed
 1e-007 1 1 0
1  10 0 0.3101752454497 0.6898247545503
2  20 1 0 0.3101752454497 0.6898247545503
2  21 6 0 0.3101752454497 0.6898247545503
0

0101000
+261 3 -241 2 *
Ve
2.00001e-007
0 0.6898247545503 0
0 0

0101101
*
Ed
 1e-007 1 1 0
1  11 0 0 1.5707963267949
2  22 1 0 0 1.5707963267949
2  23 3 3 0 1.5707963267949
0

0101000
+261 3 -233 0 *
Ed
 1e-007 1 1 0
1  3 0 0.3101752454497 0.6898247545503
2  5 1 0 0.3101752454497 0.6898247545503
2  6 4 0 0.3101752454497 0.6898247545503
0

0101000
+259 0 -233 0 *
Wi

0101000
-240 0 -238 0 -236 0 -235 0 +234 0 -232 0 +231 0 -258 0 *
Ed
 1e-007 1 1 0
1  12 0 6.12323399573677e-017 3.14159265358979
2  24 1 0 6.12323399573677e-017 3.14159265358979
2  25 3 4 6.12323399573677e-017 3.14159265358979
0

0101000
+261 4 -241 4 *
Ed
 1e-007 1 1 0
1  13 0 3.14159265358979 6.28318530717959
2  26 1 0 3.14159265358979 6.28318530717959
2  27 3 4 3.14159265358979 6.28318530717959
0

0101000
+241 4 -261 4 *
Wi

0101000
-229 0 -228 0 *
Fa
0  1e-007 1 0

0111000
+230 0 +227 0 *
Ve
2.00001e-007
0.6898247545503 0 0
0 0

0101101
*
Ed
 1e-007 1 1 0
1  4 0 0.310175245449636 0.6898247545503
2  7 2 0 0.310175245449636 0.6898247545503
2  8 4 0 0.310175245449636 0.6898247545503
0

0101000
+254 0 -225 0 *
Ed
 1e-007 1 1 0
1  14 0 4.71238898038469 6.28318530717959
2  28 2 0 4.71238898038469 6.28318530717959
2  29 3 5 4.71238898038469 6.28318530717959
0

0101000
+225 0 -261 5 *
Ed
 1e-007 1 1 0
1  15 0 0.3101752454497 0.6898247545503
2  30 7 0 0.3101752454497 0.6898247545503
2  31 2 0 0.3101752454497 0.6898247545503
0

0101000
+261 5 -241 6 *
Ve
2.00001e-007
0.6898248045503 0 1
0 0

0101101
*
Ed
 1e-007 1 1 0
1  16 0 3.14159265358979 4.71238898038469
2  32 2 0 3.14159265358979 4.71238898038469
2  33 3 6 3.14159265358979 4.71238898038469
0

0101000
+241 6 -221 0 *
Ve
1.24999999959092e-007
0.310175245449678 -3.79855121514715e-017 1.000000025
0 0

0101101
*
Ed
 1e-007 1 1 0
1  17 0 0.31017524544966 0.6898248045503
2  34 2 0 0.31017524544966 0.6898248045503
2  35 5 0 0.31017524544966 0.6898248045503
0

0101000
+219 0 -221 0 *
Ed
 1e-007 1 1 0
1  5 0 4.71238898038469 6.28318546837878
3  9 10CN 3 0 4.71238898038469 6.28318546837878
0

0101000
+241 0 -219 7 *
Wi

0101000
-224 0 -223 0 -222 0 -220 0 +218 0 +217 1 +240 0 +252 0 *
Ed
 1e-007 1 1 0
1  5 0 4.71238898038469 7.85398163397448
3  9 10CN 3 0 4.71238898038469 7.85398163397448
0

0101000
-261 0 +241 0 *
Ed
 1e-007 1 1 0
1  18 0 3.14159265358979 6.28318530717959
2  36 2 0 3.14159265358979 6.28318530717959
2  37 3 8 3.14159265358979 6.28318530717959
0

0101000
+241 8 -261 8 *
Wi

0101000
+215 8 -214 0 *
Fa
0  1e-007 2 0

0111000
+216 0 +213 0 *
Ed
 1e-007 1 1 0
1  19 0 1.5707963267949 3.14159265358979
2  38 5 0 1.5707963267949 3.14159265358979
2  39 3 1 1.5707963267949 3.14159265358979
0

0101000
+219 0 -239 0 *
Ed
 1e-007 0 0 1
2  40 3 0 0 1.5707963267949
0

0101100
+241 0 -241 0 *
Wi

0101000
-211 0 +238 0 +210 1 -217 1 *
Fa
0  1e-007 3 1

0111000
+209 0 *
Ve
1.24999999959092e-007
0.310175245449678 1 1.000000025
0 0

0101101
*
Ed
 1e-007 1 1 0
1  20 0 0 1.5707963267949
2  41 5 0 0 1.5707963267949
2  42 3 2 0 1.5707963267949
0

0101000
+237 0 -207 0 *
Ve
2.00001e-007
0.689824704550301 1 1
0 0

0101101
*
Ed
 1e-007 1 1 0
1  21 0 0.31017524544966 0.689824704550301
2  43 6 0 0.31017524544966 0.689824704550301
2  44 5 0 0.31017524544966 0.689824704550301
0

0101000
+207 0 -205 0 *
Ve
2.00001e-007
1 0.689824704550301 1
0 0

0101101
*
Ed
 1e-007 1 1 0
1  22 0 4.71238898038469 6.28318530717959
2  45 5 0 4.71238898038469 6.28318530717959
2  46 3 9 4.71238898038469 6.28318530717959
0

0101000
+205 0 -203 0 *
Ve
2.00001e-007
1 0.3101751954497 1
0 0

0101101
*
Ed
 1e-007 1 1 0
1  23 0 0.3101751954497 0.689824704550301
2  47 7 0 0.3101751954497 0.689824704550301
2  48 5 0 0.3101751954497 0.689824704550301
0

0101000
+201 0 -203 0 *
Ed
 1e-007 1 1 0
1  24 0 3.14159265358979 4.71238898038469
2  49 5 0 3.14159265358979 4.71238898038469
2  50 3 6 3.14159265358979 4.71238898038469
0

0101000
+201 0 -221 0 *
Wi

0101000
-236 0 -206 0 -204 0 -202 0 +200 0 -199 0 +218 0 -211 0 *
Ve
2.00001e-007
0.8101752454497 0.5 1
0 0

0101101
*
Ve
1e-007
0.5 0.1898247545503 1
0 0

0101101
*
Ed
 1e-007 1 1 0
1  25 0 1.5707963267949 6.28318530717959
2  51 5 0 1.5707963267949 6.28318530717959
2  52 3 10 1.5707963267949 6.28318530717959
0

0101000
+197 0 -196 0 *
Ed
 1e-007 1 1 0
1  26 0 0 1.5707963267949
2  53 5 0 0 1.5707963267949
2  54 3 10 0 1.5707963267949
0

0101000
+196 0 -197 0 *
Wi

0101000
-195 0 -194 0 *
Fa
0  1e-007 5 0

0111000
+198 0 +193 0 *
Ed
 1e-007 1 1 0
1  5 0 4.71238898038469 6.28318546837878
3  9 10CN 3 0 4.71238898038469 6.28318546837878
0

0101000
+241 0 -207 11 *
Ed
 1e-007 0 0 1
2  40 3 0 4.71238898038469 6.28318530717959
0

0101100
+241 0 -241 0 *
Wi

0101000
+191 2 +190 2 +235 0 -206 0 *
Fa
0  1e-007 3 2

0111000
+189 0 *
Ve
1.00000032224293e-007
0.310175245449668 1 -3.7985512151472e-017
0 0

0101101
*
Ve
2.00001e-007
0.6898248045503 1 0
0 0

0101101
*
Ed
 1e-007 1 1 0
1  27 0 0.310175245449636 0.6898248045503
2  55 6 0 0.310175245449636 0.6898248045503
2  56 4 0 0.310175245449636 0.6898248045503
0

0101000
+187 0 -186 0 *
Ed
 1e-007 1 1 0
1  28 0 4.71238898038469 6.28318530717959
2  57 6 0 4.71238898038469 6.28318530717959
2  58 3 12 4.71238898038469 6.28318530717959
0

0101000
+186 0 -261 12 *
Ed
 1e-007 1 1 0
1  29 0 0.3101752454497 0.6898247545503
2  59 7 0 0.3101752454497 0.6898247545503
2  60 6 0 0.3101752454497 0.6898247545503
0

0101000
+261 12 -241 9 *
Ed
 1e-007 1 1 0
1  30 0 3.14159265358979 4.71238898038469
2  61 6 0 3.14159265358979 4.71238898038469
2  62 3 9 3.14159265358979 4.71238898038469
0

0101000
+241 9 -205 0 *
Ed
 1e-007 1 1 0
1  5 0 6.28318530717959 7.85398163397448
3  9 10CN 3 0 6.28318530717959 7.85398163397448
0

0101000
+187 13 -261 0 *
Wi

0101000
-185 0 -184 0 -183 0 -182 0 +204 0 +191 2 +234 0 +181 3 *
Ed
 1e-007 1 1 0
1  31 0 3.14159265358979 6.28318530717959
2  63 6 0 3.14159265358979 6.28318530717959
2  64 3 14 3.14159265358979 6.28318530717959
0

0101000
+241 14 -261 14 *
Wi

0101000
+215 14 -179 0 *
Fa
0  1e-007 6 0

0111000
+180 0 +178 0 *
Ed
 1e-007 1 1 0
1  32 0 0 1.5707963267949
2  65 4 0 0 1.5707963267949
2  66 3 3 0 1.5707963267949
0

0101000
+233 0 -187 0 *
Ed
 1e-007 0 0 1
2  13 3 0 4.71238898038469 6.28318530717959
0

0101100
-261 0 +261 0 *
Wi

0101000
+181 3 +176 0 +232 0 -175 3 *
Fa
0  1e-007 3 3

0111000
+174 0 *
Ve
2.00001e-007
1 0.6898248045503 0
0 0

0101101
*
Ed
 1e-007 1 1 0
1  33 0 4.71238898038469 6.28318530717959
2  67 4 0 4.71238898038469 6.28318530717959
2  68 3 12 4.71238898038469 6.28318530717959
0

0101000
+186 0 -172 0 *
Ve
2.00001e-007
1 0.3101752454497 0
0 0

0101101
*
Ed
 1e-007 1 1 0
1  34 0 0.3101752454497 0.6898248045503
2  69 7 0 0.3101752454497 0.6898248045503
2  70 4 0 0.3101752454497 0.6898248045503
0

0101000
+170 0 -172 0 *
Ed
 1e-007 1 1 0
1  35 0 3.14159265358979 4.71238898038469
2  71 4 0 3.14159265358979 4.71238898038469
2  72 3 5 3.14159265358979 4.71238898038469
0

0101000
+170 0 -225 0 *
Wi

0101000
-231 0 -176 0 -185 0 -171 0 +169 0 -168 0 +224 0 -249 0 *
Ve
2.00001e-007
0.8101752454497 0.5 -7.5971024302944e-017
0 0

0101101
*
Ve
1e-007
0.5 0.1898247545503 0
0 0

0101101
*
Ed
 1e-007 1 1 0
1  36 0 1.5707963267949 6.28318530717959
2  73 4 0 1.5707963267949 6.28318530717959
2  74 3 15 1.5707963267949 6.28318530717959
0

0101000
+166 0 -165 0 *
Ed
 1e-007 1 1 0
1  37 0 0 1.5707963267949
2  75 4 0 0 1.5707963267949
2  76 3 15 0 1.5707963267949
0

0101000
+165 0 -166 0 *
Wi

0101000
-164 0 -163 0 *
Fa
0  1e-007 4 0

0111000
+167 0 +162 0 *
Ed
 1e-007 0 0 1
2  40 3 0 4.71238898038469 6.28318530717959
0

0101100
+241 0 -241 0 *
Ed
 1e-007 0 0 1
2  13 3 0 4.71238898038469 6.28318530717959
0

0101100
-261 0 +261 0 *
Wi

0101000
+215 4 +160 4 +229 0 -159 4 *
Fa
0  1e-007 3 4

0111000
+158 0 *
Ed
 1e-007 0 0 1
2  40 3 0 0 1.5707963267949
0

0101100
+241 0 -241 0 *
Ed
 1e-007 0 0 1
2  13 3 0 0 1.5707963267949
0

0101100
-261 0 +261 0 *
Wi

0101000
+228 0 +156 4 -215 4 -155 4 *
Fa
0  1e-007 3 4

0111000
+154 0 *
Ed
 1e-007 1 1 0
1  38 0 4.71238898038469 6.28318530717959
2  77 7 0 4.71238898038469 6.28318530717959
2  78 3 5 4.71238898038469 6.28318530717959
0

0101000
+170 0 -261 5 *
Ed
 1e-007 0 0 1
2  13 3 0 1.5707963267949 3.14159265358979
0

0101100
-261 0 +261 0 *
Wi

0101000
+223 0 +168 0 -152 0 -151 5 *
Fa
0  1e-007 3 5

0111000
+150 0 *
Ed
 1e-007 1 1 0
1  39 0 3.14159265358979 4.71238898038469
2  79 7 0 3.14159265358979 4.71238898038469
2  80 3 6 3.14159265358979 4.71238898038469
0

0101000
+241 6 -201 0 *
Ed
 1e-007 1 1 0
1  40 0 1.5707963267949 3.14159265358979
2  81 7 0 1.5707963267949 3.14159265358979
2  82 3 9 1.5707963267949 3.14159265358979
0

0101000
+203 0 -241 9 *
Ed
 1e-007 1 1 0
1  41 0 0 1.5707963267949
2  83 7 0 0 1.5707963267949
2  84 3 12 0 1.5707963267949
0

0101000
+261 12 -172 0 *
Wi

0101000
-222 0 -148 0 -200 0 -147 0 +183 0 -146 0 +169 0 -152 0 *
Ed
 1e-007 1 1 0
1  42 0 0 3.14159265358979
2  85 7 0 0 3.14159265358979
2  86 3 16 0 3.14159265358979
0

0101000
+261 16 -241 16 *
Ed
 1e-007 1 1 0
1  43 0 3.14159265358979 6.28318530717959
2  87 7 0 3.14159265358979 6.28318530717959
2  88 3 16 3.14159265358979 6.28318530717959
0

0101000
+241 16 -261 16 *
Wi

0101000
-144 0 -143 0 *
Fa
0  1e-007 7 0

0111000
+145 0 +142 0 *
Ed
 1e-007 0 0 1
2  40 3 0 1.5707963267949 3.14159265358979
0

0101100
+241 0 -241 0 *
Wi

0101000
-148 0 -199 0 +220 0 +140 6 *
Fa
0  1e-007 3 6

0111000
+139 0 *
Ed
 1e-007 0 0 1
2  40 3 0 0 3.14159265358979
0

0101100
+241 0 -241 0 *
Ed
 1e-007 0 0 1
2  13 3 0 0 3.14159265358979
0

0101100
-261 0 +261 0 *
Wi

0101000
+214 0 +137 8 -215 8 -136 8 *
Fa
0  1e-007 3 8

0111000
+135 0 *
Ed
 1e-007 0 0 1
2  40 3 0 3.14159265358979 4.71238898038469
0

0101100
+241 0 -241 0 *
Wi

0101000
-182 0 -202 0 -147 0 +133 9 *
Fa
0  1e-007 3 9

0111000
+132 0 *
Ed
 1e-007 1 1 0
1  5 0 4.71238898038469 6.28318530717959
3  9 10CN 3 0 4.71238898038469 6.28318530717959
0

0101000
+241 0 -197 17 *
Ed
 1e-007 0 0 1
2  40 3 0 0 6.28318530717959
0

0101100
+241 0 -241 0 *
Wi

0101000
-195 0 -194 0 +130 10 +129 10 -130 10 *
Fa
0  1e-007 3 10

0111000
+128 0 *
Ed
 1e-007 0 0 1
2  13 3 0 3.14159265358979 4.71238898038469
0

0101100
-261 0 +261 0 *
Wi

0101000
-146 0 +171 0 -184 0 -126 12 *
Fa
0  1e-007 3 12

0111000
+125 0 *
Ed
 1e-007 0 0 1
2  40 3 0 3.14159265358979 6.28318530717959
0

0101100
+241 0 -241 0 *
Ed
 1e-007 0 0 1
2  13 3 0 3.14159265358979 6.28318530717959
0

0101100
-261 0 +261 0 *
Wi

0101000
+215 14 +123 14 -179 0 -122 14 *
Fa
0  1e-007 3 14

0111000
+121 0 *
Ed
 1e-007 1 1 0
1  5 0 6.28318530717959 7.85398163397448
3  9 10CN 3 0 6.28318530717959 7.85398163397448
0

0101000
+166 18 -261 0 *
Ed
 1e-007 0 0 1
2  13 3 0 0 6.28318530717959
0

0101100
+261 0 -261 0 *
Wi

0101000
+119 15 +163 0 +164 0 -119 15 -118 15 *
Fa
0  1e-007 3 15

0111000
+117 0 *
Ed
 1e-007 0 0 1
2  40 3 0 1.5707963267949 4.71238898038469
0

0101100
+241 0 -241 0 *
Ed
 1e-007 0 0 1
2  13 3 0 1.5707963267949 4.71238898038469
0

0101100
-261 0 +261 0 *
Wi

0101000
-144 0 +115 16 -143 0 -114 16 *
Fa
0  1e-007 3 16

0111000
+113 0 *
Sh

0101000
-226 0 -212 0 -208 0 +192 0 -188 0 +177 0 -173 0 -161 0 -246 0 -157 0 
-153 0 -149 0 +141 0 -138 0 -134 0 -131 0 -127 0 -124 0 -120 0 -116 0 
-112 0 *
So

0100000
+111 0 *
Ve
1e-007
0 0 1
0 0

0101101
*
Ed
 1e-007 1 1 0
1  1 0 0.6898247545503 1
2  1 1 0 0.6898247545503 1
2  2 2 0 0.6898247545503 1
0

0101000
+241 1 -109 0 *
Ed
 1e-007 1 1 0
1  8 0 0 0.3101752454497
2  16 1 0 0 0.3101752454497
2  17 5 0 0 0.3101752454497
0

0101000
+109 0 -239 0 *
Wi

0101000
-108 0 -107 0 +238 0 *
Fa
0  1e-007 1 0

0111000
+106 0 *
Ed
 1e-007 1 1 0
1  17 0 0 0.31017524544966
2  34 2 0 0 0.31017524544966
2  35 5 0 0 0.31017524544966
0

0101000
+109 0 -219 0 *
Wi

0101000
-217 1 +104 0 +108 0 *
Fa
0  1e-007 2 0

0111000
+103 0 *
Wi

0101000
-107 0 +211 0 +104 0 *
Fa
0  1e-007 5 0

0111000
+101 0 *
Sh

0101000
-105 0 -102 0 +100 0 +208 0 *
So

0100000
+99 0 *
Ve
1e-007
0 1 0
0 0

0101101
*
Ed
 1e-007 1 1 0
1  10 0 0 0.3101752454497
2  20 1 0 0 0.3101752454497
2  21 6 0 0 0.3101752454497
0

0101000
+97 0 -261 3 *
Ed
 1e-007 1 1 0
1  3 0 0.6898247545503 1
2  5 1 0 0.6898247545503 1
2  6 4 0 0.6898247545503 1
0

0101000
+233 0 -97 0 *
Wi

0101000
+232 0 +96 0 +95 0 *
Fa
0  1e-007 1 0

0111000
+94 0 *
Ed
 1e-007 1 1 0
1  27 0 0 0.310175245449636
2  55 6 0 0 0.310175245449636
2  56 4 0 0 0.310175245449636
0

0101000
+97 0 -187 0 *
Wi

0101000
-92 0 -181 3 +96 0 *
Fa
0  1e-007 6 0

0111000
+91 0 *
Wi

0101000
-95 0 -92 0 +176 0 *
Fa
0  1e-007 4 0

0111000
+89 0 *
Sh

0101000
-93 0 +173 0 +90 0 -88 0 *
So

0100000
+87 0 *
Ve
1e-007
0 1 1
0 0

0101101
*
Ed
 1e-007 1 1 0
1  8 0 0.6898248045503 1
2  16 1 0 0.6898248045503 1
2  17 5 0 0.6898248045503 1
0

0101000
+237 0 -85 0 *
Ed
 1e-007 1 1 0
1  10 0 0.6898247545503 1
2  20 1 0 0.6898247545503 1
2  21 6 0 0.6898247545503 1
0

0101000
+241 2 -85 0 *
Wi

0101000
-84 0 +83 0 +235 0 *
Fa
0  1e-007 1 0

0111000
+82 0 *
Ed
 1e-007 1 1 0
1  21 0 0 0.31017524544966
2  43 6 0 0 0.31017524544966
2  44 5 0 0 0.31017524544966
0

0101000
+85 0 -207 0 *
Wi

0101000
-84 0 -80 0 +206 0 *
Fa
0  1e-007 5 0

0111000
+79 0 *
Wi

0101000
-191 2 +80 0 +83 0 *
Fa
0  1e-007 6 0

0111000
+77 0 *
Sh

0101000
-81 0 +78 0 +76 0 +188 0 *
So

0100000
+75 0 *
Wi

0101000
+228 0 +229 0 *
Fa
0  1e-007 1 0

0111000
+73 0 *
Sh

0101000
-72 0 +153 0 +157 0 *
So

0100000
+71 0 *
Ve
1e-007
1 0 0
0 0

0101101
*
Ed
 1e-007 1 1 0
1  15 0 0 0.3101752454497
2  30 7 0 0 0.3101752454497
2  31 2 0 0 0.3101752454497
0

0101000
+69 0 -261 5 *
Ed
 1e-007 1 1 0
1  34 0 0 0.3101752454497
2  69 7 0 0 0.3101752454497
2  70 4 0 0 0.3101752454497
0

0101000
+69 0 -170 0 *
Wi

0101000
-68 0 +152 0 +67 0 *
Fa
0  1e-007 7 0

0111000
+66 0 *
Ed
 1e-007 1 1 0
1  4 0 0.6898247545503 1
2  7 2 0 0.6898247545503 1
2  8 4 0 0.6898247545503 1
0

0101000
+225 0 -69 0 *
Wi

0101000
-64 0 -68 0 +223 0 *
Fa
0  1e-007 2 0

0111000
+63 0 *
Wi

0101000
+168 0 +67 0 +64 0 *
Fa
0  1e-007 4 0

0111000
+61 0 *
Sh

0101000
+65 0 -62 0 +149 0 -60 0 *
So

0100000
+59 0 *
Ve
1e-007
1 0 1
0 0

0101101
*
Ed
 1e-007 1 1 0
1  15 0 0.6898247545503 1
2  30 7 0 0.6898247545503 1
2  31 2 0 0.6898247545503 1
0

0101000
+241 6 -57 0 *
Ed
 1e-007 1 1 0
1  23 0 0 0.3101751954497
2  47 7 0 0 0.3101751954497
2  48 5 0 0 0.3101751954497
0

0101000
+57 0 -201 0 *
Wi

0101000
-56 0 -55 0 +148 0 *
Fa
0  1e-007 7 0

0111000
+54 0 *
Ed
 1e-007 1 1 0
1  17 0 0.6898248045503 1
2  34 2 0 0.6898248045503 1
2  35 5 0 0.6898248045503 1
0

0101000
+221 0 -57 0 *
Wi

0101000
-56 0 +52 0 +220 0 *
Fa
0  1e-007 2 0

0111000
+51 0 *
Wi

0101000
+199 0 +55 0 +52 0 *
Fa
0  1e-007 5 0

0111000
+49 0 *
Sh

0101000
+53 0 -50 0 +48 0 +138 0 *
So

0100000
+47 0 *
Ve
1e-007
1 1 0
0 0

0101101
*
Ed
 1e-007 1 1 0
1  29 0 0 0.3101752454497
2  59 7 0 0 0.3101752454497
2  60 6 0 0 0.3101752454497
0

0101000
+45 0 -261 12 *
Ed
 1e-007 1 1 0
1  34 0 0.6898248045503 1
2  69 7 0 0.6898248045503 1
2  70 4 0 0.6898248045503 1
0

0101000
+172 0 -45 0 *
Wi

0101000
+146 0 +44 0 +43 0 *
Fa
0  1e-007 7 0

0111000
+42 0 *
Ed
 1e-007 1 1 0
1  27 0 0.6898248045503 1
2  55 6 0 0.6898248045503 1
2  56 4 0 0.6898248045503 1
0

0101000
+186 0 -45 0 *
Wi

0101000
-40 0 -44 0 +184 0 *
Fa
0  1e-007 6 0

0111000
+39 0 *
Wi

0101000
-40 0 +43 0 +171 0 *
Fa
0  1e-007 4 0

0111000
+37 0 *
Sh

0101000
+41 0 +124 0 +38 0 -36 0 *
So

0100000
+35 0 *
Ve
1e-007
1 1 1
0 0

0101101
*
Ed
 1e-007 1 1 0
1  23 0 0.689824704550301 1
2  47 7 0 0.689824704550301 1
2  48 5 0 0.689824704550301 1
0

0101000
+203 0 -33 0 *
Ed
 1e-007 1 1 0
1  29 0 0.6898247545503 1
2  59 7 0 0.6898247545503 1
2  60 6 0 0.6898247545503 1
0

0101000
+241 9 -33 0 *
Wi

0101000
-32 0 +31 0 +147 0 *
Fa
0  1e-007 7 0

0111000
+30 0 *
Ed
 1e-007 1 1 0
1  21 0 0.689824704550301 1
2  43 6 0 0.689824704550301 1
2  44 5 0 0.689824704550301 1
0

0101000
+205 0 -33 0 *
Wi

0101000
-28 0 +32 0 +202 0 *
Fa
0  1e-007 5 0

0111000
+27 0 *
Wi

0101000
-31 0 +28 0 +182 0 *
Fa
0  1e-007 6 0

0111000
+25 0 *
Sh

0101000
+29 0 +26 0 +24 0 +131 0 *
So

0100000
+23 0 *
Wi

0101000
+143 0 +144 0 *
Fa
0  1e-007 7 0

0111000
+21 0 *
Sh

0101000
+20 0 +112 0 *
So

0100000
+19 0 *
Wi

0101000
+214 0 -215 8 *
Fa
0  1e-007 2 0

0111000
+17 0 *
Sh

0101000
-16 0 +134 0 *
So

0100000
+15 0 *
Wi

0101000
+179 0 -215 14 *
Fa
0  1e-007 6 0

0111000
+13 0 *
Sh

0101000
+12 0 +120 0 *
So

0100000
+11 0 *
Wi

0101000
+163 0 +164 0 *
Fa
0  1e-007 4 0

0111000
+9 0 *
Sh

0101000
-8 0 +116 0 *
So

0100000
+7 0 *
Wi

0101000
+194 0 +195 0 *
Fa
0  1e-007 5 0

0111000
+5 0 *
Sh

0101000
+4 0 +127 0 *
So

0100000
+3 0 *
Co

1100000
+242 0 +110 0 +98 0 +86 0 +74 0 +70 0 +58 0 +46 0 +34 0 +22 0 
+18 0 +14 0 +10 0 +6 0 +2 0 *

+1 0 
