// CRASHES in OPTIMIZE NETGEN

Point(    1 ) = {-0.30000000E+01,  0.00000000E+00,  0.87422780E-08,  0.69999999E+00 };
Point(    2 ) = {-0.30000000E+01,  0.00000000E+00,  0.10000000E+01,  0.69999999E+00 };
Point(    3 ) = {-0.30000000E+01, -0.20000000E+01,  0.87422780E-08,  0.69999999E+00 };
Point(    4 ) = {-0.30000000E+01,  0.00000000E+00, -0.10000000E+01,  0.69999999E+00 };
Point(    5 ) = {-0.30000000E+01,  0.20000000E+01,  0.87422780E-08,  0.69999999E+00 };
Point(    6 ) = {-0.27000000E+01,  0.00000000E+00, -0.30901680E-01,  0.69999999E+00 };
Point(    7 ) = {-0.27000000E+01,  0.00000000E+00,  0.96909833E+00,  0.69999999E+00 };
Point(    8 ) = {-0.27000000E+01, -0.20000000E+01, -0.30901680E-01,  0.69999999E+00 };
Point(    9 ) = {-0.27000000E+01,  0.00000000E+00, -0.10309017E+01,  0.69999999E+00 };
Point(   10 ) = {-0.27000000E+01,  0.20000000E+01, -0.30901680E-01,  0.69999999E+00 };
Point(   11 ) = {-0.24000001E+01,  0.00000000E+00, -0.58778521E-01,  0.69999999E+00 };
Point(   12 ) = {-0.24000001E+01,  0.00000000E+00,  0.94122148E+00,  0.69999999E+00 };
Point(   13 ) = {-0.24000001E+01, -0.20000000E+01, -0.58778521E-01,  0.69999999E+00 };
Point(   14 ) = {-0.24000001E+01,  0.00000000E+00, -0.10587785E+01,  0.69999999E+00 };
Point(   15 ) = {-0.24000001E+01,  0.20000000E+01, -0.58778521E-01,  0.69999999E+00 };
Point(   16 ) = {-0.20999999E+01,  0.00000000E+00, -0.80901705E-01,  0.69999999E+00 };
Point(   17 ) = {-0.20999999E+01,  0.00000000E+00,  0.91909832E+00,  0.69999999E+00 };
Point(   18 ) = {-0.20999999E+01, -0.20000000E+01, -0.80901705E-01,  0.69999999E+00 };
Point(   19 ) = {-0.20999999E+01,  0.00000000E+00, -0.10809017E+01,  0.69999999E+00 };
Point(   20 ) = {-0.20999999E+01,  0.20000000E+01, -0.80901705E-01,  0.69999999E+00 };
Point(   21 ) = {-0.18000000E+01,  0.00000000E+00, -0.95105648E-01,  0.69999999E+00 };
Point(   22 ) = {-0.18000000E+01,  0.00000000E+00,  0.90489435E+00,  0.69999999E+00 };
Point(   23 ) = {-0.18000000E+01, -0.20000000E+01, -0.95105648E-01,  0.69999999E+00 };
Point(   24 ) = {-0.18000000E+01,  0.00000000E+00, -0.10951056E+01,  0.69999999E+00 };
Point(   25 ) = {-0.18000000E+01,  0.20000000E+01, -0.95105648E-01,  0.69999999E+00 };
Point(   26 ) = {-0.15000000E+01,  0.00000000E+00, -0.10000000E+00,  0.69999999E+00 };
Point(   27 ) = {-0.15000000E+01,  0.00000000E+00,  0.89999998E+00,  0.69999999E+00 };
Point(   28 ) = {-0.15000000E+01, -0.20000000E+01, -0.10000000E+00,  0.69999999E+00 };
Point(   29 ) = {-0.15000000E+01,  0.00000000E+00, -0.11000000E+01,  0.69999999E+00 };
Point(   30 ) = {-0.15000000E+01,  0.20000000E+01, -0.10000000E+00,  0.69999999E+00 };
Point(   31 ) = {-0.11999999E+01,  0.00000000E+00, -0.95105648E-01,  0.69999999E+00 };
Point(   32 ) = {-0.11999999E+01,  0.00000000E+00,  0.90489435E+00,  0.69999999E+00 };
Point(   33 ) = {-0.11999999E+01, -0.20000000E+01, -0.95105648E-01,  0.69999999E+00 };
Point(   34 ) = {-0.11999999E+01,  0.00000000E+00, -0.10951056E+01,  0.69999999E+00 };
Point(   35 ) = {-0.11999999E+01,  0.20000000E+01, -0.95105648E-01,  0.69999999E+00 };
Point(   36 ) = {-0.89999986E+00,  0.00000000E+00, -0.80901690E-01,  0.69999999E+00 };
Point(   37 ) = {-0.89999986E+00,  0.00000000E+00,  0.91909832E+00,  0.69999999E+00 };
Point(   38 ) = {-0.89999986E+00, -0.20000000E+01, -0.80901690E-01,  0.69999999E+00 };
Point(   39 ) = {-0.89999986E+00,  0.00000000E+00, -0.10809017E+01,  0.69999999E+00 };
Point(   40 ) = {-0.89999986E+00,  0.20000000E+01, -0.80901690E-01,  0.69999999E+00 };
Point(   41 ) = {-0.59999990E+00,  0.00000000E+00, -0.58778521E-01,  0.69999999E+00 };
Point(   42 ) = {-0.59999990E+00,  0.00000000E+00,  0.94122148E+00,  0.69999999E+00 };
Point(   43 ) = {-0.59999990E+00, -0.20000000E+01, -0.58778521E-01,  0.69999999E+00 };
Point(   44 ) = {-0.59999990E+00,  0.00000000E+00, -0.10587785E+01,  0.69999999E+00 };
Point(   45 ) = {-0.59999990E+00,  0.20000000E+01, -0.58778521E-01,  0.69999999E+00 };
Point(   46 ) = {-0.29999995E+00,  0.00000000E+00, -0.30901695E-01,  0.69999999E+00 };
Point(   47 ) = {-0.29999995E+00,  0.00000000E+00,  0.96909833E+00,  0.69999999E+00 };
Point(   48 ) = {-0.29999995E+00, -0.20000000E+01, -0.30901695E-01,  0.69999999E+00 };
Point(   49 ) = {-0.29999995E+00,  0.00000000E+00, -0.10309017E+01,  0.69999999E+00 };
Point(   50 ) = {-0.29999995E+00,  0.20000000E+01, -0.30901695E-01,  0.69999999E+00 };
Point(   51 ) = { 0.00000000E+00,  0.00000000E+00,  0.00000000E+00,  0.69999999E+00 };
Point(   52 ) = { 0.00000000E+00,  0.00000000E+00,  0.10000000E+01,  0.69999999E+00 };
Point(   53 ) = { 0.00000000E+00, -0.20000000E+01,  0.00000000E+00,  0.69999999E+00 };
Point(   54 ) = { 0.00000000E+00,  0.00000000E+00, -0.10000000E+01,  0.69999999E+00 };
Point(   55 ) = { 0.00000000E+00,  0.20000000E+01,  0.00000000E+00,  0.69999999E+00 };
Point(   56 ) = { 0.30000019E+00,  0.00000000E+00,  0.30901721E-01,  0.69999999E+00 };
Point(   57 ) = { 0.30000019E+00,  0.00000000E+00,  0.10309017E+01,  0.69999999E+00 };
Point(   58 ) = { 0.30000019E+00, -0.20000000E+01,  0.30901721E-01,  0.69999999E+00 };
Point(   59 ) = { 0.30000019E+00,  0.00000000E+00, -0.96909827E+00,  0.69999999E+00 };
Point(   60 ) = { 0.30000019E+00,  0.20000000E+01,  0.30901721E-01,  0.69999999E+00 };
Point(   61 ) = { 0.60000014E+00,  0.00000000E+00,  0.58778543E-01,  0.69999999E+00 };
Point(   62 ) = { 0.60000014E+00,  0.00000000E+00,  0.10587785E+01,  0.69999999E+00 };
Point(   63 ) = { 0.60000014E+00, -0.20000000E+01,  0.58778543E-01,  0.69999999E+00 };
Point(   64 ) = { 0.60000014E+00,  0.00000000E+00, -0.94122148E+00,  0.69999999E+00 };
Point(   65 ) = { 0.60000014E+00,  0.20000000E+01,  0.58778543E-01,  0.69999999E+00 };
Point(   66 ) = { 0.90000010E+00,  0.00000000E+00,  0.80901705E-01,  0.69999999E+00 };
Point(   67 ) = { 0.90000010E+00,  0.00000000E+00,  0.10809017E+01,  0.69999999E+00 };
Point(   68 ) = { 0.90000010E+00, -0.20000000E+01,  0.80901705E-01,  0.69999999E+00 };
Point(   69 ) = { 0.90000010E+00,  0.00000000E+00, -0.91909832E+00,  0.69999999E+00 };
Point(   70 ) = { 0.90000010E+00,  0.20000000E+01,  0.80901705E-01,  0.69999999E+00 };
Point(   71 ) = { 0.12000003E+01,  0.00000000E+00,  0.95105670E-01,  0.69999999E+00 };
Point(   72 ) = { 0.12000003E+01,  0.00000000E+00,  0.10951056E+01,  0.69999999E+00 };
Point(   73 ) = { 0.12000003E+01, -0.20000000E+01,  0.95105670E-01,  0.69999999E+00 };
Point(   74 ) = { 0.12000003E+01,  0.00000000E+00, -0.90489435E+00,  0.69999999E+00 };
Point(   75 ) = { 0.12000003E+01,  0.20000000E+01,  0.95105670E-01,  0.69999999E+00 };
Point(   76 ) = { 0.15000000E+01,  0.00000000E+00,  0.10000000E+00,  0.69999999E+00 };
Point(   77 ) = { 0.15000000E+01,  0.00000000E+00,  0.11000000E+01,  0.69999999E+00 };
Point(   78 ) = { 0.15000000E+01, -0.20000000E+01,  0.10000000E+00,  0.69999999E+00 };
Point(   79 ) = { 0.15000000E+01,  0.00000000E+00, -0.89999998E+00,  0.69999999E+00 };
Point(   80 ) = { 0.15000000E+01,  0.20000000E+01,  0.10000000E+00,  0.69999999E+00 };
Point(   81 ) = { 0.18000002E+01,  0.00000000E+00,  0.95105641E-01,  0.69999999E+00 };
Point(   82 ) = { 0.18000002E+01,  0.00000000E+00,  0.10951056E+01,  0.69999999E+00 };
Point(   83 ) = { 0.18000002E+01, -0.20000000E+01,  0.95105641E-01,  0.69999999E+00 };
Point(   84 ) = { 0.18000002E+01,  0.00000000E+00, -0.90489435E+00,  0.69999999E+00 };
Point(   85 ) = { 0.18000002E+01,  0.20000000E+01,  0.95105641E-01,  0.69999999E+00 };
Point(   86 ) = { 0.21000004E+01,  0.00000000E+00,  0.80901675E-01,  0.69999999E+00 };
Point(   87 ) = { 0.21000004E+01,  0.00000000E+00,  0.10809016E+01,  0.69999999E+00 };
Point(   88 ) = { 0.21000004E+01, -0.20000000E+01,  0.80901675E-01,  0.69999999E+00 };
Point(   89 ) = { 0.21000004E+01,  0.00000000E+00, -0.91909832E+00,  0.69999999E+00 };
Point(   90 ) = { 0.21000004E+01,  0.20000000E+01,  0.80901675E-01,  0.69999999E+00 };
Point(   91 ) = { 0.24000001E+01,  0.00000000E+00,  0.58778521E-01,  0.69999999E+00 };
Point(   92 ) = { 0.24000001E+01,  0.00000000E+00,  0.10587785E+01,  0.69999999E+00 };
Point(   93 ) = { 0.24000001E+01, -0.20000000E+01,  0.58778521E-01,  0.69999999E+00 };
Point(   94 ) = { 0.24000001E+01,  0.00000000E+00, -0.94122148E+00,  0.69999999E+00 };
Point(   95 ) = { 0.24000001E+01,  0.20000000E+01,  0.58778521E-01,  0.69999999E+00 };
Point(   96 ) = { 0.27000003E+01,  0.00000000E+00,  0.30901659E-01,  0.69999999E+00 };
Point(   97 ) = { 0.27000003E+01,  0.00000000E+00,  0.10309017E+01,  0.69999999E+00 };
Point(   98 ) = { 0.27000003E+01, -0.20000000E+01,  0.30901659E-01,  0.69999999E+00 };
Point(   99 ) = { 0.27000003E+01,  0.00000000E+00, -0.96909833E+00,  0.69999999E+00 };
Point(  100 ) = { 0.27000003E+01,  0.20000000E+01,  0.30901659E-01,  0.69999999E+00 };
Point(  101 ) = { 0.30000000E+01,  0.00000000E+00, -0.87422780E-08,  0.69999999E+00 };
Point(  102 ) = { 0.30000000E+01,  0.00000000E+00,  0.10000000E+01,  0.69999999E+00 };
Point(  103 ) = { 0.30000000E+01, -0.20000000E+01, -0.87422780E-08,  0.69999999E+00 };
Point(  104 ) = { 0.30000000E+01,  0.00000000E+00, -0.10000000E+01,  0.69999999E+00 };
Point(  105 ) = { 0.30000000E+01,  0.20000000E+01, -0.87422780E-08,  0.69999999E+00 };
Ellipse(    1 ) = {     2,      1,      3,      3 };
Ellipse(    2 ) = {     3,      1,      3,      4 };
Ellipse(    3 ) = {     4,      1,      3,      5 };
Ellipse(    4 ) = {     5,      1,      3,      2 };
Ellipse(    6 ) = {     7,      1,      7,      3 };
Ellipse(    7 ) = {     8,      1,      8,      4 };
Ellipse(    8 ) = {     9,      1,      9,      5 };
Ellipse(    9 ) = {    10,      1,     10,      2 };
Line(   10 ) = {     2,      7 };
Line(   11 ) = {     3,      8 };
Line(   12 ) = {     4,      9 };
Line(   13 ) = {     5,     10 };
Ellipse(   14 ) = {     7,      6,      8,      8 };
Ellipse(   15 ) = {     8,      6,      8,      9 };
Ellipse(   16 ) = {     9,      6,      8,     10 };
Ellipse(   17 ) = {    10,      6,      8,      7 };
Ellipse(   26 ) = {    12,      6,     12,      8 };
Ellipse(   27 ) = {    13,      6,     13,      9 };
Ellipse(   28 ) = {    14,      6,     14,     10 };
Ellipse(   29 ) = {    15,      6,     15,      7 };
Line(   30 ) = {     7,     12 };
Line(   31 ) = {     8,     13 };
Line(   32 ) = {     9,     14 };
Line(   33 ) = {    10,     15 };
Ellipse(   34 ) = {    12,     11,     13,     13 };
Ellipse(   35 ) = {    13,     11,     13,     14 };
Ellipse(   36 ) = {    14,     11,     13,     15 };
Ellipse(   37 ) = {    15,     11,     13,     12 };
Ellipse(   46 ) = {    17,     11,     17,     13 };
Ellipse(   47 ) = {    18,     11,     18,     14 };
Ellipse(   48 ) = {    19,     11,     19,     15 };
Ellipse(   49 ) = {    20,     11,     20,     12 };
Line(   50 ) = {    12,     17 };
Line(   51 ) = {    13,     18 };
Line(   52 ) = {    14,     19 };
Line(   53 ) = {    15,     20 };
Ellipse(   54 ) = {    17,     16,     18,     18 };
Ellipse(   55 ) = {    18,     16,     18,     19 };
Ellipse(   56 ) = {    19,     16,     18,     20 };
Ellipse(   57 ) = {    20,     16,     18,     17 };
Ellipse(   66 ) = {    22,     16,     22,     18 };
Ellipse(   67 ) = {    23,     16,     23,     19 };
Ellipse(   68 ) = {    24,     16,     24,     20 };
Ellipse(   69 ) = {    25,     16,     25,     17 };
Line(   70 ) = {    17,     22 };
Line(   71 ) = {    18,     23 };
Line(   72 ) = {    19,     24 };
Line(   73 ) = {    20,     25 };
Ellipse(   74 ) = {    22,     21,     23,     23 };
Ellipse(   75 ) = {    23,     21,     23,     24 };
Ellipse(   76 ) = {    24,     21,     23,     25 };
Ellipse(   77 ) = {    25,     21,     23,     22 };
Ellipse(   86 ) = {    27,     21,     27,     23 };
Ellipse(   87 ) = {    28,     21,     28,     24 };
Ellipse(   88 ) = {    29,     21,     29,     25 };
Ellipse(   89 ) = {    30,     21,     30,     22 };
Line(   90 ) = {    22,     27 };
Line(   91 ) = {    23,     28 };
Line(   92 ) = {    24,     29 };
Line(   93 ) = {    25,     30 };
Ellipse(   94 ) = {    27,     26,     28,     28 };
Ellipse(   95 ) = {    28,     26,     28,     29 };
Ellipse(   96 ) = {    29,     26,     28,     30 };
Ellipse(   97 ) = {    30,     26,     28,     27 };
Ellipse(  106 ) = {    32,     26,     32,     28 };
Ellipse(  107 ) = {    33,     26,     33,     29 };
Ellipse(  108 ) = {    34,     26,     34,     30 };
Ellipse(  109 ) = {    35,     26,     35,     27 };
Line(  110 ) = {    27,     32 };
Line(  111 ) = {    28,     33 };
Line(  112 ) = {    29,     34 };
Line(  113 ) = {    30,     35 };
Ellipse(  114 ) = {    32,     31,     33,     33 };
Ellipse(  115 ) = {    33,     31,     33,     34 };
Ellipse(  116 ) = {    34,     31,     33,     35 };
Ellipse(  117 ) = {    35,     31,     33,     32 };
Ellipse(  126 ) = {    37,     31,     37,     33 };
Ellipse(  127 ) = {    38,     31,     38,     34 };
Ellipse(  128 ) = {    39,     31,     39,     35 };
Ellipse(  129 ) = {    40,     31,     40,     32 };
Line(  130 ) = {    32,     37 };
Line(  131 ) = {    33,     38 };
Line(  132 ) = {    34,     39 };
Line(  133 ) = {    35,     40 };
Ellipse(  134 ) = {    37,     36,     38,     38 };
Ellipse(  135 ) = {    38,     36,     38,     39 };
Ellipse(  136 ) = {    39,     36,     38,     40 };
Ellipse(  137 ) = {    40,     36,     38,     37 };
Ellipse(  146 ) = {    42,     36,     42,     38 };
Ellipse(  147 ) = {    43,     36,     43,     39 };
Ellipse(  148 ) = {    44,     36,     44,     40 };
Ellipse(  149 ) = {    45,     36,     45,     37 };
Line(  150 ) = {    37,     42 };
Line(  151 ) = {    38,     43 };
Line(  152 ) = {    39,     44 };
Line(  153 ) = {    40,     45 };
Ellipse(  154 ) = {    42,     41,     43,     43 };
Ellipse(  155 ) = {    43,     41,     43,     44 };
Ellipse(  156 ) = {    44,     41,     43,     45 };
Ellipse(  157 ) = {    45,     41,     43,     42 };
Ellipse(  166 ) = {    47,     41,     47,     43 };
Ellipse(  167 ) = {    48,     41,     48,     44 };
Ellipse(  168 ) = {    49,     41,     49,     45 };
Ellipse(  169 ) = {    50,     41,     50,     42 };
Line(  170 ) = {    42,     47 };
Line(  171 ) = {    43,     48 };
Line(  172 ) = {    44,     49 };
Line(  173 ) = {    45,     50 };
Ellipse(  174 ) = {    47,     46,     48,     48 };
Ellipse(  175 ) = {    48,     46,     48,     49 };
Ellipse(  176 ) = {    49,     46,     48,     50 };
Ellipse(  177 ) = {    50,     46,     48,     47 };
Ellipse(  186 ) = {    52,     46,     52,     48 };
Ellipse(  187 ) = {    53,     46,     53,     49 };
Ellipse(  188 ) = {    54,     46,     54,     50 };
Ellipse(  189 ) = {    55,     46,     55,     47 };
Line(  190 ) = {    47,     52 };
Line(  191 ) = {    48,     53 };
Line(  192 ) = {    49,     54 };
Line(  193 ) = {    50,     55 };
Ellipse(  194 ) = {    52,     51,     53,     53 };
Ellipse(  195 ) = {    53,     51,     53,     54 };
Ellipse(  196 ) = {    54,     51,     53,     55 };
Ellipse(  197 ) = {    55,     51,     53,     52 };
Ellipse(  206 ) = {    57,     51,     57,     53 };
Ellipse(  207 ) = {    58,     51,     58,     54 };
Ellipse(  208 ) = {    59,     51,     59,     55 };
Ellipse(  209 ) = {    60,     51,     60,     52 };
Line(  210 ) = {    52,     57 };
Line(  211 ) = {    53,     58 };
Line(  212 ) = {    54,     59 };
Line(  213 ) = {    55,     60 };
Ellipse(  214 ) = {    57,     56,     58,     58 };
Ellipse(  215 ) = {    58,     56,     58,     59 };
Ellipse(  216 ) = {    59,     56,     58,     60 };
Ellipse(  217 ) = {    60,     56,     58,     57 };
Ellipse(  226 ) = {    62,     56,     62,     58 };
Ellipse(  227 ) = {    63,     56,     63,     59 };
Ellipse(  228 ) = {    64,     56,     64,     60 };
Ellipse(  229 ) = {    65,     56,     65,     57 };
Line(  230 ) = {    57,     62 };
Line(  231 ) = {    58,     63 };
Line(  232 ) = {    59,     64 };
Line(  233 ) = {    60,     65 };
Ellipse(  234 ) = {    62,     61,     63,     63 };
Ellipse(  235 ) = {    63,     61,     63,     64 };
Ellipse(  236 ) = {    64,     61,     63,     65 };
Ellipse(  237 ) = {    65,     61,     63,     62 };
Ellipse(  246 ) = {    67,     61,     67,     63 };
Ellipse(  247 ) = {    68,     61,     68,     64 };
Ellipse(  248 ) = {    69,     61,     69,     65 };
Ellipse(  249 ) = {    70,     61,     70,     62 };
Line(  250 ) = {    62,     67 };
Line(  251 ) = {    63,     68 };
Line(  252 ) = {    64,     69 };
Line(  253 ) = {    65,     70 };
Ellipse(  254 ) = {    67,     66,     68,     68 };
Ellipse(  255 ) = {    68,     66,     68,     69 };
Ellipse(  256 ) = {    69,     66,     68,     70 };
Ellipse(  257 ) = {    70,     66,     68,     67 };
Ellipse(  266 ) = {    72,     66,     72,     68 };
Ellipse(  267 ) = {    73,     66,     73,     69 };
Ellipse(  268 ) = {    74,     66,     74,     70 };
Ellipse(  269 ) = {    75,     66,     75,     67 };
Line(  270 ) = {    67,     72 };
Line(  271 ) = {    68,     73 };
Line(  272 ) = {    69,     74 };
Line(  273 ) = {    70,     75 };
Ellipse(  274 ) = {    72,     71,     73,     73 };
Ellipse(  275 ) = {    73,     71,     73,     74 };
Ellipse(  276 ) = {    74,     71,     73,     75 };
Ellipse(  277 ) = {    75,     71,     73,     72 };
Ellipse(  286 ) = {    77,     71,     77,     73 };
Ellipse(  287 ) = {    78,     71,     78,     74 };
Ellipse(  288 ) = {    79,     71,     79,     75 };
Ellipse(  289 ) = {    80,     71,     80,     72 };
Line(  290 ) = {    72,     77 };
Line(  291 ) = {    73,     78 };
Line(  292 ) = {    74,     79 };
Line(  293 ) = {    75,     80 };
Ellipse(  294 ) = {    77,     76,     78,     78 };
Ellipse(  295 ) = {    78,     76,     78,     79 };
Ellipse(  296 ) = {    79,     76,     78,     80 };
Ellipse(  297 ) = {    80,     76,     78,     77 };
Ellipse(  306 ) = {    82,     76,     82,     78 };
Ellipse(  307 ) = {    83,     76,     83,     79 };
Ellipse(  308 ) = {    84,     76,     84,     80 };
Ellipse(  309 ) = {    85,     76,     85,     77 };
Line(  310 ) = {    77,     82 };
Line(  311 ) = {    78,     83 };
Line(  312 ) = {    79,     84 };
Line(  313 ) = {    80,     85 };
Ellipse(  314 ) = {    82,     81,     83,     83 };
Ellipse(  315 ) = {    83,     81,     83,     84 };
Ellipse(  316 ) = {    84,     81,     83,     85 };
Ellipse(  317 ) = {    85,     81,     83,     82 };
Ellipse(  326 ) = {    87,     81,     87,     83 };
Ellipse(  327 ) = {    88,     81,     88,     84 };
Ellipse(  328 ) = {    89,     81,     89,     85 };
Ellipse(  329 ) = {    90,     81,     90,     82 };
Line(  330 ) = {    82,     87 };
Line(  331 ) = {    83,     88 };
Line(  332 ) = {    84,     89 };
Line(  333 ) = {    85,     90 };
Ellipse(  334 ) = {    87,     86,     88,     88 };
Ellipse(  335 ) = {    88,     86,     88,     89 };
Ellipse(  336 ) = {    89,     86,     88,     90 };
Ellipse(  337 ) = {    90,     86,     88,     87 };
Ellipse(  346 ) = {    92,     86,     92,     88 };
Ellipse(  347 ) = {    93,     86,     93,     89 };
Ellipse(  348 ) = {    94,     86,     94,     90 };
Ellipse(  349 ) = {    95,     86,     95,     87 };
Line(  350 ) = {    87,     92 };
Line(  351 ) = {    88,     93 };
Line(  352 ) = {    89,     94 };
Line(  353 ) = {    90,     95 };
Ellipse(  354 ) = {    92,     91,     93,     93 };
Ellipse(  355 ) = {    93,     91,     93,     94 };
Ellipse(  356 ) = {    94,     91,     93,     95 };
Ellipse(  357 ) = {    95,     91,     93,     92 };
Ellipse(  366 ) = {    97,     91,     97,     93 };
Ellipse(  367 ) = {    98,     91,     98,     94 };
Ellipse(  368 ) = {    99,     91,     99,     95 };
Ellipse(  369 ) = {   100,     91,    100,     92 };
Line(  370 ) = {    92,     97 };
Line(  371 ) = {    93,     98 };
Line(  372 ) = {    94,     99 };
Line(  373 ) = {    95,    100 };
Ellipse(  374 ) = {    97,     96,     98,     98 };
Ellipse(  375 ) = {    98,     96,     98,     99 };
Ellipse(  376 ) = {    99,     96,     98,    100 };
Ellipse(  377 ) = {   100,     96,     98,     97 };
Ellipse(  386 ) = {   102,     96,    102,     98 };
Ellipse(  387 ) = {   103,     96,    103,     99 };
Ellipse(  388 ) = {   104,     96,    104,    100 };
Ellipse(  389 ) = {   105,     96,    105,     97 };
Line(  390 ) = {    97,    102 };
Line(  391 ) = {    98,    103 };
Line(  392 ) = {    99,    104 };
Line(  393 ) = {   100,    105 };
Ellipse(  394 ) = {   102,    101,    103,    103 };
Ellipse(  395 ) = {   103,    101,    103,    104 };
Ellipse(  396 ) = {   104,    101,    103,    105 };
Ellipse(  397 ) = {   105,    101,    103,    102 };
Line Loop(   18 ) = {     6,     11,    -14 };
Ruled Surface(    2 ) = {    18 };
Line Loop(   19 ) = {     1,     -6,    -10 };
Ruled Surface(    3 ) = {    19 };
Line Loop(   20 ) = {     7,     12,    -15 };
Ruled Surface(    4 ) = {    20 };
Line Loop(   21 ) = {     2,     -7,    -11 };
Ruled Surface(    5 ) = {    21 };
Line Loop(   22 ) = {     8,     13,    -16 };
Ruled Surface(    6 ) = {    22 };
Line Loop(   23 ) = {     3,     -8,    -12 };
Ruled Surface(    7 ) = {    23 };
Line Loop(   24 ) = {     9,     10,    -17 };
Ruled Surface(    8 ) = {    24 };
Line Loop(   25 ) = {     4,     -9,    -13 };
Ruled Surface(    9 ) = {    25 };
Line Loop(   38 ) = {    26,     31,    -34 };
Ruled Surface(   10 ) = {    38 };
Line Loop(   39 ) = {    14,    -26,    -30 };
Ruled Surface(   11 ) = {    39 };
Line Loop(   40 ) = {    27,     32,    -35 };
Ruled Surface(   12 ) = {    40 };
Line Loop(   41 ) = {    15,    -27,    -31 };
Ruled Surface(   13 ) = {    41 };
Line Loop(   42 ) = {    28,     33,    -36 };
Ruled Surface(   14 ) = {    42 };
Line Loop(   43 ) = {    16,    -28,    -32 };
Ruled Surface(   15 ) = {    43 };
Line Loop(   44 ) = {    29,     30,    -37 };
Ruled Surface(   16 ) = {    44 };
Line Loop(   45 ) = {    17,    -29,    -33 };
Ruled Surface(   17 ) = {    45 };
Line Loop(   58 ) = {    46,     51,    -54 };
Ruled Surface(   18 ) = {    58 };
Line Loop(   59 ) = {    34,    -46,    -50 };
Ruled Surface(   19 ) = {    59 };
Line Loop(   60 ) = {    47,     52,    -55 };
Ruled Surface(   20 ) = {    60 };
Line Loop(   61 ) = {    35,    -47,    -51 };
Ruled Surface(   21 ) = {    61 };
Line Loop(   62 ) = {    48,     53,    -56 };
Ruled Surface(   22 ) = {    62 };
Line Loop(   63 ) = {    36,    -48,    -52 };
Ruled Surface(   23 ) = {    63 };
Line Loop(   64 ) = {    49,     50,    -57 };
Ruled Surface(   24 ) = {    64 };
Line Loop(   65 ) = {    37,    -49,    -53 };
Ruled Surface(   25 ) = {    65 };
Line Loop(   78 ) = {    66,     71,    -74 };
Ruled Surface(   26 ) = {    78 };
Line Loop(   79 ) = {    54,    -66,    -70 };
Ruled Surface(   27 ) = {    79 };
Line Loop(   80 ) = {    67,     72,    -75 };
Ruled Surface(   28 ) = {    80 };
Line Loop(   81 ) = {    55,    -67,    -71 };
Ruled Surface(   29 ) = {    81 };
Line Loop(   82 ) = {    68,     73,    -76 };
Ruled Surface(   30 ) = {    82 };
Line Loop(   83 ) = {    56,    -68,    -72 };
Ruled Surface(   31 ) = {    83 };
Line Loop(   84 ) = {    69,     70,    -77 };
Ruled Surface(   32 ) = {    84 };
Line Loop(   85 ) = {    57,    -69,    -73 };
Ruled Surface(   33 ) = {    85 };
Line Loop(   98 ) = {    86,     91,    -94 };
Ruled Surface(   34 ) = {    98 };
Line Loop(   99 ) = {    74,    -86,    -90 };
Ruled Surface(   35 ) = {    99 };
Line Loop(  100 ) = {    87,     92,    -95 };
Ruled Surface(   36 ) = {   100 };
Line Loop(  101 ) = {    75,    -87,    -91 };
Ruled Surface(   37 ) = {   101 };
Line Loop(  102 ) = {    88,     93,    -96 };
Ruled Surface(   38 ) = {   102 };
Line Loop(  103 ) = {    76,    -88,    -92 };
Ruled Surface(   39 ) = {   103 };
Line Loop(  104 ) = {    89,     90,    -97 };
Ruled Surface(   40 ) = {   104 };
Line Loop(  105 ) = {    77,    -89,    -93 };
Ruled Surface(   41 ) = {   105 };
Line Loop(  118 ) = {   106,    111,   -114 };
Ruled Surface(   42 ) = {   118 };
Line Loop(  119 ) = {    94,   -106,   -110 };
Ruled Surface(   43 ) = {   119 };
Line Loop(  120 ) = {   107,    112,   -115 };
Ruled Surface(   44 ) = {   120 };
Line Loop(  121 ) = {    95,   -107,   -111 };
Ruled Surface(   45 ) = {   121 };
Line Loop(  122 ) = {   108,    113,   -116 };
Ruled Surface(   46 ) = {   122 };
Line Loop(  123 ) = {    96,   -108,   -112 };
Ruled Surface(   47 ) = {   123 };
Line Loop(  124 ) = {   109,    110,   -117 };
Ruled Surface(   48 ) = {   124 };
Line Loop(  125 ) = {    97,   -109,   -113 };
Ruled Surface(   49 ) = {   125 };
Line Loop(  138 ) = {   126,    131,   -134 };
Ruled Surface(   50 ) = {   138 };
Line Loop(  139 ) = {   114,   -126,   -130 };
Ruled Surface(   51 ) = {   139 };
Line Loop(  140 ) = {   127,    132,   -135 };
Ruled Surface(   52 ) = {   140 };
Line Loop(  141 ) = {   115,   -127,   -131 };
Ruled Surface(   53 ) = {   141 };
Line Loop(  142 ) = {   128,    133,   -136 };
Ruled Surface(   54 ) = {   142 };
Line Loop(  143 ) = {   116,   -128,   -132 };
Ruled Surface(   55 ) = {   143 };
Line Loop(  144 ) = {   129,    130,   -137 };
Ruled Surface(   56 ) = {   144 };
Line Loop(  145 ) = {   117,   -129,   -133 };
Ruled Surface(   57 ) = {   145 };
Line Loop(  158 ) = {   146,    151,   -154 };
Ruled Surface(   58 ) = {   158 };
Line Loop(  159 ) = {   134,   -146,   -150 };
Ruled Surface(   59 ) = {   159 };
Line Loop(  160 ) = {   147,    152,   -155 };
Ruled Surface(   60 ) = {   160 };
Line Loop(  161 ) = {   135,   -147,   -151 };
Ruled Surface(   61 ) = {   161 };
Line Loop(  162 ) = {   148,    153,   -156 };
Ruled Surface(   62 ) = {   162 };
Line Loop(  163 ) = {   136,   -148,   -152 };
Ruled Surface(   63 ) = {   163 };
Line Loop(  164 ) = {   149,    150,   -157 };
Ruled Surface(   64 ) = {   164 };
Line Loop(  165 ) = {   137,   -149,   -153 };
Ruled Surface(   65 ) = {   165 };
Line Loop(  178 ) = {   166,    171,   -174 };
Ruled Surface(   66 ) = {   178 };
Line Loop(  179 ) = {   154,   -166,   -170 };
Ruled Surface(   67 ) = {   179 };
Line Loop(  180 ) = {   167,    172,   -175 };
Ruled Surface(   68 ) = {   180 };
Line Loop(  181 ) = {   155,   -167,   -171 };
Ruled Surface(   69 ) = {   181 };
Line Loop(  182 ) = {   168,    173,   -176 };
Ruled Surface(   70 ) = {   182 };
Line Loop(  183 ) = {   156,   -168,   -172 };
Ruled Surface(   71 ) = {   183 };
Line Loop(  184 ) = {   169,    170,   -177 };
Ruled Surface(   72 ) = {   184 };
Line Loop(  185 ) = {   157,   -169,   -173 };
Ruled Surface(   73 ) = {   185 };
Line Loop(  198 ) = {   186,    191,   -194 };
Ruled Surface(   74 ) = {   198 };
Line Loop(  199 ) = {   174,   -186,   -190 };
Ruled Surface(   75 ) = {   199 };
Line Loop(  200 ) = {   187,    192,   -195 };
Ruled Surface(   76 ) = {   200 };
Line Loop(  201 ) = {   175,   -187,   -191 };
Ruled Surface(   77 ) = {   201 };
Line Loop(  202 ) = {   188,    193,   -196 };
Ruled Surface(   78 ) = {   202 };
Line Loop(  203 ) = {   176,   -188,   -192 };
Ruled Surface(   79 ) = {   203 };
Line Loop(  204 ) = {   189,    190,   -197 };
Ruled Surface(   80 ) = {   204 };
Line Loop(  205 ) = {   177,   -189,   -193 };
Ruled Surface(   81 ) = {   205 };
Line Loop(  218 ) = {   206,    211,   -214 };
Ruled Surface(   82 ) = {   218 };
Line Loop(  219 ) = {   194,   -206,   -210 };
Ruled Surface(   83 ) = {   219 };
Line Loop(  220 ) = {   207,    212,   -215 };
Ruled Surface(   84 ) = {   220 };
Line Loop(  221 ) = {   195,   -207,   -211 };
Ruled Surface(   85 ) = {   221 };
Line Loop(  222 ) = {   208,    213,   -216 };
Ruled Surface(   86 ) = {   222 };
Line Loop(  223 ) = {   196,   -208,   -212 };
Ruled Surface(   87 ) = {   223 };
Line Loop(  224 ) = {   209,    210,   -217 };
Ruled Surface(   88 ) = {   224 };
Line Loop(  225 ) = {   197,   -209,   -213 };
Ruled Surface(   89 ) = {   225 };
Line Loop(  238 ) = {   226,    231,   -234 };
Ruled Surface(   90 ) = {   238 };
Line Loop(  239 ) = {   214,   -226,   -230 };
Ruled Surface(   91 ) = {   239 };
Line Loop(  240 ) = {   227,    232,   -235 };
Ruled Surface(   92 ) = {   240 };
Line Loop(  241 ) = {   215,   -227,   -231 };
Ruled Surface(   93 ) = {   241 };
Line Loop(  242 ) = {   228,    233,   -236 };
Ruled Surface(   94 ) = {   242 };
Line Loop(  243 ) = {   216,   -228,   -232 };
Ruled Surface(   95 ) = {   243 };
Line Loop(  244 ) = {   229,    230,   -237 };
Ruled Surface(   96 ) = {   244 };
Line Loop(  245 ) = {   217,   -229,   -233 };
Ruled Surface(   97 ) = {   245 };
Line Loop(  258 ) = {   246,    251,   -254 };
Ruled Surface(   98 ) = {   258 };
Line Loop(  259 ) = {   234,   -246,   -250 };
Ruled Surface(   99 ) = {   259 };
Line Loop(  260 ) = {   247,    252,   -255 };
Ruled Surface(  100 ) = {   260 };
Line Loop(  261 ) = {   235,   -247,   -251 };
Ruled Surface(  101 ) = {   261 };
Line Loop(  262 ) = {   248,    253,   -256 };
Ruled Surface(  102 ) = {   262 };
Line Loop(  263 ) = {   236,   -248,   -252 };
Ruled Surface(  103 ) = {   263 };
Line Loop(  264 ) = {   249,    250,   -257 };
Ruled Surface(  104 ) = {   264 };
Line Loop(  265 ) = {   237,   -249,   -253 };
Ruled Surface(  105 ) = {   265 };
Line Loop(  278 ) = {   266,    271,   -274 };
Ruled Surface(  106 ) = {   278 };
Line Loop(  279 ) = {   254,   -266,   -270 };
Ruled Surface(  107 ) = {   279 };
Line Loop(  280 ) = {   267,    272,   -275 };
Ruled Surface(  108 ) = {   280 };
Line Loop(  281 ) = {   255,   -267,   -271 };
Ruled Surface(  109 ) = {   281 };
Line Loop(  282 ) = {   268,    273,   -276 };
Ruled Surface(  110 ) = {   282 };
Line Loop(  283 ) = {   256,   -268,   -272 };
Ruled Surface(  111 ) = {   283 };
Line Loop(  284 ) = {   269,    270,   -277 };
Ruled Surface(  112 ) = {   284 };
Line Loop(  285 ) = {   257,   -269,   -273 };
Ruled Surface(  113 ) = {   285 };
Line Loop(  298 ) = {   286,    291,   -294 };
Ruled Surface(  114 ) = {   298 };
Line Loop(  299 ) = {   274,   -286,   -290 };
Ruled Surface(  115 ) = {   299 };
Line Loop(  300 ) = {   287,    292,   -295 };
Ruled Surface(  116 ) = {   300 };
Line Loop(  301 ) = {   275,   -287,   -291 };
Ruled Surface(  117 ) = {   301 };
Line Loop(  302 ) = {   288,    293,   -296 };
Ruled Surface(  118 ) = {   302 };
Line Loop(  303 ) = {   276,   -288,   -292 };
Ruled Surface(  119 ) = {   303 };
Line Loop(  304 ) = {   289,    290,   -297 };
Ruled Surface(  120 ) = {   304 };
Line Loop(  305 ) = {   277,   -289,   -293 };
Ruled Surface(  121 ) = {   305 };
Line Loop(  318 ) = {   306,    311,   -314 };
Ruled Surface(  122 ) = {   318 };
Line Loop(  319 ) = {   294,   -306,   -310 };
Ruled Surface(  123 ) = {   319 };
Line Loop(  320 ) = {   307,    312,   -315 };
Ruled Surface(  124 ) = {   320 };
Line Loop(  321 ) = {   295,   -307,   -311 };
Ruled Surface(  125 ) = {   321 };
Line Loop(  322 ) = {   308,    313,   -316 };
Ruled Surface(  126 ) = {   322 };
Line Loop(  323 ) = {   296,   -308,   -312 };
Ruled Surface(  127 ) = {   323 };
Line Loop(  324 ) = {   309,    310,   -317 };
Ruled Surface(  128 ) = {   324 };
Line Loop(  325 ) = {   297,   -309,   -313 };
Ruled Surface(  129 ) = {   325 };
Line Loop(  338 ) = {   326,    331,   -334 };
Ruled Surface(  130 ) = {   338 };
Line Loop(  339 ) = {   314,   -326,   -330 };
Ruled Surface(  131 ) = {   339 };
Line Loop(  340 ) = {   327,    332,   -335 };
Ruled Surface(  132 ) = {   340 };
Line Loop(  341 ) = {   315,   -327,   -331 };
Ruled Surface(  133 ) = {   341 };
Line Loop(  342 ) = {   328,    333,   -336 };
Ruled Surface(  134 ) = {   342 };
Line Loop(  343 ) = {   316,   -328,   -332 };
Ruled Surface(  135 ) = {   343 };
Line Loop(  344 ) = {   329,    330,   -337 };
Ruled Surface(  136 ) = {   344 };
Line Loop(  345 ) = {   317,   -329,   -333 };
Ruled Surface(  137 ) = {   345 };
Line Loop(  358 ) = {   346,    351,   -354 };
Ruled Surface(  138 ) = {   358 };
Line Loop(  359 ) = {   334,   -346,   -350 };
Ruled Surface(  139 ) = {   359 };
Line Loop(  360 ) = {   347,    352,   -355 };
Ruled Surface(  140 ) = {   360 };
Line Loop(  361 ) = {   335,   -347,   -351 };
Ruled Surface(  141 ) = {   361 };
Line Loop(  362 ) = {   348,    353,   -356 };
Ruled Surface(  142 ) = {   362 };
Line Loop(  363 ) = {   336,   -348,   -352 };
Ruled Surface(  143 ) = {   363 };
Line Loop(  364 ) = {   349,    350,   -357 };
Ruled Surface(  144 ) = {   364 };
Line Loop(  365 ) = {   337,   -349,   -353 };
Ruled Surface(  145 ) = {   365 };
Line Loop(  378 ) = {   366,    371,   -374 };
Ruled Surface(  146 ) = {   378 };
Line Loop(  379 ) = {   354,   -366,   -370 };
Ruled Surface(  147 ) = {   379 };
Line Loop(  380 ) = {   367,    372,   -375 };
Ruled Surface(  148 ) = {   380 };
Line Loop(  381 ) = {   355,   -367,   -371 };
Ruled Surface(  149 ) = {   381 };
Line Loop(  382 ) = {   368,    373,   -376 };
Ruled Surface(  150 ) = {   382 };
Line Loop(  383 ) = {   356,   -368,   -372 };
Ruled Surface(  151 ) = {   383 };
Line Loop(  384 ) = {   369,    370,   -377 };
Ruled Surface(  152 ) = {   384 };
Line Loop(  385 ) = {   357,   -369,   -373 };
Ruled Surface(  153 ) = {   385 };
Line Loop(  399 ) = {   386,    391,   -394 };
Ruled Surface(  155 ) = {   399 };
Line Loop(  400 ) = {   374,   -386,   -390 };
Ruled Surface(  156 ) = {   400 };
Line Loop(  401 ) = {   387,    392,   -395 };
Ruled Surface(  157 ) = {   401 };
Line Loop(  402 ) = {   375,   -387,   -391 };
Ruled Surface(  158 ) = {   402 };
Line Loop(  403 ) = {   388,    393,   -396 };
Ruled Surface(  159 ) = {   403 };
Line Loop(  404 ) = {   376,   -388,   -392 };
Ruled Surface(  160 ) = {   404 };
Line Loop(  405 ) = {   389,    390,   -397 };
Ruled Surface(  161 ) = {   405 };
Line Loop(  406 ) = {   377,   -389,   -393 };
Ruled Surface(  162 ) = {   406 };
Line Loop(    5) = {      1,      2,      3,      4 };
Plane Surface(    1) = {     -5 };
Line Loop(  398) = {    394,    395,    396,    397 };
Plane Surface(  154) = {    398 };
Point(  106 ) = {-0.30000000E+01, -0.30000000E+01, -0.25000000E+01,  0.69999999E+00 };
Point(  107 ) = {-0.30000000E+01,  0.30000000E+01, -0.25000000E+01,  0.69999999E+00 };
Point(  108 ) = { 0.30000000E+01,  0.30000000E+01, -0.25000000E+01,  0.69999999E+00 };
Point(  109 ) = { 0.30000000E+01, -0.30000000E+01, -0.25000000E+01,  0.69999999E+00 };
Point(  110 ) = {-0.30000000E+01, -0.30000000E+01,  0.30000000E+01,  0.69999999E+00 };
Point(  111 ) = { 0.30000000E+01, -0.30000000E+01,  0.30000000E+01,  0.69999999E+00 };
Point(  112 ) = { 0.30000000E+01,  0.30000000E+01,  0.30000000E+01,  0.69999999E+00 };
Point(  113 ) = {-0.30000000E+01,  0.30000000E+01,  0.30000000E+01,  0.69999999E+00 };
Point(  114 ) = {-0.25000000E+01, -0.25000000E+01, -0.25000000E+01,  0.69999999E+00 };
Point(  115 ) = {-0.25000000E+01,  0.25000000E+01, -0.25000000E+01,  0.69999999E+00 };
Point(  116 ) = { 0.25000000E+01,  0.25000000E+01, -0.25000000E+01,  0.69999999E+00 };
Point(  117 ) = { 0.25000000E+01, -0.25000000E+01, -0.25000000E+01,  0.69999999E+00 };
Line(  407 ) = {   106,    107 };
Line(  408 ) = {   107,    108 };
Line(  409 ) = {   108,    109 };
Line(  410 ) = {   109,    106 };
Line(  411 ) = {   110,    111 };
Line(  412 ) = {   111,    112 };
Line(  413 ) = {   112,    113 };
Line(  414 ) = {   113,    110 };
Line(  415 ) = {   106,    110 };
Line(  416 ) = {   107,    113 };
Line(  417 ) = {   108,    112 };
Line(  418 ) = {   109,    111 };
Line(  419 ) = {   114,    115 };
Line(  420 ) = {   115,    116 };
Line(  421 ) = {   116,    117 };
Line(  422 ) = {   117,    114 };
Line Loop(  423 ) = {   407,    408,    409,    410 };
Line Loop(  424 ) = {   411,    412,    413,    414 };
Line Loop(  425 ) = {  -407,    415,   -414,   -416 };
Line Loop(  426 ) = {  -408,    416,   -413,   -417 };
Line Loop(  427 ) = {  -409,    417,   -412,   -418 };
Line Loop(  428 ) = {  -410,    418,   -411,   -415 };
Line Loop(  429 ) = {   419,    420,    421,    422 };
Plane Surface(  163 ) = {   423,   -429 };
Plane Surface(  164 ) = {   424 };
Plane Surface(  165 ) = {   425,      5 };
Plane Surface(  167 ) = {   426 };
Plane Surface(  166 ) = {   427,   -398 };
Plane Surface(  168 ) = {   428 };
Plane Surface(  169 ) = {   429 };
Physical Surface(1)={   163};
Physical Surface(2)={   164};
Physical Surface(3)={   165};
Physical Surface(4)={   167};
Physical Surface(5)={   166};
Physical Surface(6)={   168};
Physical Surface(7)={   169};
Surface Loop(    0) = {    163,    164,    165,    167,    166,    168,    169 };
Surface Loop(    1) = {      2,      3,      4,      5,      6,      7,      8,      9,     10,     11,     12,     13,     14,     15,     16,     17,     18,     19,     20,     21,     22,     23,     24,     25,     26,     27,     28,     29,     30,     31,     32,     33,     34,     35,     36,     37,     38,     39,     40,     41,     42,     43,     44,     45,     46,     47,     48,     49,     50,     51,     52,     53,     54,     55,     56,     57,     58,     59,     60,     61,     62,     63,     64,     65,     66,     67,     68,     69,     70,     71,     72,     73,     74,     75,     76,     77,     78,     79,     80,     81,     82,     83,     84,     85,     86,     87,     88,     89,     90,     91,     92,     93,     94,     95,     96,     97,     98,     99,    100,    101,    102,    103,    104,    105,    106,    107,    108,    109,    110,    111,    112,    113,    114,    115,    116,    117,    118,    119,    120,    121,    122,    123,    124,    125,    126,    127,    128,    129,    130,    131,    132,    133,    134,    135,    136,    137,    138,    139,    140,    141,    142,    143,    144,    145,    146,    147,    148,    149,    150,    151,    152,    153,    155,    156,    157,    158,    159,    160,    161,    162 };Surface Loop(    2) = {      1,      2,      3,      4,      5,      6,      7,      8,      9,     10,     11,     12,     13,     14,     15,     16,     17,     18,     19,     20,     21,     22,     23,     24,     25,     26,     27,     28,     29,     30,     31,     32,     33,     34,     35,     36,     37,     38,     39,     40,     41,     42,     43,     44,     45,     46,     47,     48,     49,     50,     51,     52,     53,     54,     55,     56,     57,     58,     59,     60,     61,     62,     63,     64,     65,     66,     67,     68,     69,     70,     71,     72,     73,     74,     75,     76,     77,     78,     79,     80,     81,     82,     83,     84,     85,     86,     87,     88,     89,     90,     91,     92,     93,     94,     95,     96,     97,     98,     99,    100,    101,    102,    103,    104,    105,    106,    107,    108,    109,    110,    111,    112,    113,    114,    115,    116,    117,    118,    119,    120,    121,    122,    123,    124,    125,    126,    127,    128,    129,    130,    131,    132,    133,    134,    135,    136,    137,    138,    139,    140,    141,    142,    143,    144,    145,    146,    147,    148,    149,    150,    151,    152,    153,    155,    156,    157,    158,    159,    160,    161,    162,    154 };
Volume(    3) = {     0,     1 };
Volume(    4) = {     2 };
Physical Volume(1) = {     3 };
Physical Volume(2) = {      4 };


