DBRep_DrawableShape

CASCADE Topology V1, (c) Matra-Datavision
Locations 0
Curve2ds 6
1 0 300 1 0 
2 0 0 1 0 -0 1 100
1 6.2831853071795862 -0 0 1 
1 0 -0 0 1 
1 0 0 1 0 
2 0 0 1 0 -0 1 100
Curves 3
2 0 0 300 0 0 1 1 0 -0 -0 1 0 100
1 100 -2.4492127076447545e-14 0 0 0 1 
2 0 0 0 0 0 1 1 0 -0 -0 1 0 100
Polygon3D 0
PolygonOnTriangulations 6
37 1 3 4 5 6 7 8 9 10 11 12 13 14 15 16 17 18 19 20 21 22 23 24 25 26 27 28 29 30 31 32 33 34 35 36 37 2 
p 1.2000000008 1 0 0.174532925199433 0.349065850398866 0.523598775598299 0.698131700797732 0.872664625997165 1.0471975511966 1.22173047639603 1.39626340159546 1.5707963267949 1.74532925199433 1.91986217719376 2.0943951023932 2.26892802759263 2.44346095279206 2.61799387799149 2.79252680319093 2.96705972839036 3.14159265358979 3.31612557878922 3.49065850398866 3.66519142918809 3.83972435438752 4.01425727958696 4.18879020478639 4.36332312998582 4.53785605518525 4.71238898038469 4.88692190558412 5.06145483078355 5.23598775598299 5.41052068118242 5.58505360638185 5.75958653158128 5.93411945678072 6.10865238198015 6.28318530717959 
37 1 2 3 4 5 6 7 8 9 10 11 12 13 14 15 16 17 18 19 20 21 22 23 24 25 26 27 28 29 30 31 32 33 34 35 36 1 
p 1.2000000008 1 0 0.174532925199433 0.349065850398866 0.523598775598299 0.698131700797732 0.872664625997165 1.0471975511966 1.22173047639603 1.39626340159546 1.5707963267949 1.74532925199433 1.91986217719376 2.0943951023932 2.26892802759263 2.44346095279206 2.61799387799149 2.79252680319093 2.96705972839036 3.14159265358979 3.31612557878922 3.49065850398866 3.66519142918809 3.83972435438752 4.01425727958696 4.18879020478639 4.36332312998582 4.53785605518525 4.71238898038469 4.88692190558412 5.06145483078355 5.23598775598299 5.41052068118242 5.58505360638185 5.75958653158128 5.93411945678072 6.10865238198015 6.28318530717959 
2 38 2 
p 1.2000000008 1 0 300 
2 39 1 
p 1.2000000008 1 0 300 
37 39 40 41 42 43 44 45 46 47 48 49 50 51 52 53 54 55 56 57 58 59 60 61 62 63 64 65 66 67 68 69 70 71 72 73 74 38 
p 1.2000000008 1 0 0.174532925199433 0.349065850398866 0.523598775598299 0.698131700797732 0.872664625997165 1.0471975511966 1.22173047639603 1.39626340159546 1.5707963267949 1.74532925199433 1.91986217719376 2.0943951023932 2.26892802759263 2.44346095279206 2.61799387799149 2.79252680319093 2.96705972839036 3.14159265358979 3.31612557878922 3.49065850398866 3.66519142918809 3.83972435438752 4.01425727958696 4.18879020478639 4.36332312998582 4.53785605518525 4.71238898038469 4.88692190558412 5.06145483078355 5.23598775598299 5.41052068118242 5.58505360638185 5.75958653158128 5.93411945678072 6.10865238198015 6.28318530717959 
37 1 2 3 4 5 6 7 8 9 10 11 12 13 14 15 16 17 18 19 20 21 22 23 24 25 26 27 28 29 30 31 32 33 34 35 36 1 
p 1.2000000008 1 0 0.174532925199433 0.349065850398866 0.523598775598299 0.698131700797732 0.872664625997165 1.0471975511966 1.22173047639603 1.39626340159546 1.5707963267949 1.74532925199433 1.91986217719376 2.0943951023932 2.26892802759263 2.44346095279206 2.61799387799149 2.79252680319093 2.96705972839036 3.14159265358979 3.31612557878922 3.49065850398866 3.66519142918809 3.83972435438752 4.01425727958696 4.18879020478639 4.36332312998582 4.53785605518525 4.71238898038469 4.88692190558412 5.06145483078355 5.23598775598299 5.41052068118242 5.58505360638185 5.75958653158128 5.93411945678072 6.10865238198015 6.28318530717959 
Surfaces 3
2 0 0 0 0 0 1 1 0 -0 -0 1 0 100
1 0 0 300 0 0 1 1 0 -0 -0 1 0 
1 0 0 0 0 0 1 1 0 -0 -0 1 0 
Triangulations 3
74 72 1 0.380530190825459
100 -2.44921270764475e-14 300 100 -2.44921270764475e-14 300 98.4807753012208 17.364817766693 300 93.9692620785908 34.2020143325669 300 86.6025403784439 50 300 76.6044443118978 64.2787609686539 300 64.2787609686539 76.6044443118978 300 50 86.6025403784439 300 34.2020143325669 93.9692620785908 300 17.364817766693 98.4807753012208 300 6.12303176911189e-15 100 300 -17.364817766693 98.4807753012208 300 -34.2020143325669 93.9692620785908 300 -50 86.6025403784439 300 -64.2787609686539 76.6044443118978 300 -76.6044443118978 64.278760968654 300 -86.6025403784438 50.0000000000001 300 -93.9692620785908 34.202014332567 300 -98.4807753012208 17.3648177666932 300 -100 1.45472826493243e-13 300 -98.4807753012208 -17.3648177666929 300 -93.9692620785909 -34.2020143325667 300 -86.602540378444 -49.9999999999998 300 -76.604444311898 -64.2787609686538 300 -64.2787609686541 -76.6044443118977 300 -50.0000000000002 -86.6025403784437 300 -34.2020143325671 -93.9692620785908 300 -17.3648177666933 -98.4807753012208 300 -2.84822621217373e-13 -100 300 17.3648177666927 -98.4807753012209 300 34.2020143325666 -93.9692620785909 300 49.9999999999997 -86.602540378444 300 64.2787609686537 -76.604444311898 300 76.6044443118976 -64.2787609686542 300 86.6025403784437 -50.0000000000004 300 93.9692620785907 -34.2020143325673 300 98.4807753012207 -17.3648177666935 300 100 -2.44921270764475e-14 0 100 -2.44921270764475e-14 0 98.4807753012208 17.364817766693 0 93.9692620785908 34.2020143325669 0 86.6025403784439 50 0 76.6044443118978 64.2787609686539 0 64.2787609686539 76.6044443118978 0 50 86.6025403784439 0 34.2020143325669 93.9692620785908 0 17.364817766693 98.4807753012208 0 6.12303176911189e-15 100 0 -17.364817766693 98.4807753012208 0 -34.2020143325669 93.9692620785908 0 -50 86.6025403784439 0 -64.2787609686539 76.6044443118978 0 -76.6044443118978 64.278760968654 0 -86.6025403784438 50.0000000000001 0 -93.9692620785908 34.202014332567 0 -98.4807753012208 17.3648177666932 0 -100 1.45472826493243e-13 0 -98.4807753012208 -17.3648177666929 0 -93.9692620785909 -34.2020143325667 0 -86.602540378444 -49.9999999999998 0 -76.604444311898 -64.2787609686538 0 -64.2787609686541 -76.6044443118977 0 -50.0000000000002 -86.6025403784437 0 -34.2020143325671 -93.9692620785908 0 -17.3648177666933 -98.4807753012208 0 -2.84822621217373e-13 -100 0 17.3648177666927 -98.4807753012209 0 34.2020143325666 -93.9692620785909 0 49.9999999999997 -86.602540378444 0 64.2787609686537 -76.604444311898 0 76.6044443118976 -64.2787609686542 0 86.6025403784437 -50.0000000000004 0 93.9692620785907 -34.2020143325673 0 98.4807753012207 -17.3648177666935 0 0 300 6.28318530717959 300 0.174532925199433 300 0.349065850398866 300 0.523598775598299 300 0.698131700797732 300 0.872664625997165 300 1.0471975511966 300 1.22173047639603 300 1.39626340159546 300 1.5707963267949 300 1.74532925199433 300 1.91986217719376 300 2.0943951023932 300 2.26892802759263 300 2.44346095279206 300 2.61799387799149 300 2.79252680319093 300 2.96705972839036 300 3.14159265358979 300 3.31612557878922 300 3.49065850398866 300 3.66519142918809 300 3.83972435438752 300 4.01425727958696 300 4.18879020478639 300 4.36332312998582 300 4.53785605518525 300 4.71238898038469 300 4.88692190558412 300 5.06145483078355 300 5.23598775598299 300 5.41052068118242 300 5.58505360638185 300 5.75958653158128 300 5.93411945678072 300 6.10865238198015 300 6.28318530717959 0 0 0 0.174532925199433 0 0.349065850398866 0 0.523598775598299 0 0.698131700797732 0 0.872664625997165 0 1.0471975511966 0 1.22173047639603 0 1.39626340159546 0 1.5707963267949 0 1.74532925199433 0 1.91986217719376 0 2.0943951023932 0 2.26892802759263 0 2.44346095279206 0 2.61799387799149 0 2.79252680319093 0 2.96705972839036 0 3.14159265358979 0 3.31612557878922 0 3.49065850398866 0 3.66519142918809 0 3.83972435438752 0 4.01425727958696 0 4.18879020478639 0 4.36332312998582 0 4.53785605518525 0 4.71238898038469 0 4.88692190558412 0 5.06145483078355 0 5.23598775598299 0 5.41052068118242 0 5.58505360638185 0 5.75958653158128 0 5.93411945678072 0 6.10865238198015 0 39 40 3 41 42 5 40 41 4 43 44 7 45 46 9 46 47 10 44 45 8 42 43 6 48 49 12 50 51 14 49 50 13 52 53 16 54 55 17 55 56 18 53 54 17 51 52 14 47 48 11 1 39 3 4 41 5 40 4 3 6 43 7 8 45 9 9 46 10 44 8 7 42 6 5 11 48 12 50 14 13 13 12 49 52 15 14 10 47 11 15 52 16 17 55 18 18 56 19 53 17 16 57 20 19 57 19 56 58 59 21 60 61 23 59 60 22 62 63 26 64 65 27 65 66 28 63 64 26 61 62 25 67 68 30 69 70 32 68 69 31 71 72 34 73 74 37 74 38 37 72 73 35 70 71 33 66 67 30 20 57 21 23 22 60 21 59 22 25 24 61 27 26 64 28 27 65 25 62 26 23 61 24 30 29 66 32 31 69 33 32 70 30 68 31 35 34 72 37 36 73 2 37 38 35 73 36 33 71 34 28 66 29 21 57 58 
37 36 1 0
100 -2.44921270764475e-14 300 98.4807753012208 17.364817766693 300 93.9692620785908 34.2020143325669 300 86.6025403784439 50 300 76.6044443118978 64.2787609686539 300 64.2787609686539 76.6044443118978 300 50 86.6025403784439 300 34.2020143325669 93.9692620785908 300 17.364817766693 98.4807753012208 300 6.12303176911189e-15 100 300 -17.364817766693 98.4807753012208 300 -34.2020143325669 93.9692620785908 300 -50 86.6025403784439 300 -64.2787609686539 76.6044443118978 300 -76.6044443118978 64.278760968654 300 -86.6025403784438 50.0000000000001 300 -93.9692620785908 34.202014332567 300 -98.4807753012208 17.3648177666932 300 -100 1.45472826493243e-13 300 -98.4807753012208 -17.3648177666929 300 -93.9692620785909 -34.2020143325667 300 -86.602540378444 -49.9999999999998 300 -76.604444311898 -64.2787609686538 300 -64.2787609686541 -76.6044443118977 300 -50.0000000000002 -86.6025403784437 300 -34.2020143325671 -93.9692620785908 300 -17.3648177666933 -98.4807753012208 300 -2.84822621217373e-13 -100 300 17.3648177666927 -98.4807753012209 300 34.2020143325666 -93.9692620785909 300 49.9999999999997 -86.602540378444 300 64.2787609686537 -76.604444311898 300 76.6044443118976 -64.2787609686542 300 86.6025403784437 -50.0000000000004 300 93.9692620785907 -34.2020143325673 300 98.4807753012207 -17.3648177666935 300 0 0 300 100 0 98.4807753012208 17.364817766693 93.9692620785908 34.2020143325669 86.6025403784438 50 76.6044443118978 64.2787609686539 64.278760968654 76.6044443118978 50 86.6025403784438 34.2020143325669 93.9692620785908 17.3648177666931 98.4807753012208 0 100 -17.364817766693 98.4807753012208 -34.2020143325669 93.9692620785908 -50 86.6025403784439 -64.2787609686539 76.6044443118979 -76.6044443118978 64.278760968654 -86.6025403784438 50.0000000000001 -93.9692620785908 34.202014332567 -98.4807753012208 17.3648177666932 -100 1.4210854715202e-13 -98.4807753012208 -17.3648177666929 -93.9692620785909 -34.2020143325667 -86.602540378444 -49.9999999999998 -76.604444311898 -64.2787609686538 -64.2787609686541 -76.6044443118977 -50.0000000000002 -86.6025403784437 -34.2020143325671 -93.9692620785908 -17.3648177666933 -98.4807753012208 -2.8421709430404e-13 -100 17.3648177666927 -98.4807753012209 34.2020143325666 -93.9692620785909 49.9999999999997 -86.602540378444 64.2787609686537 -76.604444311898 76.6044443118976 -64.2787609686542 86.6025403784437 -50.0000000000004 93.9692620785907 -34.2020143325673 98.4807753012207 -17.3648177666935 0 0 20 37 19 37 20 21 37 22 23 37 26 27 37 25 26 24 25 37 22 37 21 37 23 24 37 17 18 37 16 17 18 19 37 13 14 37 12 37 11 15 37 14 12 13 37 37 15 16 28 37 27 29 30 37 37 31 32 31 37 30 29 37 28 37 33 34 36 37 35 37 34 35 33 37 32 37 36 1 6 7 37 37 9 10 8 37 7 8 9 37 3 37 2 6 37 5 37 3 4 4 5 37 2 37 1 37 10 11 
37 36 1 0
100 -2.44921270764475e-14 0 98.4807753012208 17.364817766693 0 93.9692620785908 34.2020143325669 0 86.6025403784439 50 0 76.6044443118978 64.2787609686539 0 64.2787609686539 76.6044443118978 0 50 86.6025403784439 0 34.2020143325669 93.9692620785908 0 17.364817766693 98.4807753012208 0 6.12303176911189e-15 100 0 -17.364817766693 98.4807753012208 0 -34.2020143325669 93.9692620785908 0 -50 86.6025403784439 0 -64.2787609686539 76.6044443118978 0 -76.6044443118978 64.278760968654 0 -86.6025403784438 50.0000000000001 0 -93.9692620785908 34.202014332567 0 -98.4807753012208 17.3648177666932 0 -100 1.45472826493243e-13 0 -98.4807753012208 -17.3648177666929 0 -93.9692620785909 -34.2020143325667 0 -86.602540378444 -49.9999999999998 0 -76.604444311898 -64.2787609686538 0 -64.2787609686541 -76.6044443118977 0 -50.0000000000002 -86.6025403784437 0 -34.2020143325671 -93.9692620785908 0 -17.3648177666933 -98.4807753012208 0 -2.84822621217373e-13 -100 0 17.3648177666927 -98.4807753012209 0 34.2020143325666 -93.9692620785909 0 49.9999999999997 -86.602540378444 0 64.2787609686537 -76.604444311898 0 76.6044443118976 -64.2787609686542 0 86.6025403784437 -50.0000000000004 0 93.9692620785907 -34.2020143325673 0 98.4807753012207 -17.3648177666935 0 0 0 0 100 -2.8421709430404e-14 98.4807753012208 17.364817766693 93.9692620785908 34.2020143325669 86.6025403784438 50 76.6044443118978 64.2787609686539 64.278760968654 76.6044443118978 50 86.6025403784438 34.2020143325669 93.9692620785908 17.3648177666931 98.4807753012208 0 100 -17.364817766693 98.4807753012208 -34.2020143325669 93.9692620785908 -50 86.6025403784439 -64.2787609686539 76.6044443118979 -76.6044443118978 64.278760968654 -86.6025403784438 50.0000000000001 -93.9692620785908 34.202014332567 -98.4807753012208 17.3648177666932 -100 1.4210854715202e-13 -98.4807753012208 -17.3648177666929 -93.9692620785909 -34.2020143325667 -86.602540378444 -49.9999999999998 -76.604444311898 -64.2787609686538 -64.2787609686541 -76.6044443118977 -50.0000000000002 -86.6025403784437 -34.2020143325671 -93.9692620785908 -17.3648177666933 -98.4807753012208 -2.8421709430404e-13 -100 17.3648177666927 -98.4807753012209 34.2020143325666 -93.9692620785909 49.9999999999997 -86.602540378444 64.2787609686537 -76.604444311898 76.6044443118976 -64.2787609686542 86.6025403784437 -50.0000000000004 93.9692620785907 -34.2020143325673 98.4807753012207 -17.3648177666935 0 0 20 37 19 37 20 21 37 22 23 37 26 27 37 25 26 24 25 37 22 37 21 37 23 24 37 17 18 37 16 17 18 19 37 13 14 37 12 37 11 15 37 14 12 13 37 37 15 16 28 37 27 30 37 29 37 30 31 31 32 37 37 33 34 37 35 36 34 35 37 33 37 32 37 36 1 37 7 8 7 37 6 37 9 10 9 37 8 37 10 11 3 4 37 5 6 37 37 4 5 2 3 37 37 1 2 29 37 28 

TShapes 13
Ve
1e-07
100 -2.44921270764475e-14 300
0 0

0101101
*
Ed
 1e-07 1 1 0
1  1 0 0 6.28318530717959
2  1 1 0 0 6.28318530717959
2  2 2 0 0 6.28318530717959
6  1 1 0
6  2 2 0
0

0101100
+13 0 -13 0 *
Ve
1e-07
100 -2.44921270764475e-14 0
0 0

0101101
*
Ed
 1e-07 1 1 0
1  2 0 0 300
3  3 4CN 1 0 0 300
7  3 4 1 0
0

0101000
-13 0 +11 0 *
Ed
 1e-07 1 1 0
1  3 0 0 6.28318530717959
2  5 1 0 0 6.28318530717959
2  6 3 0 0 6.28318530717959
6  5 1 0
6  6 3 0
0

0101100
+11 0 -11 0 *
Wi

0101000
-12 0 +10 0 +9 0 -10 0 *
Fa
0  1e-07 1 0
2  1
0101000
+8 0 *
Wi

0101000
+12 0 *
Fa
0  1e-07 2 0
2  2
0101000
+6 0 *
Wi

0101000
-9 0 *
Fa
0  1e-07 3 0
2  3
0101000
-4 0 *
Sh

0101100
+7 0 +5 0 -3 0 *
So

1100100
+2 0 *

+1 0 